M48
; DRILL file {KiCad 8.0.2} date 2024-05-05T15:06:13+0200
; FORMAT={-:-/ absolute / inch / decimal}
; #@! TF.CreationDate,2024-05-05T15:06:13+02:00
; #@! TF.GenerationSoftware,Kicad,Pcbnew,8.0.2
; #@! TF.FileFunction,NonPlated,1,4,NPTH
FMAT,2
INCH
; #@! TA.AperFunction,NonPlated,NPTH,ComponentDrill
T1C0.0197
; #@! TA.AperFunction,NonPlated,NPTH,ComponentDrill
T2C0.0256
%
G90
G05
T1
X0.2756Y-0.3839
X0.2756Y-0.4232
X0.2756Y-0.4626
X0.2756Y-0.502
X0.2756Y-0.8268
X0.2756Y-0.8661
X0.2756Y-0.9055
X0.2756Y-0.9449
X0.2756Y-1.2697
X0.2756Y-1.3091
X0.2756Y-1.3484
X0.2756Y-1.3878
X0.2756Y-2.3524
X0.2756Y-2.3917
X0.2756Y-2.4311
X0.2756Y-2.4705
X0.2756Y-2.7953
X0.2756Y-2.8346
X0.2756Y-2.874
X0.2756Y-2.9134
X0.2756Y-3.2382
X0.2756Y-3.2776
X0.2756Y-3.3169
X0.2756Y-3.3563
X0.2756Y-4.3209
X0.2756Y-4.3602
X0.2756Y-4.3996
X0.2756Y-4.439
X0.2756Y-4.7638
X0.2756Y-4.8031
X0.2756Y-4.8425
X0.2756Y-4.8819
X0.2756Y-5.2067
X0.2756Y-5.2461
X0.2756Y-5.2854
X0.2756Y-5.3248
X0.6759Y-1.7715
X0.6759Y-1.9685
X0.6759Y-3.7401
X0.6759Y-3.937
X0.7153Y-1.7715
X0.7153Y-1.9685
X0.7153Y-3.74
X0.7153Y-3.937
X0.7546Y-1.7715
X0.7546Y-1.9685
X0.7546Y-3.74
X0.7546Y-3.937
X0.794Y-1.7715
X0.794Y-1.9685
X0.794Y-3.74
X0.794Y-3.937
X1.1352Y-1.7714
X1.1352Y-1.9685
X1.1352Y-3.7399
X1.1352Y-3.937
X1.1746Y-1.7714
X1.1746Y-1.9685
X1.1746Y-3.7399
X1.1746Y-3.937
X1.214Y-1.7713
X1.214Y-1.9685
X1.214Y-3.7398
X1.214Y-3.937
X1.2533Y-1.7713
X1.2533Y-1.9685
X1.2533Y-3.7398
X1.2533Y-3.937
X1.5945Y-1.7712
X1.5945Y-1.9685
X1.5945Y-3.7397
X1.5945Y-3.937
X1.6339Y-1.7712
X1.6339Y-1.9685
X1.6339Y-3.7397
X1.6339Y-3.937
X1.6733Y-1.7712
X1.6733Y-1.9685
X1.6733Y-3.7397
X1.6733Y-3.937
X1.7126Y-1.7711
X1.7126Y-1.9685
X1.7126Y-3.7396
X1.7126Y-3.937
X2.0538Y-1.771
X2.0538Y-1.9685
X2.0538Y-3.7395
X2.0538Y-3.937
X2.0932Y-1.771
X2.0932Y-1.9685
X2.0932Y-3.7395
X2.0932Y-3.937
X2.1326Y-1.771
X2.1326Y-1.9685
X2.1326Y-3.7395
X2.1326Y-3.937
X2.172Y-1.771
X2.172Y-1.9685
X2.172Y-3.7395
X2.172Y-3.937
X2.5132Y-1.7708
X2.5132Y-1.9685
X2.5132Y-3.7393
X2.5132Y-3.937
X2.5525Y-1.7708
X2.5525Y-1.9685
X2.5525Y-3.7393
X2.5525Y-3.937
X2.5919Y-1.7708
X2.5919Y-1.9685
X2.5919Y-3.7393
X2.5919Y-3.937
X2.6313Y-1.7708
X2.6313Y-1.9685
X2.6313Y-3.7393
X2.6313Y-3.937
X3.0315Y-0.3839
X3.0315Y-0.4232
X3.0315Y-0.4626
X3.0315Y-0.502
X3.0315Y-0.8268
X3.0315Y-0.8661
X3.0315Y-0.9055
X3.0315Y-0.9449
X3.0315Y-1.2697
X3.0315Y-1.3091
X3.0315Y-1.3484
X3.0315Y-1.3878
X3.0315Y-2.3524
X3.0315Y-2.3917
X3.0315Y-2.4311
X3.0315Y-2.4705
X3.0315Y-2.7953
X3.0315Y-2.8346
X3.0315Y-2.874
X3.0315Y-2.9134
X3.0315Y-3.2382
X3.0315Y-3.2776
X3.0315Y-3.3169
X3.0315Y-3.3563
X3.0315Y-4.3209
X3.0315Y-4.3602
X3.0315Y-4.3996
X3.0315Y-4.439
X3.0315Y-4.7638
X3.0315Y-4.8031
X3.0315Y-4.8425
X3.0315Y-4.8819
X3.0315Y-5.2067
X3.0315Y-5.2461
X3.0315Y-5.2854
X3.0315Y-5.3248
X3.1103Y-0.3839
X3.1103Y-0.4232
X3.1103Y-0.4626
X3.1103Y-0.502
X3.1103Y-0.8268
X3.1103Y-0.8661
X3.1103Y-0.9055
X3.1103Y-0.9449
X3.1103Y-1.2697
X3.1103Y-1.3091
X3.1103Y-1.3484
X3.1103Y-1.3878
X3.1103Y-2.3524
X3.1103Y-2.3917
X3.1103Y-2.4311
X3.1103Y-2.4705
X3.1103Y-2.7953
X3.1103Y-2.8346
X3.1103Y-2.874
X3.1103Y-2.9134
X3.1103Y-3.2382
X3.1103Y-3.2776
X3.1103Y-3.3169
X3.1103Y-3.3563
X3.1103Y-4.3209
X3.1103Y-4.3602
X3.1103Y-4.3996
X3.1103Y-4.439
X3.1103Y-4.7638
X3.1103Y-4.8031
X3.1103Y-4.8425
X3.1103Y-4.8819
X3.1103Y-5.2067
X3.1103Y-5.2461
X3.1103Y-5.2854
X3.1103Y-5.3248
X3.5105Y-1.7715
X3.5105Y-1.9685
X3.5105Y-3.7401
X3.5105Y-3.937
X3.5499Y-1.7715
X3.5499Y-1.9685
X3.5499Y-3.74
X3.5499Y-3.937
X3.5893Y-1.7715
X3.5893Y-1.9685
X3.5893Y-3.74
X3.5893Y-3.937
X3.6286Y-1.7715
X3.6286Y-1.9685
X3.6286Y-3.74
X3.6286Y-3.937
X3.9699Y-1.7714
X3.9699Y-1.9685
X3.9699Y-3.7399
X3.9699Y-3.937
X4.0092Y-1.7714
X4.0092Y-1.9685
X4.0092Y-3.7399
X4.0092Y-3.937
X4.0486Y-1.7713
X4.0486Y-1.9685
X4.0486Y-3.7398
X4.0486Y-3.937
X4.088Y-1.7713
X4.088Y-1.9685
X4.088Y-3.7398
X4.088Y-3.937
X4.4292Y-1.7712
X4.4292Y-1.9685
X4.4292Y-3.7397
X4.4292Y-3.937
X4.4685Y-1.7712
X4.4685Y-1.9685
X4.4685Y-3.7397
X4.4685Y-3.937
X4.5079Y-1.7712
X4.5079Y-1.9685
X4.5079Y-3.7397
X4.5079Y-3.937
X4.5473Y-1.7711
X4.5473Y-1.9685
X4.5473Y-3.7396
X4.5473Y-3.937
X4.8885Y-1.771
X4.8885Y-1.9685
X4.8885Y-3.7395
X4.8885Y-3.937
X4.9279Y-1.771
X4.9279Y-1.9685
X4.9279Y-3.7395
X4.9279Y-3.937
X4.9672Y-1.771
X4.9672Y-1.9685
X4.9672Y-3.7395
X4.9672Y-3.937
X5.0066Y-1.771
X5.0066Y-1.9685
X5.0066Y-3.7395
X5.0066Y-3.937
X5.3478Y-1.7708
X5.3478Y-1.9685
X5.3478Y-3.7393
X5.3478Y-3.937
X5.3872Y-1.7708
X5.3872Y-1.9685
X5.3872Y-3.7393
X5.3872Y-3.937
X5.4265Y-1.7708
X5.4265Y-1.9685
X5.4265Y-3.7393
X5.4265Y-3.937
X5.4659Y-1.7708
X5.4659Y-1.9685
X5.4659Y-3.7393
X5.4659Y-3.937
X5.8662Y-0.3839
X5.8662Y-0.4232
X5.8662Y-0.4626
X5.8662Y-0.502
X5.8662Y-0.8268
X5.8662Y-0.8661
X5.8662Y-0.9055
X5.8662Y-0.9449
X5.8662Y-1.2697
X5.8662Y-1.3091
X5.8662Y-1.3484
X5.8662Y-1.3878
X5.8662Y-2.3524
X5.8662Y-2.3917
X5.8662Y-2.4311
X5.8662Y-2.4705
X5.8662Y-2.7953
X5.8662Y-2.8346
X5.8662Y-2.874
X5.8662Y-2.9134
X5.8662Y-3.2382
X5.8662Y-3.2776
X5.8662Y-3.3169
X5.8662Y-3.3563
X5.8662Y-4.3209
X5.8662Y-4.3602
X5.8662Y-4.3996
X5.8662Y-4.439
X5.8662Y-4.7638
X5.8662Y-4.8031
X5.8662Y-4.8425
X5.8662Y-4.8819
X5.8662Y-5.2067
X5.8662Y-5.2461
X5.8662Y-5.2854
X5.8662Y-5.3248
T2
X1.5398Y-0.26
X1.5398Y-2.2285
X1.5398Y-4.197
X1.7674Y-0.26
X1.7674Y-2.2285
X1.7674Y-4.197
X4.3744Y-0.26
X4.3744Y-2.2285
X4.3744Y-4.197
X4.602Y-0.26
X4.602Y-2.2285
X4.602Y-4.197
M30
