%TF.GenerationSoftware,KiCad,Pcbnew,8.0.2*%
%TF.CreationDate,2024-05-05T14:00:19+02:00*%
%TF.ProjectId,panelized,70616e65-6c69-47a6-9564-2e6b69636164,rev?*%
%TF.SameCoordinates,Original*%
%TF.FileFunction,Other,Comment*%
%FSLAX46Y46*%
G04 Gerber Fmt 4.6, Leading zero omitted, Abs format (unit mm)*
G04 Created by KiCad (PCBNEW 8.0.2) date 2024-05-05 14:00:19*
%MOMM*%
%LPD*%
G01*
G04 APERTURE LIST*
%ADD10C,0.150000*%
G04 APERTURE END LIST*
D10*
%TO.C,H2*%
X148301000Y-141500000D02*
G75*
G02*
X142701000Y-141500000I-2800000J0D01*
G01*
X142701000Y-141500000D02*
G75*
G02*
X148301000Y-141500000I2800000J0D01*
G01*
X76301000Y-41500000D02*
G75*
G02*
X70701000Y-41500000I-2800000J0D01*
G01*
X70701000Y-41500000D02*
G75*
G02*
X76301000Y-41500000I2800000J0D01*
G01*
%TO.C,H1*%
X13301000Y-41500000D02*
G75*
G02*
X7701000Y-41500000I-2800000J0D01*
G01*
X7701000Y-41500000D02*
G75*
G02*
X13301000Y-41500000I2800000J0D01*
G01*
%TO.C,H3*%
X76301000Y-53500000D02*
G75*
G02*
X70701000Y-53500000I-2800000J0D01*
G01*
X70701000Y-53500000D02*
G75*
G02*
X76301000Y-53500000I2800000J0D01*
G01*
%TO.C,H1*%
X13301000Y-141500000D02*
G75*
G02*
X7701000Y-141500000I-2800000J0D01*
G01*
X7701000Y-141500000D02*
G75*
G02*
X13301000Y-141500000I2800000J0D01*
G01*
%TO.C,H3*%
X76301000Y-3500000D02*
G75*
G02*
X70701000Y-3500000I-2800000J0D01*
G01*
X70701000Y-3500000D02*
G75*
G02*
X76301000Y-3500000I2800000J0D01*
G01*
X148301000Y-3500000D02*
G75*
G02*
X142701000Y-3500000I-2800000J0D01*
G01*
X142701000Y-3500000D02*
G75*
G02*
X148301000Y-3500000I2800000J0D01*
G01*
%TO.C,H1*%
X85301000Y-91500000D02*
G75*
G02*
X79701000Y-91500000I-2800000J0D01*
G01*
X79701000Y-91500000D02*
G75*
G02*
X85301000Y-91500000I2800000J0D01*
G01*
%TO.C,H3*%
X148301000Y-103500000D02*
G75*
G02*
X142701000Y-103500000I-2800000J0D01*
G01*
X142701000Y-103500000D02*
G75*
G02*
X148301000Y-103500000I2800000J0D01*
G01*
%TO.C,H1*%
X85301000Y-141500000D02*
G75*
G02*
X79701000Y-141500000I-2800000J0D01*
G01*
X79701000Y-141500000D02*
G75*
G02*
X85301000Y-141500000I2800000J0D01*
G01*
%TO.C,H3*%
X76301000Y-103500000D02*
G75*
G02*
X70701000Y-103500000I-2800000J0D01*
G01*
X70701000Y-103500000D02*
G75*
G02*
X76301000Y-103500000I2800000J0D01*
G01*
%TO.C,H2*%
X148301000Y-41500000D02*
G75*
G02*
X142701000Y-41500000I-2800000J0D01*
G01*
X142701000Y-41500000D02*
G75*
G02*
X148301000Y-41500000I2800000J0D01*
G01*
%TO.C,H3*%
X148301000Y-53500000D02*
G75*
G02*
X142701000Y-53500000I-2800000J0D01*
G01*
X142701000Y-53500000D02*
G75*
G02*
X148301000Y-53500000I2800000J0D01*
G01*
%TO.C,H4*%
X85301000Y-103500000D02*
G75*
G02*
X79701000Y-103500000I-2800000J0D01*
G01*
X79701000Y-103500000D02*
G75*
G02*
X85301000Y-103500000I2800000J0D01*
G01*
X85301000Y-3500000D02*
G75*
G02*
X79701000Y-3500000I-2800000J0D01*
G01*
X79701000Y-3500000D02*
G75*
G02*
X85301000Y-3500000I2800000J0D01*
G01*
%TO.C,H1*%
X85301000Y-41500000D02*
G75*
G02*
X79701000Y-41500000I-2800000J0D01*
G01*
X79701000Y-41500000D02*
G75*
G02*
X85301000Y-41500000I2800000J0D01*
G01*
%TO.C,H4*%
X13301000Y-3500000D02*
G75*
G02*
X7701000Y-3500000I-2800000J0D01*
G01*
X7701000Y-3500000D02*
G75*
G02*
X13301000Y-3500000I2800000J0D01*
G01*
X85301000Y-53500000D02*
G75*
G02*
X79701000Y-53500000I-2800000J0D01*
G01*
X79701000Y-53500000D02*
G75*
G02*
X85301000Y-53500000I2800000J0D01*
G01*
%TO.C,H2*%
X76301000Y-141500000D02*
G75*
G02*
X70701000Y-141500000I-2800000J0D01*
G01*
X70701000Y-141500000D02*
G75*
G02*
X76301000Y-141500000I2800000J0D01*
G01*
%TO.C,H1*%
X13301000Y-91500000D02*
G75*
G02*
X7701000Y-91500000I-2800000J0D01*
G01*
X7701000Y-91500000D02*
G75*
G02*
X13301000Y-91500000I2800000J0D01*
G01*
%TO.C,H2*%
X76301000Y-91500000D02*
G75*
G02*
X70701000Y-91500000I-2800000J0D01*
G01*
X70701000Y-91500000D02*
G75*
G02*
X76301000Y-91500000I2800000J0D01*
G01*
%TO.C,H4*%
X13301000Y-103500000D02*
G75*
G02*
X7701000Y-103500000I-2800000J0D01*
G01*
X7701000Y-103500000D02*
G75*
G02*
X13301000Y-103500000I2800000J0D01*
G01*
%TO.C,H2*%
X148301000Y-91500000D02*
G75*
G02*
X142701000Y-91500000I-2800000J0D01*
G01*
X142701000Y-91500000D02*
G75*
G02*
X148301000Y-91500000I2800000J0D01*
G01*
%TO.C,H4*%
X13301000Y-53500000D02*
G75*
G02*
X7701000Y-53500000I-2800000J0D01*
G01*
X7701000Y-53500000D02*
G75*
G02*
X13301000Y-53500000I2800000J0D01*
G01*
%TD*%
M02*
