%TF.GenerationSoftware,KiCad,Pcbnew,8.0.2*%
%TF.CreationDate,2024-05-05T14:00:19+02:00*%
%TF.ProjectId,panelized,70616e65-6c69-47a6-9564-2e6b69636164,rev?*%
%TF.SameCoordinates,Original*%
%TF.FileFunction,Profile,NP*%
%FSLAX46Y46*%
G04 Gerber Fmt 4.6, Leading zero omitted, Abs format (unit mm)*
G04 Created by KiCad (PCBNEW 8.0.2) date 2024-05-05 14:00:19*
%MOMM*%
%LPD*%
G01*
G04 APERTURE LIST*
%TA.AperFunction,Profile*%
%ADD10C,0.100000*%
%TD*%
G04 APERTURE END LIST*
D10*
X78002000Y-12750000D02*
X79001000Y-12750000D01*
X78000000Y-24000000D02*
X78002000Y-24000000D01*
X89167666Y-47499500D02*
X89167666Y-47501500D01*
X20167667Y-47501500D02*
X20167667Y-47499500D01*
X148783132Y-102284431D02*
X148717352Y-102119754D01*
X155113140Y-337061D02*
X154944793Y-236158D01*
X146716568Y-50217867D02*
X146548770Y-50160512D01*
X63834333Y-94978759D02*
X63834333Y-97499000D01*
X66834333Y-97501000D02*
X66834333Y-97499000D01*
X156002000Y-2000000D02*
X155992369Y-1803966D01*
X127167666Y-50000000D02*
X127167666Y-47501500D01*
X75103687Y-144596150D02*
X75263565Y-144509343D01*
X152241Y-143765366D02*
X236158Y-143942793D01*
X9623717Y-100111729D02*
X9453229Y-100160512D01*
X9285432Y-94782132D02*
X9453229Y-94839487D01*
X155765842Y-1057207D02*
X155664939Y-888860D01*
X75500438Y-100627327D02*
X75352374Y-100529745D01*
X7628328Y-143499438D02*
X7733285Y-143642371D01*
X80221196Y-50844346D02*
X80089615Y-50963224D01*
X8501562Y-44372672D02*
X8649626Y-44470255D01*
X115501000Y-97499000D02*
X115501000Y-94986857D01*
X151002000Y-124000000D02*
X151002000Y-132250000D01*
X7530745Y-101648625D02*
X7440787Y-101801442D01*
X92167666Y-94996150D02*
X100834333Y-94992698D01*
X75199556Y-100439786D02*
X75042379Y-100357684D01*
X8358629Y-44267715D02*
X8501562Y-44372672D01*
X149001000Y-121000000D02*
X149001000Y-112750000D01*
X52167666Y-44983406D02*
X52167666Y-47499500D01*
X63834333Y-44978759D02*
X63834333Y-47499500D01*
X146716568Y-217868D02*
X146548770Y-160513D01*
X79112729Y-102622716D02*
X79072645Y-102795455D01*
X76830927Y-92573798D02*
X76882596Y-92399366D01*
X10501000Y-100000000D02*
X10323728Y-100004492D01*
X151002000Y-112750000D02*
X151002000Y-121000000D01*
X10501000Y-95000000D02*
X17167667Y-94997344D01*
X20167667Y-50000000D02*
X20167667Y-47501500D01*
X81971002Y-40361D02*
X81796455Y-71646D01*
X146771411Y-94744091D02*
X146939486Y-94674471D01*
X78000000Y-109750000D02*
X77001000Y-109750000D01*
X81120754Y-100283647D02*
X80959620Y-100357683D01*
X10146911Y-50017957D02*
X9971003Y-50040360D01*
X80358628Y-144267715D02*
X80501561Y-144372672D01*
X146205544Y-100071645D02*
X146030997Y-100040360D01*
X155963570Y-143390180D02*
X155992369Y-143196034D01*
X82146910Y-50017957D02*
X81971002Y-50040360D01*
X10501000Y-50000000D02*
X10323728Y-50004492D01*
X8959621Y-50357683D02*
X8802443Y-50439786D01*
X78000000Y-82250000D02*
X77001000Y-82250000D01*
X77001000Y-21000000D02*
X77001000Y-12750000D01*
X154392180Y-38430D02*
X154198034Y-9631D01*
X28834334Y-50000000D02*
X20167667Y-50000000D01*
X149001000Y-62750000D02*
X151002000Y-62750000D01*
X74548770Y-50160512D02*
X74378283Y-50111730D01*
X148440401Y-143392558D02*
X148535456Y-143237442D01*
X8959621Y-94642316D02*
X9120755Y-94716352D01*
X74939486Y-94674471D02*
X75103687Y-94596150D01*
X146378283Y-50111730D02*
X146205544Y-50071645D01*
X77001000Y-9750000D02*
X77001000Y-3500000D01*
X145526126Y-44974899D02*
X145707987Y-44970136D01*
X124167666Y-97499000D02*
X124167666Y-97501000D01*
X80802442Y-94560213D02*
X80959620Y-94642316D01*
X17167667Y-97499000D02*
X17167667Y-97501000D01*
X147042379Y-100357684D02*
X146881245Y-100283647D01*
X75263565Y-44509343D02*
X75418679Y-44414287D01*
X79041360Y-142029997D02*
X79072645Y-142204544D01*
X124167666Y-97501000D02*
X124167666Y-100000000D01*
X5000000Y-32250000D02*
X5000000Y-24000000D01*
X76929354Y-52795455D02*
X76889269Y-52622716D01*
X155664939Y-888860D02*
X155548020Y-731214D01*
X2000000Y0D02*
X1803966Y-9631D01*
X149001000Y-3500000D02*
X148996507Y-3322728D01*
X146030997Y-50040360D02*
X145855089Y-50017957D01*
X155992369Y-143196034D02*
X156002000Y-143000000D01*
X9796456Y-100071645D02*
X9623717Y-100111729D01*
X79001000Y-53500000D02*
X79001000Y-59750000D01*
X148471254Y-51648625D02*
X148373672Y-51500561D01*
X148037774Y-101088615D02*
X147912384Y-100963225D01*
X145889350Y-94955861D02*
X146069717Y-94932114D01*
X81120754Y-50283647D02*
X80959620Y-50357683D01*
X100834333Y-50000000D02*
X92167666Y-50000000D01*
X92167666Y-97499000D02*
X92167666Y-94996150D01*
X8358629Y-144267715D02*
X8501562Y-144372672D01*
X7112730Y-102622716D02*
X7072646Y-102795455D01*
X80089615Y-44036775D02*
X80221196Y-44155653D01*
X73707987Y-44970136D02*
X73889350Y-44955861D01*
X9453229Y-50160512D02*
X9285432Y-50217867D01*
X146939486Y-44674471D02*
X147103687Y-44596150D01*
X74939486Y-44674471D02*
X75103687Y-44596150D01*
X7628328Y-43499438D02*
X7733285Y-43642371D01*
X76337359Y-143542486D02*
X76440401Y-143392558D01*
X5000000Y-12750000D02*
X7001001Y-12750000D01*
X79001000Y-135250000D02*
X79001000Y-141500000D01*
X66834333Y-44977565D02*
X73526126Y-44974899D01*
X79845346Y-101220196D02*
X79733284Y-101357628D01*
X148783132Y-52284431D02*
X148717352Y-52119754D01*
X80959620Y-94642316D02*
X81120754Y-94716352D01*
X40501000Y-94988052D02*
X40501000Y-97499000D01*
X146030997Y-100040360D02*
X145855089Y-100017957D01*
X73526126Y-94974899D02*
X73707987Y-94970136D01*
X151002000Y-24000000D02*
X151002000Y-32250000D01*
X151002000Y-121000000D02*
X149001000Y-121000000D01*
X78002000Y-121000000D02*
X78000000Y-121000000D01*
X17167667Y-97501000D02*
X17167667Y-100000000D01*
X79628327Y-51500561D02*
X79530744Y-51648625D01*
X76770200Y-92745287D02*
X76830927Y-92573798D01*
X8358629Y-732285D02*
X8221197Y-844347D01*
X80649625Y-50529744D02*
X80501561Y-50627327D01*
X148156653Y-1220197D02*
X148037774Y-1088616D01*
X149001000Y-12750000D02*
X151002000Y-12750000D01*
X77001000Y-135250000D02*
X78000000Y-135250000D01*
X73889350Y-44955861D02*
X74069717Y-44932114D01*
X149001000Y-112750000D02*
X151002000Y-112750000D01*
X80802442Y-144560213D02*
X80959620Y-144642316D01*
X146069717Y-144932114D02*
X146248594Y-144898960D01*
X1057207Y-236158D02*
X888860Y-337061D01*
X8802443Y-94560213D02*
X8959621Y-94642316D01*
X147712936Y-94200495D02*
X147851272Y-94082344D01*
X138834333Y-47501500D02*
X138834333Y-47499500D01*
X79530744Y-143351374D02*
X79628327Y-143499438D01*
X79845346Y-43779803D02*
X79964224Y-43911384D01*
X79733284Y-1357629D02*
X79628327Y-1500562D01*
X63834333Y-100000000D02*
X55167666Y-100000000D01*
X28834334Y-94992698D02*
X28834334Y-97499000D01*
X75780803Y-100844346D02*
X75643370Y-100732284D01*
X79018957Y-53145910D02*
X79005492Y-53322727D01*
X7001001Y-141500000D02*
X7005493Y-141677272D01*
X148925065Y-92222468D02*
X148958218Y-92043591D01*
X9796456Y-144928354D02*
X9971003Y-144959639D01*
X7112730Y-92377283D02*
X7161513Y-92547771D01*
X9796456Y-94928354D02*
X9971003Y-94959639D01*
X9971003Y-44959639D02*
X10146911Y-44982042D01*
X149001000Y-141500000D02*
X149001000Y-135250000D01*
X7001001Y-24000000D02*
X7001001Y-32250000D01*
X79001000Y-109750000D02*
X78002000Y-109750000D01*
X81285431Y-217868D02*
X81120754Y-283648D01*
X103834333Y-47501500D02*
X103834333Y-47499500D01*
X73889350Y-144955861D02*
X74069717Y-144932114D01*
X78002000Y-85250000D02*
X79001000Y-85250000D01*
X148960639Y-102970002D02*
X148929354Y-102795455D01*
X148889269Y-2622717D02*
X148840487Y-2452230D01*
X7218868Y-102284431D02*
X7161513Y-102452228D01*
X9971003Y-40361D02*
X9796456Y-71646D01*
X79530744Y-1648626D02*
X79440786Y-1801443D01*
X79001000Y-24000000D02*
X79001000Y-32250000D01*
X77001000Y-32250000D02*
X77001000Y-24000000D01*
X63834333Y-50000000D02*
X55167666Y-50000000D01*
X82501000Y-45000000D02*
X89167666Y-44997344D01*
X146378283Y-100111730D02*
X146205544Y-100071645D01*
X147199556Y-439787D02*
X147042379Y-357685D01*
X80089615Y-963225D02*
X79964224Y-1088616D01*
X81623716Y-111730D02*
X81453228Y-160513D01*
X9453229Y-144839487D02*
X9623717Y-144888270D01*
X74425491Y-44856490D02*
X74599922Y-44804819D01*
X63834333Y-97499000D02*
X63834333Y-97501000D01*
X28834334Y-44992698D02*
X28834334Y-47499500D01*
X75780803Y-844347D02*
X75643370Y-732285D01*
X7018958Y-103145910D02*
X7005493Y-103322727D01*
X100834333Y-47499500D02*
X100834333Y-47501500D01*
X151002000Y-109750000D02*
X149001000Y-109750000D01*
X5000000Y-82250000D02*
X5000000Y-74000000D01*
X7284648Y-92880245D02*
X7358684Y-93041379D01*
X80802442Y-50439786D02*
X80649625Y-50529744D01*
X79001000Y-12750000D02*
X79001000Y-21000000D01*
X7001001Y-82250000D02*
X5000000Y-82250000D01*
X155765842Y-143942793D02*
X155849759Y-143765366D01*
X76535456Y-93237442D02*
X76622262Y-93077564D01*
X79001000Y-112750000D02*
X79001000Y-121000000D01*
X7733285Y-93642371D02*
X7845347Y-93779803D01*
X147912384Y-963226D02*
X147780803Y-844347D01*
X146425491Y-144856490D02*
X146599922Y-144804819D01*
X79440786Y-1801443D02*
X79358683Y-1958621D01*
X81453228Y-160513D02*
X81285431Y-217868D01*
X76996507Y-53322727D02*
X76983042Y-53145910D01*
X80959620Y-100357683D02*
X80802442Y-100439786D01*
X7161513Y-2452229D02*
X7112730Y-2622717D01*
X146939486Y-94674471D02*
X147103687Y-94596150D01*
X9120755Y-94716352D02*
X9285432Y-94782132D01*
X148960639Y-52970002D02*
X148929354Y-52795455D01*
X148471254Y-101648625D02*
X148373672Y-101500561D01*
X79001000Y-41500000D02*
X79005492Y-41677272D01*
X76440401Y-93392558D02*
X76535456Y-93237442D01*
X100834333Y-100000000D02*
X92167666Y-100000000D01*
X74881245Y-50283647D02*
X74716568Y-50217867D01*
X31834334Y-50000000D02*
X31834334Y-47501500D01*
X74030997Y-50040360D02*
X73855089Y-50017957D01*
X92167666Y-50000000D02*
X92167666Y-47501500D01*
X82323727Y-94995507D02*
X82501000Y-95000000D01*
X75983234Y-93957116D02*
X76108462Y-93825152D01*
X148156653Y-101220196D02*
X148037774Y-101088615D01*
X78000000Y-21000000D02*
X77001000Y-21000000D01*
X76925065Y-92222468D02*
X76958218Y-92043591D01*
X148983042Y-53145910D02*
X148960639Y-52970002D01*
X148108462Y-143825152D02*
X148226611Y-143686816D01*
X81796455Y-94928354D02*
X81971002Y-94959639D01*
X9623717Y-94888270D02*
X9796456Y-94928354D01*
X79001000Y-71000000D02*
X78002000Y-71000000D01*
X77001000Y-82250000D02*
X77001000Y-74000000D01*
X80802442Y-100439786D02*
X80649625Y-100529744D01*
X148700581Y-42913362D02*
X148770200Y-42745287D01*
X80358628Y-732285D02*
X80221196Y-844347D01*
X148981964Y-41863224D02*
X148996237Y-41681861D01*
X149001000Y-41500000D02*
X149001000Y-35250000D01*
X78000000Y-12750000D02*
X78002000Y-12750000D01*
X31834334Y-97499000D02*
X31834334Y-94991503D01*
X112501000Y-97501000D02*
X112501000Y-100000000D01*
X9971003Y-144959639D02*
X10146911Y-144982042D01*
X76108462Y-143825152D02*
X76226611Y-143686816D01*
X43501000Y-47501500D02*
X43501000Y-47499500D01*
X52167666Y-50000000D02*
X43501000Y-50000000D01*
X74716568Y-50217867D02*
X74548770Y-50160512D01*
X1234634Y-152241D02*
X1057207Y-236158D01*
X9285432Y-100217867D02*
X9120755Y-100283647D01*
X79005492Y-3322728D02*
X79001000Y-3500000D01*
X127167666Y-47499500D02*
X127167666Y-44982211D01*
X79964224Y-43911384D02*
X80089615Y-44036775D01*
X77001000Y-59750000D02*
X77001000Y-53500000D01*
X76108462Y-43825152D02*
X76226611Y-43686816D01*
X115501000Y-94986857D02*
X124167666Y-94983406D01*
X73678272Y-4493D02*
X73501000Y0D01*
X1609820Y-38430D02*
X1419431Y-86120D01*
X149001000Y-85250000D02*
X151002000Y-85250000D01*
X82501000Y-145000000D02*
X145526126Y-144974899D01*
X79161512Y-2452229D02*
X79112729Y-2622717D01*
X79628327Y-93499438D02*
X79733284Y-93642371D01*
X7358684Y-43041379D02*
X7440787Y-43198557D01*
X76535456Y-43237442D02*
X76622262Y-43077564D01*
X81971002Y-44959639D02*
X82146910Y-44982042D01*
X73501000Y-100000000D02*
X66834333Y-100000000D01*
X7001001Y-132250000D02*
X5000000Y-132250000D01*
X79161512Y-42547771D02*
X79218867Y-42715568D01*
X146548770Y-50160512D02*
X146378283Y-50111730D01*
X80089615Y-50963224D02*
X79964224Y-51088615D01*
X74548770Y-100160512D02*
X74378283Y-100111730D01*
X148535456Y-43237442D02*
X148622262Y-43077564D01*
X124167666Y-94983406D02*
X124167666Y-97499000D01*
X8802443Y-50439786D02*
X8649626Y-50529744D01*
X79018957Y-41854089D02*
X79041360Y-42029997D01*
X73526126Y-44974899D02*
X73707987Y-44970136D01*
X5000000Y-121000000D02*
X5000000Y-112750000D01*
X148981964Y-141863224D02*
X148996237Y-141681861D01*
X79358683Y-101958620D02*
X79284647Y-102119754D01*
X75912384Y-50963225D02*
X75780803Y-50844346D01*
X77001000Y-124000000D02*
X78000000Y-124000000D01*
X146030997Y-40361D02*
X145855089Y-17958D01*
X28834334Y-100000000D02*
X20167667Y-100000000D01*
X7001001Y-124000000D02*
X7001001Y-132250000D01*
X147780803Y-844347D02*
X147643370Y-732285D01*
X82323727Y-4493D02*
X82146910Y-17958D01*
X148643315Y-51958620D02*
X148561213Y-51801443D01*
X147042379Y-50357684D02*
X146881245Y-50283647D01*
X7358684Y-93041379D02*
X7440787Y-93198557D01*
X75352374Y-100529745D02*
X75199556Y-100439786D01*
X75912384Y-963226D02*
X75780803Y-844347D01*
X154198034Y-9631D02*
X154002000Y0D01*
X76373672Y-1500562D02*
X76268715Y-1357630D01*
X8802443Y-144560213D02*
X8959621Y-144642316D01*
X8089616Y-50963224D02*
X7964225Y-51088615D01*
X43501000Y-50000000D02*
X43501000Y-47501500D01*
X147352374Y-100529745D02*
X147199556Y-100439786D01*
X0Y-143000000D02*
X9631Y-143196034D01*
X75568607Y-94311243D02*
X75712936Y-94200495D01*
X75418679Y-44414287D02*
X75568607Y-44311243D01*
X731214Y-144546020D02*
X888860Y-144662939D01*
X9796456Y-50071645D02*
X9623717Y-50111729D01*
X76889269Y-102622716D02*
X76840487Y-102452229D01*
X9631Y-1803966D02*
X0Y-2000000D01*
X76983042Y-3145911D02*
X76960639Y-2970003D01*
X78002000Y-132250000D02*
X78000000Y-132250000D01*
X31834334Y-47501500D02*
X31834334Y-47499500D01*
X89167666Y-50000000D02*
X82501000Y-50000000D01*
X5000000Y-85250000D02*
X7001001Y-85250000D01*
X148981964Y-91863224D02*
X148996237Y-91681861D01*
X147263565Y-94509343D02*
X147418679Y-94414287D01*
X75643370Y-50732284D02*
X75500438Y-50627327D01*
X75500438Y-627328D02*
X75352374Y-529746D01*
X75712936Y-44200495D02*
X75851272Y-44082344D01*
X7018958Y-141854089D02*
X7041361Y-142029997D01*
X145889350Y-144955861D02*
X146069717Y-144932114D01*
X7072646Y-92204544D02*
X7112730Y-92377283D01*
X75500438Y-50627327D02*
X75352374Y-50529745D01*
X75103687Y-44596150D02*
X75263565Y-44509343D01*
X148717352Y-102119754D02*
X148643315Y-101958620D01*
X75418679Y-94414287D02*
X75568607Y-94311243D01*
X78002000Y-21000000D02*
X78000000Y-21000000D01*
X76373672Y-51500561D02*
X76268715Y-51357629D01*
X80221196Y-844347D02*
X80089615Y-963225D01*
X79530744Y-43351374D02*
X79628327Y-43499438D01*
X31834334Y-44991503D02*
X40501000Y-44988052D01*
X7628328Y-51500561D02*
X7530745Y-51648625D01*
X7005493Y-41677272D02*
X7018958Y-41854089D01*
X7001000Y-3500000D02*
X7001001Y-9750000D01*
X7358684Y-101958620D02*
X7284648Y-102119754D01*
X148268715Y-51357629D02*
X148156653Y-51220196D01*
X10501000Y-1D02*
X10323728Y-4493D01*
X147643370Y-50732284D02*
X147500438Y-50627327D01*
X82146910Y-44982042D02*
X82323727Y-44995507D01*
X74425491Y-144856490D02*
X74599922Y-144804819D01*
X124167666Y-100000000D02*
X115501000Y-100000000D01*
X78000000Y-124000000D02*
X78002000Y-124000000D01*
X79845346Y-93779803D02*
X79964224Y-93911384D01*
X147983234Y-43957116D02*
X148108462Y-43825152D01*
X152241Y-1234634D02*
X86120Y-1419431D01*
X585787Y-144414213D02*
X731214Y-144546020D01*
X74771411Y-94744091D02*
X74939486Y-94674471D01*
X148889269Y-102622716D02*
X148840487Y-102452229D01*
X148958218Y-92043591D02*
X148981964Y-91863224D01*
X8802443Y-100439786D02*
X8649626Y-100529744D01*
X8089616Y-100963224D02*
X7964225Y-101088615D01*
X74599922Y-94804819D02*
X74771411Y-94744091D01*
X149001000Y-32250000D02*
X149001000Y-24000000D01*
X74069717Y-44932114D02*
X74248594Y-44898960D01*
X75199556Y-50439786D02*
X75042379Y-50357684D01*
X81453228Y-44839487D02*
X81623716Y-44888270D01*
X40501000Y-97501000D02*
X40501000Y-100000000D01*
X81623716Y-44888270D02*
X81796455Y-44928354D01*
X10323728Y-50004492D02*
X10146911Y-50017957D01*
X75568607Y-144311243D02*
X75712936Y-144200495D01*
X79964224Y-1088616D02*
X79845346Y-1220197D01*
X7530745Y-51648625D02*
X7440787Y-51801442D01*
X124167666Y-50000000D02*
X115501000Y-50000000D01*
X20167667Y-100000000D02*
X20167667Y-97501000D01*
X76037774Y-51088615D02*
X75912384Y-50963225D01*
X79001000Y-85250000D02*
X79001000Y-91500000D01*
X79001000Y-103500000D02*
X79001000Y-109750000D01*
X151002000Y-135250000D02*
X151002000Y-145000000D01*
X78000000Y-132250000D02*
X77001000Y-132250000D01*
X5000000Y-112750000D02*
X7001001Y-112750000D01*
X148830927Y-42573798D02*
X148882596Y-42399366D01*
X147103687Y-44596150D02*
X147263565Y-44509343D01*
X149001000Y-124000000D02*
X151002000Y-124000000D01*
X5000000Y-124000000D02*
X7001001Y-124000000D01*
X76108462Y-93825152D02*
X76226611Y-93686816D01*
X76440401Y-43392558D02*
X76535456Y-43237442D01*
X10323728Y-94995507D02*
X10501000Y-95000000D01*
X66834333Y-100000000D02*
X66834333Y-97501000D01*
X7845347Y-43779803D02*
X7964225Y-43911384D01*
X77001000Y-132250000D02*
X77001000Y-124000000D01*
X151002000Y-12750000D02*
X151002000Y-21000000D01*
X10146911Y-94982042D02*
X10323728Y-94995507D01*
X148882596Y-92399366D02*
X148925065Y-92222468D01*
X8221197Y-100844346D02*
X8089616Y-100963224D01*
X78000000Y-62750000D02*
X78002000Y-62750000D01*
X55167666Y-50000000D02*
X55167666Y-47501500D01*
X79733284Y-43642371D02*
X79845346Y-43779803D01*
X7041361Y-92029997D02*
X7072646Y-92204544D01*
X1057207Y-144763842D02*
X1234634Y-144847759D01*
X7001001Y-9750000D02*
X5000000Y-9750000D01*
X79161512Y-142547771D02*
X79218867Y-142715568D01*
X76156653Y-101220196D02*
X76037774Y-101088615D01*
X7018958Y-41854089D02*
X7041361Y-42029997D01*
X77001000Y-53500000D02*
X76996507Y-53322727D01*
X74881245Y-100283647D02*
X74716568Y-100217867D01*
X148471254Y-1648626D02*
X148373672Y-1500562D01*
X127167666Y-100000000D02*
X127167666Y-97501000D01*
X79628327Y-1500562D02*
X79530744Y-1648626D01*
X8802443Y-44560213D02*
X8959621Y-44642316D01*
X78002000Y-32250000D02*
X78000000Y-32250000D01*
X149001000Y-35250000D02*
X151002000Y-35250000D01*
X146716568Y-100217867D02*
X146548770Y-100160512D01*
X74205544Y-71646D02*
X74030997Y-40361D01*
X76440401Y-143392558D02*
X76535456Y-143237442D01*
X76717352Y-2119755D02*
X76643315Y-1958621D01*
X20167667Y-97499000D02*
X20167667Y-94996150D01*
X5000000Y-145000000D02*
X5000000Y-135250000D01*
X337061Y-144111140D02*
X453980Y-144268786D01*
X148535456Y-93237442D02*
X148622262Y-93077564D01*
X7161513Y-102452228D02*
X7112730Y-102622716D01*
X1419431Y-144913880D02*
X1609820Y-144961570D01*
X100834333Y-97499000D02*
X100834333Y-97501000D01*
X8358629Y-94267715D02*
X8501562Y-94372672D01*
X81285431Y-50217867D02*
X81120754Y-50283647D01*
X80501561Y-94372672D02*
X80649625Y-94470255D01*
X80501561Y-100627327D02*
X80358628Y-100732284D01*
X76889269Y-2622717D02*
X76840487Y-2452230D01*
X76471254Y-1648626D02*
X76373672Y-1500562D01*
X146771411Y-144744091D02*
X146939486Y-144674471D01*
X79440786Y-143198557D02*
X79530744Y-143351374D01*
X7001001Y-112750000D02*
X7001001Y-121000000D01*
X146248594Y-144898960D02*
X146425491Y-144856490D01*
X74030997Y-100040360D02*
X73855089Y-100017957D01*
X82146910Y-100017957D02*
X81971002Y-100040360D01*
X81285431Y-100217867D02*
X81120754Y-100283647D01*
X1234634Y-144847759D02*
X1419431Y-144913880D01*
X55167666Y-47501500D02*
X55167666Y-47499500D01*
X74205544Y-50071645D02*
X74030997Y-50040360D01*
X5000000Y-62750000D02*
X7001001Y-62750000D01*
X7733285Y-1357629D02*
X7628328Y-1500562D01*
X7001001Y-32250000D02*
X5000000Y-32250000D01*
X7845347Y-143779803D02*
X7964225Y-143911384D01*
X7001000Y-53500000D02*
X7001001Y-59750000D01*
X52167666Y-100000000D02*
X43501000Y-100000000D01*
X10323728Y-100004492D02*
X10146911Y-100017957D01*
X73855089Y-50017957D02*
X73678272Y-50004492D01*
X79001000Y-74000000D02*
X79001000Y-82250000D01*
X148373672Y-101500561D02*
X148268715Y-101357629D01*
X81796455Y-50071645D02*
X81623716Y-50111729D01*
X79112729Y-142377283D02*
X79161512Y-142547771D01*
X80802442Y-44560213D02*
X80959620Y-44642316D01*
X148643315Y-101958620D02*
X148561213Y-101801443D01*
X7530745Y-143351374D02*
X7628328Y-143499438D01*
X74069717Y-94932114D02*
X74248594Y-94898960D01*
X155548020Y-731214D02*
X155416213Y-585787D01*
X79161512Y-52452228D02*
X79112729Y-52622716D01*
X154767366Y-152241D02*
X154582569Y-86120D01*
X154198034Y-144990369D02*
X154392180Y-144961570D01*
X147643370Y-732285D02*
X147500438Y-627328D01*
X155113140Y-144662939D02*
X155270786Y-144546020D01*
X148373672Y-1500562D02*
X148268715Y-1357630D01*
X79005492Y-41677272D02*
X79018957Y-41854089D01*
X135834333Y-97499000D02*
X135834333Y-97501000D01*
X148535456Y-143237442D02*
X148622262Y-143077564D01*
X74425491Y-94856490D02*
X74599922Y-94804819D01*
X103834333Y-100000000D02*
X103834333Y-97501000D01*
X8221197Y-50844346D02*
X8089616Y-50963224D01*
X81453228Y-100160512D02*
X81285431Y-100217867D01*
X66834333Y-47501500D02*
X66834333Y-47499500D01*
X9631Y-143196034D02*
X38430Y-143390180D01*
X76717352Y-52119754D02*
X76643315Y-51958620D01*
X9453229Y-44839487D02*
X9623717Y-44888270D01*
X76037774Y-101088615D02*
X75912384Y-100963225D01*
X155270786Y-453980D02*
X155113140Y-337061D01*
X155992369Y-1803966D02*
X155963570Y-1609820D01*
X148037774Y-51088615D02*
X147912384Y-50963225D01*
X76996237Y-41681861D02*
X77001000Y-41500000D01*
X79440786Y-51801442D02*
X79358683Y-51958620D01*
X73707987Y-144970136D02*
X73889350Y-144955861D01*
X74248594Y-44898960D02*
X74425491Y-44856490D01*
X145855089Y-17958D02*
X145678272Y-4493D01*
X78002000Y-82250000D02*
X78000000Y-82250000D01*
X148337359Y-143542486D02*
X148440401Y-143392558D01*
X82501000Y-95000000D02*
X89167666Y-94997344D01*
X73678272Y-100004492D02*
X73501000Y-100000000D01*
X146881245Y-100283647D02*
X146716568Y-100217867D01*
X151002000Y-85250000D02*
X151002000Y-109750000D01*
X81453228Y-94839487D02*
X81623716Y-94888270D01*
X7628328Y-93499438D02*
X7733285Y-93642371D01*
X149001000Y-53500000D02*
X148996507Y-53322727D01*
X151002000Y-59750000D02*
X149001000Y-59750000D01*
X78000000Y-112750000D02*
X78002000Y-112750000D01*
X73855089Y-17958D02*
X73678272Y-4493D01*
X147500438Y-50627327D02*
X147352374Y-50529745D01*
X76700581Y-42913362D02*
X76770200Y-42745287D01*
X79001000Y-132250000D02*
X78002000Y-132250000D01*
X75263565Y-94509343D02*
X75418679Y-94414287D01*
X147103687Y-144596150D02*
X147263565Y-144509343D01*
X17167667Y-47501500D02*
X17167667Y-50000000D01*
X7005493Y-53322727D02*
X7001000Y-53500000D01*
X115501000Y-47499500D02*
X115501000Y-44986857D01*
X79072645Y-2795456D02*
X79041360Y-2970003D01*
X79964224Y-143911384D02*
X80089615Y-144036775D01*
X146069717Y-44932114D02*
X146248594Y-44898960D01*
X79005492Y-91677272D02*
X79018957Y-91854089D01*
X148226611Y-93686816D02*
X148337359Y-93542486D01*
X76981964Y-141863224D02*
X76996237Y-141681861D01*
X79284647Y-42880245D02*
X79358683Y-43041379D01*
X79112729Y-42377283D02*
X79161512Y-42547771D01*
X888860Y-144662939D02*
X1057207Y-144763842D01*
X75851272Y-94082344D02*
X75983234Y-93957116D01*
X149001000Y-135250000D02*
X151002000Y-135250000D01*
X5000000Y-132250000D02*
X5000000Y-124000000D01*
X7440787Y-1801443D02*
X7358684Y-1958621D01*
X78000000Y-121000000D02*
X77001000Y-121000000D01*
X81120754Y-44716352D02*
X81285431Y-44782132D01*
X147643370Y-100732284D02*
X147500438Y-100627327D01*
X78000000Y-85250000D02*
X78002000Y-85250000D01*
X147418679Y-94414287D02*
X147568607Y-94311243D01*
X151002000Y-74000000D02*
X151002000Y-82250000D01*
X0Y-2000000D02*
X0Y-143000000D01*
X147352374Y-529746D02*
X147199556Y-439787D01*
X79001000Y-3500000D02*
X79001000Y-9750000D01*
X5000000Y-109750000D02*
X5000000Y-85250000D01*
X78002000Y-35250000D02*
X79001000Y-35250000D01*
X453980Y-144268786D02*
X585787Y-144414213D01*
X77001000Y-62750000D02*
X78000000Y-62750000D01*
X79733284Y-93642371D02*
X79845346Y-93779803D01*
X1609820Y-144961570D02*
X1803966Y-144990369D01*
X79001000Y-141500000D02*
X79005492Y-141677272D01*
X145678272Y-4493D02*
X145501000Y0D01*
X77001000Y-109750000D02*
X77001000Y-103500000D01*
X148440401Y-93392558D02*
X148535456Y-93237442D01*
X149001000Y-74000000D02*
X151002000Y-74000000D01*
X103834333Y-97499000D02*
X103834333Y-94991503D01*
X112501000Y-44988052D02*
X112501000Y-47499500D01*
X151002000Y-62750000D02*
X151002000Y-71000000D01*
X78000000Y-59750000D02*
X77001000Y-59750000D01*
X148929354Y-52795455D02*
X148889269Y-52622716D01*
X82146910Y-144982042D02*
X82323727Y-144995507D01*
X148996507Y-103322727D02*
X148983042Y-103145910D01*
X78002000Y-109750000D02*
X78000000Y-109750000D01*
X148983042Y-103145910D02*
X148960639Y-102970002D01*
X43501000Y-94986857D02*
X52167666Y-94983406D01*
X89167666Y-100000000D02*
X82501000Y-100000000D01*
X135834333Y-97501000D02*
X135834333Y-100000000D01*
X888860Y-337061D02*
X731214Y-453980D01*
X7440787Y-43198557D02*
X7530745Y-43351374D01*
X7284648Y-52119754D02*
X7218868Y-52284431D01*
X7112730Y-142377283D02*
X7161513Y-142547771D01*
X63834333Y-97501000D02*
X63834333Y-100000000D01*
X80221196Y-100844346D02*
X80089615Y-100963224D01*
X73501000Y0D02*
X10501000Y-1D01*
X79005492Y-53322727D02*
X79001000Y-53500000D01*
X7001001Y-109750000D02*
X5000000Y-109750000D01*
X76156653Y-51220196D02*
X76037774Y-51088615D01*
X145501000Y0D02*
X82501000Y-1D01*
X148108462Y-93825152D02*
X148226611Y-93686816D01*
X148783132Y-2284432D02*
X148717352Y-2119755D01*
X148840487Y-102452229D02*
X148783132Y-102284431D01*
X145526126Y-144974899D02*
X145707987Y-144970136D01*
X76958218Y-42043591D02*
X76981964Y-41863224D01*
X337061Y-888860D02*
X236158Y-1057207D01*
X148717352Y-2119755D02*
X148643315Y-1958621D01*
X52167666Y-94983406D02*
X52167666Y-97499000D01*
X147851272Y-144082344D02*
X147983234Y-143957116D01*
X76958218Y-142043591D02*
X76981964Y-141863224D01*
X81120754Y-144716352D02*
X81285431Y-144782132D01*
X78000000Y-74000000D02*
X78002000Y-74000000D01*
X80501561Y-44372672D02*
X80649625Y-44470255D01*
X73678272Y-50004492D02*
X73501000Y-50000000D01*
X8221197Y-94155653D02*
X8358629Y-94267715D01*
X79530744Y-93351374D02*
X79628327Y-93499438D01*
X76929354Y-102795455D02*
X76889269Y-102622716D01*
X7072646Y-42204544D02*
X7112730Y-42377283D01*
X79112729Y-92377283D02*
X79161512Y-92547771D01*
X9796456Y-44928354D02*
X9971003Y-44959639D01*
X79284647Y-102119754D02*
X79218867Y-102284431D01*
X146881245Y-50283647D02*
X146716568Y-50217867D01*
X74599922Y-44804819D02*
X74771411Y-44744091D01*
X7440787Y-143198557D02*
X7530745Y-143351374D01*
X9285432Y-144782132D02*
X9453229Y-144839487D01*
X151002000Y-32250000D02*
X149001000Y-32250000D01*
X9971003Y-50040360D02*
X9796456Y-50071645D01*
X5000000Y-9750000D02*
X5000000Y0D01*
X79284647Y-2119755D02*
X79218867Y-2284432D01*
X43501000Y-97499000D02*
X43501000Y-94986857D01*
X148108462Y-43825152D02*
X148226611Y-43686816D01*
X148983042Y-3145911D02*
X148960639Y-2970003D01*
X148996237Y-91681861D02*
X149001000Y-91500000D01*
X78000000Y-35250000D02*
X78002000Y-35250000D01*
X145678272Y-100004492D02*
X145501000Y-100000000D01*
X55167666Y-47499500D02*
X55167666Y-44982211D01*
X138834333Y-94977565D02*
X145526126Y-94974899D01*
X76226611Y-143686816D02*
X76337359Y-143542486D01*
X79964224Y-101088615D02*
X79845346Y-101220196D01*
X7001001Y-85250000D02*
X7001001Y-91500000D01*
X28834334Y-47499500D02*
X28834334Y-47501500D01*
X7440787Y-101801442D02*
X7358684Y-101958620D01*
X147780803Y-100844346D02*
X147643370Y-100732284D01*
X81623716Y-50111729D02*
X81453228Y-50160512D01*
X9285432Y-50217867D02*
X9120755Y-50283647D01*
X7001001Y-35250000D02*
X7001001Y-41500000D01*
X155915880Y-1419431D02*
X155849759Y-1234634D01*
X148996237Y-141681861D02*
X149001000Y-141500000D01*
X66834333Y-94977565D02*
X73526126Y-94974899D01*
X5000000Y-74000000D02*
X7001001Y-74000000D01*
X81623716Y-100111729D02*
X81453228Y-100160512D01*
X7072646Y-2795456D02*
X7041361Y-2970003D01*
X7041361Y-42029997D02*
X7072646Y-42204544D01*
X147500438Y-627328D02*
X147352374Y-529746D01*
X155849759Y-1234634D02*
X155765842Y-1057207D01*
X7005493Y-103322727D02*
X7001000Y-103500000D01*
X8089616Y-144036775D02*
X8221197Y-144155653D01*
X147263565Y-144509343D02*
X147418679Y-144414287D01*
X138834333Y-97501000D02*
X138834333Y-97499000D01*
X66834333Y-97499000D02*
X66834333Y-94977565D01*
X8959621Y-357684D02*
X8802443Y-439787D01*
X149001000Y-91500000D02*
X149001000Y-85250000D01*
X149001000Y-82250000D02*
X149001000Y-74000000D01*
X77001000Y-35250000D02*
X78000000Y-35250000D01*
X75199556Y-439787D02*
X75042379Y-357685D01*
X76925065Y-42222468D02*
X76958218Y-42043591D01*
X43501000Y-44986857D02*
X52167666Y-44983406D01*
X5000000Y-35250000D02*
X7001001Y-35250000D01*
X146771411Y-44744091D02*
X146939486Y-44674471D01*
X55167666Y-94982211D02*
X63834333Y-94978759D01*
X148268715Y-101357629D02*
X148156653Y-101220196D01*
X40501000Y-47501500D02*
X40501000Y-50000000D01*
X127167666Y-47501500D02*
X127167666Y-47499500D01*
X135834333Y-44978759D02*
X135834333Y-47499500D01*
X79530744Y-101648625D02*
X79440786Y-101801442D01*
X138834333Y-47499500D02*
X138834333Y-44977565D01*
X79218867Y-142715568D02*
X79284647Y-142880245D01*
X76037774Y-1088616D02*
X75912384Y-963226D01*
X7530745Y-43351374D02*
X7628328Y-43499438D01*
X75851272Y-44082344D02*
X75983234Y-43957116D01*
X10323728Y-4493D02*
X10146911Y-17958D01*
X73855089Y-100017957D02*
X73678272Y-100004492D01*
X79041360Y-2970003D02*
X79018957Y-3145911D01*
X135834333Y-100000000D02*
X127167666Y-100000000D01*
X38430Y-1609820D02*
X9631Y-1803966D01*
X78002000Y-62750000D02*
X79001000Y-62750000D01*
X103834333Y-97501000D02*
X103834333Y-97499000D01*
X7161513Y-52452228D02*
X7112730Y-52622716D01*
X9120755Y-100283647D02*
X8959621Y-100357683D01*
X5000000Y-21000000D02*
X5000000Y-12750000D01*
X8221197Y-144155653D02*
X8358629Y-144267715D01*
X76929354Y-2795456D02*
X76889269Y-2622717D01*
X2000000Y-145000000D02*
X5000000Y-145000000D01*
X10501000Y-145000000D02*
X73526126Y-144974899D01*
X76561213Y-1801444D02*
X76471254Y-1648626D01*
X79001000Y-32250000D02*
X78002000Y-32250000D01*
X7001001Y-12750000D02*
X7001001Y-21000000D01*
X63834333Y-47499500D02*
X63834333Y-47501500D01*
X76268715Y-1357630D02*
X76156653Y-1220197D01*
X5000000Y0D02*
X2000000Y0D01*
X8501562Y-144372672D02*
X8649626Y-144470255D01*
X9120755Y-44716352D02*
X9285432Y-44782132D01*
X7733285Y-101357628D02*
X7628328Y-101500561D01*
X80959620Y-357684D02*
X80802442Y-439787D01*
X154392180Y-144961570D02*
X154582569Y-144913880D01*
X9453229Y-160513D02*
X9285432Y-217868D01*
X145501000Y-50000000D02*
X138834333Y-50000000D01*
X79072645Y-92204544D02*
X79112729Y-92377283D01*
X92167666Y-47501500D02*
X92167666Y-47499500D01*
X148373672Y-51500561D02*
X148268715Y-51357629D01*
X148561213Y-101801443D02*
X148471254Y-101648625D01*
X7284648Y-102119754D02*
X7218868Y-102284431D01*
X76882596Y-142399366D02*
X76925065Y-142222468D01*
X7001001Y-62750000D02*
X7001001Y-71000000D01*
X76622262Y-93077564D02*
X76700581Y-92913362D01*
X80501561Y-144372672D02*
X80649625Y-144470255D01*
X79284647Y-142880245D02*
X79358683Y-143041379D01*
X79001000Y-62750000D02*
X79001000Y-71000000D01*
X74939486Y-144674471D02*
X75103687Y-144596150D01*
X147352374Y-50529745D02*
X147199556Y-50439786D01*
X79072645Y-102795455D02*
X79041360Y-102970002D01*
X79005492Y-141677272D02*
X79018957Y-141854089D01*
X80501561Y-627328D02*
X80358628Y-732285D01*
X76983042Y-53145910D02*
X76960639Y-52970002D01*
X155416213Y-144414213D02*
X155548020Y-144268786D01*
X148960639Y-2970003D02*
X148929354Y-2795456D01*
X75851272Y-144082344D02*
X75983234Y-143957116D01*
X80358628Y-44267715D02*
X80501561Y-44372672D01*
X9120755Y-144716352D02*
X9285432Y-144782132D01*
X8649626Y-50529744D02*
X8501562Y-50627327D01*
X80959620Y-50357683D02*
X80802442Y-50439786D01*
X156002000Y-143000000D02*
X156002000Y-2000000D01*
X74716568Y-217868D02*
X74548770Y-160513D01*
X112501000Y-47501500D02*
X112501000Y-50000000D01*
X76981964Y-91863224D02*
X76996237Y-91681861D01*
X43501000Y-100000000D02*
X43501000Y-97501000D01*
X63834333Y-47501500D02*
X63834333Y-50000000D01*
X81796455Y-100071645D02*
X81623716Y-100111729D01*
X77001000Y-112750000D02*
X78000000Y-112750000D01*
X79440786Y-101801442D02*
X79358683Y-101958620D01*
X79628327Y-43499438D02*
X79733284Y-43642371D01*
X147851272Y-94082344D02*
X147983234Y-93957116D01*
X76561213Y-51801443D02*
X76471254Y-51648625D01*
X79733284Y-143642371D02*
X79845346Y-143779803D01*
X81971002Y-50040360D02*
X81796455Y-50071645D01*
X236158Y-1057207D02*
X152241Y-1234634D01*
X75643370Y-100732284D02*
X75500438Y-100627327D01*
X10501000Y-45000000D02*
X17167667Y-44997344D01*
X148268715Y-1357630D02*
X148156653Y-1220197D01*
X127167666Y-97501000D02*
X127167666Y-97499000D01*
X75983234Y-143957116D02*
X76108462Y-143825152D01*
X9623717Y-111730D02*
X9453229Y-160513D01*
X79358683Y-51958620D02*
X79284647Y-52119754D01*
X78000000Y-71000000D02*
X77001000Y-71000000D01*
X76996237Y-91681861D02*
X77001000Y-91500000D01*
X7001001Y-91500000D02*
X7005493Y-91677272D01*
X151002000Y-145000000D02*
X154002000Y-145000000D01*
X79041360Y-92029997D02*
X79072645Y-92204544D01*
X148770200Y-142745287D02*
X148830927Y-142573798D01*
X112501000Y-50000000D02*
X103834333Y-50000000D01*
X52167666Y-97499000D02*
X52167666Y-97501000D01*
X76996507Y-103322727D02*
X76983042Y-103145910D01*
X81971002Y-144959639D02*
X82146910Y-144982042D01*
X82323727Y-100004492D02*
X82146910Y-100017957D01*
X17167667Y-47499500D02*
X17167667Y-47501500D01*
X76622262Y-143077564D02*
X76700581Y-142913362D01*
X103834333Y-44991503D02*
X112501000Y-44988052D01*
X80358628Y-94267715D02*
X80501561Y-94372672D01*
X8959621Y-100357683D02*
X8802443Y-100439786D01*
X8649626Y-144470255D02*
X8802443Y-144560213D01*
X7041361Y-52970002D02*
X7018958Y-53145910D01*
X8802443Y-439787D02*
X8649626Y-529745D01*
X145526126Y-94974899D02*
X145707987Y-94970136D01*
X147042379Y-357685D02*
X146881245Y-283648D01*
X147568607Y-144311243D02*
X147712936Y-144200495D01*
X76783132Y-52284431D02*
X76717352Y-52119754D01*
X9796456Y-71646D02*
X9623717Y-111730D01*
X147500438Y-100627327D02*
X147352374Y-100529745D01*
X7005493Y-3322728D02*
X7001000Y-3500000D01*
X92167666Y-47499500D02*
X92167666Y-44996150D01*
X79018957Y-103145910D02*
X79005492Y-103322727D01*
X80802442Y-439787D02*
X80649625Y-529745D01*
X77001000Y-91500000D02*
X77001000Y-85250000D01*
X146425491Y-94856490D02*
X146599922Y-94804819D01*
X89167666Y-47501500D02*
X89167666Y-50000000D01*
X79161512Y-92547771D02*
X79218867Y-92715568D01*
X75712936Y-94200495D02*
X75851272Y-94082344D01*
X80221196Y-44155653D02*
X80358628Y-44267715D01*
X76770200Y-142745287D02*
X76830927Y-142573798D01*
X151002000Y-132250000D02*
X149001000Y-132250000D01*
X81285431Y-44782132D02*
X81453228Y-44839487D01*
X8089616Y-44036775D02*
X8221197Y-44155653D01*
X81971002Y-100040360D02*
X81796455Y-100071645D01*
X89167666Y-44997344D02*
X89167666Y-47499500D01*
X154767366Y-144847759D02*
X154944793Y-144763842D01*
X73501000Y-50000000D02*
X66834333Y-50000000D01*
X75568607Y-44311243D02*
X75712936Y-44200495D01*
X146069717Y-94932114D02*
X146248594Y-94898960D01*
X76882596Y-92399366D02*
X76925065Y-92222468D01*
X28834334Y-97499000D02*
X28834334Y-97501000D01*
X7845347Y-51220196D02*
X7733285Y-51357628D01*
X148700581Y-92913362D02*
X148770200Y-92745287D01*
X149001000Y-24000000D02*
X151002000Y-24000000D01*
X7964225Y-101088615D02*
X7845347Y-101220196D01*
X7112730Y-42377283D02*
X7161513Y-42547771D01*
X8649626Y-100529744D02*
X8501562Y-100627327D01*
X145707987Y-44970136D02*
X145889350Y-44955861D01*
X145707987Y-144970136D02*
X145889350Y-144955861D01*
X79440786Y-43198557D02*
X79530744Y-43351374D01*
X148925065Y-142222468D02*
X148958218Y-142043591D01*
X80649625Y-144470255D02*
X80802442Y-144560213D01*
X80358628Y-50732284D02*
X80221196Y-50844346D01*
X79001000Y-91500000D02*
X79005492Y-91677272D01*
X17167667Y-44997344D02*
X17167667Y-47499500D01*
X147983234Y-93957116D02*
X148108462Y-93825152D01*
X138834333Y-50000000D02*
X138834333Y-47501500D01*
X74248594Y-94898960D02*
X74425491Y-94856490D01*
X76700581Y-142913362D02*
X76770200Y-142745287D01*
X100834333Y-44992698D02*
X100834333Y-47499500D01*
X82323727Y-144995507D02*
X82501000Y-145000000D01*
X7358684Y-1958621D02*
X7284648Y-2119755D01*
X74771411Y-144744091D02*
X74939486Y-144674471D01*
X80089615Y-144036775D02*
X80221196Y-144155653D01*
X147418679Y-44414287D02*
X147568607Y-44311243D01*
X76960639Y-52970002D02*
X76929354Y-52795455D01*
X31834334Y-97501000D02*
X31834334Y-97499000D01*
X76535456Y-143237442D02*
X76622262Y-143077564D01*
X8221197Y-844347D02*
X8089616Y-963225D01*
X20167667Y-47499500D02*
X20167667Y-44996150D01*
X145889350Y-44955861D02*
X146069717Y-44932114D01*
X5000000Y-135250000D02*
X7001001Y-135250000D01*
X43501000Y-47499500D02*
X43501000Y-44986857D01*
X7161513Y-142547771D02*
X7218868Y-142715568D01*
X40501000Y-97499000D02*
X40501000Y-97501000D01*
X76960639Y-2970003D02*
X76929354Y-2795456D01*
X55167666Y-97501000D02*
X55167666Y-97499000D01*
X146599922Y-94804819D02*
X146771411Y-94744091D01*
X79001000Y-21000000D02*
X78002000Y-21000000D01*
X7072646Y-52795455D02*
X7041361Y-52970002D01*
X76226611Y-43686816D02*
X76337359Y-43542486D01*
X73526126Y-144974899D02*
X73707987Y-144970136D01*
X147912384Y-100963225D02*
X147780803Y-100844346D01*
X147912384Y-50963225D02*
X147780803Y-50844346D01*
X74069717Y-144932114D02*
X74248594Y-144898960D01*
X7161513Y-42547771D02*
X7218868Y-42715568D01*
X79284647Y-52119754D02*
X79218867Y-52284431D01*
X10323728Y-144995507D02*
X10501000Y-145000000D01*
X148889269Y-52622716D02*
X148840487Y-52452229D01*
X82323727Y-50004492D02*
X82146910Y-50017957D01*
X28834334Y-97501000D02*
X28834334Y-100000000D01*
X155270786Y-144546020D02*
X155416213Y-144414213D01*
X103834333Y-94991503D02*
X112501000Y-94988052D01*
X82501000Y-1D02*
X82323727Y-4493D01*
X154582569Y-144913880D02*
X154767366Y-144847759D01*
X7284648Y-2119755D02*
X7218868Y-2284432D01*
X147199556Y-50439786D02*
X147042379Y-50357684D01*
X79001000Y-9750000D02*
X78002000Y-9750000D01*
X76643315Y-51958620D02*
X76561213Y-51801443D01*
X79161512Y-102452228D02*
X79112729Y-102622716D01*
X8501562Y-94372672D02*
X8649626Y-94470255D01*
X149001000Y-9750000D02*
X149001000Y-3500000D01*
X147199556Y-100439786D02*
X147042379Y-100357684D01*
X8089616Y-963225D02*
X7964225Y-1088616D01*
X79001000Y-82250000D02*
X78002000Y-82250000D01*
X78002000Y-9750000D02*
X78000000Y-9750000D01*
X73707987Y-94970136D02*
X73889350Y-94955861D01*
X76925065Y-142222468D02*
X76958218Y-142043591D01*
X55167666Y-97499000D02*
X55167666Y-94982211D01*
X148830927Y-92573798D02*
X148882596Y-92399366D01*
X148770200Y-92745287D02*
X148830927Y-92573798D01*
X138834333Y-97499000D02*
X138834333Y-94977565D01*
X9453229Y-100160512D02*
X9285432Y-100217867D01*
X79733284Y-51357628D02*
X79628327Y-51500561D01*
X79218867Y-102284431D02*
X79161512Y-102452228D01*
X74378283Y-50111730D02*
X74205544Y-50071645D01*
X52167666Y-97501000D02*
X52167666Y-100000000D01*
X147568607Y-94311243D02*
X147712936Y-94200495D01*
X76958218Y-92043591D02*
X76981964Y-91863224D01*
X7001001Y-41500000D02*
X7005493Y-41677272D01*
X9453229Y-94839487D02*
X9623717Y-94888270D01*
X147851272Y-44082344D02*
X147983234Y-43957116D01*
X148561213Y-51801443D02*
X148471254Y-51648625D01*
X79001000Y-124000000D02*
X79001000Y-132250000D01*
X7964225Y-93911384D02*
X8089616Y-94036775D01*
X31834334Y-47499500D02*
X31834334Y-44991503D01*
X731214Y-453980D02*
X585787Y-585787D01*
X7218868Y-142715568D02*
X7284648Y-142880245D01*
X82501000Y-100000000D02*
X82323727Y-100004492D01*
X148996237Y-41681861D02*
X149001000Y-41500000D01*
X112501000Y-100000000D02*
X103834333Y-100000000D01*
X154002000Y-145000000D02*
X154198034Y-144990369D01*
X77001000Y-103500000D02*
X76996507Y-103322727D01*
X66834333Y-47499500D02*
X66834333Y-44977565D01*
X81120754Y-283648D02*
X80959620Y-357684D01*
X78002000Y-59750000D02*
X78000000Y-59750000D01*
X40501000Y-50000000D02*
X31834334Y-50000000D01*
X127167666Y-97499000D02*
X127167666Y-94982211D01*
X154002000Y0D02*
X151002000Y0D01*
X7440787Y-51801442D02*
X7358684Y-51958620D01*
X9971003Y-100040360D02*
X9796456Y-100071645D01*
X7001000Y-103500000D02*
X7001001Y-109750000D01*
X74548770Y-160513D02*
X74378283Y-111731D01*
X9285432Y-217868D02*
X9120755Y-283648D01*
X145678272Y-50004492D02*
X145501000Y-50000000D01*
X80649625Y-94470255D02*
X80802442Y-94560213D01*
X148156653Y-51220196D02*
X148037774Y-51088615D01*
X79358683Y-1958621D02*
X79284647Y-2119755D01*
X75042379Y-357685D02*
X74881245Y-283648D01*
X80959620Y-44642316D02*
X81120754Y-44716352D01*
X79072645Y-142204544D02*
X79112729Y-142377283D01*
X89167666Y-97499000D02*
X89167666Y-97501000D01*
X77001000Y-3500000D02*
X76996507Y-3322728D01*
X148622262Y-143077564D02*
X148700581Y-142913362D01*
X8089616Y-94036775D02*
X8221197Y-94155653D01*
X75780803Y-50844346D02*
X75643370Y-50732284D01*
X148925065Y-42222468D02*
X148958218Y-42043591D01*
X155963570Y-1609820D02*
X155915880Y-1419431D01*
X80358628Y-100732284D02*
X80221196Y-100844346D01*
X76889269Y-52622716D02*
X76840487Y-52452229D01*
X148226611Y-43686816D02*
X148337359Y-43542486D01*
X79628327Y-143499438D02*
X79733284Y-143642371D01*
X149001000Y-109750000D02*
X149001000Y-103500000D01*
X92167666Y-44996150D02*
X100834333Y-44992698D01*
X9120755Y-283648D02*
X8959621Y-357684D01*
X75643370Y-732285D02*
X75500438Y-627328D01*
X148882596Y-142399366D02*
X148925065Y-142222468D01*
X100834333Y-47501500D02*
X100834333Y-50000000D01*
X66834333Y-50000000D02*
X66834333Y-47501500D01*
X52167666Y-47501500D02*
X52167666Y-50000000D01*
X89167666Y-94997344D02*
X89167666Y-97499000D01*
X80959620Y-144642316D02*
X81120754Y-144716352D01*
X7218868Y-2284432D02*
X7161513Y-2452229D01*
X115501000Y-97501000D02*
X115501000Y-97499000D01*
X145707987Y-94970136D02*
X145889350Y-94955861D01*
X7530745Y-1648626D02*
X7440787Y-1801443D01*
X9285432Y-44782132D02*
X9453229Y-44839487D01*
X20167667Y-44996150D02*
X28834334Y-44992698D01*
X80089615Y-94036775D02*
X80221196Y-94155653D01*
X148840487Y-2452230D02*
X148783132Y-2284432D01*
X148337359Y-43542486D02*
X148440401Y-43392558D01*
X80649625Y-529745D02*
X80501561Y-627328D01*
X146548770Y-160513D02*
X146378283Y-111731D01*
X74030997Y-40361D02*
X73855089Y-17958D01*
X7964225Y-143911384D02*
X8089616Y-144036775D01*
X10146911Y-44982042D02*
X10323728Y-44995507D01*
X8649626Y-44470255D02*
X8802443Y-44560213D01*
X76783132Y-102284431D02*
X76717352Y-102119754D01*
X7161513Y-92547771D02*
X7218868Y-92715568D01*
X79218867Y-52284431D02*
X79161512Y-52452228D01*
X147103687Y-94596150D02*
X147263565Y-94509343D01*
X79964224Y-51088615D02*
X79845346Y-51220196D01*
X80649625Y-44470255D02*
X80802442Y-44560213D01*
X453980Y-731214D02*
X337061Y-888860D01*
X86120Y-1419431D02*
X38430Y-1609820D01*
X5000000Y-71000000D02*
X5000000Y-62750000D01*
X75352374Y-50529745D02*
X75199556Y-50439786D01*
X7112730Y-2622717D02*
X7072646Y-2795456D01*
X7964225Y-43911384D02*
X8089616Y-44036775D01*
X7001001Y-121000000D02*
X5000000Y-121000000D01*
X7628328Y-101500561D02*
X7530745Y-101648625D01*
X8221197Y-44155653D02*
X8358629Y-44267715D01*
X76960639Y-102970002D02*
X76929354Y-102795455D01*
X124167666Y-44983406D02*
X124167666Y-47499500D01*
X154944793Y-144763842D02*
X155113140Y-144662939D01*
X75352374Y-529746D02*
X75199556Y-439787D01*
X148929354Y-2795456D02*
X148889269Y-2622717D01*
X7018958Y-53145910D02*
X7005493Y-53322727D01*
X77001000Y-41500000D02*
X77001000Y-35250000D01*
X7112730Y-52622716D02*
X7072646Y-52795455D01*
X7001001Y-74000000D02*
X7001001Y-82250000D01*
X148770200Y-42745287D02*
X148830927Y-42573798D01*
X7001001Y-21000000D02*
X5000000Y-21000000D01*
X81796455Y-71646D02*
X81623716Y-111730D01*
X146599922Y-44804819D02*
X146771411Y-44744091D01*
X135834333Y-47499500D02*
X135834333Y-47501500D01*
X79112729Y-52622716D02*
X79072645Y-52795455D01*
X74599922Y-144804819D02*
X74771411Y-144744091D01*
X148622262Y-43077564D02*
X148700581Y-42913362D01*
X43501000Y-97501000D02*
X43501000Y-97499000D01*
X8358629Y-50732284D02*
X8221197Y-50844346D01*
X103834333Y-50000000D02*
X103834333Y-47501500D01*
X79733284Y-101357628D02*
X79628327Y-101500561D01*
X76643315Y-1958621D02*
X76561213Y-1801444D01*
X76268715Y-101357629D02*
X76156653Y-101220196D01*
X79018957Y-141854089D02*
X79041360Y-142029997D01*
X81623716Y-94888270D02*
X81796455Y-94928354D01*
X9623717Y-144888270D02*
X9796456Y-144928354D01*
X80089615Y-100963224D02*
X79964224Y-101088615D01*
X585787Y-585787D02*
X453980Y-731214D01*
X86120Y-143580569D02*
X152241Y-143765366D01*
X147263565Y-44509343D02*
X147418679Y-44414287D01*
X79001000Y-121000000D02*
X78002000Y-121000000D01*
X1803966Y-144990369D02*
X2000000Y-145000000D01*
X148622262Y-93077564D02*
X148700581Y-92913362D01*
X146248594Y-44898960D02*
X146425491Y-44856490D01*
X74881245Y-283648D02*
X74716568Y-217868D01*
X76643315Y-101958620D02*
X76561213Y-101801443D01*
X74205544Y-100071645D02*
X74030997Y-100040360D01*
X81796455Y-44928354D02*
X81971002Y-44959639D01*
X149001000Y-71000000D02*
X149001000Y-62750000D01*
X7284648Y-142880245D02*
X7358684Y-143041379D01*
X145855089Y-50017957D02*
X145678272Y-50004492D01*
X7358684Y-143041379D02*
X7440787Y-143198557D01*
X7845347Y-1220197D02*
X7733285Y-1357629D01*
X77001000Y-121000000D02*
X77001000Y-112750000D01*
X79530744Y-51648625D02*
X79440786Y-51801442D01*
X100834333Y-97501000D02*
X100834333Y-100000000D01*
X147568607Y-44311243D02*
X147712936Y-44200495D01*
X7733285Y-43642371D02*
X7845347Y-43779803D01*
X82146910Y-17958D02*
X81971002Y-40361D01*
X148700581Y-142913362D02*
X148770200Y-142745287D01*
X76840487Y-52452229D02*
X76783132Y-52284431D01*
X1419431Y-86120D02*
X1234634Y-152241D01*
X17167667Y-94997344D02*
X17167667Y-97499000D01*
X78002000Y-71000000D02*
X78000000Y-71000000D01*
X148929354Y-102795455D02*
X148889269Y-102622716D01*
X78000000Y-9750000D02*
X77001000Y-9750000D01*
X10323728Y-44995507D02*
X10501000Y-45000000D01*
X76770200Y-42745287D02*
X76830927Y-42573798D01*
X79112729Y-2622717D02*
X79072645Y-2795456D01*
X74378283Y-111731D02*
X74205544Y-71646D01*
X115501000Y-50000000D02*
X115501000Y-47501500D01*
X79284647Y-92880245D02*
X79358683Y-93041379D01*
X79358683Y-93041379D02*
X79440786Y-93198557D01*
X155548020Y-144268786D02*
X155664939Y-144111140D01*
X76830927Y-42573798D02*
X76882596Y-42399366D01*
X80221196Y-94155653D02*
X80358628Y-94267715D01*
X151002000Y-21000000D02*
X149001000Y-21000000D01*
X8501562Y-627328D02*
X8358629Y-732285D01*
X76981964Y-41863224D02*
X76996237Y-41681861D01*
X76561213Y-101801443D02*
X76471254Y-101648625D01*
X112501000Y-94988052D02*
X112501000Y-97499000D01*
X148440401Y-43392558D02*
X148535456Y-43237442D01*
X127167666Y-94982211D02*
X135834333Y-94978759D01*
X81120754Y-94716352D02*
X81285431Y-94782132D01*
X75418679Y-144414287D02*
X75568607Y-144311243D01*
X151002000Y-9750000D02*
X149001000Y-9750000D01*
X40501000Y-44988052D02*
X40501000Y-47499500D01*
X77001000Y-85250000D02*
X78000000Y-85250000D01*
X8959621Y-144642316D02*
X9120755Y-144716352D01*
X79041360Y-52970002D02*
X79018957Y-53145910D01*
X155416213Y-585787D02*
X155270786Y-453980D01*
X151002000Y-82250000D02*
X149001000Y-82250000D01*
X79218867Y-92715568D02*
X79284647Y-92880245D01*
X148226611Y-143686816D02*
X148337359Y-143542486D01*
X149001000Y-21000000D02*
X149001000Y-12750000D01*
X9120755Y-50283647D02*
X8959621Y-50357683D01*
X151002000Y-35250000D02*
X151002000Y-59750000D01*
X75912384Y-100963225D02*
X75780803Y-100844346D01*
X79041360Y-42029997D02*
X79072645Y-42204544D01*
X78002000Y-135250000D02*
X79001000Y-135250000D01*
X80501561Y-50627327D02*
X80358628Y-50732284D01*
X79218867Y-2284432D02*
X79161512Y-2452229D01*
X79072645Y-42204544D02*
X79112729Y-42377283D01*
X81285431Y-94782132D02*
X81453228Y-94839487D01*
X79845346Y-51220196D02*
X79733284Y-51357628D01*
X8358629Y-100732284D02*
X8221197Y-100844346D01*
X9623717Y-44888270D02*
X9796456Y-44928354D01*
X79018957Y-3145911D02*
X79005492Y-3322728D01*
X7964225Y-51088615D02*
X7845347Y-51220196D01*
X81971002Y-94959639D02*
X82146910Y-94982042D01*
X154944793Y-236158D02*
X154767366Y-152241D01*
X147780803Y-50844346D02*
X147643370Y-50732284D01*
X148958218Y-142043591D02*
X148981964Y-141863224D01*
X149001000Y-59750000D02*
X149001000Y-53500000D01*
X52167666Y-47499500D02*
X52167666Y-47501500D01*
X81285431Y-144782132D02*
X81453228Y-144839487D01*
X135834333Y-50000000D02*
X127167666Y-50000000D01*
X79072645Y-52795455D02*
X79041360Y-52970002D01*
X155849759Y-143765366D02*
X155915880Y-143580569D01*
X75983234Y-43957116D02*
X76108462Y-43825152D01*
X155915880Y-143580569D02*
X155963570Y-143390180D01*
X75263565Y-144509343D02*
X75418679Y-144414287D01*
X8501562Y-100627327D02*
X8358629Y-100732284D01*
X146205544Y-50071645D02*
X146030997Y-50040360D01*
X7041361Y-102970002D02*
X7018958Y-103145910D01*
X75103687Y-94596150D02*
X75263565Y-94509343D01*
X138834333Y-100000000D02*
X138834333Y-97501000D01*
X7218868Y-42715568D02*
X7284648Y-42880245D01*
X74716568Y-100217867D02*
X74548770Y-100160512D01*
X78000000Y-135250000D02*
X78002000Y-135250000D01*
X77001000Y-74000000D02*
X78000000Y-74000000D01*
X148561213Y-1801444D02*
X148471254Y-1648626D01*
X55167666Y-44982211D02*
X63834333Y-44978759D01*
X79628327Y-101500561D02*
X79530744Y-101648625D01*
X7218868Y-92715568D02*
X7284648Y-92880245D01*
X55167666Y-100000000D02*
X55167666Y-97501000D01*
X147712936Y-44200495D02*
X147851272Y-44082344D01*
X17167667Y-50000000D02*
X10501000Y-50000000D01*
X135834333Y-94978759D02*
X135834333Y-97499000D01*
X7001001Y-71000000D02*
X5000000Y-71000000D01*
X7041361Y-142029997D02*
X7072646Y-142204544D01*
X7005493Y-141677272D02*
X7018958Y-141854089D01*
X149001000Y-132250000D02*
X149001000Y-124000000D01*
X74378283Y-100111730D02*
X74205544Y-100071645D01*
X7964225Y-1088616D02*
X7845347Y-1220197D01*
X7358684Y-51958620D02*
X7284648Y-52119754D01*
X80221196Y-144155653D02*
X80358628Y-144267715D01*
X76471254Y-51648625D02*
X76373672Y-51500561D01*
X73889350Y-94955861D02*
X74069717Y-94932114D01*
X92167666Y-97501000D02*
X92167666Y-97499000D01*
X148337359Y-93542486D02*
X148440401Y-93392558D01*
X17167667Y-100000000D02*
X10501000Y-100000000D01*
X8959621Y-44642316D02*
X9120755Y-44716352D01*
X7041361Y-2970003D02*
X7018958Y-3145911D01*
X10146911Y-100017957D02*
X9971003Y-100040360D01*
X9623717Y-50111729D02*
X9453229Y-50160512D01*
X138834333Y-44977565D02*
X145526126Y-44974899D01*
X76337359Y-93542486D02*
X76440401Y-93392558D01*
X7733285Y-143642371D02*
X7845347Y-143779803D01*
X146205544Y-71646D02*
X146030997Y-40361D01*
X7018958Y-91854089D02*
X7041361Y-92029997D01*
X147983234Y-143957116D02*
X148108462Y-143825152D01*
X7018958Y-3145911D02*
X7005493Y-3322728D01*
X89167666Y-97501000D02*
X89167666Y-100000000D01*
X92167666Y-100000000D02*
X92167666Y-97501000D01*
X236158Y-143942793D02*
X337061Y-144111140D01*
X148717352Y-52119754D02*
X148643315Y-51958620D01*
X148643315Y-1958621D02*
X148561213Y-1801444D01*
X5000000Y-24000000D02*
X7001001Y-24000000D01*
X77001000Y-24000000D02*
X78000000Y-24000000D01*
X76830927Y-142573798D02*
X76882596Y-142399366D01*
X146378283Y-111731D02*
X146205544Y-71646D01*
X79018957Y-91854089D02*
X79041360Y-92029997D01*
X100834333Y-94992698D02*
X100834333Y-97499000D01*
X28834334Y-47501500D02*
X28834334Y-50000000D01*
X77001000Y-141500000D02*
X77001000Y-135250000D01*
X79001000Y-59750000D02*
X78002000Y-59750000D01*
X124167666Y-47501500D02*
X124167666Y-50000000D01*
X74248594Y-144898960D02*
X74425491Y-144856490D01*
X148958218Y-42043591D02*
X148981964Y-41863224D01*
X82146910Y-94982042D02*
X82323727Y-94995507D01*
X76373672Y-101500561D02*
X76268715Y-101357629D01*
X8501562Y-50627327D02*
X8358629Y-50732284D01*
X7072646Y-102795455D02*
X7041361Y-102970002D01*
X76840487Y-2452230D02*
X76783132Y-2284432D01*
X145501000Y-100000000D02*
X138834333Y-100000000D01*
X75042379Y-100357684D02*
X74881245Y-100283647D01*
X147712936Y-144200495D02*
X147851272Y-144082344D01*
X38430Y-143390180D02*
X86120Y-143580569D01*
X148037774Y-1088616D02*
X147912384Y-963226D01*
X7072646Y-142204544D02*
X7112730Y-142377283D01*
X20167667Y-94996150D02*
X28834334Y-94992698D01*
X79358683Y-43041379D02*
X79440786Y-43198557D01*
X112501000Y-97499000D02*
X112501000Y-97501000D01*
X151002000Y-71000000D02*
X149001000Y-71000000D01*
X151002000Y0D02*
X151002000Y-9750000D01*
X76268715Y-51357629D02*
X76156653Y-51220196D01*
X76783132Y-2284432D02*
X76717352Y-2119755D01*
X8649626Y-529745D02*
X8501562Y-627328D01*
X115501000Y-44986857D02*
X124167666Y-44983406D01*
X40501000Y-100000000D02*
X31834334Y-100000000D01*
X146881245Y-283648D02*
X146716568Y-217868D01*
X79845346Y-143779803D02*
X79964224Y-143911384D01*
X81623716Y-144888270D02*
X81796455Y-144928354D01*
X20167667Y-97501000D02*
X20167667Y-97499000D01*
X78002000Y-124000000D02*
X79001000Y-124000000D01*
X148840487Y-52452229D02*
X148783132Y-52284431D01*
X31834334Y-94991503D02*
X40501000Y-94988052D01*
X7284648Y-42880245D02*
X7358684Y-43041379D01*
X112501000Y-47499500D02*
X112501000Y-47501500D01*
X5000000Y-59750000D02*
X5000000Y-35250000D01*
X145855089Y-100017957D02*
X145678272Y-100004492D01*
X76882596Y-42399366D02*
X76925065Y-42222468D01*
X77001000Y-12750000D02*
X78000000Y-12750000D01*
X75712936Y-144200495D02*
X75851272Y-144082344D01*
X10146911Y-17958D02*
X9971003Y-40361D01*
X154582569Y-86120D02*
X154392180Y-38430D01*
X76983042Y-103145910D02*
X76960639Y-102970002D01*
X76840487Y-102452229D02*
X76783132Y-102284431D01*
X146548770Y-100160512D02*
X146378283Y-100111730D01*
X81453228Y-50160512D02*
X81285431Y-50217867D01*
X146599922Y-144804819D02*
X146771411Y-144744091D01*
X78000000Y-32250000D02*
X77001000Y-32250000D01*
X82323727Y-44995507D02*
X82501000Y-45000000D01*
X149001000Y-103500000D02*
X148996507Y-103322727D01*
X81453228Y-144839487D02*
X81623716Y-144888270D01*
X7845347Y-93779803D02*
X7964225Y-93911384D01*
X7628328Y-1500562D02*
X7530745Y-1648626D01*
X148996507Y-53322727D02*
X148983042Y-53145910D01*
X80649625Y-100529744D02*
X80501561Y-100627327D01*
X76700581Y-92913362D02*
X76770200Y-92745287D01*
X79964224Y-93911384D02*
X80089615Y-94036775D01*
X148830927Y-142573798D02*
X148882596Y-142399366D01*
X77001000Y-71000000D02*
X77001000Y-62750000D01*
X31834334Y-100000000D02*
X31834334Y-97501000D01*
X8649626Y-94470255D02*
X8802443Y-94560213D01*
X146248594Y-94898960D02*
X146425491Y-94856490D01*
X74771411Y-44744091D02*
X74939486Y-44674471D01*
X147418679Y-144414287D02*
X147568607Y-144311243D01*
X148882596Y-42399366D02*
X148925065Y-42222468D01*
X76337359Y-43542486D02*
X76440401Y-43392558D01*
X76717352Y-102119754D02*
X76643315Y-101958620D01*
X7005493Y-91677272D02*
X7018958Y-91854089D01*
X103834333Y-47499500D02*
X103834333Y-44991503D01*
X81796455Y-144928354D02*
X81971002Y-144959639D01*
X78002000Y-74000000D02*
X79001000Y-74000000D01*
X124167666Y-47499500D02*
X124167666Y-47501500D01*
X7530745Y-93351374D02*
X7628328Y-93499438D01*
X7733285Y-51357628D02*
X7628328Y-51500561D01*
X148996507Y-3322728D02*
X148983042Y-3145911D01*
X7218868Y-52284431D02*
X7161513Y-52452228D01*
X79001000Y-35250000D02*
X79001000Y-41500000D01*
X79005492Y-103322727D02*
X79001000Y-103500000D01*
X76996507Y-3322728D02*
X76983042Y-3145911D01*
X155664939Y-144111140D02*
X155765842Y-143942793D01*
X7440787Y-93198557D02*
X7530745Y-93351374D01*
X146939486Y-144674471D02*
X147103687Y-144596150D01*
X7001001Y-135250000D02*
X7001001Y-141500000D01*
X135834333Y-47501500D02*
X135834333Y-50000000D01*
X78002000Y-112750000D02*
X79001000Y-112750000D01*
X76471254Y-101648625D02*
X76373672Y-101500561D01*
X76156653Y-1220197D02*
X76037774Y-1088616D01*
X82501000Y-50000000D02*
X82323727Y-50004492D01*
X79218867Y-42715568D02*
X79284647Y-42880245D01*
X79845346Y-1220197D02*
X79733284Y-1357629D01*
X79358683Y-143041379D02*
X79440786Y-143198557D01*
X7845347Y-101220196D02*
X7733285Y-101357628D01*
X76226611Y-93686816D02*
X76337359Y-93542486D01*
X40501000Y-47499500D02*
X40501000Y-47501500D01*
X76996237Y-141681861D02*
X77001000Y-141500000D01*
X75042379Y-50357684D02*
X74881245Y-50283647D01*
X9971003Y-94959639D02*
X10146911Y-94982042D01*
X79041360Y-102970002D02*
X79018957Y-103145910D01*
X146425491Y-44856490D02*
X146599922Y-44804819D01*
X7001001Y-59750000D02*
X5000000Y-59750000D01*
X127167666Y-44982211D02*
X135834333Y-44978759D01*
X10146911Y-144982042D02*
X10323728Y-144995507D01*
X115501000Y-100000000D02*
X115501000Y-97501000D01*
X78002000Y-24000000D02*
X79001000Y-24000000D01*
X1803966Y-9631D02*
X1609820Y-38430D01*
X79440786Y-93198557D02*
X79530744Y-93351374D01*
X76622262Y-43077564D02*
X76700581Y-42913362D01*
X115501000Y-47501500D02*
X115501000Y-47499500D01*
M02*
