M48
; DRILL file {KiCad 8.0.2} date 2024-05-05T15:06:13+0200
; FORMAT={-:-/ absolute / inch / decimal}
; #@! TF.CreationDate,2024-05-05T15:06:13+02:00
; #@! TF.GenerationSoftware,Kicad,Pcbnew,8.0.2
; #@! TF.FileFunction,Plated,1,4,PTH
FMAT,2
INCH
; #@! TA.AperFunction,Plated,PTH,ViaDrill
T1C0.0118
; #@! TA.AperFunction,Plated,PTH,ComponentDrill
T2C0.0236
; #@! TA.AperFunction,Plated,PTH,ComponentDrill
T3C0.0295
; #@! TA.AperFunction,Plated,PTH,ComponentDrill
T4C0.0520
; #@! TA.AperFunction,Plated,PTH,ComponentDrill
T5C0.0598
; #@! TA.AperFunction,Plated,PTH,ComponentDrill
T6C0.1260
%
G90
G05
T1
X0.315Y-1.0827
X0.315Y-1.1811
X0.315Y-3.0512
X0.315Y-3.1496
X0.315Y-5.0197
X0.315Y-5.1181
X0.3544Y-1.0827
X0.3544Y-1.1811
X0.3544Y-3.0512
X0.3544Y-3.1496
X0.3544Y-5.0197
X0.3544Y-5.1181
X0.3937Y-1.0827
X0.3937Y-1.1811
X0.3937Y-3.0512
X0.3937Y-3.1496
X0.3937Y-5.0197
X0.3937Y-5.1181
X0.4725Y-1.0827
X0.4725Y-1.122
X0.4725Y-1.1614
X0.4725Y-1.2008
X0.4725Y-3.0512
X0.4725Y-3.0906
X0.4725Y-3.1299
X0.4725Y-3.1693
X0.4725Y-5.0197
X0.4725Y-5.0591
X0.4725Y-5.0984
X0.4725Y-5.1378
X0.6063Y-1.2717
X0.6063Y-3.2402
X0.6063Y-5.2087
X0.6733Y-0.0512
X0.6733Y-2.0197
X0.6733Y-3.9882
X0.6772Y-1.2323
X0.6772Y-3.2008
X0.6772Y-5.1693
X0.7284Y-0.1083
X0.7284Y-0.1378
X0.7284Y-0.1673
X0.7284Y-0.1969
X0.7284Y-2.0768
X0.7284Y-2.1063
X0.7284Y-2.1358
X0.7284Y-2.1654
X0.7284Y-4.0453
X0.7284Y-4.0748
X0.7284Y-4.1043
X0.7284Y-4.1339
X0.7441Y-0.0512
X0.7441Y-2.0197
X0.7441Y-3.9882
X0.7481Y-1.2677
X0.7481Y-3.2362
X0.7481Y-5.2047
X0.8741Y-0.0394
X0.8741Y-2.0079
X0.8741Y-3.9764
X0.8859Y-0.2165
X0.8859Y-0.2461
X0.8859Y-2.185
X0.8859Y-2.2146
X0.8859Y-4.1535
X0.8859Y-4.1831
X0.9154Y-0.2165
X0.9154Y-0.2461
X0.9154Y-2.185
X0.9154Y-2.2146
X0.9154Y-4.1535
X0.9154Y-4.1831
X0.9449Y-0.2165
X0.9449Y-0.2461
X0.9449Y-2.185
X0.9449Y-2.2146
X0.9449Y-4.1535
X0.9449Y-4.1831
X0.9567Y-1.3937
X0.9567Y-1.5354
X0.9567Y-3.3622
X0.9567Y-3.5039
X0.9567Y-5.3307
X0.9567Y-5.4724
X0.9744Y-0.2165
X0.9744Y-0.2461
X0.9744Y-2.185
X0.9744Y-2.2146
X0.9744Y-4.1535
X0.9744Y-4.1831
X0.9843Y-0.3228
X0.9843Y-0.4114
X0.9843Y-0.6575
X0.9843Y-0.7461
X0.9843Y-0.9921
X0.9843Y-1.0807
X0.9843Y-2.2913
X0.9843Y-2.3799
X0.9843Y-2.626
X0.9843Y-2.7146
X0.9843Y-2.9606
X0.9843Y-3.0492
X0.9843Y-4.2598
X0.9843Y-4.3484
X0.9843Y-4.5945
X0.9843Y-4.6831
X0.9843Y-4.9291
X0.9843Y-5.0177
X0.9882Y-0.0551
X0.9882Y-2.0236
X0.9882Y-3.9921
X0.9922Y-0.4724
X0.9922Y-0.8071
X0.9922Y-1.1417
X0.9922Y-2.4409
X0.9922Y-2.7756
X0.9922Y-3.1102
X0.9922Y-4.4094
X0.9922Y-4.7441
X0.9922Y-5.0787
X1.0119Y-1.3898
X1.0119Y-1.4764
X1.0119Y-3.3583
X1.0119Y-3.4449
X1.0119Y-5.3268
X1.0119Y-5.4134
X1.0138Y-0.3228
X1.0138Y-0.4114
X1.0138Y-0.6575
X1.0138Y-0.7461
X1.0138Y-0.9921
X1.0138Y-1.0807
X1.0138Y-2.2913
X1.0138Y-2.3799
X1.0138Y-2.626
X1.0138Y-2.7146
X1.0138Y-2.9606
X1.0138Y-3.0492
X1.0138Y-4.2598
X1.0138Y-4.3484
X1.0138Y-4.5945
X1.0138Y-4.6831
X1.0138Y-4.9291
X1.0138Y-5.0177
X1.0433Y-0.3228
X1.0433Y-0.4114
X1.0433Y-0.6575
X1.0433Y-0.7461
X1.0433Y-0.9921
X1.0433Y-1.0807
X1.0433Y-2.2913
X1.0433Y-2.3799
X1.0433Y-2.626
X1.0433Y-2.7146
X1.0433Y-2.9606
X1.0433Y-3.0492
X1.0433Y-4.2598
X1.0433Y-4.3484
X1.0433Y-4.5945
X1.0433Y-4.6831
X1.0433Y-4.9291
X1.0433Y-5.0177
X1.0672Y-0.3652
X1.0672Y-0.6998
X1.0672Y-1.0344
X1.0672Y-2.3337
X1.0672Y-2.6683
X1.0672Y-3.003
X1.0672Y-4.3022
X1.0672Y-4.6368
X1.0672Y-4.9715
X1.0689Y-0.7461
X1.0689Y-2.7146
X1.0689Y-4.6831
X1.0729Y-0.4114
X1.0729Y-1.0807
X1.0729Y-2.3799
X1.0729Y-3.0492
X1.0729Y-4.3484
X1.0729Y-5.0177
X1.126Y-0.6614
X1.126Y-2.6299
X1.126Y-4.5984
X1.13Y-0.9921
X1.13Y-2.9606
X1.13Y-4.9291
X1.1378Y-0.3228
X1.1378Y-2.2913
X1.1378Y-4.2598
X1.1494Y-0.5876
X1.1494Y-0.9222
X1.1494Y-1.2569
X1.1494Y-2.5561
X1.1494Y-2.8907
X1.1494Y-3.2254
X1.1494Y-4.5246
X1.1494Y-4.8593
X1.1494Y-5.1939
X1.1516Y-0.1083
X1.1516Y-0.1378
X1.1516Y-0.1673
X1.1516Y-0.1969
X1.1516Y-2.0768
X1.1516Y-2.1063
X1.1516Y-2.1358
X1.1516Y-2.1654
X1.1516Y-4.0453
X1.1516Y-4.0748
X1.1516Y-4.1043
X1.1516Y-4.1339
X1.1772Y-1.1181
X1.1772Y-1.1575
X1.1772Y-3.0866
X1.1772Y-3.126
X1.1772Y-5.0551
X1.1772Y-5.0945
X1.1811Y-1.0315
X1.1811Y-3.0
X1.1811Y-4.9685
X1.189Y-0.8189
X1.189Y-2.7874
X1.189Y-4.7559
X1.2087Y-0.3602
X1.2087Y-0.3996
X1.2087Y-0.439
X1.2087Y-1.5197
X1.2087Y-2.3287
X1.2087Y-2.3681
X1.2087Y-2.4075
X1.2087Y-3.4882
X1.2087Y-4.2972
X1.2087Y-4.3366
X1.2087Y-4.376
X1.2087Y-5.4567
X1.2126Y-1.4055
X1.2126Y-1.4291
X1.2126Y-1.4528
X1.2126Y-3.374
X1.2126Y-3.3976
X1.2126Y-3.4213
X1.2126Y-5.3425
X1.2126Y-5.3661
X1.2126Y-5.3898
X1.2166Y-1.1181
X1.2166Y-1.1575
X1.2166Y-3.0866
X1.2166Y-3.126
X1.2166Y-5.0551
X1.2166Y-5.0945
X1.2205Y-0.6949
X1.2205Y-0.7343
X1.2205Y-1.0315
X1.2205Y-2.6634
X1.2205Y-2.7028
X1.2205Y-3.0
X1.2205Y-4.6319
X1.2205Y-4.6713
X1.2205Y-4.9685
X1.2244Y-0.6575
X1.2244Y-2.626
X1.2244Y-4.5945
X1.2284Y-0.9843
X1.2284Y-1.3031
X1.2284Y-2.9528
X1.2284Y-3.2717
X1.2284Y-4.9213
X1.2284Y-5.2402
X1.2363Y-1.4291
X1.2363Y-3.3976
X1.2363Y-5.3661
X1.2481Y-0.3602
X1.2481Y-0.3996
X1.2481Y-0.439
X1.2481Y-2.3287
X1.2481Y-2.3681
X1.2481Y-2.4075
X1.2481Y-4.2972
X1.2481Y-4.3366
X1.2481Y-4.376
X1.2599Y-0.7343
X1.2599Y-2.7028
X1.2599Y-4.6713
X1.2717Y-0.8425
X1.2717Y-2.811
X1.2717Y-4.7795
X1.3229Y-0.4882
X1.3229Y-2.4567
X1.3229Y-4.4252
X1.3465Y-0.8425
X1.3465Y-1.0079
X1.3465Y-2.811
X1.3465Y-2.9764
X1.3465Y-4.7795
X1.3465Y-4.9449
X1.3662Y-0.6496
X1.3662Y-2.6181
X1.3662Y-4.5866
X1.3701Y-0.4843
X1.3701Y-1.2008
X1.3701Y-2.4528
X1.3701Y-3.1693
X1.3701Y-4.4213
X1.3701Y-5.1378
X1.3741Y-0.3622
X1.3741Y-0.5669
X1.3741Y-2.3307
X1.3741Y-2.5354
X1.3741Y-4.2992
X1.3741Y-4.5039
X1.378Y-1.2795
X1.378Y-3.248
X1.378Y-5.2165
X1.3819Y-1.3268
X1.3819Y-3.2953
X1.3819Y-5.2638
X1.3898Y-0.2717
X1.3898Y-2.2402
X1.3898Y-4.2087
X1.4174Y-0.5807
X1.4174Y-0.7244
X1.4174Y-2.5492
X1.4174Y-2.6929
X1.4174Y-4.5177
X1.4174Y-4.6614
X1.4222Y-0.6048
X1.4222Y-2.5733
X1.4222Y-4.5418
X1.4233Y-0.2618
X1.4233Y-2.2303
X1.4233Y-4.1988
X1.4292Y-0.4094
X1.4292Y-0.8937
X1.4292Y-1.2047
X1.4292Y-2.378
X1.4292Y-2.8622
X1.4292Y-3.1732
X1.4292Y-4.3465
X1.4292Y-4.8307
X1.4292Y-5.1417
X1.443Y-0.2913
X1.443Y-2.2598
X1.443Y-4.2283
X1.4567Y-0.9134
X1.4567Y-2.8819
X1.4567Y-4.8504
X1.4685Y-0.3346
X1.4685Y-2.3031
X1.4685Y-4.2717
X1.4725Y-0.4331
X1.4725Y-2.4016
X1.4725Y-4.3701
X1.4764Y-1.2205
X1.4764Y-3.189
X1.4764Y-5.1575
X1.504Y-0.3346
X1.504Y-1.0866
X1.504Y-1.2913
X1.504Y-2.3031
X1.504Y-3.0551
X1.504Y-3.2598
X1.504Y-4.2717
X1.504Y-5.0236
X1.504Y-5.2283
X1.5197Y-0.6575
X1.5197Y-2.626
X1.5197Y-4.5945
X1.5256Y-1.0138
X1.5256Y-2.9823
X1.5256Y-4.9508
X1.5394Y-0.3622
X1.5394Y-2.3307
X1.5394Y-4.2992
X1.5512Y-0.5827
X1.5512Y-0.9764
X1.5512Y-2.5512
X1.5512Y-2.9449
X1.5512Y-4.5197
X1.5512Y-4.9134
X1.5552Y-0.689
X1.5552Y-2.6575
X1.5552Y-4.626
X1.5591Y-1.252
X1.5591Y-3.2205
X1.5591Y-5.189
X1.563Y-0.3425
X1.563Y-2.311
X1.563Y-4.2795
X1.567Y-0.7323
X1.567Y-0.7559
X1.567Y-0.7795
X1.567Y-0.8031
X1.567Y-0.8346
X1.567Y-0.9567
X1.567Y-2.7008
X1.567Y-2.7244
X1.567Y-2.748
X1.567Y-2.7717
X1.567Y-2.8031
X1.567Y-2.9252
X1.567Y-4.6693
X1.567Y-4.6929
X1.567Y-4.7165
X1.567Y-4.7402
X1.567Y-4.7717
X1.567Y-4.8937
X1.5788Y-0.7047
X1.5788Y-2.6732
X1.5788Y-4.6417
X1.5867Y-0.9764
X1.5867Y-2.9449
X1.5867Y-4.9134
X1.5906Y-0.4409
X1.5906Y-2.4094
X1.5906Y-4.378
X1.6063Y-0.9606
X1.6063Y-2.9291
X1.6063Y-4.8976
X1.6103Y-0.4921
X1.6103Y-2.4606
X1.6103Y-4.4291
X1.6142Y-0.8858
X1.6142Y-2.8543
X1.6142Y-4.8228
X1.626Y-0.2323
X1.626Y-2.2008
X1.626Y-4.1693
X1.63Y-0.4409
X1.63Y-2.4094
X1.63Y-4.378
X1.6339Y-0.7677
X1.6339Y-0.8071
X1.6339Y-2.7362
X1.6339Y-2.7756
X1.6339Y-4.7047
X1.6339Y-4.7441
X1.6496Y-0.5945
X1.6496Y-2.563
X1.6496Y-4.5315
X1.6536Y-1.2283
X1.6536Y-3.1969
X1.6536Y-5.1654
X1.6654Y-0.9685
X1.6654Y-2.937
X1.6654Y-4.9055
X1.6693Y-0.6142
X1.6693Y-2.5827
X1.6693Y-4.5512
X1.6733Y-0.7677
X1.6733Y-0.8071
X1.6733Y-2.7362
X1.6733Y-2.7756
X1.6733Y-4.7047
X1.6733Y-4.7441
X1.7048Y-1.2008
X1.7048Y-3.1693
X1.7048Y-5.1378
X1.7087Y-0.4409
X1.7087Y-2.4094
X1.7087Y-4.378
X1.7126Y-1.0138
X1.7126Y-2.9823
X1.7126Y-4.9508
X1.7225Y-1.122
X1.7225Y-3.0906
X1.7225Y-5.0591
X1.7372Y-1.0138
X1.7372Y-2.9823
X1.7372Y-4.9508
X1.7402Y-0.4685
X1.7402Y-0.6929
X1.7402Y-2.437
X1.7402Y-2.6614
X1.7402Y-4.4055
X1.7402Y-4.6299
X1.7481Y-0.8268
X1.7481Y-2.7953
X1.7481Y-4.7638
X1.752Y-0.7677
X1.752Y-1.2835
X1.752Y-2.7362
X1.752Y-3.252
X1.752Y-4.7047
X1.752Y-5.2205
X1.7619Y-1.122
X1.7619Y-3.0906
X1.7619Y-5.0591
X1.7638Y-0.4941
X1.7638Y-2.4626
X1.7638Y-4.4311
X1.7756Y-1.2008
X1.7756Y-3.1693
X1.7756Y-5.1378
X1.7796Y-1.2677
X1.7796Y-3.2362
X1.7796Y-5.2047
X1.7835Y-0.9764
X1.7835Y-2.9449
X1.7835Y-4.9134
X1.8032Y-0.4843
X1.8032Y-2.4528
X1.8032Y-4.4213
X1.8071Y-0.9606
X1.8071Y-1.311
X1.8071Y-1.3346
X1.8071Y-2.9291
X1.8071Y-3.2795
X1.8071Y-3.3031
X1.8071Y-4.8976
X1.8071Y-5.248
X1.8071Y-5.2717
X1.8229Y-0.9094
X1.8229Y-2.878
X1.8229Y-4.8465
X1.8268Y-0.2047
X1.8268Y-2.1732
X1.8268Y-4.1417
X1.8347Y-0.8858
X1.8347Y-2.8543
X1.8347Y-4.8228
X1.8386Y-0.4803
X1.8386Y-2.4488
X1.8386Y-4.4173
X1.8426Y-0.0472
X1.8426Y-2.0157
X1.8426Y-3.9843
X1.8622Y-0.8858
X1.8622Y-2.8543
X1.8622Y-4.8228
X1.878Y-0.378
X1.878Y-2.3465
X1.878Y-4.315
X1.8789Y-1.3701
X1.8789Y-3.3386
X1.8789Y-5.3071
X1.8859Y-0.5827
X1.8859Y-2.5512
X1.8859Y-4.5197
X1.8898Y-0.8858
X1.8898Y-2.8543
X1.8898Y-4.8228
X1.8937Y-0.8543
X1.8937Y-0.9291
X1.8937Y-2.8228
X1.8937Y-2.8976
X1.8937Y-4.7913
X1.8937Y-4.8661
X1.9056Y-0.0472
X1.9056Y-2.0157
X1.9056Y-3.9843
X1.9095Y-0.2047
X1.9095Y-2.1732
X1.9095Y-4.1417
X1.9292Y-1.1575
X1.9292Y-3.126
X1.9292Y-5.0945
X1.937Y-0.9173
X1.937Y-2.8858
X1.937Y-4.8543
X1.941Y-0.7559
X1.941Y-0.7953
X1.941Y-2.7244
X1.941Y-2.7638
X1.941Y-4.6929
X1.941Y-4.7323
X1.9567Y-0.2598
X1.9567Y-2.2283
X1.9567Y-4.1969
X1.9603Y-0.4392
X1.9603Y-2.4077
X1.9603Y-4.3762
X1.9607Y-0.8386
X1.9607Y-2.8071
X1.9607Y-4.7756
X1.9646Y-0.9173
X1.9646Y-2.8858
X1.9646Y-4.8543
X1.9685Y-1.3445
X1.9685Y-3.313
X1.9685Y-5.2815
X1.9725Y-0.4638
X1.9725Y-0.5
X1.9725Y-0.7047
X1.9725Y-0.7362
X1.9725Y-0.7717
X1.9725Y-2.4323
X1.9725Y-2.4685
X1.9725Y-2.6732
X1.9725Y-2.7047
X1.9725Y-2.7402
X1.9725Y-4.4008
X1.9725Y-4.437
X1.9725Y-4.6417
X1.9725Y-4.6732
X1.9725Y-4.7087
X1.9764Y-0.378
X1.9764Y-2.3465
X1.9764Y-4.315
X2.0158Y-0.4055
X2.0158Y-0.4488
X2.0158Y-2.374
X2.0158Y-2.4173
X2.0158Y-4.3425
X2.0158Y-4.3858
X2.0394Y-0.8465
X2.0394Y-0.8898
X2.0394Y-2.815
X2.0394Y-2.8583
X2.0394Y-4.7835
X2.0394Y-4.8268
X2.0512Y-1.1811
X2.0512Y-1.2244
X2.0512Y-3.1496
X2.0512Y-3.1929
X2.0512Y-5.1181
X2.0512Y-5.1614
X2.0591Y-0.4055
X2.0591Y-0.4488
X2.0591Y-2.374
X2.0591Y-2.4173
X2.0591Y-4.3425
X2.0591Y-4.3858
X2.0788Y-0.2598
X2.0788Y-2.2283
X2.0788Y-4.1969
X2.0827Y-0.8465
X2.0827Y-0.8898
X2.0827Y-2.815
X2.0827Y-2.8583
X2.0827Y-4.7835
X2.0827Y-4.8268
X2.0906Y-1.1811
X2.0906Y-1.2244
X2.0906Y-3.1496
X2.0906Y-3.1929
X2.0906Y-5.1181
X2.0906Y-5.1614
X2.1024Y-0.4055
X2.1024Y-0.4488
X2.1024Y-2.374
X2.1024Y-2.4173
X2.1024Y-4.3425
X2.1024Y-4.3858
X2.1063Y-1.3583
X2.1063Y-1.3976
X2.1063Y-1.437
X2.1063Y-3.3268
X2.1063Y-3.3661
X2.1063Y-3.4055
X2.1063Y-5.2953
X2.1063Y-5.3346
X2.1063Y-5.374
X2.1221Y-0.5906
X2.1221Y-0.9252
X2.1221Y-2.5591
X2.1221Y-2.8937
X2.1221Y-4.5276
X2.1221Y-4.8622
X2.126Y-0.8465
X2.126Y-0.8898
X2.126Y-2.815
X2.126Y-2.8583
X2.126Y-4.7835
X2.126Y-4.8268
X2.13Y-1.1811
X2.13Y-1.2244
X2.13Y-3.1496
X2.13Y-3.1929
X2.13Y-5.1181
X2.13Y-5.1614
X2.1457Y-1.3583
X2.1457Y-1.3976
X2.1457Y-1.437
X2.1457Y-3.3268
X2.1457Y-3.3661
X2.1457Y-3.4055
X2.1457Y-5.2953
X2.1457Y-5.3346
X2.1457Y-5.374
X2.1556Y-0.1083
X2.1556Y-0.1417
X2.1556Y-0.1752
X2.1556Y-0.2087
X2.1556Y-2.0768
X2.1556Y-2.1102
X2.1556Y-2.1437
X2.1556Y-2.1772
X2.1556Y-4.0453
X2.1556Y-4.0787
X2.1556Y-4.1122
X2.1556Y-4.1457
X2.1577Y-0.3258
X2.1577Y-0.6604
X2.1577Y-0.9951
X2.1577Y-2.2943
X2.1577Y-2.6289
X2.1577Y-2.9636
X2.1577Y-4.2628
X2.1577Y-4.5974
X2.1577Y-4.9321
X2.1772Y-1.2559
X2.1772Y-3.2244
X2.1772Y-5.1929
X2.2343Y-1.1713
X2.2343Y-3.1398
X2.2343Y-5.1083
X2.24Y-0.5482
X2.24Y-0.8829
X2.24Y-1.2175
X2.24Y-2.5167
X2.24Y-2.8514
X2.24Y-3.186
X2.24Y-4.4852
X2.24Y-4.8199
X2.24Y-5.1545
X2.2422Y-0.502
X2.2422Y-0.8366
X2.2422Y-2.4705
X2.2422Y-2.8051
X2.2422Y-4.439
X2.2422Y-4.7736
X2.2599Y-0.5906
X2.2599Y-0.9252
X2.2599Y-2.5591
X2.2599Y-2.8937
X2.2599Y-4.5276
X2.2599Y-4.8622
X2.2638Y-1.2598
X2.2638Y-3.2283
X2.2638Y-5.1969
X2.2678Y-0.5197
X2.2678Y-0.8504
X2.2678Y-1.1811
X2.2678Y-2.4882
X2.2678Y-2.8189
X2.2678Y-3.1496
X2.2678Y-4.4567
X2.2678Y-4.7874
X2.2678Y-5.1181
X2.2933Y-0.502
X2.2933Y-0.5906
X2.2933Y-0.8366
X2.2933Y-0.9252
X2.2933Y-2.4705
X2.2933Y-2.5591
X2.2933Y-2.8051
X2.2933Y-2.8937
X2.2933Y-4.439
X2.2933Y-4.5276
X2.2933Y-4.7736
X2.2933Y-4.8622
X2.2953Y-1.2598
X2.2953Y-3.2283
X2.2953Y-5.1969
X2.2993Y-1.1713
X2.2993Y-3.1398
X2.2993Y-5.1083
X2.313Y-0.2165
X2.313Y-0.2461
X2.313Y-2.185
X2.313Y-2.2146
X2.313Y-4.1535
X2.313Y-4.1831
X2.315Y-0.4409
X2.315Y-0.5197
X2.315Y-0.7756
X2.315Y-0.8504
X2.315Y-1.1102
X2.315Y-2.4094
X2.315Y-2.4882
X2.315Y-2.7441
X2.315Y-2.8189
X2.315Y-3.0787
X2.315Y-4.378
X2.315Y-4.4567
X2.315Y-4.7126
X2.315Y-4.7874
X2.315Y-5.0472
X2.3268Y-0.5906
X2.3268Y-0.9252
X2.3268Y-2.5591
X2.3268Y-2.8937
X2.3268Y-4.5276
X2.3268Y-4.8622
X2.3307Y-1.1713
X2.3307Y-1.2598
X2.3307Y-3.1398
X2.3307Y-3.2283
X2.3307Y-5.1083
X2.3307Y-5.1969
X2.3426Y-0.2165
X2.3426Y-0.2461
X2.3426Y-2.185
X2.3426Y-2.2146
X2.3426Y-4.1535
X2.3426Y-4.1831
X2.3721Y-0.2165
X2.3721Y-0.2461
X2.3721Y-2.185
X2.3721Y-2.2146
X2.3721Y-4.1535
X2.3721Y-4.1831
X2.4016Y-0.2165
X2.4016Y-0.2461
X2.4016Y-2.185
X2.4016Y-2.2146
X2.4016Y-4.1535
X2.4016Y-4.1831
X2.5788Y-0.0669
X2.5788Y-0.1083
X2.5788Y-0.1378
X2.5788Y-0.1673
X2.5788Y-0.1969
X2.5788Y-2.0354
X2.5788Y-2.0768
X2.5788Y-2.1063
X2.5788Y-2.1358
X2.5788Y-2.1654
X2.5788Y-4.0039
X2.5788Y-4.0453
X2.5788Y-4.0748
X2.5788Y-4.1043
X2.5788Y-4.1339
X2.6142Y-1.1772
X2.6142Y-3.1457
X2.6142Y-5.1142
X2.6378Y-0.0472
X2.6378Y-2.0157
X2.6378Y-3.9843
X2.693Y-1.3346
X2.693Y-3.3031
X2.693Y-5.2717
X2.7048Y-1.2795
X2.7048Y-3.248
X2.7048Y-5.2165
X2.7638Y-0.0315
X2.7638Y-0.0669
X2.7638Y-2.0
X2.7638Y-2.0354
X2.7638Y-3.9685
X2.7638Y-4.0039
X2.815Y-1.0827
X2.815Y-1.122
X2.815Y-1.1614
X2.815Y-1.2008
X2.815Y-1.2323
X2.815Y-3.0512
X2.815Y-3.0906
X2.815Y-3.1299
X2.815Y-3.1693
X2.815Y-3.2008
X2.815Y-5.0197
X2.815Y-5.0591
X2.815Y-5.0984
X2.815Y-5.1378
X2.815Y-5.1693
X2.8937Y-1.0827
X2.8937Y-1.1811
X2.8937Y-3.0512
X2.8937Y-3.1496
X2.8937Y-5.0197
X2.8937Y-5.1181
X2.9331Y-1.0827
X2.9331Y-1.1811
X2.9331Y-3.0512
X2.9331Y-3.1496
X2.9331Y-5.0197
X2.9331Y-5.1181
X2.9725Y-1.0827
X2.9725Y-1.1811
X2.9725Y-3.0512
X2.9725Y-3.1496
X2.9725Y-5.0197
X2.9725Y-5.1181
X3.1496Y-1.0827
X3.1496Y-1.1811
X3.1496Y-3.0512
X3.1496Y-3.1496
X3.1496Y-5.0197
X3.1496Y-5.1181
X3.189Y-1.0827
X3.189Y-1.1811
X3.189Y-3.0512
X3.189Y-3.1496
X3.189Y-5.0197
X3.189Y-5.1181
X3.2284Y-1.0827
X3.2284Y-1.1811
X3.2284Y-3.0512
X3.2284Y-3.1496
X3.2284Y-5.0197
X3.2284Y-5.1181
X3.3071Y-1.0827
X3.3071Y-1.122
X3.3071Y-1.1614
X3.3071Y-1.2008
X3.3071Y-3.0512
X3.3071Y-3.0906
X3.3071Y-3.1299
X3.3071Y-3.1693
X3.3071Y-5.0197
X3.3071Y-5.0591
X3.3071Y-5.0984
X3.3071Y-5.1378
X3.441Y-1.2717
X3.441Y-3.2402
X3.441Y-5.2087
X3.5079Y-0.0512
X3.5079Y-2.0197
X3.5079Y-3.9882
X3.5119Y-1.2323
X3.5119Y-3.2008
X3.5119Y-5.1693
X3.563Y-0.1083
X3.563Y-0.1378
X3.563Y-0.1673
X3.563Y-0.1969
X3.563Y-2.0768
X3.563Y-2.1063
X3.563Y-2.1358
X3.563Y-2.1654
X3.563Y-4.0453
X3.563Y-4.0748
X3.563Y-4.1043
X3.563Y-4.1339
X3.5788Y-0.0512
X3.5788Y-2.0197
X3.5788Y-3.9882
X3.5827Y-1.2677
X3.5827Y-3.2362
X3.5827Y-5.2047
X3.7087Y-0.0394
X3.7087Y-2.0079
X3.7087Y-3.9764
X3.7205Y-0.2165
X3.7205Y-0.2461
X3.7205Y-2.185
X3.7205Y-2.2146
X3.7205Y-4.1535
X3.7205Y-4.1831
X3.75Y-0.2165
X3.75Y-0.2461
X3.75Y-2.185
X3.75Y-2.2146
X3.75Y-4.1535
X3.75Y-4.1831
X3.7796Y-0.2165
X3.7796Y-0.2461
X3.7796Y-2.185
X3.7796Y-2.2146
X3.7796Y-4.1535
X3.7796Y-4.1831
X3.7914Y-1.3937
X3.7914Y-1.5354
X3.7914Y-3.3622
X3.7914Y-3.5039
X3.7914Y-5.3307
X3.7914Y-5.4724
X3.8091Y-0.2165
X3.8091Y-0.2461
X3.8091Y-2.185
X3.8091Y-2.2146
X3.8091Y-4.1535
X3.8091Y-4.1831
X3.8189Y-0.3228
X3.8189Y-0.4114
X3.8189Y-0.6575
X3.8189Y-0.7461
X3.8189Y-0.9921
X3.8189Y-1.0807
X3.8189Y-2.2913
X3.8189Y-2.3799
X3.8189Y-2.626
X3.8189Y-2.7146
X3.8189Y-2.9606
X3.8189Y-3.0492
X3.8189Y-4.2598
X3.8189Y-4.3484
X3.8189Y-4.5945
X3.8189Y-4.6831
X3.8189Y-4.9291
X3.8189Y-5.0177
X3.8229Y-0.0551
X3.8229Y-2.0236
X3.8229Y-3.9921
X3.8268Y-0.4724
X3.8268Y-0.8071
X3.8268Y-1.1417
X3.8268Y-2.4409
X3.8268Y-2.7756
X3.8268Y-3.1102
X3.8268Y-4.4094
X3.8268Y-4.7441
X3.8268Y-5.0787
X3.8465Y-1.3898
X3.8465Y-1.4764
X3.8465Y-3.3583
X3.8465Y-3.4449
X3.8465Y-5.3268
X3.8465Y-5.4134
X3.8485Y-0.3228
X3.8485Y-0.4114
X3.8485Y-0.6575
X3.8485Y-0.7461
X3.8485Y-0.9921
X3.8485Y-1.0807
X3.8485Y-2.2913
X3.8485Y-2.3799
X3.8485Y-2.626
X3.8485Y-2.7146
X3.8485Y-2.9606
X3.8485Y-3.0492
X3.8485Y-4.2598
X3.8485Y-4.3484
X3.8485Y-4.5945
X3.8485Y-4.6831
X3.8485Y-4.9291
X3.8485Y-5.0177
X3.878Y-0.3228
X3.878Y-0.4114
X3.878Y-0.6575
X3.878Y-0.7461
X3.878Y-0.9921
X3.878Y-1.0807
X3.878Y-2.2913
X3.878Y-2.3799
X3.878Y-2.626
X3.878Y-2.7146
X3.878Y-2.9606
X3.878Y-3.0492
X3.878Y-4.2598
X3.878Y-4.3484
X3.878Y-4.5945
X3.878Y-4.6831
X3.878Y-4.9291
X3.878Y-5.0177
X3.9018Y-0.3652
X3.9018Y-0.6998
X3.9018Y-1.0344
X3.9018Y-2.3337
X3.9018Y-2.6683
X3.9018Y-3.003
X3.9018Y-4.3022
X3.9018Y-4.6368
X3.9018Y-4.9715
X3.9036Y-0.7461
X3.9036Y-2.7146
X3.9036Y-4.6831
X3.9075Y-0.4114
X3.9075Y-1.0807
X3.9075Y-2.3799
X3.9075Y-3.0492
X3.9075Y-4.3484
X3.9075Y-5.0177
X3.9607Y-0.6614
X3.9607Y-2.6299
X3.9607Y-4.5984
X3.9646Y-0.9921
X3.9646Y-2.9606
X3.9646Y-4.9291
X3.9725Y-0.3228
X3.9725Y-2.2913
X3.9725Y-4.2598
X3.9841Y-0.5876
X3.9841Y-0.9222
X3.9841Y-1.2569
X3.9841Y-2.5561
X3.9841Y-2.8907
X3.9841Y-3.2254
X3.9841Y-4.5246
X3.9841Y-4.8593
X3.9841Y-5.1939
X3.9863Y-0.1083
X3.9863Y-0.1378
X3.9863Y-0.1673
X3.9863Y-0.1969
X3.9863Y-2.0768
X3.9863Y-2.1063
X3.9863Y-2.1358
X3.9863Y-2.1654
X3.9863Y-4.0453
X3.9863Y-4.0748
X3.9863Y-4.1043
X3.9863Y-4.1339
X4.0119Y-1.1181
X4.0119Y-1.1575
X4.0119Y-3.0866
X4.0119Y-3.126
X4.0119Y-5.0551
X4.0119Y-5.0945
X4.0158Y-1.0315
X4.0158Y-3.0
X4.0158Y-4.9685
X4.0237Y-0.8189
X4.0237Y-2.7874
X4.0237Y-4.7559
X4.0433Y-0.3602
X4.0433Y-0.3996
X4.0433Y-0.439
X4.0433Y-1.5197
X4.0433Y-2.3287
X4.0433Y-2.3681
X4.0433Y-2.4075
X4.0433Y-3.4882
X4.0433Y-4.2972
X4.0433Y-4.3366
X4.0433Y-4.376
X4.0433Y-5.4567
X4.0473Y-1.4055
X4.0473Y-1.4291
X4.0473Y-1.4528
X4.0473Y-3.374
X4.0473Y-3.3976
X4.0473Y-3.4213
X4.0473Y-5.3425
X4.0473Y-5.3661
X4.0473Y-5.3898
X4.0512Y-1.1181
X4.0512Y-1.1575
X4.0512Y-3.0866
X4.0512Y-3.126
X4.0512Y-5.0551
X4.0512Y-5.0945
X4.0552Y-0.6949
X4.0552Y-0.7343
X4.0552Y-1.0315
X4.0552Y-2.6634
X4.0552Y-2.7028
X4.0552Y-3.0
X4.0552Y-4.6319
X4.0552Y-4.6713
X4.0552Y-4.9685
X4.0591Y-0.6575
X4.0591Y-2.626
X4.0591Y-4.5945
X4.063Y-0.9843
X4.063Y-1.3031
X4.063Y-2.9528
X4.063Y-3.2717
X4.063Y-4.9213
X4.063Y-5.2402
X4.0709Y-1.4291
X4.0709Y-3.3976
X4.0709Y-5.3661
X4.0827Y-0.3602
X4.0827Y-0.3996
X4.0827Y-0.439
X4.0827Y-2.3287
X4.0827Y-2.3681
X4.0827Y-2.4075
X4.0827Y-4.2972
X4.0827Y-4.3366
X4.0827Y-4.376
X4.0945Y-0.7343
X4.0945Y-2.7028
X4.0945Y-4.6713
X4.1063Y-0.8425
X4.1063Y-2.811
X4.1063Y-4.7795
X4.1575Y-0.4882
X4.1575Y-2.4567
X4.1575Y-4.4252
X4.1811Y-0.8425
X4.1811Y-1.0079
X4.1811Y-2.811
X4.1811Y-2.9764
X4.1811Y-4.7795
X4.1811Y-4.9449
X4.2008Y-0.6496
X4.2008Y-2.6181
X4.2008Y-4.5866
X4.2048Y-0.4843
X4.2048Y-1.2008
X4.2048Y-2.4528
X4.2048Y-3.1693
X4.2048Y-4.4213
X4.2048Y-5.1378
X4.2087Y-0.3622
X4.2087Y-0.5669
X4.2087Y-2.3307
X4.2087Y-2.5354
X4.2087Y-4.2992
X4.2087Y-4.5039
X4.2126Y-1.2795
X4.2126Y-3.248
X4.2126Y-5.2165
X4.2166Y-1.3268
X4.2166Y-3.2953
X4.2166Y-5.2638
X4.2244Y-0.2717
X4.2244Y-2.2402
X4.2244Y-4.2087
X4.252Y-0.5807
X4.252Y-0.7244
X4.252Y-2.5492
X4.252Y-2.6929
X4.252Y-4.5177
X4.252Y-4.6614
X4.2568Y-0.6048
X4.2568Y-2.5733
X4.2568Y-4.5418
X4.2579Y-0.2618
X4.2579Y-2.2303
X4.2579Y-4.1988
X4.2638Y-0.4094
X4.2638Y-0.8937
X4.2638Y-1.2047
X4.2638Y-2.378
X4.2638Y-2.8622
X4.2638Y-3.1732
X4.2638Y-4.3465
X4.2638Y-4.8307
X4.2638Y-5.1417
X4.2776Y-0.2913
X4.2776Y-2.2598
X4.2776Y-4.2283
X4.2914Y-0.9134
X4.2914Y-2.8819
X4.2914Y-4.8504
X4.3032Y-0.3346
X4.3032Y-2.3031
X4.3032Y-4.2717
X4.3071Y-0.4331
X4.3071Y-2.4016
X4.3071Y-4.3701
X4.3111Y-1.2205
X4.3111Y-3.189
X4.3111Y-5.1575
X4.3386Y-0.3346
X4.3386Y-1.0866
X4.3386Y-1.2913
X4.3386Y-2.3031
X4.3386Y-3.0551
X4.3386Y-3.2598
X4.3386Y-4.2717
X4.3386Y-5.0236
X4.3386Y-5.2283
X4.3544Y-0.6575
X4.3544Y-2.626
X4.3544Y-4.5945
X4.3603Y-1.0138
X4.3603Y-2.9823
X4.3603Y-4.9508
X4.3741Y-0.3622
X4.3741Y-2.3307
X4.3741Y-4.2992
X4.3859Y-0.5827
X4.3859Y-0.9764
X4.3859Y-2.5512
X4.3859Y-2.9449
X4.3859Y-4.5197
X4.3859Y-4.9134
X4.3898Y-0.689
X4.3898Y-2.6575
X4.3898Y-4.626
X4.3937Y-1.252
X4.3937Y-3.2205
X4.3937Y-5.189
X4.3977Y-0.3425
X4.3977Y-2.311
X4.3977Y-4.2795
X4.4016Y-0.7323
X4.4016Y-0.7559
X4.4016Y-0.7795
X4.4016Y-0.8031
X4.4016Y-0.8346
X4.4016Y-0.9567
X4.4016Y-2.7008
X4.4016Y-2.7244
X4.4016Y-2.748
X4.4016Y-2.7717
X4.4016Y-2.8031
X4.4016Y-2.9252
X4.4016Y-4.6693
X4.4016Y-4.6929
X4.4016Y-4.7165
X4.4016Y-4.7402
X4.4016Y-4.7717
X4.4016Y-4.8937
X4.4134Y-0.7047
X4.4134Y-2.6732
X4.4134Y-4.6417
X4.4213Y-0.9764
X4.4213Y-2.9449
X4.4213Y-4.9134
X4.4252Y-0.4409
X4.4252Y-2.4094
X4.4252Y-4.378
X4.441Y-0.9606
X4.441Y-2.9291
X4.441Y-4.8976
X4.4449Y-0.4921
X4.4449Y-2.4606
X4.4449Y-4.4291
X4.4489Y-0.8858
X4.4489Y-2.8543
X4.4489Y-4.8228
X4.4607Y-0.2323
X4.4607Y-2.2008
X4.4607Y-4.1693
X4.4646Y-0.4409
X4.4646Y-2.4094
X4.4646Y-4.378
X4.4685Y-0.7677
X4.4685Y-0.8071
X4.4685Y-2.7362
X4.4685Y-2.7756
X4.4685Y-4.7047
X4.4685Y-4.7441
X4.4843Y-0.5945
X4.4843Y-2.563
X4.4843Y-4.5315
X4.4882Y-1.2283
X4.4882Y-3.1969
X4.4882Y-5.1654
X4.5Y-0.9685
X4.5Y-2.937
X4.5Y-4.9055
X4.504Y-0.6142
X4.504Y-2.5827
X4.504Y-4.5512
X4.5079Y-0.7677
X4.5079Y-0.8071
X4.5079Y-2.7362
X4.5079Y-2.7756
X4.5079Y-4.7047
X4.5079Y-4.7441
X4.5394Y-1.2008
X4.5394Y-3.1693
X4.5394Y-5.1378
X4.5433Y-0.4409
X4.5433Y-2.4094
X4.5433Y-4.378
X4.5473Y-1.0138
X4.5473Y-2.9823
X4.5473Y-4.9508
X4.5571Y-1.122
X4.5571Y-3.0906
X4.5571Y-5.0591
X4.5719Y-1.0138
X4.5719Y-2.9823
X4.5719Y-4.9508
X4.5748Y-0.4685
X4.5748Y-0.6929
X4.5748Y-2.437
X4.5748Y-2.6614
X4.5748Y-4.4055
X4.5748Y-4.6299
X4.5827Y-0.8268
X4.5827Y-2.7953
X4.5827Y-4.7638
X4.5867Y-0.7677
X4.5867Y-1.2835
X4.5867Y-2.7362
X4.5867Y-3.252
X4.5867Y-4.7047
X4.5867Y-5.2205
X4.5965Y-1.122
X4.5965Y-3.0906
X4.5965Y-5.0591
X4.5985Y-0.4941
X4.5985Y-2.4626
X4.5985Y-4.4311
X4.6103Y-1.2008
X4.6103Y-3.1693
X4.6103Y-5.1378
X4.6142Y-1.2677
X4.6142Y-3.2362
X4.6142Y-5.2047
X4.6181Y-0.9764
X4.6181Y-2.9449
X4.6181Y-4.9134
X4.6378Y-0.4843
X4.6378Y-2.4528
X4.6378Y-4.4213
X4.6418Y-0.9606
X4.6418Y-1.311
X4.6418Y-1.3346
X4.6418Y-2.9291
X4.6418Y-3.2795
X4.6418Y-3.3031
X4.6418Y-4.8976
X4.6418Y-5.248
X4.6418Y-5.2717
X4.6575Y-0.9094
X4.6575Y-2.878
X4.6575Y-4.8465
X4.6615Y-0.2047
X4.6615Y-2.1732
X4.6615Y-4.1417
X4.6693Y-0.8858
X4.6693Y-2.8543
X4.6693Y-4.8228
X4.6733Y-0.4803
X4.6733Y-2.4488
X4.6733Y-4.4173
X4.6772Y-0.0472
X4.6772Y-2.0157
X4.6772Y-3.9843
X4.6969Y-0.8858
X4.6969Y-2.8543
X4.6969Y-4.8228
X4.7126Y-0.378
X4.7126Y-2.3465
X4.7126Y-4.315
X4.7135Y-1.3701
X4.7135Y-3.3386
X4.7135Y-5.3071
X4.7205Y-0.5827
X4.7205Y-2.5512
X4.7205Y-4.5197
X4.7244Y-0.8858
X4.7244Y-2.8543
X4.7244Y-4.8228
X4.7284Y-0.8543
X4.7284Y-0.9291
X4.7284Y-2.8228
X4.7284Y-2.8976
X4.7284Y-4.7913
X4.7284Y-4.8661
X4.7402Y-0.0472
X4.7402Y-2.0157
X4.7402Y-3.9843
X4.7441Y-0.2047
X4.7441Y-2.1732
X4.7441Y-4.1417
X4.7638Y-1.1575
X4.7638Y-3.126
X4.7638Y-5.0945
X4.7717Y-0.9173
X4.7717Y-2.8858
X4.7717Y-4.8543
X4.7756Y-0.7559
X4.7756Y-0.7953
X4.7756Y-2.7244
X4.7756Y-2.7638
X4.7756Y-4.6929
X4.7756Y-4.7323
X4.7914Y-0.2598
X4.7914Y-2.2283
X4.7914Y-4.1969
X4.7949Y-0.4392
X4.7949Y-2.4077
X4.7949Y-4.3762
X4.7953Y-0.8386
X4.7953Y-2.8071
X4.7953Y-4.7756
X4.7993Y-0.9173
X4.7993Y-2.8858
X4.7993Y-4.8543
X4.8032Y-1.3445
X4.8032Y-3.313
X4.8032Y-5.2815
X4.8071Y-0.4638
X4.8071Y-0.5
X4.8071Y-0.7047
X4.8071Y-0.7362
X4.8071Y-0.7717
X4.8071Y-2.4323
X4.8071Y-2.4685
X4.8071Y-2.6732
X4.8071Y-2.7047
X4.8071Y-2.7402
X4.8071Y-4.4008
X4.8071Y-4.437
X4.8071Y-4.6417
X4.8071Y-4.6732
X4.8071Y-4.7087
X4.8111Y-0.378
X4.8111Y-2.3465
X4.8111Y-4.315
X4.8504Y-0.4055
X4.8504Y-0.4488
X4.8504Y-2.374
X4.8504Y-2.4173
X4.8504Y-4.3425
X4.8504Y-4.3858
X4.8741Y-0.8465
X4.8741Y-0.8898
X4.8741Y-2.815
X4.8741Y-2.8583
X4.8741Y-4.7835
X4.8741Y-4.8268
X4.8859Y-1.1811
X4.8859Y-1.2244
X4.8859Y-3.1496
X4.8859Y-3.1929
X4.8859Y-5.1181
X4.8859Y-5.1614
X4.8937Y-0.4055
X4.8937Y-0.4488
X4.8937Y-2.374
X4.8937Y-2.4173
X4.8937Y-4.3425
X4.8937Y-4.3858
X4.9134Y-0.2598
X4.9134Y-2.2283
X4.9134Y-4.1969
X4.9174Y-0.8465
X4.9174Y-0.8898
X4.9174Y-2.815
X4.9174Y-2.8583
X4.9174Y-4.7835
X4.9174Y-4.8268
X4.9252Y-1.1811
X4.9252Y-1.2244
X4.9252Y-3.1496
X4.9252Y-3.1929
X4.9252Y-5.1181
X4.9252Y-5.1614
X4.937Y-0.4055
X4.937Y-0.4488
X4.937Y-2.374
X4.937Y-2.4173
X4.937Y-4.3425
X4.937Y-4.3858
X4.941Y-1.3583
X4.941Y-1.3976
X4.941Y-1.437
X4.941Y-3.3268
X4.941Y-3.3661
X4.941Y-3.4055
X4.941Y-5.2953
X4.941Y-5.3346
X4.941Y-5.374
X4.9567Y-0.5906
X4.9567Y-0.9252
X4.9567Y-2.5591
X4.9567Y-2.8937
X4.9567Y-4.5276
X4.9567Y-4.8622
X4.9607Y-0.8465
X4.9607Y-0.8898
X4.9607Y-2.815
X4.9607Y-2.8583
X4.9607Y-4.7835
X4.9607Y-4.8268
X4.9646Y-1.1811
X4.9646Y-1.2244
X4.9646Y-3.1496
X4.9646Y-3.1929
X4.9646Y-5.1181
X4.9646Y-5.1614
X4.9804Y-1.3583
X4.9804Y-1.3976
X4.9804Y-1.437
X4.9804Y-3.3268
X4.9804Y-3.3661
X4.9804Y-3.4055
X4.9804Y-5.2953
X4.9804Y-5.3346
X4.9804Y-5.374
X4.9902Y-0.1083
X4.9902Y-0.1417
X4.9902Y-0.1752
X4.9902Y-0.2087
X4.9902Y-2.0768
X4.9902Y-2.1102
X4.9902Y-2.1437
X4.9902Y-2.1772
X4.9902Y-4.0453
X4.9902Y-4.0787
X4.9902Y-4.1122
X4.9902Y-4.1457
X4.9924Y-0.3258
X4.9924Y-0.6604
X4.9924Y-0.9951
X4.9924Y-2.2943
X4.9924Y-2.6289
X4.9924Y-2.9636
X4.9924Y-4.2628
X4.9924Y-4.5974
X4.9924Y-4.9321
X5.0119Y-1.2559
X5.0119Y-3.2244
X5.0119Y-5.1929
X5.0689Y-1.1713
X5.0689Y-3.1398
X5.0689Y-5.1083
X5.0746Y-0.5482
X5.0746Y-0.8829
X5.0746Y-1.2175
X5.0746Y-2.5167
X5.0746Y-2.8514
X5.0746Y-3.186
X5.0746Y-4.4852
X5.0746Y-4.8199
X5.0746Y-5.1545
X5.0768Y-0.502
X5.0768Y-0.8366
X5.0768Y-2.4705
X5.0768Y-2.8051
X5.0768Y-4.439
X5.0768Y-4.7736
X5.0945Y-0.5906
X5.0945Y-0.9252
X5.0945Y-2.5591
X5.0945Y-2.8937
X5.0945Y-4.5276
X5.0945Y-4.8622
X5.0985Y-1.2598
X5.0985Y-3.2283
X5.0985Y-5.1969
X5.1024Y-0.5197
X5.1024Y-0.8504
X5.1024Y-1.1811
X5.1024Y-2.4882
X5.1024Y-2.8189
X5.1024Y-3.1496
X5.1024Y-4.4567
X5.1024Y-4.7874
X5.1024Y-5.1181
X5.128Y-0.502
X5.128Y-0.5906
X5.128Y-0.8366
X5.128Y-0.9252
X5.128Y-2.4705
X5.128Y-2.5591
X5.128Y-2.8051
X5.128Y-2.8937
X5.128Y-4.439
X5.128Y-4.5276
X5.128Y-4.7736
X5.128Y-4.8622
X5.13Y-1.2598
X5.13Y-3.2283
X5.13Y-5.1969
X5.1339Y-1.1713
X5.1339Y-3.1398
X5.1339Y-5.1083
X5.1477Y-0.2165
X5.1477Y-0.2461
X5.1477Y-2.185
X5.1477Y-2.2146
X5.1477Y-4.1535
X5.1477Y-4.1831
X5.1496Y-0.4409
X5.1496Y-0.5197
X5.1496Y-0.7756
X5.1496Y-0.8504
X5.1496Y-1.1102
X5.1496Y-2.4094
X5.1496Y-2.4882
X5.1496Y-2.7441
X5.1496Y-2.8189
X5.1496Y-3.0787
X5.1496Y-4.378
X5.1496Y-4.4567
X5.1496Y-4.7126
X5.1496Y-4.7874
X5.1496Y-5.0472
X5.1615Y-0.5906
X5.1615Y-0.9252
X5.1615Y-2.5591
X5.1615Y-2.8937
X5.1615Y-4.5276
X5.1615Y-4.8622
X5.1654Y-1.1713
X5.1654Y-1.2598
X5.1654Y-3.1398
X5.1654Y-3.2283
X5.1654Y-5.1083
X5.1654Y-5.1969
X5.1772Y-0.2165
X5.1772Y-0.2461
X5.1772Y-2.185
X5.1772Y-2.2146
X5.1772Y-4.1535
X5.1772Y-4.1831
X5.2067Y-0.2165
X5.2067Y-0.2461
X5.2067Y-2.185
X5.2067Y-2.2146
X5.2067Y-4.1535
X5.2067Y-4.1831
X5.2363Y-0.2165
X5.2363Y-0.2461
X5.2363Y-2.185
X5.2363Y-2.2146
X5.2363Y-4.1535
X5.2363Y-4.1831
X5.4134Y-0.0669
X5.4134Y-0.1083
X5.4134Y-0.1378
X5.4134Y-0.1673
X5.4134Y-0.1969
X5.4134Y-2.0354
X5.4134Y-2.0768
X5.4134Y-2.1063
X5.4134Y-2.1358
X5.4134Y-2.1654
X5.4134Y-4.0039
X5.4134Y-4.0453
X5.4134Y-4.0748
X5.4134Y-4.1043
X5.4134Y-4.1339
X5.4489Y-1.1772
X5.4489Y-3.1457
X5.4489Y-5.1142
X5.4725Y-0.0472
X5.4725Y-2.0157
X5.4725Y-3.9843
X5.5276Y-1.3346
X5.5276Y-3.3031
X5.5276Y-5.2717
X5.5394Y-1.2795
X5.5394Y-3.248
X5.5394Y-5.2165
X5.5985Y-0.0315
X5.5985Y-0.0669
X5.5985Y-2.0
X5.5985Y-2.0354
X5.5985Y-3.9685
X5.5985Y-4.0039
X5.6496Y-1.0827
X5.6496Y-1.122
X5.6496Y-1.1614
X5.6496Y-1.2008
X5.6496Y-1.2323
X5.6496Y-3.0512
X5.6496Y-3.0906
X5.6496Y-3.1299
X5.6496Y-3.1693
X5.6496Y-3.2008
X5.6496Y-5.0197
X5.6496Y-5.0591
X5.6496Y-5.0984
X5.6496Y-5.1378
X5.6496Y-5.1693
X5.7284Y-1.0827
X5.7284Y-1.1811
X5.7284Y-3.0512
X5.7284Y-3.1496
X5.7284Y-5.0197
X5.7284Y-5.1181
X5.7678Y-1.0827
X5.7678Y-1.1811
X5.7678Y-3.0512
X5.7678Y-3.1496
X5.7678Y-5.0197
X5.7678Y-5.1181
X5.8071Y-1.0827
X5.8071Y-1.1811
X5.8071Y-3.0512
X5.8071Y-3.1496
X5.8071Y-5.0197
X5.8071Y-5.1181
T3
X0.378Y-1.4252
X0.378Y-3.3937
X0.378Y-5.3622
X0.4567Y-1.4252
X0.4567Y-3.3937
X0.4567Y-5.3622
X0.5355Y-1.4252
X0.5355Y-3.3937
X0.5355Y-5.3622
X0.6142Y-1.4252
X0.6142Y-3.3937
X0.6142Y-5.3622
X0.6496Y-1.6437
X0.6496Y-3.6122
X0.6496Y-5.5807
X0.693Y-1.4252
X0.693Y-3.3937
X0.693Y-5.3622
X0.7284Y-1.6437
X0.7284Y-3.6122
X0.7284Y-5.5807
X0.7717Y-1.4252
X0.7717Y-3.3937
X0.7717Y-5.3622
X0.8071Y-1.6437
X0.8071Y-3.6122
X0.8071Y-5.5807
X0.8859Y-1.6437
X0.8859Y-3.6122
X0.8859Y-5.5807
X0.9646Y-1.6437
X0.9646Y-3.6122
X0.9646Y-5.5807
X1.0433Y-1.6437
X1.0433Y-3.6122
X1.0433Y-5.5807
X2.2638Y-1.6437
X2.2638Y-3.6122
X2.2638Y-5.5807
X2.3426Y-1.6437
X2.3426Y-3.6122
X2.3426Y-5.5807
X2.4213Y-1.6437
X2.4213Y-3.6122
X2.4213Y-5.5807
X2.5Y-1.6437
X2.5Y-3.6122
X2.5Y-5.5807
X2.5355Y-1.4252
X2.5355Y-3.3937
X2.5355Y-5.3622
X2.5788Y-1.6437
X2.5788Y-3.6122
X2.5788Y-5.5807
X2.6142Y-1.4252
X2.6142Y-3.3937
X2.6142Y-5.3622
X2.6575Y-1.6437
X2.6575Y-3.6122
X2.6575Y-5.5807
X2.693Y-1.4252
X2.693Y-3.3937
X2.693Y-5.3622
X2.7717Y-1.4252
X2.7717Y-3.3937
X2.7717Y-5.3622
X2.8504Y-1.4252
X2.8504Y-3.3937
X2.8504Y-5.3622
X2.9292Y-1.4252
X2.9292Y-3.3937
X2.9292Y-5.3622
X3.2126Y-1.4252
X3.2126Y-3.3937
X3.2126Y-5.3622
X3.2914Y-1.4252
X3.2914Y-3.3937
X3.2914Y-5.3622
X3.3701Y-1.4252
X3.3701Y-3.3937
X3.3701Y-5.3622
X3.4489Y-1.4252
X3.4489Y-3.3937
X3.4489Y-5.3622
X3.4843Y-1.6437
X3.4843Y-3.6122
X3.4843Y-5.5807
X3.5276Y-1.4252
X3.5276Y-3.3937
X3.5276Y-5.3622
X3.563Y-1.6437
X3.563Y-3.6122
X3.563Y-5.5807
X3.6063Y-1.4252
X3.6063Y-3.3937
X3.6063Y-5.3622
X3.6418Y-1.6437
X3.6418Y-3.6122
X3.6418Y-5.5807
X3.7205Y-1.6437
X3.7205Y-3.6122
X3.7205Y-5.5807
X3.7993Y-1.6437
X3.7993Y-3.6122
X3.7993Y-5.5807
X3.878Y-1.6437
X3.878Y-3.6122
X3.878Y-5.5807
X5.0985Y-1.6437
X5.0985Y-3.6122
X5.0985Y-5.5807
X5.1772Y-1.6437
X5.1772Y-3.6122
X5.1772Y-5.5807
X5.2559Y-1.6437
X5.2559Y-3.6122
X5.2559Y-5.5807
X5.3347Y-1.6437
X5.3347Y-3.6122
X5.3347Y-5.5807
X5.3701Y-1.4252
X5.3701Y-3.3937
X5.3701Y-5.3622
X5.4134Y-1.6437
X5.4134Y-3.6122
X5.4134Y-5.5807
X5.4489Y-1.4252
X5.4489Y-3.3937
X5.4489Y-5.3622
X5.4922Y-1.6437
X5.4922Y-3.6122
X5.4922Y-5.5807
X5.5276Y-1.4252
X5.5276Y-3.3937
X5.5276Y-5.3622
X5.6063Y-1.4252
X5.6063Y-3.3937
X5.6063Y-5.3622
X5.6851Y-1.4252
X5.6851Y-3.3937
X5.6851Y-5.3622
X5.7638Y-1.4252
X5.7638Y-3.3937
X5.7638Y-5.3622
T4
X0.5315Y-0.4528
X0.5315Y-0.6496
X0.5315Y-0.8465
X0.5315Y-2.4213
X0.5315Y-2.6181
X0.5315Y-2.815
X0.5315Y-4.3898
X0.5315Y-4.5866
X0.5315Y-4.7835
X2.7756Y-0.4528
X2.7756Y-0.6496
X2.7756Y-0.8465
X2.7756Y-2.4213
X2.7756Y-2.6181
X2.7756Y-2.815
X2.7756Y-4.3898
X2.7756Y-4.5866
X2.7756Y-4.7835
X3.3662Y-0.4528
X3.3662Y-0.6496
X3.3662Y-0.8465
X3.3662Y-2.4213
X3.3662Y-2.6181
X3.3662Y-2.815
X3.3662Y-4.3898
X3.3662Y-4.5866
X3.3662Y-4.7835
X5.6103Y-0.4528
X5.6103Y-0.6496
X5.6103Y-0.8465
X5.6103Y-2.4213
X5.6103Y-2.6181
X5.6103Y-2.815
X5.6103Y-4.3898
X5.6103Y-4.5866
X5.6103Y-4.7835
T5
X1.555Y-1.6142
X1.555Y-3.5827
X1.555Y-5.5512
X1.755Y-1.6142
X1.755Y-3.5827
X1.755Y-5.5512
X4.3896Y-1.6142
X4.3896Y-3.5827
X4.3896Y-5.5512
X4.5896Y-1.6142
X4.5896Y-3.5827
X4.5896Y-5.5512
T6
X0.4134Y-0.1378
X0.4134Y-1.6339
X0.4134Y-2.1063
X0.4134Y-3.6024
X0.4134Y-4.0748
X0.4134Y-5.5709
X2.8937Y-0.1378
X2.8937Y-1.6339
X2.8937Y-2.1063
X2.8937Y-3.6024
X2.8937Y-4.0748
X2.8937Y-5.5709
X3.2481Y-0.1378
X3.2481Y-1.6339
X3.2481Y-2.1063
X3.2481Y-3.6024
X3.2481Y-4.0748
X3.2481Y-5.5709
X5.7284Y-0.1378
X5.7284Y-1.6339
X5.7284Y-2.1063
X5.7284Y-3.6024
X5.7284Y-4.0748
X5.7284Y-5.5709
T2
G00X1.4835Y-0.127
M15
G01X1.4835Y-0.1033
M16
G05
G00X1.4835Y-0.3014
M15
G01X1.4835Y-0.2581
M16
G05
G00X1.4835Y-2.0955
M15
G01X1.4835Y-2.0719
M16
G05
G00X1.4835Y-2.2699
M15
G01X1.4835Y-2.2266
M16
G05
G00X1.4835Y-4.064
M15
G01X1.4835Y-4.0404
M16
G05
G00X1.4835Y-4.2384
M15
G01X1.4835Y-4.1951
M16
G05
G00X1.8237Y-0.127
M15
G01X1.8237Y-0.1033
M16
G05
G00X1.8237Y-0.3014
M15
G01X1.8237Y-0.2581
M16
G05
G00X1.8237Y-2.0955
M15
G01X1.8237Y-2.0719
M16
G05
G00X1.8237Y-2.2699
M15
G01X1.8237Y-2.2266
M16
G05
G00X1.8237Y-4.064
M15
G01X1.8237Y-4.0404
M16
G05
G00X1.8237Y-4.2384
M15
G01X1.8237Y-4.1951
M16
G05
G00X4.3181Y-0.127
M15
G01X4.3181Y-0.1033
M16
G05
G00X4.3181Y-0.3014
M15
G01X4.3181Y-0.2581
M16
G05
G00X4.3181Y-2.0955
M15
G01X4.3181Y-2.0719
M16
G05
G00X4.3181Y-2.2699
M15
G01X4.3181Y-2.2266
M16
G05
G00X4.3181Y-4.064
M15
G01X4.3181Y-4.0404
M16
G05
G00X4.3181Y-4.2384
M15
G01X4.3181Y-4.1951
M16
G05
G00X4.6583Y-0.127
M15
G01X4.6583Y-0.1033
M16
G05
G00X4.6583Y-0.3014
M15
G01X4.6583Y-0.2581
M16
G05
G00X4.6583Y-2.0955
M15
G01X4.6583Y-2.0719
M16
G05
G00X4.6583Y-2.2699
M15
G01X4.6583Y-2.2266
M16
G05
G00X4.6583Y-4.064
M15
G01X4.6583Y-4.0404
M16
G05
G00X4.6583Y-4.2384
M15
G01X4.6583Y-4.1951
M16
G05
M30
