%TF.GenerationSoftware,KiCad,Pcbnew,8.0.2*%
%TF.CreationDate,2024-05-05T15:17:45+02:00*%
%TF.ProjectId,motor_unicorn,6d6f746f-725f-4756-9e69-636f726e2e6b,rev?*%
%TF.SameCoordinates,Original*%
%TF.FileFunction,Legend,Top*%
%TF.FilePolarity,Positive*%
%FSLAX46Y46*%
G04 Gerber Fmt 4.6, Leading zero omitted, Abs format (unit mm)*
G04 Created by KiCad (PCBNEW 8.0.2) date 2024-05-05 15:17:45*
%MOMM*%
%LPD*%
G01*
G04 APERTURE LIST*
G04 Aperture macros list*
%AMRoundRect*
0 Rectangle with rounded corners*
0 $1 Rounding radius*
0 $2 $3 $4 $5 $6 $7 $8 $9 X,Y pos of 4 corners*
0 Add a 4 corners polygon primitive as box body*
4,1,4,$2,$3,$4,$5,$6,$7,$8,$9,$2,$3,0*
0 Add four circle primitives for the rounded corners*
1,1,$1+$1,$2,$3*
1,1,$1+$1,$4,$5*
1,1,$1+$1,$6,$7*
1,1,$1+$1,$8,$9*
0 Add four rect primitives between the rounded corners*
20,1,$1+$1,$2,$3,$4,$5,0*
20,1,$1+$1,$4,$5,$6,$7,0*
20,1,$1+$1,$6,$7,$8,$9,0*
20,1,$1+$1,$8,$9,$2,$3,0*%
G04 Aperture macros list end*
%ADD10C,0.120000*%
%ADD11C,0.100000*%
%ADD12RoundRect,0.112500X0.187500X0.112500X-0.187500X0.112500X-0.187500X-0.112500X0.187500X-0.112500X0*%
%ADD13RoundRect,0.135000X0.135000X0.185000X-0.135000X0.185000X-0.135000X-0.185000X0.135000X-0.185000X0*%
%ADD14R,1.400000X1.200000*%
%ADD15R,0.450000X0.450000*%
%ADD16R,0.300000X0.750000*%
%ADD17R,1.500000X1.300000*%
%ADD18RoundRect,0.140000X0.140000X0.170000X-0.140000X0.170000X-0.140000X-0.170000X0.140000X-0.170000X0*%
%ADD19RoundRect,0.112500X-0.187500X-0.112500X0.187500X-0.112500X0.187500X0.112500X-0.187500X0.112500X0*%
%ADD20RoundRect,0.250000X-0.250000X-0.475000X0.250000X-0.475000X0.250000X0.475000X-0.250000X0.475000X0*%
%ADD21RoundRect,0.250000X-0.475000X0.250000X-0.475000X-0.250000X0.475000X-0.250000X0.475000X0.250000X0*%
%ADD22RoundRect,0.250000X0.475000X-0.250000X0.475000X0.250000X-0.475000X0.250000X-0.475000X-0.250000X0*%
%ADD23C,3.600000*%
%ADD24C,5.600000*%
%ADD25RoundRect,0.250000X-1.500000X-0.550000X1.500000X-0.550000X1.500000X0.550000X-1.500000X0.550000X0*%
%ADD26RoundRect,0.112500X0.112500X-0.187500X0.112500X0.187500X-0.112500X0.187500X-0.112500X-0.187500X0*%
%ADD27RoundRect,0.140000X0.170000X-0.140000X0.170000X0.140000X-0.170000X0.140000X-0.170000X-0.140000X0*%
%ADD28RoundRect,0.112500X-0.112500X0.187500X-0.112500X-0.187500X0.112500X-0.187500X0.112500X0.187500X0*%
%ADD29RoundRect,0.140000X-0.140000X-0.170000X0.140000X-0.170000X0.140000X0.170000X-0.140000X0.170000X0*%
%ADD30RoundRect,0.150000X0.150000X-0.512500X0.150000X0.512500X-0.150000X0.512500X-0.150000X-0.512500X0*%
%ADD31R,0.840000X0.350000*%
%ADD32R,1.600000X2.400000*%
%ADD33RoundRect,0.135000X-0.185000X0.135000X-0.185000X-0.135000X0.185000X-0.135000X0.185000X0.135000X0*%
%ADD34R,0.250000X0.675000*%
%ADD35R,0.675000X0.250000*%
%ADD36RoundRect,0.225000X-0.225000X-0.250000X0.225000X-0.250000X0.225000X0.250000X-0.225000X0.250000X0*%
%ADD37RoundRect,0.140000X-0.170000X0.140000X-0.170000X-0.140000X0.170000X-0.140000X0.170000X0.140000X0*%
%ADD38RoundRect,0.135000X-0.135000X-0.185000X0.135000X-0.185000X0.135000X0.185000X-0.135000X0.185000X0*%
%ADD39RoundRect,0.218750X-0.256250X0.218750X-0.256250X-0.218750X0.256250X-0.218750X0.256250X0.218750X0*%
%ADD40C,0.650000*%
%ADD41R,0.300000X1.150000*%
%ADD42O,1.000000X2.100000*%
%ADD43O,1.000000X1.600000*%
%ADD44RoundRect,0.250000X1.500000X0.550000X-1.500000X0.550000X-1.500000X-0.550000X1.500000X-0.550000X0*%
%ADD45RoundRect,0.150000X-0.625000X-0.150000X0.625000X-0.150000X0.625000X0.150000X-0.625000X0.150000X0*%
%ADD46RoundRect,0.218750X-0.218750X-0.256250X0.218750X-0.256250X0.218750X0.256250X-0.218750X0.256250X0*%
%ADD47RoundRect,0.250000X0.350000X0.625000X-0.350000X0.625000X-0.350000X-0.625000X0.350000X-0.625000X0*%
%ADD48O,1.200000X1.750000*%
%ADD49RoundRect,0.200000X-0.450000X0.200000X-0.450000X-0.200000X0.450000X-0.200000X0.450000X0.200000X0*%
%ADD50RoundRect,0.250001X-1.249999X0.799999X-1.249999X-0.799999X1.249999X-0.799999X1.249999X0.799999X0*%
%ADD51RoundRect,0.225000X0.225000X0.250000X-0.225000X0.250000X-0.225000X-0.250000X0.225000X-0.250000X0*%
%ADD52RoundRect,0.085000X-0.265000X-0.085000X0.265000X-0.085000X0.265000X0.085000X-0.265000X0.085000X0*%
%ADD53R,3.960000X1.980000*%
%ADD54O,3.960000X1.980000*%
%ADD55RoundRect,0.150000X0.625000X0.150000X-0.625000X0.150000X-0.625000X-0.150000X0.625000X-0.150000X0*%
%ADD56RoundRect,0.225000X-0.250000X0.225000X-0.250000X-0.225000X0.250000X-0.225000X0.250000X0.225000X0*%
%ADD57RoundRect,0.200000X0.450000X-0.200000X0.450000X0.200000X-0.450000X0.200000X-0.450000X-0.200000X0*%
%ADD58RoundRect,0.250001X1.249999X-0.799999X1.249999X0.799999X-1.249999X0.799999X-1.249999X-0.799999X0*%
%ADD59RoundRect,0.050000X-0.387500X-0.050000X0.387500X-0.050000X0.387500X0.050000X-0.387500X0.050000X0*%
%ADD60RoundRect,0.050000X-0.050000X-0.387500X0.050000X-0.387500X0.050000X0.387500X-0.050000X0.387500X0*%
%ADD61R,3.200000X3.200000*%
%ADD62RoundRect,0.218750X0.256250X-0.218750X0.256250X0.218750X-0.256250X0.218750X-0.256250X-0.218750X0*%
%ADD63RoundRect,0.150000X0.150000X0.625000X-0.150000X0.625000X-0.150000X-0.625000X0.150000X-0.625000X0*%
%ADD64RoundRect,0.250000X0.350000X0.650000X-0.350000X0.650000X-0.350000X-0.650000X0.350000X-0.650000X0*%
%ADD65R,3.000000X3.000000*%
%ADD66C,3.000000*%
G04 APERTURE END LIST*
D10*
%TO.C,D23*%
X12210000Y-9050000D02*
X12210000Y-7350000D01*
X12210000Y-9050000D02*
X9550000Y-9050000D01*
X12210000Y-7350000D02*
X9550000Y-7350000D01*
%TO.C,R35*%
X10153641Y-10080000D02*
X9846359Y-10080000D01*
X10153641Y-9320000D02*
X9846359Y-9320000D01*
%TO.C,Y1*%
X1000000Y-4650000D02*
X1000000Y-1350000D01*
X1000000Y-1350000D02*
X-3000000Y-1350000D01*
%TO.C,D1*%
X6775000Y-225000D02*
X7025000Y-225000D01*
X6775000Y25000D02*
X6775000Y-225000D01*
%TO.C,U2*%
X-4910000Y10175000D02*
X-4910000Y13175000D01*
X-2690000Y10175000D02*
X-2690000Y13175000D01*
X-4890000Y9385000D02*
X-5170000Y9665000D01*
X-4890000Y9665000D01*
X-4890000Y9385000D01*
G36*
X-4890000Y9385000D02*
G01*
X-5170000Y9665000D01*
X-4890000Y9665000D01*
X-4890000Y9385000D01*
G37*
%TO.C,C1*%
X-5992164Y13340000D02*
X-6207836Y13340000D01*
X-5992164Y14060000D02*
X-6207836Y14060000D01*
%TO.C,D22*%
X-7410000Y-5850000D02*
X-7410000Y-7550000D01*
X-7410000Y-5850000D02*
X-4750000Y-5850000D01*
X-7410000Y-7550000D02*
X-4750000Y-7550000D01*
%TO.C,C47*%
X-9011252Y4335000D02*
X-8488748Y4335000D01*
X-9011252Y2865000D02*
X-8488748Y2865000D01*
%TO.C,C46*%
X8735000Y-7938748D02*
X8735000Y-8461252D01*
X7265000Y-7938748D02*
X7265000Y-8461252D01*
%TO.C,C45*%
X4765000Y-861252D02*
X4765000Y-338748D01*
X6235000Y-861252D02*
X6235000Y-338748D01*
%TO.C,C42*%
X7465000Y16038748D02*
X7465000Y16561252D01*
X8935000Y16038748D02*
X8935000Y16561252D01*
%TO.C,D5*%
X-14505001Y-6100000D02*
X-14505001Y-7800000D01*
X-14505001Y-6100000D02*
X-11845001Y-6100000D01*
X-14505001Y-7800000D02*
X-11845001Y-7800000D01*
%TO.C,C54*%
X18562500Y23097500D02*
X19350000Y23097500D01*
X18956250Y23491250D02*
X18956250Y22703750D01*
X19590000Y23595563D02*
X19590000Y22310000D01*
X19590000Y23595563D02*
X20654437Y24660000D01*
X19590000Y18904437D02*
X19590000Y20190000D01*
X19590000Y18904437D02*
X20654437Y17840000D01*
X20654437Y24660000D02*
X26410000Y24660000D01*
X20654437Y17840000D02*
X26410000Y17840000D01*
X26410000Y24660000D02*
X26410000Y22310000D01*
X26410000Y17840000D02*
X26410000Y20190000D01*
%TO.C,D16*%
X19845000Y-3735000D02*
X19845000Y-1075000D01*
X19845000Y-3735000D02*
X21545000Y-3735000D01*
X21545000Y-3735000D02*
X21545000Y-1075000D01*
%TO.C,C20*%
X3440000Y11092164D02*
X3440000Y11307836D01*
X4160000Y11092164D02*
X4160000Y11307836D01*
%TO.C,D17*%
X19845000Y-4515000D02*
X19845000Y-7175000D01*
X21545000Y-4515000D02*
X19845000Y-4515000D01*
X21545000Y-4515000D02*
X21545000Y-7175000D01*
%TO.C,C19*%
X2440000Y11092164D02*
X2440000Y11307836D01*
X3160000Y11092164D02*
X3160000Y11307836D01*
%TO.C,C30*%
X-8107836Y14060000D02*
X-7892164Y14060000D01*
X-8107836Y13340000D02*
X-7892164Y13340000D01*
%TO.C,C7*%
X7392164Y-340000D02*
X7607836Y-340000D01*
X7392164Y-1060000D02*
X7607836Y-1060000D01*
%TO.C,U31*%
X-8760000Y-600000D02*
X-8760000Y200000D01*
X-8760000Y-600000D02*
X-8760000Y-1400000D01*
X-5640000Y-600000D02*
X-5640000Y200000D01*
X-5640000Y-600000D02*
X-5640000Y-1400000D01*
X-8710000Y-1900000D02*
X-9040000Y-2140000D01*
X-9040000Y-1660000D01*
X-8710000Y-1900000D01*
G36*
X-8710000Y-1900000D02*
G01*
X-9040000Y-2140000D01*
X-9040000Y-1660000D01*
X-8710000Y-1900000D01*
G37*
%TO.C,U9*%
X-16320000Y-9750000D02*
X-11480000Y-9750000D01*
X-16320000Y-13050000D02*
X-16320000Y-9750000D01*
X-12280000Y-13050000D02*
X-16320000Y-13050000D01*
X-11480000Y-9750000D02*
X-11480000Y-12250000D01*
X-11480000Y-12250000D02*
X-12280000Y-13050000D01*
%TO.C,R34*%
X-10180000Y9663641D02*
X-10180000Y9356359D01*
X-9420000Y9663641D02*
X-9420000Y9356359D01*
%TO.C,C28*%
X-18407836Y23960000D02*
X-18192164Y23960000D01*
X-18407836Y23240000D02*
X-18192164Y23240000D01*
%TO.C,C34*%
X10435000Y-332836D02*
X10435000Y-117164D01*
X11155000Y-332836D02*
X11155000Y-117164D01*
D11*
%TO.C,U10*%
X-8350000Y17700000D02*
X-8350000Y16980000D01*
X-8350000Y17700000D02*
X-8130000Y17700000D01*
X-8350000Y14500000D02*
X-8350000Y15220000D01*
X-8130000Y14500000D02*
X-8350000Y14500000D01*
X-5650000Y17500000D02*
X-5650000Y16980000D01*
X-5650000Y15220000D02*
X-5650000Y14500000D01*
X-5650000Y14500000D02*
X-5870000Y14500000D01*
X-5290000Y17700000D02*
X-5650000Y17700000D01*
X-5650000Y18060000D01*
X-5290000Y17700000D01*
G36*
X-5290000Y17700000D02*
G01*
X-5650000Y17700000D01*
X-5650000Y18060000D01*
X-5290000Y17700000D01*
G37*
D10*
%TO.C,C16*%
X5092164Y8610000D02*
X5307836Y8610000D01*
X5092164Y7890000D02*
X5307836Y7890000D01*
%TO.C,R5*%
X410000Y11353641D02*
X410000Y11046359D01*
X1170000Y11353641D02*
X1170000Y11046359D01*
%TO.C,U17*%
X5440000Y-4400000D02*
X5440000Y-3600000D01*
X5440000Y-4400000D02*
X5440000Y-5200000D01*
X8560000Y-4400000D02*
X8560000Y-3600000D01*
X8560000Y-4400000D02*
X8560000Y-5200000D01*
X5490000Y-5700000D02*
X5160000Y-5940000D01*
X5160000Y-5460000D01*
X5490000Y-5700000D01*
G36*
X5490000Y-5700000D02*
G01*
X5160000Y-5940000D01*
X5160000Y-5460000D01*
X5490000Y-5700000D01*
G37*
%TO.C,C15*%
X-5992164Y3460000D02*
X-6207836Y3460000D01*
X-5992164Y2740000D02*
X-6207836Y2740000D01*
%TO.C,C33*%
X16204420Y17035000D02*
X16485580Y17035000D01*
X16204420Y16015000D02*
X16485580Y16015000D01*
%TO.C,C22*%
X-11155000Y-6867164D02*
X-11155000Y-7082836D01*
X-10435000Y-6867164D02*
X-10435000Y-7082836D01*
%TO.C,D3*%
X-21545000Y-3464999D02*
X-21545000Y-6124999D01*
X-19845000Y-3464999D02*
X-21545000Y-3464999D01*
X-19845000Y-3464999D02*
X-19845000Y-6124999D01*
%TO.C,R7*%
X-1980000Y15353641D02*
X-1980000Y15046359D01*
X-1220000Y15353641D02*
X-1220000Y15046359D01*
%TO.C,R29*%
X8795000Y-5356359D02*
X8795000Y-5663641D01*
X9555000Y-5356359D02*
X9555000Y-5663641D01*
%TO.C,D7*%
X-21545000Y13535001D02*
X-21545000Y10875001D01*
X-19845000Y13535001D02*
X-21545000Y13535001D01*
X-19845000Y13535001D02*
X-19845000Y10875001D01*
%TO.C,R4*%
X1420000Y11353641D02*
X1420000Y11046359D01*
X2180000Y11353641D02*
X2180000Y11046359D01*
%TO.C,C31*%
X-7107836Y19260000D02*
X-6892164Y19260000D01*
X-7107836Y18540000D02*
X-6892164Y18540000D01*
%TO.C,U30*%
X-9160000Y8500000D02*
X-9160000Y9300000D01*
X-9160000Y8500000D02*
X-9160000Y7700000D01*
X-6040000Y8500000D02*
X-6040000Y9300000D01*
X-6040000Y8500000D02*
X-6040000Y7700000D01*
X-9110000Y7200000D02*
X-9440000Y6960000D01*
X-9440000Y7440000D01*
X-9110000Y7200000D01*
G36*
X-9110000Y7200000D02*
G01*
X-9440000Y6960000D01*
X-9440000Y7440000D01*
X-9110000Y7200000D01*
G37*
%TO.C,R13*%
X-18641358Y8955000D02*
X-18948640Y8955000D01*
X-18641358Y8195000D02*
X-18948640Y8195000D01*
%TO.C,R20*%
X18641359Y-345000D02*
X18948641Y-345000D01*
X18641359Y-1105000D02*
X18948641Y-1105000D01*
%TO.C,D21*%
X6985000Y-6660000D02*
X4325000Y-6660000D01*
X6985000Y-8360000D02*
X4325000Y-8360000D01*
X6985000Y-8360000D02*
X6985000Y-6660000D01*
%TO.C,L2*%
X4015000Y-4847221D02*
X4015000Y-5172779D01*
X5035000Y-4847221D02*
X5035000Y-5172779D01*
%TO.C,R11*%
X-18641358Y17455000D02*
X-18948640Y17455000D01*
X-18641358Y16695000D02*
X-18948640Y16695000D01*
%TO.C,C37*%
X16204420Y8535000D02*
X16485580Y8535000D01*
X16204420Y7515000D02*
X16485580Y7515000D01*
%TO.C,C10*%
X-5992164Y12060000D02*
X-6207836Y12060000D01*
X-5992164Y11340000D02*
X-6207836Y11340000D01*
%TO.C,D18*%
X14505000Y9100000D02*
X11845000Y9100000D01*
X14505000Y7400000D02*
X11845000Y7400000D01*
X14505000Y7400000D02*
X14505000Y9100000D01*
%TO.C,C13*%
X-5992164Y4460000D02*
X-6207836Y4460000D01*
X-5992164Y3740000D02*
X-6207836Y3740000D01*
%TO.C,D14*%
X19845000Y12485000D02*
X19845000Y9825000D01*
X21545000Y12485000D02*
X19845000Y12485000D01*
X21545000Y12485000D02*
X21545000Y9825000D01*
%TO.C,J2*%
X-4580000Y24785000D02*
X4580000Y24785000D01*
X-4580000Y23080000D02*
X-4580000Y24785000D01*
X-4580000Y21070000D02*
X-4580000Y19150000D01*
X4580000Y24785000D02*
X4580000Y23080000D01*
X4580000Y19150000D02*
X4580000Y21070000D01*
%TO.C,C9*%
X-4360000Y-1407836D02*
X-4360000Y-1192164D01*
X-3640000Y-1407836D02*
X-3640000Y-1192164D01*
%TO.C,R2*%
X-8553641Y-6020000D02*
X-8246359Y-6020000D01*
X-8553641Y-6780000D02*
X-8246359Y-6780000D01*
%TO.C,R6*%
X1020000Y15353641D02*
X1020000Y15046359D01*
X1780000Y15353641D02*
X1780000Y15046359D01*
%TO.C,C3*%
X-1892164Y-390000D02*
X-2107836Y-390000D01*
X-1892164Y-1110000D02*
X-2107836Y-1110000D01*
%TO.C,D15*%
X14505000Y600000D02*
X11845000Y600000D01*
X14505000Y-1100000D02*
X11845000Y-1100000D01*
X14505000Y-1100000D02*
X14505000Y600000D01*
%TO.C,R18*%
X18641359Y16655000D02*
X18948641Y16655000D01*
X18641359Y15895000D02*
X18948641Y15895000D01*
%TO.C,C52*%
X-26410000Y24660000D02*
X-26410000Y22310000D01*
X-26410000Y17840000D02*
X-26410000Y20190000D01*
X-20654437Y24660000D02*
X-26410000Y24660000D01*
X-20654437Y17840000D02*
X-26410000Y17840000D01*
X-19590000Y23595563D02*
X-20654437Y24660000D01*
X-19590000Y23595563D02*
X-19590000Y22310000D01*
X-19590000Y18904437D02*
X-20654437Y17840000D01*
X-19590000Y18904437D02*
X-19590000Y20190000D01*
X-18956250Y19008750D02*
X-18956250Y19796250D01*
X-18562500Y19402500D02*
X-19350000Y19402500D01*
%TO.C,R10*%
X-18641359Y10905001D02*
X-18948641Y10905001D01*
X-18641359Y10145001D02*
X-18948641Y10145001D01*
%TO.C,U12*%
X16000000Y-1365000D02*
X14050000Y-1365000D01*
X16000000Y-1365000D02*
X17950000Y-1365000D01*
X16000000Y-6635000D02*
X14050000Y-6635000D01*
X16000000Y-6635000D02*
X17950000Y-6635000D01*
X13300000Y-1535000D02*
X13060000Y-1205000D01*
X13540000Y-1205000D01*
X13300000Y-1535000D01*
G36*
X13300000Y-1535000D02*
G01*
X13060000Y-1205000D01*
X13540000Y-1205000D01*
X13300000Y-1535000D01*
G37*
%TO.C,L3*%
X-7362779Y-2890000D02*
X-7037221Y-2890000D01*
X-7362779Y-3910000D02*
X-7037221Y-3910000D01*
%TO.C,J8*%
X20340000Y-8290000D02*
X20340000Y-13010000D01*
X20340000Y-10400000D02*
X20950000Y-10400000D01*
X20340000Y-11700000D02*
X20950000Y-11700000D01*
X20340000Y-13010000D02*
X34460000Y-13010000D01*
X20950000Y-8900000D02*
X20950000Y-12400000D01*
X20950000Y-12400000D02*
X22900000Y-12400000D01*
X22900000Y-12400000D02*
X22900000Y-13010000D01*
X23300000Y-9400000D02*
X23300000Y-8900000D01*
X23400000Y-8900000D02*
X23400000Y-9400000D01*
X23500000Y-8900000D02*
X23500000Y-9400000D01*
X23500000Y-9400000D02*
X23300000Y-9400000D01*
X25300000Y-9400000D02*
X25300000Y-8900000D01*
X25400000Y-8900000D02*
X25400000Y-9400000D01*
X25500000Y-8900000D02*
X25500000Y-9400000D01*
X25500000Y-9400000D02*
X25300000Y-9400000D01*
X27300000Y-9400000D02*
X27300000Y-8900000D01*
X27400000Y-8900000D02*
X27400000Y-9400000D01*
X27500000Y-8900000D02*
X27500000Y-9400000D01*
X27500000Y-9400000D02*
X27300000Y-9400000D01*
X29300000Y-9400000D02*
X29300000Y-8900000D01*
X29400000Y-8900000D02*
X29400000Y-9400000D01*
X29500000Y-8900000D02*
X29500000Y-9400000D01*
X29500000Y-9400000D02*
X29300000Y-9400000D01*
X31300000Y-9400000D02*
X31300000Y-8900000D01*
X31400000Y-8900000D02*
X31400000Y-9400000D01*
X31500000Y-8900000D02*
X31500000Y-9400000D01*
X31500000Y-9400000D02*
X31300000Y-9400000D01*
X31900000Y-12400000D02*
X33850000Y-12400000D01*
X31900000Y-13010000D02*
X31900000Y-12400000D01*
X32700000Y-13010000D02*
X32700000Y-13210000D01*
X32700000Y-13110000D02*
X33000000Y-13110000D01*
X32700000Y-13210000D02*
X33000000Y-13210000D01*
X33000000Y-13210000D02*
X33000000Y-13010000D01*
X33510000Y-13310000D02*
X34760000Y-13310000D01*
X33850000Y-8900000D02*
X20950000Y-8900000D01*
X33850000Y-12400000D02*
X33850000Y-8900000D01*
X34460000Y-8290000D02*
X20340000Y-8290000D01*
X34460000Y-10400000D02*
X33850000Y-10400000D01*
X34460000Y-11700000D02*
X33850000Y-11700000D01*
X34460000Y-13010000D02*
X34460000Y-8290000D01*
X34760000Y-13310000D02*
X34760000Y-12060000D01*
%TO.C,R19*%
X18641359Y10105000D02*
X18948641Y10105000D01*
X18641359Y9345000D02*
X18948641Y9345000D01*
%TO.C,C23*%
X-11155000Y10132836D02*
X-11155000Y9917164D01*
X-10435000Y10132836D02*
X-10435000Y9917164D01*
%TO.C,R8*%
X-18641359Y-6094999D02*
X-18948641Y-6094999D01*
X-18641359Y-6854999D02*
X-18948641Y-6854999D01*
%TO.C,C48*%
X-9760000Y-1092164D02*
X-9760000Y-1307836D01*
X-9040000Y-1092164D02*
X-9040000Y-1307836D01*
%TO.C,C38*%
X26890000Y23857836D02*
X26890000Y23642164D01*
X27610000Y23857836D02*
X27610000Y23642164D01*
%TO.C,C36*%
X10435000Y8167164D02*
X10435000Y8382836D01*
X11155000Y8167164D02*
X11155000Y8382836D01*
%TO.C,J3*%
X6290000Y-13385000D02*
X6290000Y-17115000D01*
X9260000Y-13015000D02*
X10210000Y-13015000D01*
X9260000Y-17485000D02*
X10210000Y-17485000D01*
X10210000Y-13015000D02*
X10210000Y-13965000D01*
X10210000Y-13965000D02*
X10900000Y-13965000D01*
X10210000Y-17485000D02*
X10210000Y-16535000D01*
%TO.C,U11*%
X16000000Y15635000D02*
X14050000Y15635000D01*
X16000000Y15635000D02*
X17950000Y15635000D01*
X16000000Y10365000D02*
X14050000Y10365000D01*
X16000000Y10365000D02*
X17950000Y10365000D01*
X13300000Y15465000D02*
X13060000Y15795000D01*
X13540000Y15795000D01*
X13300000Y15465000D01*
G36*
X13300000Y15465000D02*
G01*
X13060000Y15795000D01*
X13540000Y15795000D01*
X13300000Y15465000D01*
G37*
%TO.C,C26*%
X-16204420Y2285000D02*
X-16485580Y2285000D01*
X-16204420Y1265000D02*
X-16485580Y1265000D01*
%TO.C,J9*%
X-27560000Y-13840000D02*
X-27560000Y-18560000D01*
X-27560000Y-15950000D02*
X-26950000Y-15950000D01*
X-27560000Y-17250000D02*
X-26950000Y-17250000D01*
X-27560000Y-18560000D02*
X-13440000Y-18560000D01*
X-26950000Y-14450000D02*
X-26950000Y-17950000D01*
X-26950000Y-17950000D02*
X-25000000Y-17950000D01*
X-25000000Y-17950000D02*
X-25000000Y-18560000D01*
X-24600000Y-14950000D02*
X-24600000Y-14450000D01*
X-24500000Y-14450000D02*
X-24500000Y-14950000D01*
X-24400000Y-14450000D02*
X-24400000Y-14950000D01*
X-24400000Y-14950000D02*
X-24600000Y-14950000D01*
X-22600000Y-14950000D02*
X-22600000Y-14450000D01*
X-22500000Y-14450000D02*
X-22500000Y-14950000D01*
X-22400000Y-14450000D02*
X-22400000Y-14950000D01*
X-22400000Y-14950000D02*
X-22600000Y-14950000D01*
X-20600000Y-14950000D02*
X-20600000Y-14450000D01*
X-20500000Y-14450000D02*
X-20500000Y-14950000D01*
X-20400000Y-14450000D02*
X-20400000Y-14950000D01*
X-20400000Y-14950000D02*
X-20600000Y-14950000D01*
X-18600000Y-14950000D02*
X-18600000Y-14450000D01*
X-18500000Y-14450000D02*
X-18500000Y-14950000D01*
X-18400000Y-14450000D02*
X-18400000Y-14950000D01*
X-18400000Y-14950000D02*
X-18600000Y-14950000D01*
X-16600000Y-14950000D02*
X-16600000Y-14450000D01*
X-16500000Y-14450000D02*
X-16500000Y-14950000D01*
X-16400000Y-14450000D02*
X-16400000Y-14950000D01*
X-16400000Y-14950000D02*
X-16600000Y-14950000D01*
X-16000000Y-17950000D02*
X-14050000Y-17950000D01*
X-16000000Y-18560000D02*
X-16000000Y-17950000D01*
X-15200000Y-18560000D02*
X-15200000Y-18760000D01*
X-15200000Y-18660000D02*
X-14900000Y-18660000D01*
X-15200000Y-18760000D02*
X-14900000Y-18760000D01*
X-14900000Y-18760000D02*
X-14900000Y-18560000D01*
X-14390000Y-18860000D02*
X-13140000Y-18860000D01*
X-14050000Y-14450000D02*
X-26950000Y-14450000D01*
X-14050000Y-17950000D02*
X-14050000Y-14450000D01*
X-13440000Y-13840000D02*
X-27560000Y-13840000D01*
X-13440000Y-15950000D02*
X-14050000Y-15950000D01*
X-13440000Y-17250000D02*
X-14050000Y-17250000D01*
X-13440000Y-18560000D02*
X-13440000Y-13840000D01*
X-13140000Y-18860000D02*
X-13140000Y-17610000D01*
%TO.C,C2*%
X-9659420Y-8590000D02*
X-9940580Y-8590000D01*
X-9659420Y-9610000D02*
X-9940580Y-9610000D01*
%TO.C,U1*%
X-6250000Y-8100000D02*
X-7350000Y-8100000D01*
X-6250000Y-9900000D02*
X-7550000Y-9900000D01*
X-7600000Y-8100000D02*
X-7880000Y-8100000D01*
X-7600000Y-7820000D01*
X-7600000Y-8100000D01*
G36*
X-7600000Y-8100000D02*
G01*
X-7880000Y-8100000D01*
X-7600000Y-7820000D01*
X-7600000Y-8100000D01*
G37*
%TO.C,R33*%
X-10180000Y7653641D02*
X-10180000Y7346359D01*
X-9420000Y7653641D02*
X-9420000Y7346359D01*
%TO.C,D2*%
X2050000Y12990000D02*
X2050000Y15650000D01*
X2050000Y12990000D02*
X3750000Y12990000D01*
X3750000Y12990000D02*
X3750000Y15650000D01*
%TO.C,D9*%
X-14505001Y2400000D02*
X-14505001Y700000D01*
X-14505001Y2400000D02*
X-11845001Y2400000D01*
X-14505001Y700000D02*
X-11845001Y700000D01*
%TO.C,C53*%
X25562500Y-1902500D02*
X26350000Y-1902500D01*
X25956250Y-1508750D02*
X25956250Y-2296250D01*
X26590000Y-1404437D02*
X26590000Y-2690000D01*
X26590000Y-1404437D02*
X27654437Y-340000D01*
X26590000Y-6095563D02*
X26590000Y-4810000D01*
X26590000Y-6095563D02*
X27654437Y-7160000D01*
X27654437Y-340000D02*
X33410000Y-340000D01*
X27654437Y-7160000D02*
X33410000Y-7160000D01*
X33410000Y-340000D02*
X33410000Y-2690000D01*
X33410000Y-7160000D02*
X33410000Y-4810000D01*
%TO.C,R23*%
X18641359Y1605000D02*
X18948641Y1605000D01*
X18641359Y845000D02*
X18948641Y845000D01*
%TO.C,C8*%
X2390000Y-2142164D02*
X2390000Y-2357836D01*
X3110000Y-2142164D02*
X3110000Y-2357836D01*
%TO.C,J5*%
X-34800000Y16750000D02*
X-34800000Y850000D01*
X-34800000Y850000D02*
X-22200000Y850000D01*
X-30000000Y16250000D02*
X-29750000Y16750000D01*
X-29750000Y16750000D02*
X-34800000Y16750000D01*
X-24850000Y16750000D02*
X-24600000Y16250000D01*
X-24600000Y16250000D02*
X-30000000Y16250000D01*
X-23150000Y16250000D02*
X-22850000Y16750000D01*
X-22850000Y16750000D02*
X-24850000Y16750000D01*
X-22200000Y16250000D02*
X-23150000Y16250000D01*
X-22200000Y850000D02*
X-22200000Y16250000D01*
%TO.C,R21*%
X18641359Y-6895000D02*
X18948641Y-6895000D01*
X18641359Y-7655000D02*
X18948641Y-7655000D01*
%TO.C,C6*%
X-2840580Y-5390000D02*
X-2559420Y-5390000D01*
X-2840580Y-6410000D02*
X-2559420Y-6410000D01*
%TO.C,C41*%
X-4060000Y15092164D02*
X-4060000Y15307836D01*
X-3340000Y15092164D02*
X-3340000Y15307836D01*
%TO.C,C25*%
X-12107836Y-260000D02*
X-11892164Y-260000D01*
X-12107836Y460000D02*
X-11892164Y460000D01*
%TO.C,R22*%
X18641359Y8155000D02*
X18948641Y8155000D01*
X18641359Y7395000D02*
X18948641Y7395000D01*
%TO.C,FB1*%
X4490000Y11362779D02*
X4490000Y11037221D01*
X5510000Y11362779D02*
X5510000Y11037221D01*
%TO.C,C14*%
X5492164Y4360000D02*
X5707836Y4360000D01*
X5492164Y3640000D02*
X5707836Y3640000D01*
%TO.C,R9*%
X-18641358Y455000D02*
X-18948640Y455000D01*
X-18641358Y-305000D02*
X-18948640Y-305000D01*
%TO.C,U6*%
X-16000000Y7935000D02*
X-17950000Y7935000D01*
X-16000000Y7935000D02*
X-14050000Y7935000D01*
X-16000000Y2665000D02*
X-17950000Y2665000D01*
X-16000000Y2665000D02*
X-14050000Y2665000D01*
X-13060000Y2505000D02*
X-13540000Y2505000D01*
X-13300000Y2835000D01*
X-13060000Y2505000D01*
G36*
X-13060000Y2505000D02*
G01*
X-13540000Y2505000D01*
X-13300000Y2835000D01*
X-13060000Y2505000D01*
G37*
%TO.C,J7*%
X13440000Y-13840000D02*
X13440000Y-18560000D01*
X13440000Y-15950000D02*
X14050000Y-15950000D01*
X13440000Y-17250000D02*
X14050000Y-17250000D01*
X13440000Y-18560000D02*
X27560000Y-18560000D01*
X14050000Y-14450000D02*
X14050000Y-17950000D01*
X14050000Y-17950000D02*
X16000000Y-17950000D01*
X16000000Y-17950000D02*
X16000000Y-18560000D01*
X16400000Y-14950000D02*
X16400000Y-14450000D01*
X16500000Y-14450000D02*
X16500000Y-14950000D01*
X16600000Y-14450000D02*
X16600000Y-14950000D01*
X16600000Y-14950000D02*
X16400000Y-14950000D01*
X18400000Y-14950000D02*
X18400000Y-14450000D01*
X18500000Y-14450000D02*
X18500000Y-14950000D01*
X18600000Y-14450000D02*
X18600000Y-14950000D01*
X18600000Y-14950000D02*
X18400000Y-14950000D01*
X20400000Y-14950000D02*
X20400000Y-14450000D01*
X20500000Y-14450000D02*
X20500000Y-14950000D01*
X20600000Y-14450000D02*
X20600000Y-14950000D01*
X20600000Y-14950000D02*
X20400000Y-14950000D01*
X22400000Y-14950000D02*
X22400000Y-14450000D01*
X22500000Y-14450000D02*
X22500000Y-14950000D01*
X22600000Y-14450000D02*
X22600000Y-14950000D01*
X22600000Y-14950000D02*
X22400000Y-14950000D01*
X24400000Y-14950000D02*
X24400000Y-14450000D01*
X24500000Y-14450000D02*
X24500000Y-14950000D01*
X24600000Y-14450000D02*
X24600000Y-14950000D01*
X24600000Y-14950000D02*
X24400000Y-14950000D01*
X25000000Y-17950000D02*
X26950000Y-17950000D01*
X25000000Y-18560000D02*
X25000000Y-17950000D01*
X25800000Y-18560000D02*
X25800000Y-18760000D01*
X25800000Y-18660000D02*
X26100000Y-18660000D01*
X25800000Y-18760000D02*
X26100000Y-18760000D01*
X26100000Y-18760000D02*
X26100000Y-18560000D01*
X26610000Y-18860000D02*
X27860000Y-18860000D01*
X26950000Y-14450000D02*
X14050000Y-14450000D01*
X26950000Y-17950000D02*
X26950000Y-14450000D01*
X27560000Y-13840000D02*
X13440000Y-13840000D01*
X27560000Y-15950000D02*
X26950000Y-15950000D01*
X27560000Y-17250000D02*
X26950000Y-17250000D01*
X27560000Y-18560000D02*
X27560000Y-13840000D01*
X27860000Y-18860000D02*
X27860000Y-17610000D01*
%TO.C,C18*%
X5092164Y9560000D02*
X5307836Y9560000D01*
X5092164Y8840000D02*
X5307836Y8840000D01*
%TO.C,C44*%
X4090000Y14840580D02*
X4090000Y14559420D01*
X5110000Y14840580D02*
X5110000Y14559420D01*
%TO.C,C57*%
X-33410000Y-340000D02*
X-33410000Y-2690000D01*
X-33410000Y-7160000D02*
X-33410000Y-4810000D01*
X-27654437Y-340000D02*
X-33410000Y-340000D01*
X-27654437Y-7160000D02*
X-33410000Y-7160000D01*
X-26590000Y-1404437D02*
X-27654437Y-340000D01*
X-26590000Y-1404437D02*
X-26590000Y-2690000D01*
X-26590000Y-6095563D02*
X-27654437Y-7160000D01*
X-26590000Y-6095563D02*
X-26590000Y-4810000D01*
X-25956250Y-5991250D02*
X-25956250Y-5203750D01*
X-25562500Y-5597500D02*
X-26350000Y-5597500D01*
%TO.C,C51*%
X-7892164Y12160000D02*
X-8107836Y12160000D01*
X-7892164Y11440000D02*
X-8107836Y11440000D01*
%TO.C,C32*%
X10435000Y16667164D02*
X10435000Y16882836D01*
X11155000Y16667164D02*
X11155000Y16882836D01*
%TO.C,C29*%
X-18060000Y-11607836D02*
X-18060000Y-11392164D01*
X-17340000Y-11607836D02*
X-17340000Y-11392164D01*
%TO.C,D4*%
X-21545000Y-2685000D02*
X-21545000Y-25000D01*
X-21545000Y-2685000D02*
X-19845000Y-2685000D01*
X-19845000Y-2685000D02*
X-19845000Y-25000D01*
%TO.C,R30*%
X8795000Y-3456359D02*
X8795000Y-3763641D01*
X9555000Y-3456359D02*
X9555000Y-3763641D01*
%TO.C,J6*%
X22200000Y16150000D02*
X22200000Y750000D01*
X22200000Y750000D02*
X23150000Y750000D01*
X22850000Y250000D02*
X24850000Y250000D01*
X23150000Y750000D02*
X22850000Y250000D01*
X24600000Y750000D02*
X30000000Y750000D01*
X24850000Y250000D02*
X24600000Y750000D01*
X29750000Y250000D02*
X34800000Y250000D01*
X30000000Y750000D02*
X29750000Y250000D01*
X34800000Y16150000D02*
X22200000Y16150000D01*
X34800000Y250000D02*
X34800000Y16150000D01*
%TO.C,D8*%
X-21545000Y14315000D02*
X-21545000Y16975000D01*
X-21545000Y14315000D02*
X-19845000Y14315000D01*
X-19845000Y14315000D02*
X-19845000Y16975000D01*
%TO.C,R17*%
X-12380000Y-13846359D02*
X-12380000Y-14153641D01*
X-11620000Y-13846359D02*
X-11620000Y-14153641D01*
%TO.C,C11*%
X-1460000Y11092164D02*
X-1460000Y11307836D01*
X-740000Y11092164D02*
X-740000Y11307836D01*
%TO.C,U13*%
X16000000Y7135000D02*
X14050000Y7135000D01*
X16000000Y7135000D02*
X17950000Y7135000D01*
X16000000Y1865000D02*
X14050000Y1865000D01*
X16000000Y1865000D02*
X17950000Y1865000D01*
X13300000Y6965000D02*
X13060000Y7295000D01*
X13540000Y7295000D01*
X13300000Y6965000D01*
G36*
X13300000Y6965000D02*
G01*
X13060000Y7295000D01*
X13540000Y7295000D01*
X13300000Y6965000D01*
G37*
%TO.C,J4*%
X-10210000Y-12765000D02*
X-10210000Y-13715000D01*
X-10210000Y-16285000D02*
X-10900000Y-16285000D01*
X-10210000Y-17235000D02*
X-10210000Y-16285000D01*
X-9260000Y-12765000D02*
X-10210000Y-12765000D01*
X-9260000Y-17235000D02*
X-10210000Y-17235000D01*
X-6290000Y-16865000D02*
X-6290000Y-13135000D01*
%TO.C,D11*%
X-21545000Y5815000D02*
X-21545000Y8475000D01*
X-21545000Y5815000D02*
X-19845000Y5815000D01*
X-19845000Y5815000D02*
X-19845000Y8475000D01*
%TO.C,C43*%
X5440000Y13707836D02*
X5440000Y13492164D01*
X6160000Y13707836D02*
X6160000Y13492164D01*
%TO.C,C50*%
X-7059420Y-4390000D02*
X-7340580Y-4390000D01*
X-7059420Y-5410000D02*
X-7340580Y-5410000D01*
%TO.C,R28*%
X7321359Y-1430000D02*
X7628641Y-1430000D01*
X7321359Y-2190000D02*
X7628641Y-2190000D01*
%TO.C,D20*%
X19845000Y3985000D02*
X19845000Y1325000D01*
X21545000Y3985000D02*
X19845000Y3985000D01*
X21545000Y3985000D02*
X21545000Y1325000D01*
%TO.C,U3*%
X-3610000Y7960000D02*
X-3610000Y8370000D01*
X-3610000Y1390000D02*
X-3610000Y2040000D01*
X-2960000Y8610000D02*
X-3310000Y8610000D01*
X-2960000Y1390000D02*
X-3610000Y1390000D01*
X2960000Y8610000D02*
X3610000Y8610000D01*
X2960000Y1390000D02*
X3610000Y1390000D01*
X3610000Y8610000D02*
X3610000Y7960000D01*
X3610000Y1390000D02*
X3610000Y2040000D01*
X-3610000Y8610000D02*
X-3850000Y8940000D01*
X-3370000Y8940000D01*
X-3610000Y8610000D01*
G36*
X-3610000Y8610000D02*
G01*
X-3850000Y8940000D01*
X-3370000Y8940000D01*
X-3610000Y8610000D01*
G37*
%TO.C,R27*%
X-5946359Y6280000D02*
X-6253641Y6280000D01*
X-5946359Y5520000D02*
X-6253641Y5520000D01*
%TO.C,L1*%
X-4190000Y-9362779D02*
X-4190000Y-9037221D01*
X-5210000Y-9362779D02*
X-5210000Y-9037221D01*
%TO.C,C4*%
X-5992164Y13060000D02*
X-6207836Y13060000D01*
X-5992164Y12340000D02*
X-6207836Y12340000D01*
%TO.C,C39*%
X25292164Y-6340000D02*
X25507836Y-6340000D01*
X25292164Y-7060000D02*
X25507836Y-7060000D01*
%TO.C,C17*%
X1390000Y-2142164D02*
X1390000Y-2357836D01*
X2110000Y-2142164D02*
X2110000Y-2357836D01*
%TO.C,R32*%
X-5380000Y753641D02*
X-5380000Y446359D01*
X-4620000Y753641D02*
X-4620000Y446359D01*
%TO.C,D6*%
X-14505001Y10900000D02*
X-14505001Y9200000D01*
X-14505001Y10900000D02*
X-11845001Y10900000D01*
X-14505001Y9200000D02*
X-11845001Y9200000D01*
%TO.C,C55*%
X9840000Y24660000D02*
X9840000Y22310000D01*
X9840000Y17840000D02*
X9840000Y20190000D01*
X15595563Y24660000D02*
X9840000Y24660000D01*
X15595563Y17840000D02*
X9840000Y17840000D01*
X16660000Y23595563D02*
X15595563Y24660000D01*
X16660000Y23595563D02*
X16660000Y22310000D01*
X16660000Y18904437D02*
X15595563Y17840000D01*
X16660000Y18904437D02*
X16660000Y20190000D01*
X17293750Y19008750D02*
X17293750Y19796250D01*
X17687500Y19402500D02*
X16900000Y19402500D01*
%TO.C,D12*%
X14505000Y17600000D02*
X11845000Y17600000D01*
X14505000Y15900000D02*
X11845000Y15900000D01*
X14505000Y15900000D02*
X14505000Y17600000D01*
%TO.C,C40*%
X-5060000Y15092164D02*
X-5060000Y15307836D01*
X-4340000Y15092164D02*
X-4340000Y15307836D01*
%TO.C,R16*%
X-12380000Y-15846359D02*
X-12380000Y-16153641D01*
X-11620000Y-15846359D02*
X-11620000Y-16153641D01*
%TO.C,C21*%
X-16204420Y-6215000D02*
X-16485580Y-6215000D01*
X-16204420Y-7235000D02*
X-16485580Y-7235000D01*
%TO.C,C56*%
X-17687500Y23097500D02*
X-16900000Y23097500D01*
X-17293750Y23491250D02*
X-17293750Y22703750D01*
X-16660000Y23595563D02*
X-16660000Y22310000D01*
X-16660000Y23595563D02*
X-15595563Y24660000D01*
X-16660000Y18904437D02*
X-16660000Y20190000D01*
X-16660000Y18904437D02*
X-15595563Y17840000D01*
X-15595563Y24660000D02*
X-9840000Y24660000D01*
X-15595563Y17840000D02*
X-9840000Y17840000D01*
X-9840000Y24660000D02*
X-9840000Y22310000D01*
X-9840000Y17840000D02*
X-9840000Y20190000D01*
%TO.C,D19*%
X19845000Y4765000D02*
X19845000Y7425000D01*
X19845000Y4765000D02*
X21545000Y4765000D01*
X21545000Y4765000D02*
X21545000Y7425000D01*
%TO.C,C5*%
X142164Y-390000D02*
X357836Y-390000D01*
X142164Y-1110000D02*
X357836Y-1110000D01*
%TO.C,U4*%
X-16000000Y-565000D02*
X-17950000Y-565000D01*
X-16000000Y-565000D02*
X-14050000Y-565000D01*
X-16000000Y-5835000D02*
X-17950000Y-5835000D01*
X-16000000Y-5835000D02*
X-14050000Y-5835000D01*
X-13060000Y-5995000D02*
X-13540000Y-5995000D01*
X-13300000Y-5665000D01*
X-13060000Y-5995000D01*
G36*
X-13060000Y-5995000D02*
G01*
X-13540000Y-5995000D01*
X-13300000Y-5665000D01*
X-13060000Y-5995000D01*
G37*
%TO.C,R12*%
X-18641359Y2405001D02*
X-18948641Y2405001D01*
X-18641359Y1645001D02*
X-18948641Y1645001D01*
%TO.C,C24*%
X-16204420Y10785000D02*
X-16485580Y10785000D01*
X-16204420Y9765000D02*
X-16485580Y9765000D01*
%TO.C,C35*%
X16204420Y35000D02*
X16485580Y35000D01*
X16204420Y-985000D02*
X16485580Y-985000D01*
%TO.C,U5*%
X-16000000Y16435000D02*
X-17950000Y16435000D01*
X-16000000Y16435000D02*
X-14050000Y16435000D01*
X-16000000Y11165000D02*
X-17950000Y11165000D01*
X-16000000Y11165000D02*
X-14050000Y11165000D01*
X-13060000Y11005000D02*
X-13540000Y11005000D01*
X-13300000Y11335000D01*
X-13060000Y11005000D01*
G36*
X-13060000Y11005000D02*
G01*
X-13540000Y11005000D01*
X-13300000Y11335000D01*
X-13060000Y11005000D01*
G37*
%TO.C,J1*%
X-2610000Y-8140000D02*
X-1560000Y-8140000D01*
X-2610000Y-9290000D02*
X-2610000Y-8140000D01*
X1440000Y-11260000D02*
X-1440000Y-11260000D01*
X1560000Y-8140000D02*
X1560000Y-7150000D01*
X2610000Y-8140000D02*
X1560000Y-8140000D01*
X2610000Y-9290000D02*
X2610000Y-8140000D01*
%TO.C,R31*%
X-5380000Y-1156359D02*
X-5380000Y-1463641D01*
X-4620000Y-1156359D02*
X-4620000Y-1463641D01*
%TO.C,C49*%
X-5460000Y-4009420D02*
X-5460000Y-4290580D01*
X-4440000Y-4009420D02*
X-4440000Y-4290580D01*
%TO.C,C12*%
X-510000Y11092164D02*
X-510000Y11307836D01*
X210000Y11092164D02*
X210000Y11307836D01*
%TO.C,D10*%
X-21545000Y5035001D02*
X-21545000Y2375001D01*
X-19845000Y5035001D02*
X-21545000Y5035001D01*
X-19845000Y5035001D02*
X-19845000Y2375001D01*
%TO.C,D13*%
X19845000Y13265000D02*
X19845000Y15925000D01*
X19845000Y13265000D02*
X21545000Y13265000D01*
X21545000Y13265000D02*
X21545000Y15925000D01*
%TO.C,R1*%
X-8246359Y-7020000D02*
X-8553641Y-7020000D01*
X-8246359Y-7780000D02*
X-8553641Y-7780000D01*
%TO.C,C27*%
X-25162164Y-6890000D02*
X-25377836Y-6890000D01*
X-25162164Y-7610000D02*
X-25377836Y-7610000D01*
%TO.C,J11*%
X-5044000Y-12190000D02*
X-5044000Y-19810000D01*
X-5044000Y-19810000D02*
X5116000Y-19810000D01*
X5116000Y-12190000D02*
X-5044000Y-12190000D01*
X5116000Y-18540000D02*
X-5044000Y-18540000D01*
X5116000Y-19810000D02*
X5116000Y-12190000D01*
%TO.C,R26*%
X-8153641Y6280000D02*
X-7846359Y6280000D01*
X-8153641Y5520000D02*
X-7846359Y5520000D01*
%TO.C,J10*%
X-34460000Y-8290000D02*
X-34460000Y-13010000D01*
X-34460000Y-10400000D02*
X-33850000Y-10400000D01*
X-34460000Y-11700000D02*
X-33850000Y-11700000D01*
X-34460000Y-13010000D02*
X-20340000Y-13010000D01*
X-33850000Y-8900000D02*
X-33850000Y-12400000D01*
X-33850000Y-12400000D02*
X-31900000Y-12400000D01*
X-31900000Y-12400000D02*
X-31900000Y-13010000D01*
X-31500000Y-9400000D02*
X-31500000Y-8900000D01*
X-31400000Y-8900000D02*
X-31400000Y-9400000D01*
X-31300000Y-8900000D02*
X-31300000Y-9400000D01*
X-31300000Y-9400000D02*
X-31500000Y-9400000D01*
X-29500000Y-9400000D02*
X-29500000Y-8900000D01*
X-29400000Y-8900000D02*
X-29400000Y-9400000D01*
X-29300000Y-8900000D02*
X-29300000Y-9400000D01*
X-29300000Y-9400000D02*
X-29500000Y-9400000D01*
X-27500000Y-9400000D02*
X-27500000Y-8900000D01*
X-27400000Y-8900000D02*
X-27400000Y-9400000D01*
X-27300000Y-8900000D02*
X-27300000Y-9400000D01*
X-27300000Y-9400000D02*
X-27500000Y-9400000D01*
X-25500000Y-9400000D02*
X-25500000Y-8900000D01*
X-25400000Y-8900000D02*
X-25400000Y-9400000D01*
X-25300000Y-8900000D02*
X-25300000Y-9400000D01*
X-25300000Y-9400000D02*
X-25500000Y-9400000D01*
X-23500000Y-9400000D02*
X-23500000Y-8900000D01*
X-23400000Y-8900000D02*
X-23400000Y-9400000D01*
X-23300000Y-8900000D02*
X-23300000Y-9400000D01*
X-23300000Y-9400000D02*
X-23500000Y-9400000D01*
X-22900000Y-12400000D02*
X-20950000Y-12400000D01*
X-22900000Y-13010000D02*
X-22900000Y-12400000D01*
X-22100000Y-13010000D02*
X-22100000Y-13210000D01*
X-22100000Y-13110000D02*
X-21800000Y-13110000D01*
X-22100000Y-13210000D02*
X-21800000Y-13210000D01*
X-21800000Y-13210000D02*
X-21800000Y-13010000D01*
X-21290000Y-13310000D02*
X-20040000Y-13310000D01*
X-20950000Y-8900000D02*
X-33850000Y-8900000D01*
X-20950000Y-12400000D02*
X-20950000Y-8900000D01*
X-20340000Y-8290000D02*
X-34460000Y-8290000D01*
X-20340000Y-10400000D02*
X-20950000Y-10400000D01*
X-20340000Y-11700000D02*
X-20950000Y-11700000D01*
X-20340000Y-13010000D02*
X-20340000Y-8290000D01*
X-20040000Y-13310000D02*
X-20040000Y-12060000D01*
%TD*%
%LPC*%
D12*
%TO.C,D23*%
X11650000Y-8200000D03*
X9550000Y-8200000D03*
%TD*%
D13*
%TO.C,R35*%
X10510000Y-9700000D03*
X9490000Y-9700000D03*
%TD*%
D14*
%TO.C,Y1*%
X100000Y-2150000D03*
X-2100000Y-2150000D03*
X-2100000Y-3850000D03*
X100000Y-3850000D03*
%TD*%
D15*
%TO.C,D1*%
X7075000Y75000D03*
X7925000Y75000D03*
X7925000Y925000D03*
X7075000Y925000D03*
%TD*%
D16*
%TO.C,U2*%
X-4550000Y10225000D03*
X-4050000Y10225000D03*
X-3550000Y10225000D03*
X-3050000Y10225000D03*
X-3050000Y13125000D03*
X-3550000Y13125000D03*
X-4050000Y13125000D03*
X-4550000Y13125000D03*
D17*
X-3800000Y11675000D03*
%TD*%
D18*
%TO.C,C1*%
X-5620000Y13700000D03*
X-6580000Y13700000D03*
%TD*%
D19*
%TO.C,D22*%
X-6850000Y-6700000D03*
X-4750000Y-6700000D03*
%TD*%
D20*
%TO.C,C47*%
X-9700000Y3600000D03*
X-7800000Y3600000D03*
%TD*%
D21*
%TO.C,C46*%
X8000000Y-7250000D03*
X8000000Y-9150000D03*
%TD*%
D22*
%TO.C,C45*%
X5500000Y-1550000D03*
X5500000Y350000D03*
%TD*%
%TO.C,C42*%
X8200000Y15350000D03*
X8200000Y17250000D03*
%TD*%
D23*
%TO.C,H1*%
X-31500000Y-16500000D03*
D24*
X-31500000Y-16500000D03*
%TD*%
D19*
%TO.C,D5*%
X-13945001Y-6950000D03*
X-11845001Y-6950000D03*
%TD*%
D25*
%TO.C,C54*%
X20300000Y21250000D03*
X25700000Y21250000D03*
%TD*%
D26*
%TO.C,D16*%
X20695000Y-3175000D03*
X20695000Y-1075000D03*
%TD*%
D27*
%TO.C,C20*%
X3800000Y10720000D03*
X3800000Y11680000D03*
%TD*%
D28*
%TO.C,D17*%
X20695000Y-5075000D03*
X20695000Y-7175000D03*
%TD*%
D27*
%TO.C,C19*%
X2800000Y10720000D03*
X2800000Y11680000D03*
%TD*%
D29*
%TO.C,C30*%
X-8480000Y13700000D03*
X-7520000Y13700000D03*
%TD*%
D23*
%TO.C,H4*%
X-31500000Y21500000D03*
D24*
X-31500000Y21500000D03*
%TD*%
D29*
%TO.C,C7*%
X7020000Y-700000D03*
X7980000Y-700000D03*
%TD*%
D30*
%TO.C,U31*%
X-8150000Y-1737500D03*
X-7200000Y-1737500D03*
X-6250000Y-1737500D03*
X-6250000Y537500D03*
X-7200000Y537500D03*
X-8150000Y537500D03*
%TD*%
D31*
%TO.C,U9*%
X-12400000Y-12375000D03*
X-12400000Y-11725000D03*
X-12400000Y-11075000D03*
X-12400000Y-10425000D03*
X-15400000Y-10425000D03*
X-15400000Y-11075000D03*
X-15400000Y-11725000D03*
X-15400000Y-12375000D03*
D32*
X-13900000Y-11400000D03*
%TD*%
D33*
%TO.C,R34*%
X-9800000Y10020000D03*
X-9800000Y9000000D03*
%TD*%
D29*
%TO.C,C28*%
X-18780000Y23600000D03*
X-17820000Y23600000D03*
%TD*%
D27*
%TO.C,C34*%
X10795000Y-705000D03*
X10795000Y255000D03*
%TD*%
D34*
%TO.C,U10*%
X-6250000Y17362500D03*
X-6750000Y17362500D03*
X-7250000Y17362500D03*
X-7750000Y17362500D03*
D35*
X-8012500Y16600000D03*
X-8012500Y16100000D03*
X-8012500Y15600000D03*
D34*
X-7750000Y14837500D03*
X-7250000Y14837500D03*
X-6750000Y14837500D03*
X-6250000Y14837500D03*
D35*
X-5987500Y15600000D03*
X-5987500Y16100000D03*
X-5987500Y16600000D03*
%TD*%
D29*
%TO.C,C16*%
X4720000Y8250000D03*
X5680000Y8250000D03*
%TD*%
D33*
%TO.C,R5*%
X790000Y11710000D03*
X790000Y10690000D03*
%TD*%
D30*
%TO.C,U17*%
X6050000Y-5537500D03*
X7000000Y-5537500D03*
X7950000Y-5537500D03*
X7950000Y-3262500D03*
X7000000Y-3262500D03*
X6050000Y-3262500D03*
%TD*%
D18*
%TO.C,C15*%
X-5620000Y3100000D03*
X-6580000Y3100000D03*
%TD*%
D36*
%TO.C,C33*%
X15570000Y16525000D03*
X17120000Y16525000D03*
%TD*%
D37*
%TO.C,C22*%
X-10795000Y-6495000D03*
X-10795000Y-7455000D03*
%TD*%
D28*
%TO.C,D3*%
X-20695000Y-4024999D03*
X-20695000Y-6124999D03*
%TD*%
D33*
%TO.C,R7*%
X-1600000Y15710000D03*
X-1600000Y14690000D03*
%TD*%
%TO.C,R29*%
X9175000Y-5000000D03*
X9175000Y-6020000D03*
%TD*%
D28*
%TO.C,D7*%
X-20695000Y12975001D03*
X-20695000Y10875001D03*
%TD*%
D33*
%TO.C,R4*%
X1800000Y11710000D03*
X1800000Y10690000D03*
%TD*%
D29*
%TO.C,C31*%
X-7480000Y18900000D03*
X-6520000Y18900000D03*
%TD*%
D30*
%TO.C,U30*%
X-8550000Y7362500D03*
X-7600000Y7362500D03*
X-6650000Y7362500D03*
X-6650000Y9637500D03*
X-7600000Y9637500D03*
X-8550000Y9637500D03*
%TD*%
D13*
%TO.C,R13*%
X-18284999Y8575000D03*
X-19304999Y8575000D03*
%TD*%
D38*
%TO.C,R20*%
X18285000Y-725000D03*
X19305000Y-725000D03*
%TD*%
D12*
%TO.C,D21*%
X6425000Y-7510000D03*
X4325000Y-7510000D03*
%TD*%
D39*
%TO.C,L2*%
X4525000Y-4222500D03*
X4525000Y-5797500D03*
%TD*%
D13*
%TO.C,R11*%
X-18284999Y17075000D03*
X-19304999Y17075000D03*
%TD*%
D36*
%TO.C,C37*%
X15570000Y8025000D03*
X17120000Y8025000D03*
%TD*%
D18*
%TO.C,C10*%
X-5620000Y11700000D03*
X-6580000Y11700000D03*
%TD*%
D12*
%TO.C,D18*%
X13945000Y8250000D03*
X11845000Y8250000D03*
%TD*%
D18*
%TO.C,C13*%
X-5620000Y4100000D03*
X-6580000Y4100000D03*
%TD*%
D28*
%TO.C,D14*%
X20695000Y11925000D03*
X20695000Y9825000D03*
%TD*%
D40*
%TO.C,J2*%
X2890000Y18395000D03*
X-2890000Y18395000D03*
D41*
X3350000Y17330000D03*
X2550000Y17330000D03*
X1250000Y17330000D03*
X250000Y17330000D03*
X-250000Y17330000D03*
X-1250000Y17330000D03*
X-2550000Y17330000D03*
X-3350000Y17330000D03*
X-3050000Y17330000D03*
X-2250000Y17330000D03*
X-1750000Y17330000D03*
X-750000Y17330000D03*
X750000Y17330000D03*
X1750000Y17330000D03*
X2250000Y17330000D03*
X3050000Y17330000D03*
D42*
X4320000Y17895000D03*
D43*
X4320000Y22075000D03*
D42*
X-4320000Y17895000D03*
D43*
X-4320000Y22075000D03*
%TD*%
D27*
%TO.C,C9*%
X-4000000Y-1780000D03*
X-4000000Y-820000D03*
%TD*%
D38*
%TO.C,R2*%
X-8910000Y-6400000D03*
X-7890000Y-6400000D03*
%TD*%
D33*
%TO.C,R6*%
X1400000Y15710000D03*
X1400000Y14690000D03*
%TD*%
D18*
%TO.C,C3*%
X-1520000Y-750000D03*
X-2480000Y-750000D03*
%TD*%
D12*
%TO.C,D15*%
X13945000Y-250000D03*
X11845000Y-250000D03*
%TD*%
D38*
%TO.C,R18*%
X18285000Y16275000D03*
X19305000Y16275000D03*
%TD*%
D44*
%TO.C,C52*%
X-20300000Y21250000D03*
X-25700000Y21250000D03*
%TD*%
D23*
%TO.C,H3*%
X31500000Y21500000D03*
D24*
X31500000Y21500000D03*
%TD*%
D13*
%TO.C,R10*%
X-18285000Y10525001D03*
X-19305000Y10525001D03*
%TD*%
D45*
%TO.C,U12*%
X13325000Y-2095000D03*
X13325000Y-3365000D03*
X13325000Y-4635000D03*
X13325000Y-5905000D03*
X18675000Y-5905000D03*
X18675000Y-4635000D03*
X18675000Y-3365000D03*
X18675000Y-2095000D03*
%TD*%
D46*
%TO.C,L3*%
X-7987500Y-3400000D03*
X-6412500Y-3400000D03*
%TD*%
D47*
%TO.C,J8*%
X32400000Y-11200000D03*
D48*
X30400000Y-11200000D03*
X28400000Y-11200000D03*
X26400000Y-11200000D03*
X24400000Y-11200000D03*
X22400000Y-11200000D03*
%TD*%
D38*
%TO.C,R19*%
X18285000Y9725000D03*
X19305000Y9725000D03*
%TD*%
D37*
%TO.C,C23*%
X-10795000Y10505000D03*
X-10795000Y9545000D03*
%TD*%
D13*
%TO.C,R8*%
X-18285000Y-6474999D03*
X-19305000Y-6474999D03*
%TD*%
D37*
%TO.C,C48*%
X-9400000Y-720000D03*
X-9400000Y-1680000D03*
%TD*%
%TO.C,C38*%
X27250000Y24230000D03*
X27250000Y23270000D03*
%TD*%
D27*
%TO.C,C36*%
X10795000Y7795000D03*
X10795000Y8755000D03*
%TD*%
D49*
%TO.C,J3*%
X10250000Y-14625000D03*
X10250000Y-15875000D03*
D50*
X7500000Y-12075000D03*
X7500000Y-18425000D03*
%TD*%
D45*
%TO.C,U11*%
X13325000Y14905000D03*
X13325000Y13635000D03*
X13325000Y12365000D03*
X13325000Y11095000D03*
X18675000Y11095000D03*
X18675000Y12365000D03*
X18675000Y13635000D03*
X18675000Y14905000D03*
%TD*%
D51*
%TO.C,C26*%
X-15570000Y1775000D03*
X-17120000Y1775000D03*
%TD*%
D47*
%TO.C,J9*%
X-15500000Y-16750000D03*
D48*
X-17500000Y-16750000D03*
X-19500000Y-16750000D03*
X-21500000Y-16750000D03*
X-23500000Y-16750000D03*
X-25500000Y-16750000D03*
%TD*%
D51*
%TO.C,C2*%
X-9025000Y-9100000D03*
X-10575000Y-9100000D03*
%TD*%
D52*
%TO.C,U1*%
X-7650000Y-8500000D03*
X-7650000Y-9000000D03*
X-7650000Y-9500000D03*
X-6150000Y-9500000D03*
X-6150000Y-9000000D03*
X-6150000Y-8500000D03*
%TD*%
D33*
%TO.C,R33*%
X-9800000Y8010000D03*
X-9800000Y6990000D03*
%TD*%
D26*
%TO.C,D2*%
X2900000Y13550000D03*
X2900000Y15650000D03*
%TD*%
D19*
%TO.C,D9*%
X-13945001Y1550000D03*
X-11845001Y1550000D03*
%TD*%
D25*
%TO.C,C53*%
X27300000Y-3750000D03*
X32700000Y-3750000D03*
%TD*%
D38*
%TO.C,R23*%
X18285000Y1225000D03*
X19305000Y1225000D03*
%TD*%
D37*
%TO.C,C8*%
X2750000Y-1770000D03*
X2750000Y-2730000D03*
%TD*%
D53*
%TO.C,J5*%
X-28500000Y3500000D03*
D54*
X-28500000Y8500000D03*
X-28500000Y13500000D03*
%TD*%
D38*
%TO.C,R21*%
X18285000Y-7275000D03*
X19305000Y-7275000D03*
%TD*%
D36*
%TO.C,C6*%
X-3475000Y-5900000D03*
X-1925000Y-5900000D03*
%TD*%
D27*
%TO.C,C41*%
X-3700000Y14720000D03*
X-3700000Y15680000D03*
%TD*%
D29*
%TO.C,C25*%
X-12480000Y100000D03*
X-11520000Y100000D03*
%TD*%
D38*
%TO.C,R22*%
X18285000Y7775000D03*
X19305000Y7775000D03*
%TD*%
D39*
%TO.C,FB1*%
X5000000Y11987500D03*
X5000000Y10412500D03*
%TD*%
D29*
%TO.C,C14*%
X5120000Y4000000D03*
X6080000Y4000000D03*
%TD*%
D13*
%TO.C,R9*%
X-18284999Y75000D03*
X-19304999Y75000D03*
%TD*%
D55*
%TO.C,U6*%
X-13325000Y3395000D03*
X-13325000Y4665000D03*
X-13325000Y5935000D03*
X-13325000Y7205000D03*
X-18675000Y7205000D03*
X-18675000Y5935000D03*
X-18675000Y4665000D03*
X-18675000Y3395000D03*
%TD*%
D47*
%TO.C,J7*%
X25500000Y-16750000D03*
D48*
X23500000Y-16750000D03*
X21500000Y-16750000D03*
X19500000Y-16750000D03*
X17500000Y-16750000D03*
X15500000Y-16750000D03*
%TD*%
D29*
%TO.C,C18*%
X4720000Y9200000D03*
X5680000Y9200000D03*
%TD*%
D56*
%TO.C,C44*%
X4600000Y15475000D03*
X4600000Y13925000D03*
%TD*%
D44*
%TO.C,C57*%
X-27300000Y-3750000D03*
X-32700000Y-3750000D03*
%TD*%
D18*
%TO.C,C51*%
X-7520000Y11800000D03*
X-8480000Y11800000D03*
%TD*%
D27*
%TO.C,C32*%
X10795000Y16295000D03*
X10795000Y17255000D03*
%TD*%
%TO.C,C29*%
X-17700000Y-11980000D03*
X-17700000Y-11020000D03*
%TD*%
D26*
%TO.C,D4*%
X-20695000Y-2125000D03*
X-20695000Y-25000D03*
%TD*%
D33*
%TO.C,R30*%
X9175000Y-3100000D03*
X9175000Y-4120000D03*
%TD*%
D53*
%TO.C,J6*%
X28500000Y13500000D03*
D54*
X28500000Y8500000D03*
X28500000Y3500000D03*
%TD*%
D23*
%TO.C,H2*%
X31500000Y-16500000D03*
D24*
X31500000Y-16500000D03*
%TD*%
D26*
%TO.C,D8*%
X-20695000Y14875000D03*
X-20695000Y16975000D03*
%TD*%
D33*
%TO.C,R17*%
X-12000000Y-13490000D03*
X-12000000Y-14510000D03*
%TD*%
D27*
%TO.C,C11*%
X-1100000Y10720000D03*
X-1100000Y11680000D03*
%TD*%
D45*
%TO.C,U13*%
X13325000Y6405000D03*
X13325000Y5135000D03*
X13325000Y3865000D03*
X13325000Y2595000D03*
X18675000Y2595000D03*
X18675000Y3865000D03*
X18675000Y5135000D03*
X18675000Y6405000D03*
%TD*%
D57*
%TO.C,J4*%
X-10250000Y-15625000D03*
X-10250000Y-14375000D03*
D58*
X-7500000Y-18175000D03*
X-7500000Y-11825000D03*
%TD*%
D26*
%TO.C,D11*%
X-20695000Y6375000D03*
X-20695000Y8475000D03*
%TD*%
D37*
%TO.C,C43*%
X5800000Y14080000D03*
X5800000Y13120000D03*
%TD*%
D51*
%TO.C,C50*%
X-6425000Y-4900000D03*
X-7975000Y-4900000D03*
%TD*%
D38*
%TO.C,R28*%
X6965000Y-1810000D03*
X7985000Y-1810000D03*
%TD*%
D28*
%TO.C,D20*%
X20695000Y3425000D03*
X20695000Y1325000D03*
%TD*%
D59*
%TO.C,U3*%
X-3437500Y7600000D03*
X-3437500Y7200000D03*
X-3437500Y6800000D03*
X-3437500Y6400000D03*
X-3437500Y6000000D03*
X-3437500Y5600000D03*
X-3437500Y5200000D03*
X-3437500Y4800000D03*
X-3437500Y4400000D03*
X-3437500Y4000000D03*
X-3437500Y3600000D03*
X-3437500Y3200000D03*
X-3437500Y2800000D03*
X-3437500Y2400000D03*
D60*
X-2600000Y1562500D03*
X-2200000Y1562500D03*
X-1800000Y1562500D03*
X-1400000Y1562500D03*
X-1000000Y1562500D03*
X-600000Y1562500D03*
X-200000Y1562500D03*
X200000Y1562500D03*
X600000Y1562500D03*
X1000000Y1562500D03*
X1400000Y1562500D03*
X1800000Y1562500D03*
X2200000Y1562500D03*
X2600000Y1562500D03*
D59*
X3437500Y2400000D03*
X3437500Y2800000D03*
X3437500Y3200000D03*
X3437500Y3600000D03*
X3437500Y4000000D03*
X3437500Y4400000D03*
X3437500Y4800000D03*
X3437500Y5200000D03*
X3437500Y5600000D03*
X3437500Y6000000D03*
X3437500Y6400000D03*
X3437500Y6800000D03*
X3437500Y7200000D03*
X3437500Y7600000D03*
D60*
X2600000Y8437500D03*
X2200000Y8437500D03*
X1800000Y8437500D03*
X1400000Y8437500D03*
X1000000Y8437500D03*
X600000Y8437500D03*
X200000Y8437500D03*
X-200000Y8437500D03*
X-600000Y8437500D03*
X-1000000Y8437500D03*
X-1400000Y8437500D03*
X-1800000Y8437500D03*
X-2200000Y8437500D03*
X-2600000Y8437500D03*
D61*
X0Y5000000D03*
%TD*%
D13*
%TO.C,R27*%
X-5590000Y5900000D03*
X-6610000Y5900000D03*
%TD*%
D62*
%TO.C,L1*%
X-4700000Y-8412500D03*
X-4700000Y-9987500D03*
%TD*%
D18*
%TO.C,C4*%
X-5620000Y12700000D03*
X-6580000Y12700000D03*
%TD*%
D29*
%TO.C,C39*%
X24920000Y-6700000D03*
X25880000Y-6700000D03*
%TD*%
D37*
%TO.C,C17*%
X1750000Y-1770000D03*
X1750000Y-2730000D03*
%TD*%
D33*
%TO.C,R32*%
X-5000000Y1110000D03*
X-5000000Y90000D03*
%TD*%
D19*
%TO.C,D6*%
X-13945001Y10050000D03*
X-11845001Y10050000D03*
%TD*%
D44*
%TO.C,C55*%
X15950000Y21250000D03*
X10550000Y21250000D03*
%TD*%
D12*
%TO.C,D12*%
X13945000Y16750000D03*
X11845000Y16750000D03*
%TD*%
D27*
%TO.C,C40*%
X-4700000Y14720000D03*
X-4700000Y15680000D03*
%TD*%
D33*
%TO.C,R16*%
X-12000000Y-15490000D03*
X-12000000Y-16510000D03*
%TD*%
D51*
%TO.C,C21*%
X-15570000Y-6725000D03*
X-17120000Y-6725000D03*
%TD*%
D25*
%TO.C,C56*%
X-15950000Y21250000D03*
X-10550000Y21250000D03*
%TD*%
D26*
%TO.C,D19*%
X20695000Y5325000D03*
X20695000Y7425000D03*
%TD*%
D29*
%TO.C,C5*%
X-230000Y-750000D03*
X730000Y-750000D03*
%TD*%
D55*
%TO.C,U4*%
X-13325000Y-5105000D03*
X-13325000Y-3835000D03*
X-13325000Y-2565000D03*
X-13325000Y-1295000D03*
X-18675000Y-1295000D03*
X-18675000Y-2565000D03*
X-18675000Y-3835000D03*
X-18675000Y-5105000D03*
%TD*%
D13*
%TO.C,R12*%
X-18285000Y2025001D03*
X-19305000Y2025001D03*
%TD*%
D51*
%TO.C,C24*%
X-15570000Y10275000D03*
X-17120000Y10275000D03*
%TD*%
D36*
%TO.C,C35*%
X15570000Y-475000D03*
X17120000Y-475000D03*
%TD*%
D55*
%TO.C,U5*%
X-13325000Y11895000D03*
X-13325000Y13165000D03*
X-13325000Y14435000D03*
X-13325000Y15705000D03*
X-18675000Y15705000D03*
X-18675000Y14435000D03*
X-18675000Y13165000D03*
X-18675000Y11895000D03*
%TD*%
D63*
%TO.C,J1*%
X1000000Y-7925000D03*
X0Y-7925000D03*
X-1000000Y-7925000D03*
D64*
X2300000Y-10450000D03*
X-2300000Y-10450000D03*
%TD*%
D33*
%TO.C,R31*%
X-5000000Y-800000D03*
X-5000000Y-1820000D03*
%TD*%
D56*
%TO.C,C49*%
X-4950000Y-3375000D03*
X-4950000Y-4925000D03*
%TD*%
D27*
%TO.C,C12*%
X-150000Y10720000D03*
X-150000Y11680000D03*
%TD*%
D28*
%TO.C,D10*%
X-20695000Y4475001D03*
X-20695000Y2375001D03*
%TD*%
D26*
%TO.C,D13*%
X20695000Y13825000D03*
X20695000Y15925000D03*
%TD*%
D13*
%TO.C,R1*%
X-7890000Y-7400000D03*
X-8910000Y-7400000D03*
%TD*%
D18*
%TO.C,C27*%
X-24790000Y-7250000D03*
X-25750000Y-7250000D03*
%TD*%
D65*
%TO.C,J11*%
X-2504000Y-16000000D03*
D66*
X2576000Y-16000000D03*
%TD*%
D38*
%TO.C,R26*%
X-8510000Y5900000D03*
X-7490000Y5900000D03*
%TD*%
D47*
%TO.C,J10*%
X-22400000Y-11200000D03*
D48*
X-24400000Y-11200000D03*
X-26400000Y-11200000D03*
X-28400000Y-11200000D03*
X-30400000Y-11200000D03*
X-32400000Y-11200000D03*
%TD*%
%LPD*%
M02*
