%TF.GenerationSoftware,KiCad,Pcbnew,8.0.2*%
%TF.CreationDate,2024-05-05T15:17:45+02:00*%
%TF.ProjectId,motor_unicorn,6d6f746f-725f-4756-9e69-636f726e2e6b,rev?*%
%TF.SameCoordinates,Original*%
%TF.FileFunction,Paste,Top*%
%TF.FilePolarity,Positive*%
%FSLAX46Y46*%
G04 Gerber Fmt 4.6, Leading zero omitted, Abs format (unit mm)*
G04 Created by KiCad (PCBNEW 8.0.2) date 2024-05-05 15:17:45*
%MOMM*%
%LPD*%
G01*
G04 APERTURE LIST*
G04 Aperture macros list*
%AMRoundRect*
0 Rectangle with rounded corners*
0 $1 Rounding radius*
0 $2 $3 $4 $5 $6 $7 $8 $9 X,Y pos of 4 corners*
0 Add a 4 corners polygon primitive as box body*
4,1,4,$2,$3,$4,$5,$6,$7,$8,$9,$2,$3,0*
0 Add four circle primitives for the rounded corners*
1,1,$1+$1,$2,$3*
1,1,$1+$1,$4,$5*
1,1,$1+$1,$6,$7*
1,1,$1+$1,$8,$9*
0 Add four rect primitives between the rounded corners*
20,1,$1+$1,$2,$3,$4,$5,0*
20,1,$1+$1,$4,$5,$6,$7,0*
20,1,$1+$1,$6,$7,$8,$9,0*
20,1,$1+$1,$8,$9,$2,$3,0*%
G04 Aperture macros list end*
%ADD10RoundRect,0.112500X0.187500X0.112500X-0.187500X0.112500X-0.187500X-0.112500X0.187500X-0.112500X0*%
%ADD11RoundRect,0.135000X0.135000X0.185000X-0.135000X0.185000X-0.135000X-0.185000X0.135000X-0.185000X0*%
%ADD12R,1.400000X1.200000*%
%ADD13R,0.450000X0.450000*%
%ADD14R,0.600000X0.500000*%
%ADD15R,0.300000X0.750000*%
%ADD16RoundRect,0.140000X0.140000X0.170000X-0.140000X0.170000X-0.140000X-0.170000X0.140000X-0.170000X0*%
%ADD17RoundRect,0.112500X-0.187500X-0.112500X0.187500X-0.112500X0.187500X0.112500X-0.187500X0.112500X0*%
%ADD18RoundRect,0.250000X-0.250000X-0.475000X0.250000X-0.475000X0.250000X0.475000X-0.250000X0.475000X0*%
%ADD19RoundRect,0.250000X-0.475000X0.250000X-0.475000X-0.250000X0.475000X-0.250000X0.475000X0.250000X0*%
%ADD20RoundRect,0.250000X0.475000X-0.250000X0.475000X0.250000X-0.475000X0.250000X-0.475000X-0.250000X0*%
%ADD21RoundRect,0.250000X-1.500000X-0.550000X1.500000X-0.550000X1.500000X0.550000X-1.500000X0.550000X0*%
%ADD22RoundRect,0.112500X0.112500X-0.187500X0.112500X0.187500X-0.112500X0.187500X-0.112500X-0.187500X0*%
%ADD23RoundRect,0.140000X0.170000X-0.140000X0.170000X0.140000X-0.170000X0.140000X-0.170000X-0.140000X0*%
%ADD24RoundRect,0.112500X-0.112500X0.187500X-0.112500X-0.187500X0.112500X-0.187500X0.112500X0.187500X0*%
%ADD25RoundRect,0.140000X-0.140000X-0.170000X0.140000X-0.170000X0.140000X0.170000X-0.140000X0.170000X0*%
%ADD26RoundRect,0.150000X0.150000X-0.512500X0.150000X0.512500X-0.150000X0.512500X-0.150000X-0.512500X0*%
%ADD27R,0.840000X0.350000*%
%ADD28R,1.600000X2.400000*%
%ADD29RoundRect,0.135000X-0.185000X0.135000X-0.185000X-0.135000X0.185000X-0.135000X0.185000X0.135000X0*%
%ADD30R,0.250000X0.675000*%
%ADD31R,0.675000X0.250000*%
%ADD32RoundRect,0.225000X-0.225000X-0.250000X0.225000X-0.250000X0.225000X0.250000X-0.225000X0.250000X0*%
%ADD33RoundRect,0.140000X-0.170000X0.140000X-0.170000X-0.140000X0.170000X-0.140000X0.170000X0.140000X0*%
%ADD34RoundRect,0.135000X-0.135000X-0.185000X0.135000X-0.185000X0.135000X0.185000X-0.135000X0.185000X0*%
%ADD35RoundRect,0.218750X-0.256250X0.218750X-0.256250X-0.218750X0.256250X-0.218750X0.256250X0.218750X0*%
%ADD36R,0.300000X1.150000*%
%ADD37RoundRect,0.250000X1.500000X0.550000X-1.500000X0.550000X-1.500000X-0.550000X1.500000X-0.550000X0*%
%ADD38RoundRect,0.150000X-0.625000X-0.150000X0.625000X-0.150000X0.625000X0.150000X-0.625000X0.150000X0*%
%ADD39RoundRect,0.218750X-0.218750X-0.256250X0.218750X-0.256250X0.218750X0.256250X-0.218750X0.256250X0*%
%ADD40RoundRect,0.200000X-0.450000X0.200000X-0.450000X-0.200000X0.450000X-0.200000X0.450000X0.200000X0*%
%ADD41RoundRect,0.250001X-1.249999X0.799999X-1.249999X-0.799999X1.249999X-0.799999X1.249999X0.799999X0*%
%ADD42RoundRect,0.225000X0.225000X0.250000X-0.225000X0.250000X-0.225000X-0.250000X0.225000X-0.250000X0*%
%ADD43RoundRect,0.085000X-0.265000X-0.085000X0.265000X-0.085000X0.265000X0.085000X-0.265000X0.085000X0*%
%ADD44RoundRect,0.150000X0.625000X0.150000X-0.625000X0.150000X-0.625000X-0.150000X0.625000X-0.150000X0*%
%ADD45RoundRect,0.225000X-0.250000X0.225000X-0.250000X-0.225000X0.250000X-0.225000X0.250000X0.225000X0*%
%ADD46RoundRect,0.200000X0.450000X-0.200000X0.450000X0.200000X-0.450000X0.200000X-0.450000X-0.200000X0*%
%ADD47RoundRect,0.250001X1.249999X-0.799999X1.249999X0.799999X-1.249999X0.799999X-1.249999X-0.799999X0*%
%ADD48RoundRect,0.249999X-0.395001X-0.395001X0.395001X-0.395001X0.395001X0.395001X-0.395001X0.395001X0*%
%ADD49RoundRect,0.050000X-0.387500X-0.050000X0.387500X-0.050000X0.387500X0.050000X-0.387500X0.050000X0*%
%ADD50RoundRect,0.050000X-0.050000X-0.387500X0.050000X-0.387500X0.050000X0.387500X-0.050000X0.387500X0*%
%ADD51RoundRect,0.218750X0.256250X-0.218750X0.256250X0.218750X-0.256250X0.218750X-0.256250X-0.218750X0*%
%ADD52RoundRect,0.150000X0.150000X0.625000X-0.150000X0.625000X-0.150000X-0.625000X0.150000X-0.625000X0*%
%ADD53RoundRect,0.250000X0.350000X0.650000X-0.350000X0.650000X-0.350000X-0.650000X0.350000X-0.650000X0*%
G04 APERTURE END LIST*
D10*
%TO.C,D23*%
X11650000Y-8200000D03*
X9550000Y-8200000D03*
%TD*%
D11*
%TO.C,R35*%
X10510000Y-9700000D03*
X9490000Y-9700000D03*
%TD*%
D12*
%TO.C,Y1*%
X100000Y-2150000D03*
X-2100000Y-2150000D03*
X-2100000Y-3850000D03*
X100000Y-3850000D03*
%TD*%
D13*
%TO.C,D1*%
X7075000Y75000D03*
X7925000Y75000D03*
X7925000Y925000D03*
X7075000Y925000D03*
%TD*%
D14*
%TO.C,U2*%
X-4175000Y11350000D03*
X-3425000Y11350000D03*
X-4175000Y12000000D03*
X-3425000Y12000000D03*
D15*
X-4550000Y10225000D03*
X-4050000Y10225000D03*
X-3550000Y10225000D03*
X-3050000Y10225000D03*
X-3050000Y13125000D03*
X-3550000Y13125000D03*
X-4050000Y13125000D03*
X-4550000Y13125000D03*
%TD*%
D16*
%TO.C,C1*%
X-5620000Y13700000D03*
X-6580000Y13700000D03*
%TD*%
D17*
%TO.C,D22*%
X-6850000Y-6700000D03*
X-4750000Y-6700000D03*
%TD*%
D18*
%TO.C,C47*%
X-9700000Y3600000D03*
X-7800000Y3600000D03*
%TD*%
D19*
%TO.C,C46*%
X8000000Y-7250000D03*
X8000000Y-9150000D03*
%TD*%
D20*
%TO.C,C45*%
X5500000Y-1550000D03*
X5500000Y350000D03*
%TD*%
%TO.C,C42*%
X8200000Y15350000D03*
X8200000Y17250000D03*
%TD*%
D17*
%TO.C,D5*%
X-13945001Y-6950000D03*
X-11845001Y-6950000D03*
%TD*%
D21*
%TO.C,C54*%
X20300000Y21250000D03*
X25700000Y21250000D03*
%TD*%
D22*
%TO.C,D16*%
X20695000Y-3175000D03*
X20695000Y-1075000D03*
%TD*%
D23*
%TO.C,C20*%
X3800000Y10720000D03*
X3800000Y11680000D03*
%TD*%
D24*
%TO.C,D17*%
X20695000Y-5075000D03*
X20695000Y-7175000D03*
%TD*%
D23*
%TO.C,C19*%
X2800000Y10720000D03*
X2800000Y11680000D03*
%TD*%
D25*
%TO.C,C30*%
X-8480000Y13700000D03*
X-7520000Y13700000D03*
%TD*%
%TO.C,C7*%
X7020000Y-700000D03*
X7980000Y-700000D03*
%TD*%
D26*
%TO.C,U31*%
X-8150000Y-1737500D03*
X-7200000Y-1737500D03*
X-6250000Y-1737500D03*
X-6250000Y537500D03*
X-7200000Y537500D03*
X-8150000Y537500D03*
%TD*%
D27*
%TO.C,U9*%
X-12400000Y-12375000D03*
X-12400000Y-11725000D03*
X-12400000Y-11075000D03*
X-12400000Y-10425000D03*
X-15400000Y-10425000D03*
X-15400000Y-11075000D03*
X-15400000Y-11725000D03*
X-15400000Y-12375000D03*
D28*
X-13900000Y-11400000D03*
%TD*%
D29*
%TO.C,R34*%
X-9800000Y10020000D03*
X-9800000Y9000000D03*
%TD*%
D25*
%TO.C,C28*%
X-18780000Y23600000D03*
X-17820000Y23600000D03*
%TD*%
D23*
%TO.C,C34*%
X10795000Y-705000D03*
X10795000Y255000D03*
%TD*%
D30*
%TO.C,U10*%
X-6250000Y17362500D03*
X-6750000Y17362500D03*
X-7250000Y17362500D03*
X-7750000Y17362500D03*
D31*
X-8012500Y16600000D03*
X-8012500Y16100000D03*
X-8012500Y15600000D03*
D30*
X-7750000Y14837500D03*
X-7250000Y14837500D03*
X-6750000Y14837500D03*
X-6250000Y14837500D03*
D31*
X-5987500Y15600000D03*
X-5987500Y16100000D03*
X-5987500Y16600000D03*
%TD*%
D25*
%TO.C,C16*%
X4720000Y8250000D03*
X5680000Y8250000D03*
%TD*%
D29*
%TO.C,R5*%
X790000Y11710000D03*
X790000Y10690000D03*
%TD*%
D26*
%TO.C,U17*%
X6050000Y-5537500D03*
X7000000Y-5537500D03*
X7950000Y-5537500D03*
X7950000Y-3262500D03*
X7000000Y-3262500D03*
X6050000Y-3262500D03*
%TD*%
D16*
%TO.C,C15*%
X-5620000Y3100000D03*
X-6580000Y3100000D03*
%TD*%
D32*
%TO.C,C33*%
X15570000Y16525000D03*
X17120000Y16525000D03*
%TD*%
D33*
%TO.C,C22*%
X-10795000Y-6495000D03*
X-10795000Y-7455000D03*
%TD*%
D24*
%TO.C,D3*%
X-20695000Y-4024999D03*
X-20695000Y-6124999D03*
%TD*%
D29*
%TO.C,R7*%
X-1600000Y15710000D03*
X-1600000Y14690000D03*
%TD*%
%TO.C,R29*%
X9175000Y-5000000D03*
X9175000Y-6020000D03*
%TD*%
D24*
%TO.C,D7*%
X-20695000Y12975001D03*
X-20695000Y10875001D03*
%TD*%
D29*
%TO.C,R4*%
X1800000Y11710000D03*
X1800000Y10690000D03*
%TD*%
D25*
%TO.C,C31*%
X-7480000Y18900000D03*
X-6520000Y18900000D03*
%TD*%
D26*
%TO.C,U30*%
X-8550000Y7362500D03*
X-7600000Y7362500D03*
X-6650000Y7362500D03*
X-6650000Y9637500D03*
X-7600000Y9637500D03*
X-8550000Y9637500D03*
%TD*%
D11*
%TO.C,R13*%
X-18284999Y8575000D03*
X-19304999Y8575000D03*
%TD*%
D34*
%TO.C,R20*%
X18285000Y-725000D03*
X19305000Y-725000D03*
%TD*%
D10*
%TO.C,D21*%
X6425000Y-7510000D03*
X4325000Y-7510000D03*
%TD*%
D35*
%TO.C,L2*%
X4525000Y-4222500D03*
X4525000Y-5797500D03*
%TD*%
D11*
%TO.C,R11*%
X-18284999Y17075000D03*
X-19304999Y17075000D03*
%TD*%
D32*
%TO.C,C37*%
X15570000Y8025000D03*
X17120000Y8025000D03*
%TD*%
D16*
%TO.C,C10*%
X-5620000Y11700000D03*
X-6580000Y11700000D03*
%TD*%
D10*
%TO.C,D18*%
X13945000Y8250000D03*
X11845000Y8250000D03*
%TD*%
D16*
%TO.C,C13*%
X-5620000Y4100000D03*
X-6580000Y4100000D03*
%TD*%
D24*
%TO.C,D14*%
X20695000Y11925000D03*
X20695000Y9825000D03*
%TD*%
D36*
%TO.C,J2*%
X3350000Y17330000D03*
X2550000Y17330000D03*
X1250000Y17330000D03*
X250000Y17330000D03*
X-250000Y17330000D03*
X-1250000Y17330000D03*
X-2550000Y17330000D03*
X-3350000Y17330000D03*
X-3050000Y17330000D03*
X-2250000Y17330000D03*
X-1750000Y17330000D03*
X-750000Y17330000D03*
X750000Y17330000D03*
X1750000Y17330000D03*
X2250000Y17330000D03*
X3050000Y17330000D03*
%TD*%
D23*
%TO.C,C9*%
X-4000000Y-1780000D03*
X-4000000Y-820000D03*
%TD*%
D34*
%TO.C,R2*%
X-8910000Y-6400000D03*
X-7890000Y-6400000D03*
%TD*%
D29*
%TO.C,R6*%
X1400000Y15710000D03*
X1400000Y14690000D03*
%TD*%
D16*
%TO.C,C3*%
X-1520000Y-750000D03*
X-2480000Y-750000D03*
%TD*%
D10*
%TO.C,D15*%
X13945000Y-250000D03*
X11845000Y-250000D03*
%TD*%
D34*
%TO.C,R18*%
X18285000Y16275000D03*
X19305000Y16275000D03*
%TD*%
D37*
%TO.C,C52*%
X-20300000Y21250000D03*
X-25700000Y21250000D03*
%TD*%
D11*
%TO.C,R10*%
X-18285000Y10525001D03*
X-19305000Y10525001D03*
%TD*%
D38*
%TO.C,U12*%
X13325000Y-2095000D03*
X13325000Y-3365000D03*
X13325000Y-4635000D03*
X13325000Y-5905000D03*
X18675000Y-5905000D03*
X18675000Y-4635000D03*
X18675000Y-3365000D03*
X18675000Y-2095000D03*
%TD*%
D39*
%TO.C,L3*%
X-7987500Y-3400000D03*
X-6412500Y-3400000D03*
%TD*%
D34*
%TO.C,R19*%
X18285000Y9725000D03*
X19305000Y9725000D03*
%TD*%
D33*
%TO.C,C23*%
X-10795000Y10505000D03*
X-10795000Y9545000D03*
%TD*%
D11*
%TO.C,R8*%
X-18285000Y-6474999D03*
X-19305000Y-6474999D03*
%TD*%
D33*
%TO.C,C48*%
X-9400000Y-720000D03*
X-9400000Y-1680000D03*
%TD*%
%TO.C,C38*%
X27250000Y24230000D03*
X27250000Y23270000D03*
%TD*%
D23*
%TO.C,C36*%
X10795000Y7795000D03*
X10795000Y8755000D03*
%TD*%
D40*
%TO.C,J3*%
X10250000Y-14625000D03*
X10250000Y-15875000D03*
D41*
X7500000Y-12075000D03*
X7500000Y-18425000D03*
%TD*%
D38*
%TO.C,U11*%
X13325000Y14905000D03*
X13325000Y13635000D03*
X13325000Y12365000D03*
X13325000Y11095000D03*
X18675000Y11095000D03*
X18675000Y12365000D03*
X18675000Y13635000D03*
X18675000Y14905000D03*
%TD*%
D42*
%TO.C,C26*%
X-15570000Y1775000D03*
X-17120000Y1775000D03*
%TD*%
%TO.C,C2*%
X-9025000Y-9100000D03*
X-10575000Y-9100000D03*
%TD*%
D43*
%TO.C,U1*%
X-7650000Y-8500000D03*
X-7650000Y-9000000D03*
X-7650000Y-9500000D03*
X-6150000Y-9500000D03*
X-6150000Y-9000000D03*
X-6150000Y-8500000D03*
%TD*%
D29*
%TO.C,R33*%
X-9800000Y8010000D03*
X-9800000Y6990000D03*
%TD*%
D22*
%TO.C,D2*%
X2900000Y13550000D03*
X2900000Y15650000D03*
%TD*%
D17*
%TO.C,D9*%
X-13945001Y1550000D03*
X-11845001Y1550000D03*
%TD*%
D21*
%TO.C,C53*%
X27300000Y-3750000D03*
X32700000Y-3750000D03*
%TD*%
D34*
%TO.C,R23*%
X18285000Y1225000D03*
X19305000Y1225000D03*
%TD*%
D33*
%TO.C,C8*%
X2750000Y-1770000D03*
X2750000Y-2730000D03*
%TD*%
D34*
%TO.C,R21*%
X18285000Y-7275000D03*
X19305000Y-7275000D03*
%TD*%
D32*
%TO.C,C6*%
X-3475000Y-5900000D03*
X-1925000Y-5900000D03*
%TD*%
D23*
%TO.C,C41*%
X-3700000Y14720000D03*
X-3700000Y15680000D03*
%TD*%
D25*
%TO.C,C25*%
X-12480000Y100000D03*
X-11520000Y100000D03*
%TD*%
D34*
%TO.C,R22*%
X18285000Y7775000D03*
X19305000Y7775000D03*
%TD*%
D35*
%TO.C,FB1*%
X5000000Y11987500D03*
X5000000Y10412500D03*
%TD*%
D25*
%TO.C,C14*%
X5120000Y4000000D03*
X6080000Y4000000D03*
%TD*%
D11*
%TO.C,R9*%
X-18284999Y75000D03*
X-19304999Y75000D03*
%TD*%
D44*
%TO.C,U6*%
X-13325000Y3395000D03*
X-13325000Y4665000D03*
X-13325000Y5935000D03*
X-13325000Y7205000D03*
X-18675000Y7205000D03*
X-18675000Y5935000D03*
X-18675000Y4665000D03*
X-18675000Y3395000D03*
%TD*%
D25*
%TO.C,C18*%
X4720000Y9200000D03*
X5680000Y9200000D03*
%TD*%
D45*
%TO.C,C44*%
X4600000Y15475000D03*
X4600000Y13925000D03*
%TD*%
D37*
%TO.C,C57*%
X-27300000Y-3750000D03*
X-32700000Y-3750000D03*
%TD*%
D16*
%TO.C,C51*%
X-7520000Y11800000D03*
X-8480000Y11800000D03*
%TD*%
D23*
%TO.C,C32*%
X10795000Y16295000D03*
X10795000Y17255000D03*
%TD*%
%TO.C,C29*%
X-17700000Y-11980000D03*
X-17700000Y-11020000D03*
%TD*%
D22*
%TO.C,D4*%
X-20695000Y-2125000D03*
X-20695000Y-25000D03*
%TD*%
D29*
%TO.C,R30*%
X9175000Y-3100000D03*
X9175000Y-4120000D03*
%TD*%
D22*
%TO.C,D8*%
X-20695000Y14875000D03*
X-20695000Y16975000D03*
%TD*%
D29*
%TO.C,R17*%
X-12000000Y-13490000D03*
X-12000000Y-14510000D03*
%TD*%
D23*
%TO.C,C11*%
X-1100000Y10720000D03*
X-1100000Y11680000D03*
%TD*%
D38*
%TO.C,U13*%
X13325000Y6405000D03*
X13325000Y5135000D03*
X13325000Y3865000D03*
X13325000Y2595000D03*
X18675000Y2595000D03*
X18675000Y3865000D03*
X18675000Y5135000D03*
X18675000Y6405000D03*
%TD*%
D46*
%TO.C,J4*%
X-10250000Y-15625000D03*
X-10250000Y-14375000D03*
D47*
X-7500000Y-18175000D03*
X-7500000Y-11825000D03*
%TD*%
D22*
%TO.C,D11*%
X-20695000Y6375000D03*
X-20695000Y8475000D03*
%TD*%
D33*
%TO.C,C43*%
X5800000Y14080000D03*
X5800000Y13120000D03*
%TD*%
D42*
%TO.C,C50*%
X-6425000Y-4900000D03*
X-7975000Y-4900000D03*
%TD*%
D34*
%TO.C,R28*%
X6965000Y-1810000D03*
X7985000Y-1810000D03*
%TD*%
D24*
%TO.C,D20*%
X20695000Y3425000D03*
X20695000Y1325000D03*
%TD*%
D48*
%TO.C,U3*%
X-800000Y5800000D03*
X-800000Y4200000D03*
X800000Y5800000D03*
X800000Y4200000D03*
D49*
X-3437500Y7600000D03*
X-3437500Y7200000D03*
X-3437500Y6800000D03*
X-3437500Y6400000D03*
X-3437500Y6000000D03*
X-3437500Y5600000D03*
X-3437500Y5200000D03*
X-3437500Y4800000D03*
X-3437500Y4400000D03*
X-3437500Y4000000D03*
X-3437500Y3600000D03*
X-3437500Y3200000D03*
X-3437500Y2800000D03*
X-3437500Y2400000D03*
D50*
X-2600000Y1562500D03*
X-2200000Y1562500D03*
X-1800000Y1562500D03*
X-1400000Y1562500D03*
X-1000000Y1562500D03*
X-600000Y1562500D03*
X-200000Y1562500D03*
X200000Y1562500D03*
X600000Y1562500D03*
X1000000Y1562500D03*
X1400000Y1562500D03*
X1800000Y1562500D03*
X2200000Y1562500D03*
X2600000Y1562500D03*
D49*
X3437500Y2400000D03*
X3437500Y2800000D03*
X3437500Y3200000D03*
X3437500Y3600000D03*
X3437500Y4000000D03*
X3437500Y4400000D03*
X3437500Y4800000D03*
X3437500Y5200000D03*
X3437500Y5600000D03*
X3437500Y6000000D03*
X3437500Y6400000D03*
X3437500Y6800000D03*
X3437500Y7200000D03*
X3437500Y7600000D03*
D50*
X2600000Y8437500D03*
X2200000Y8437500D03*
X1800000Y8437500D03*
X1400000Y8437500D03*
X1000000Y8437500D03*
X600000Y8437500D03*
X200000Y8437500D03*
X-200000Y8437500D03*
X-600000Y8437500D03*
X-1000000Y8437500D03*
X-1400000Y8437500D03*
X-1800000Y8437500D03*
X-2200000Y8437500D03*
X-2600000Y8437500D03*
%TD*%
D11*
%TO.C,R27*%
X-5590000Y5900000D03*
X-6610000Y5900000D03*
%TD*%
D51*
%TO.C,L1*%
X-4700000Y-8412500D03*
X-4700000Y-9987500D03*
%TD*%
D16*
%TO.C,C4*%
X-5620000Y12700000D03*
X-6580000Y12700000D03*
%TD*%
D25*
%TO.C,C39*%
X24920000Y-6700000D03*
X25880000Y-6700000D03*
%TD*%
D33*
%TO.C,C17*%
X1750000Y-1770000D03*
X1750000Y-2730000D03*
%TD*%
D29*
%TO.C,R32*%
X-5000000Y1110000D03*
X-5000000Y90000D03*
%TD*%
D17*
%TO.C,D6*%
X-13945001Y10050000D03*
X-11845001Y10050000D03*
%TD*%
D37*
%TO.C,C55*%
X15950000Y21250000D03*
X10550000Y21250000D03*
%TD*%
D10*
%TO.C,D12*%
X13945000Y16750000D03*
X11845000Y16750000D03*
%TD*%
D23*
%TO.C,C40*%
X-4700000Y14720000D03*
X-4700000Y15680000D03*
%TD*%
D29*
%TO.C,R16*%
X-12000000Y-15490000D03*
X-12000000Y-16510000D03*
%TD*%
D42*
%TO.C,C21*%
X-15570000Y-6725000D03*
X-17120000Y-6725000D03*
%TD*%
D21*
%TO.C,C56*%
X-15950000Y21250000D03*
X-10550000Y21250000D03*
%TD*%
D22*
%TO.C,D19*%
X20695000Y5325000D03*
X20695000Y7425000D03*
%TD*%
D25*
%TO.C,C5*%
X-230000Y-750000D03*
X730000Y-750000D03*
%TD*%
D44*
%TO.C,U4*%
X-13325000Y-5105000D03*
X-13325000Y-3835000D03*
X-13325000Y-2565000D03*
X-13325000Y-1295000D03*
X-18675000Y-1295000D03*
X-18675000Y-2565000D03*
X-18675000Y-3835000D03*
X-18675000Y-5105000D03*
%TD*%
D11*
%TO.C,R12*%
X-18285000Y2025001D03*
X-19305000Y2025001D03*
%TD*%
D42*
%TO.C,C24*%
X-15570000Y10275000D03*
X-17120000Y10275000D03*
%TD*%
D32*
%TO.C,C35*%
X15570000Y-475000D03*
X17120000Y-475000D03*
%TD*%
D44*
%TO.C,U5*%
X-13325000Y11895000D03*
X-13325000Y13165000D03*
X-13325000Y14435000D03*
X-13325000Y15705000D03*
X-18675000Y15705000D03*
X-18675000Y14435000D03*
X-18675000Y13165000D03*
X-18675000Y11895000D03*
%TD*%
D52*
%TO.C,J1*%
X1000000Y-7925000D03*
X0Y-7925000D03*
X-1000000Y-7925000D03*
D53*
X2300000Y-10450000D03*
X-2300000Y-10450000D03*
%TD*%
D29*
%TO.C,R31*%
X-5000000Y-800000D03*
X-5000000Y-1820000D03*
%TD*%
D45*
%TO.C,C49*%
X-4950000Y-3375000D03*
X-4950000Y-4925000D03*
%TD*%
D23*
%TO.C,C12*%
X-150000Y10720000D03*
X-150000Y11680000D03*
%TD*%
D24*
%TO.C,D10*%
X-20695000Y4475001D03*
X-20695000Y2375001D03*
%TD*%
D22*
%TO.C,D13*%
X20695000Y13825000D03*
X20695000Y15925000D03*
%TD*%
D11*
%TO.C,R1*%
X-7890000Y-7400000D03*
X-8910000Y-7400000D03*
%TD*%
D16*
%TO.C,C27*%
X-24790000Y-7250000D03*
X-25750000Y-7250000D03*
%TD*%
D34*
%TO.C,R26*%
X-8510000Y5900000D03*
X-7490000Y5900000D03*
%TD*%
M02*
