%TF.GenerationSoftware,KiCad,Pcbnew,8.0.2*%
%TF.CreationDate,2024-05-05T15:17:45+02:00*%
%TF.ProjectId,motor_unicorn,6d6f746f-725f-4756-9e69-636f726e2e6b,rev?*%
%TF.SameCoordinates,Original*%
%TF.FileFunction,Copper,L2,Inr*%
%TF.FilePolarity,Positive*%
%FSLAX46Y46*%
G04 Gerber Fmt 4.6, Leading zero omitted, Abs format (unit mm)*
G04 Created by KiCad (PCBNEW 8.0.2) date 2024-05-05 15:17:45*
%MOMM*%
%LPD*%
G01*
G04 APERTURE LIST*
G04 Aperture macros list*
%AMRoundRect*
0 Rectangle with rounded corners*
0 $1 Rounding radius*
0 $2 $3 $4 $5 $6 $7 $8 $9 X,Y pos of 4 corners*
0 Add a 4 corners polygon primitive as box body*
4,1,4,$2,$3,$4,$5,$6,$7,$8,$9,$2,$3,0*
0 Add four circle primitives for the rounded corners*
1,1,$1+$1,$2,$3*
1,1,$1+$1,$4,$5*
1,1,$1+$1,$6,$7*
1,1,$1+$1,$8,$9*
0 Add four rect primitives between the rounded corners*
20,1,$1+$1,$2,$3,$4,$5,0*
20,1,$1+$1,$4,$5,$6,$7,0*
20,1,$1+$1,$6,$7,$8,$9,0*
20,1,$1+$1,$8,$9,$2,$3,0*%
G04 Aperture macros list end*
%TA.AperFunction,ComponentPad*%
%ADD10C,3.600000*%
%TD*%
%TA.AperFunction,ComponentPad*%
%ADD11O,1.000000X2.100000*%
%TD*%
%TA.AperFunction,ComponentPad*%
%ADD12O,1.000000X1.600000*%
%TD*%
%TA.AperFunction,ComponentPad*%
%ADD13RoundRect,0.250000X0.350000X0.625000X-0.350000X0.625000X-0.350000X-0.625000X0.350000X-0.625000X0*%
%TD*%
%TA.AperFunction,ComponentPad*%
%ADD14O,1.200000X1.750000*%
%TD*%
%TA.AperFunction,ComponentPad*%
%ADD15R,3.960000X1.980000*%
%TD*%
%TA.AperFunction,ComponentPad*%
%ADD16O,3.960000X1.980000*%
%TD*%
%TA.AperFunction,ComponentPad*%
%ADD17R,3.000000X3.000000*%
%TD*%
%TA.AperFunction,ComponentPad*%
%ADD18C,3.000000*%
%TD*%
%TA.AperFunction,ViaPad*%
%ADD19C,0.450000*%
%TD*%
G04 APERTURE END LIST*
D10*
%TO.N,GND*%
%TO.C,H1*%
X-31500000Y-16500000D03*
%TD*%
%TO.N,GND*%
%TO.C,H4*%
X-31500000Y21500000D03*
%TD*%
D11*
%TO.N,GND*%
%TO.C,J2*%
X4320000Y17895000D03*
D12*
X4320000Y22075000D03*
D11*
X-4320000Y17895000D03*
D12*
X-4320000Y22075000D03*
%TD*%
D10*
%TO.N,GND*%
%TO.C,H3*%
X31500000Y21500000D03*
%TD*%
D13*
%TO.N,+3V3*%
%TO.C,J8*%
X32400000Y-11200000D03*
D14*
%TO.N,GND*%
X30400000Y-11200000D03*
%TO.N,/HALL_DAT_1*%
X28400000Y-11200000D03*
%TO.N,/HALL_CLK*%
X26400000Y-11200000D03*
%TO.N,/HALL_CSN*%
X24400000Y-11200000D03*
%TO.N,+3V3*%
X22400000Y-11200000D03*
%TD*%
D13*
%TO.N,+3V3*%
%TO.C,J9*%
X-15500000Y-16750000D03*
D14*
%TO.N,GND*%
X-17500000Y-16750000D03*
%TO.N,/HALL_DAT_2*%
X-19500000Y-16750000D03*
%TO.N,/HALL_CLK*%
X-21500000Y-16750000D03*
%TO.N,/HALL_CSN*%
X-23500000Y-16750000D03*
%TO.N,+3V3*%
X-25500000Y-16750000D03*
%TD*%
D15*
%TO.N,/cur_sense/IO1*%
%TO.C,J5*%
X-28500000Y3500000D03*
D16*
%TO.N,/bridge2/OUT*%
X-28500000Y8500000D03*
%TO.N,/cur_sense1/IO2*%
X-28500000Y13500000D03*
%TD*%
D13*
%TO.N,+3V3*%
%TO.C,J7*%
X25500000Y-16750000D03*
D14*
%TO.N,GND*%
X23500000Y-16750000D03*
%TO.N,/HALL_DAT_0*%
X21500000Y-16750000D03*
%TO.N,/HALL_CLK*%
X19500000Y-16750000D03*
%TO.N,/HALL_CSN*%
X17500000Y-16750000D03*
%TO.N,+3V3*%
X15500000Y-16750000D03*
%TD*%
D15*
%TO.N,/cur_sense2/IO1*%
%TO.C,J6*%
X28500000Y13500000D03*
D16*
%TO.N,/bridge5/OUT*%
X28500000Y8500000D03*
%TO.N,/cur_sense3/IO2*%
X28500000Y3500000D03*
%TD*%
D10*
%TO.N,GND*%
%TO.C,H2*%
X31500000Y-16500000D03*
%TD*%
D17*
%TO.N,GND*%
%TO.C,J11*%
X-2504000Y-16000000D03*
D18*
%TO.N,/power/VPP_IN*%
X2576000Y-16000000D03*
%TD*%
D13*
%TO.N,+3V3*%
%TO.C,J10*%
X-22400000Y-11200000D03*
D14*
%TO.N,GND*%
X-24400000Y-11200000D03*
%TO.N,/HALL_DAT_3*%
X-26400000Y-11200000D03*
%TO.N,/HALL_CLK*%
X-28400000Y-11200000D03*
%TO.N,/HALL_CSN*%
X-30400000Y-11200000D03*
%TO.N,+3V3*%
X-32400000Y-11200000D03*
%TD*%
D19*
%TO.N,Net-(D23-A)*%
X5722500Y-9800000D03*
%TO.N,GND*%
X8000000Y-9150000D03*
X6100000Y1400000D03*
%TO.N,Net-(U16-VCOMH)*%
X8200000Y15400000D03*
%TO.N,GND*%
X7700000Y18400000D03*
%TO.N,+3V3*%
X-7000000Y-7500000D03*
%TO.N,GND*%
X10800000Y18400000D03*
X-26600000Y-7300000D03*
X-14750000Y14550000D03*
X15500000Y-7000000D03*
X16300000Y-7000000D03*
X16400000Y-4750000D03*
X-6700000Y18100000D03*
X-16250000Y-2450000D03*
X-14850000Y6050000D03*
X-15500000Y14550000D03*
X-10900000Y8300000D03*
X16250000Y10000000D03*
X1400000Y13800000D03*
X28200000Y23300000D03*
X33500000Y-2500000D03*
X12750000Y19700000D03*
X-17000000Y8300000D03*
X-12750000Y20000000D03*
X-7800000Y3600000D03*
X17100000Y1500000D03*
X31500000Y-5000000D03*
X5900000Y10200000D03*
X-15500000Y16800000D03*
X6100000Y3300000D03*
X12750000Y20550000D03*
X-23500000Y20000000D03*
X15400000Y10000000D03*
X-12750000Y22250000D03*
X-10800000Y-8100000D03*
X31500000Y-2500000D03*
X17200000Y-4750000D03*
X15600000Y11800000D03*
X-1600000Y13800000D03*
X-8400000Y12600000D03*
X-1100000Y12500000D03*
X-7200000Y-5500000D03*
X-16900000Y23600000D03*
X-11300000Y-13600000D03*
X15600000Y-5000000D03*
X14950000Y3750000D03*
X14950000Y12250000D03*
X-5000000Y1800000D03*
X23500000Y21500000D03*
X23500000Y22250000D03*
X-34000000Y-5000000D03*
X-15500000Y6050000D03*
X-15500000Y-2450000D03*
X-500000Y5500000D03*
X17100000Y10000000D03*
X16250000Y1500000D03*
X-16250000Y16800000D03*
X32500000Y-2500000D03*
X-7800000Y-600000D03*
X12750000Y21400000D03*
X11900000Y1500000D03*
X-17700000Y-10400000D03*
X17200000Y-7000000D03*
X23500000Y20000000D03*
X23500000Y20750000D03*
X-17000000Y-2450000D03*
X16250000Y12250000D03*
X7000000Y-4400000D03*
X32500000Y-5000000D03*
X0Y-6200000D03*
X26700000Y-7500000D03*
X29500000Y-6300000D03*
X3800000Y12700000D03*
X16250000Y3750000D03*
X-3250000Y-750000D03*
X500000Y4500000D03*
X-23500000Y20750000D03*
X16800000Y3400000D03*
X-32000000Y-5000000D03*
X-2600000Y10200000D03*
X-1000000Y2500000D03*
X-13100000Y16800000D03*
X-17000000Y14550000D03*
X-33000000Y-5000000D03*
X500000Y5500000D03*
X-17000000Y6050000D03*
X-5700000Y-5600000D03*
X13300000Y-6900000D03*
X2750000Y-3500000D03*
X-15500000Y8300000D03*
X33500000Y-5000000D03*
X-16250000Y14550000D03*
X11900000Y10000000D03*
X15400000Y1500000D03*
X23500000Y23300000D03*
X-17000000Y16800000D03*
X16800000Y11800000D03*
X-7300000Y8500000D03*
X-16250000Y6050000D03*
X-34000000Y-2500000D03*
X15600000Y3400000D03*
X-23500000Y21500000D03*
X-2400000Y-6800000D03*
X-15500000Y-200000D03*
X-32000000Y-2500000D03*
X-7200000Y12700000D03*
X-10800000Y0D03*
X-13400000Y8200000D03*
X-16300000Y-10300000D03*
X-23500000Y22250000D03*
X-16250000Y8300000D03*
X-13300000Y-200000D03*
X1750000Y-3500000D03*
X-6900000Y-8700000D03*
X1500000Y-750000D03*
X12750000Y22250000D03*
X-17000000Y-200000D03*
X-12750000Y20750000D03*
X-24900000Y23700000D03*
X-33000000Y-2500000D03*
X14750000Y-4750000D03*
X-16250000Y-200000D03*
X7900000Y1700000D03*
X-500000Y4500000D03*
X-7100000Y15800000D03*
X-12750000Y21500000D03*
X2800000Y12450000D03*
X-23000000Y-7200000D03*
%TO.N,+3V3*%
X-2200000Y3800000D03*
X-2300000Y16300000D03*
X-17700000Y-14000000D03*
X28200000Y24200000D03*
X2125003Y-750000D03*
X2200000Y7400000D03*
X-4500000Y-6000000D03*
X-16300000Y-12500000D03*
X-600000Y13800000D03*
X-3800000Y-2600000D03*
X400000Y9400000D03*
X2400000Y4000000D03*
X-19800000Y24000000D03*
X300000Y400000D03*
X24400000Y-4900000D03*
X-5700000Y14600000D03*
X-5700000Y2300000D03*
X-3400000Y8300000D03*
X-7100000Y10600000D03*
X-6000000Y6600000D03*
X-100000Y9900000D03*
X4700000Y12800000D03*
X-24800000Y-6300000D03*
X26400000Y-8900000D03*
%TO.N,+5V*%
X2200000Y13100000D03*
X8100000Y12300000D03*
X1300000Y-5500000D03*
X3100000Y-5500000D03*
%TO.N,/bridge/OUT*%
X-16800000Y-4000000D03*
%TO.N,/bridge1/OUT*%
X-16800000Y13000000D03*
%TO.N,/bridge2/OUT*%
X-16800000Y4500000D03*
%TO.N,/bridge3/OUT*%
X16800000Y13800000D03*
%TO.N,/bridge4/OUT*%
X16800000Y-3200000D03*
%TO.N,/bridge5/OUT*%
X16800000Y5300000D03*
%TO.N,Net-(U16-C2P)*%
X-4600000Y14000000D03*
%TO.N,Net-(U16-C2N)*%
X-4700000Y16500000D03*
%TO.N,Net-(U16-C1N)*%
X-2900000Y15800000D03*
%TO.N,Net-(U16-C1P)*%
X-3800000Y16500000D03*
%TO.N,Net-(U16-VCC)*%
X5700000Y15400000D03*
%TO.N,VPP*%
X-11300000Y14850000D03*
X11100000Y-6100000D03*
X29500000Y-2500000D03*
X29500000Y-5500000D03*
X17500000Y19500000D03*
X16750000Y19500000D03*
X12100000Y-5000000D03*
X12500000Y-10500000D03*
X18250000Y18750000D03*
X29500000Y-4500000D03*
X11100000Y-5000000D03*
X19000000Y19500000D03*
X-11000000Y6350000D03*
X-30000000Y-5500000D03*
X10100000Y-6100000D03*
X-12000000Y-1200000D03*
X-18750000Y18750000D03*
X12500000Y-9500000D03*
X17500000Y18750000D03*
X-10000000Y6350000D03*
X11500000Y-10500000D03*
X11400000Y13600000D03*
X-19500000Y18750000D03*
X19000000Y18750000D03*
X-18000000Y19500000D03*
X10300000Y14700000D03*
X-17250000Y18750000D03*
X-30000000Y-4500000D03*
X10900000Y3500000D03*
X9200000Y14700000D03*
X-11000000Y-1200000D03*
X-11000000Y7350000D03*
X9800000Y3500000D03*
X-19500000Y19500000D03*
X-10300000Y14850000D03*
X-11300000Y13850000D03*
X-18750000Y19500000D03*
X-17250000Y19500000D03*
X12500000Y-11500000D03*
X-18000000Y18750000D03*
X11500000Y-11500000D03*
X18250000Y19500000D03*
X-30000000Y-2500000D03*
X-10300000Y13850000D03*
X29500000Y-3500000D03*
X-11800000Y4200000D03*
X9200000Y13600000D03*
X-9700000Y3600000D03*
X11500000Y-9500000D03*
X9800000Y2400000D03*
X-10300000Y15850000D03*
X-11300000Y15850000D03*
X-11100000Y-3400000D03*
X-11100000Y-4400000D03*
X10900000Y2400000D03*
X-12100000Y-3400000D03*
X-12100000Y-4400000D03*
X10100000Y-5000000D03*
X11400000Y14700000D03*
X12100000Y-6100000D03*
X12000000Y2400000D03*
X10300000Y13600000D03*
X16750000Y18750000D03*
X-30000000Y-3500000D03*
X12000000Y3500000D03*
%TO.N,/rp2040/STATUS_LED*%
X2500000Y5500000D03*
X7200000Y1700000D03*
%TO.N,Net-(D3-A)*%
X-12805000Y-6925000D03*
%TO.N,Net-(D4-A)*%
X-14895000Y-1275000D03*
%TO.N,Net-(D7-A)*%
X-12805000Y10075000D03*
%TO.N,Net-(D8-A)*%
X-14895000Y15725000D03*
%TO.N,Net-(D10-A)*%
X-12805000Y1575000D03*
%TO.N,Net-(D11-A)*%
X-14895000Y7225000D03*
%TO.N,Net-(D13-A)*%
X12805000Y16725000D03*
%TO.N,Net-(D14-A)*%
X14895000Y11075000D03*
%TO.N,Net-(D16-A)*%
X12805000Y-275000D03*
%TO.N,Net-(D17-A)*%
X14895000Y-5925000D03*
%TO.N,Net-(D19-A)*%
X12805000Y8225000D03*
%TO.N,Net-(D20-A)*%
X14895000Y2575000D03*
%TO.N,/HALL_CSN*%
X2500000Y-7600000D03*
X3900000Y-8900000D03*
X3300000Y200000D03*
%TO.N,/HALL_CLK*%
X3200000Y-7200000D03*
X3900000Y-8300000D03*
X3900000Y600000D03*
%TO.N,/HALL_DAT_0*%
X5300000Y2500000D03*
%TO.N,/HALL_DAT_1*%
X6000000Y2500000D03*
%TO.N,/HALL_DAT_2*%
X4300000Y1900000D03*
%TO.N,/HALL_DAT_3*%
X4600000Y2500000D03*
%TO.N,/I2C_SDA*%
X-5850000Y18350000D03*
X-6000000Y10250000D03*
X8100000Y13219700D03*
%TO.N,/I2C_SCL*%
X-5350000Y17600000D03*
X7790416Y13843310D03*
X-5877427Y9637134D03*
%TO.N,/bridge3/L_IN*%
X-1900000Y7100000D03*
X8100000Y6300000D03*
%TO.N,/bridge3/H_IN*%
X8100000Y7100000D03*
X-2500000Y7500000D03*
%TO.N,/bridge4/L_IN*%
X7800000Y3700000D03*
X-2200000Y4600000D03*
%TO.N,/bridge4/H_IN*%
X-2200000Y5200000D03*
X7300000Y4800000D03*
%TO.N,/bridge5/L_IN*%
X8100000Y5400000D03*
X-2200000Y5800000D03*
%TO.N,/bridge5/H_IN*%
X7300000Y5800000D03*
X-2200000Y6400000D03*
%TO.N,/ADC_0*%
X4800000Y23800000D03*
%TO.N,/RS485_DE*%
X-1700000Y200000D03*
X-11200000Y-11300000D03*
%TO.N,/RS485_TX*%
X-2600000Y200000D03*
X-11200000Y-10700000D03*
%TO.N,/ADC_3*%
X6400000Y23800000D03*
%TO.N,/ADC_2*%
X25000000Y23800000D03*
%TO.N,/ADC_1*%
X-23100000Y23700000D03*
%TO.N,/RS485_NRE*%
X-11200000Y-11900000D03*
X-1200000Y600000D03*
%TO.N,/DISP_RES*%
X-700000Y19100000D03*
X6500000Y19800000D03*
X4400000Y19800000D03*
%TO.N,/RS485_RX*%
X-2200000Y700000D03*
X-10600000Y-11300000D03*
%TO.N,+3V3*%
X-3800000Y-7800000D03*
%TO.N,GND*%
X-14750000Y-2450000D03*
%TD*%
%TA.AperFunction,Conductor*%
%TO.N,GND*%
G36*
X-8540809Y24680593D02*
G01*
X-8504845Y24631093D01*
X-8500000Y24600500D01*
X-8500000Y-11000000D01*
X-8499999Y-11000000D01*
X-8000001Y-11000000D01*
X-8000000Y-11000000D01*
X-8000000Y-9799999D01*
X5291696Y-9799999D01*
X5291696Y-9800000D01*
X5312781Y-9933127D01*
X5312782Y-9933129D01*
X5373970Y-10053217D01*
X5373972Y-10053220D01*
X5469280Y-10148528D01*
X5589374Y-10209719D01*
X5722500Y-10230804D01*
X5855626Y-10209719D01*
X5975720Y-10148528D01*
X6071028Y-10053220D01*
X6132219Y-9933126D01*
X6153304Y-9800000D01*
X6132219Y-9666874D01*
X6071028Y-9546780D01*
X5975720Y-9451472D01*
X5975717Y-9451470D01*
X5855629Y-9390282D01*
X5855627Y-9390281D01*
X5722500Y-9369196D01*
X5589372Y-9390281D01*
X5589370Y-9390282D01*
X5469282Y-9451470D01*
X5373970Y-9546782D01*
X5312782Y-9666870D01*
X5312781Y-9666872D01*
X5291696Y-9799999D01*
X-8000000Y-9799999D01*
X-8000000Y-8299999D01*
X3469196Y-8299999D01*
X3469196Y-8300000D01*
X3490281Y-8433126D01*
X3550580Y-8551470D01*
X3552407Y-8555055D01*
X3561978Y-8615487D01*
X3552407Y-8644945D01*
X3490281Y-8766874D01*
X3469196Y-8899999D01*
X3469196Y-8900000D01*
X3490281Y-9033127D01*
X3490282Y-9033129D01*
X3519403Y-9090282D01*
X3551472Y-9153220D01*
X3646780Y-9248528D01*
X3766874Y-9309719D01*
X3900000Y-9330804D01*
X4033126Y-9309719D01*
X4153220Y-9248528D01*
X4248528Y-9153220D01*
X4309719Y-9033126D01*
X4330804Y-8900000D01*
X4309719Y-8766874D01*
X4248528Y-8646780D01*
X4248526Y-8646778D01*
X4247593Y-8644946D01*
X4238021Y-8584514D01*
X4247593Y-8555054D01*
X4248526Y-8553221D01*
X4248528Y-8553220D01*
X4309719Y-8433126D01*
X4330804Y-8300000D01*
X4309719Y-8166874D01*
X4248528Y-8046780D01*
X4153220Y-7951472D01*
X4153217Y-7951470D01*
X4033129Y-7890282D01*
X4033127Y-7890281D01*
X3900000Y-7869196D01*
X3766872Y-7890281D01*
X3766870Y-7890282D01*
X3646782Y-7951470D01*
X3551470Y-8046782D01*
X3490282Y-8166870D01*
X3490281Y-8166872D01*
X3469196Y-8299999D01*
X-8000000Y-8299999D01*
X-8000000Y-7500000D01*
X-7430804Y-7500000D01*
X-7409719Y-7633126D01*
X-7348528Y-7753220D01*
X-7253220Y-7848528D01*
X-7133126Y-7909719D01*
X-7000000Y-7930804D01*
X-6866874Y-7909719D01*
X-6746780Y-7848528D01*
X-6698252Y-7800000D01*
X-4230804Y-7800000D01*
X-4209719Y-7933126D01*
X-4148528Y-8053220D01*
X-4053220Y-8148528D01*
X-3933126Y-8209719D01*
X-3800000Y-8230804D01*
X-3666874Y-8209719D01*
X-3546780Y-8148528D01*
X-3451472Y-8053220D01*
X-3451470Y-8053217D01*
X-3390282Y-7933129D01*
X-3390281Y-7933127D01*
X-3369196Y-7800000D01*
X-3369196Y-7799999D01*
X-3390281Y-7666872D01*
X-3390282Y-7666870D01*
X-3424355Y-7599999D01*
X2069196Y-7599999D01*
X2069196Y-7600000D01*
X2090281Y-7733127D01*
X2090282Y-7733129D01*
X2151470Y-7853217D01*
X2151472Y-7853220D01*
X2246780Y-7948528D01*
X2366874Y-8009719D01*
X2500000Y-8030804D01*
X2633126Y-8009719D01*
X2753220Y-7948528D01*
X2848528Y-7853220D01*
X2909719Y-7733126D01*
X2918224Y-7679422D01*
X2946001Y-7624907D01*
X3000517Y-7597129D01*
X3060949Y-7606700D01*
X3060952Y-7606702D01*
X3066870Y-7609717D01*
X3066874Y-7609719D01*
X3200000Y-7630804D01*
X3333126Y-7609719D01*
X3453220Y-7548528D01*
X3548528Y-7453220D01*
X3609719Y-7333126D01*
X3630804Y-7200000D01*
X3609719Y-7066874D01*
X3548528Y-6946780D01*
X3453220Y-6851472D01*
X3453217Y-6851470D01*
X3333129Y-6790282D01*
X3333127Y-6790281D01*
X3200000Y-6769196D01*
X3066872Y-6790281D01*
X3066870Y-6790282D01*
X2946782Y-6851470D01*
X2851470Y-6946782D01*
X2790282Y-7066870D01*
X2790281Y-7066872D01*
X2781775Y-7120577D01*
X2753997Y-7175093D01*
X2699480Y-7202870D01*
X2639049Y-7193299D01*
X2633126Y-7190281D01*
X2500000Y-7169196D01*
X2366872Y-7190281D01*
X2366870Y-7190282D01*
X2246782Y-7251470D01*
X2151470Y-7346782D01*
X2090282Y-7466870D01*
X2090281Y-7466872D01*
X2069196Y-7599999D01*
X-3424355Y-7599999D01*
X-3451470Y-7546782D01*
X-3546782Y-7451470D01*
X-3666870Y-7390282D01*
X-3666872Y-7390281D01*
X-3800000Y-7369196D01*
X-3933127Y-7390281D01*
X-3933129Y-7390282D01*
X-4053217Y-7451470D01*
X-4053220Y-7451472D01*
X-4148528Y-7546780D01*
X-4209719Y-7666874D01*
X-4230804Y-7800000D01*
X-6698252Y-7800000D01*
X-6651472Y-7753220D01*
X-6641234Y-7733127D01*
X-6590282Y-7633129D01*
X-6590281Y-7633127D01*
X-6569196Y-7500000D01*
X-6569196Y-7499999D01*
X-6590281Y-7366872D01*
X-6590282Y-7366870D01*
X-6651470Y-7246782D01*
X-6746782Y-7151470D01*
X-6866870Y-7090282D01*
X-6866872Y-7090281D01*
X-7000000Y-7069196D01*
X-7133127Y-7090281D01*
X-7133129Y-7090282D01*
X-7253217Y-7151470D01*
X-7253220Y-7151472D01*
X-7348528Y-7246780D01*
X-7409719Y-7366874D01*
X-7430804Y-7500000D01*
X-8000000Y-7500000D01*
X-8000000Y-6000000D01*
X-4930804Y-6000000D01*
X-4909719Y-6133126D01*
X-4848528Y-6253220D01*
X-4753220Y-6348528D01*
X-4633126Y-6409719D01*
X-4500000Y-6430804D01*
X-4366874Y-6409719D01*
X-4246780Y-6348528D01*
X-4151472Y-6253220D01*
X-4141234Y-6233127D01*
X-4090282Y-6133129D01*
X-4090281Y-6133127D01*
X-4069196Y-6000000D01*
X-4069196Y-5999999D01*
X-4090281Y-5866872D01*
X-4090282Y-5866870D01*
X-4151470Y-5746782D01*
X-4246782Y-5651470D01*
X-4366870Y-5590282D01*
X-4366872Y-5590281D01*
X-4500000Y-5569196D01*
X-4633127Y-5590281D01*
X-4633129Y-5590282D01*
X-4753217Y-5651470D01*
X-4753220Y-5651472D01*
X-4848528Y-5746780D01*
X-4909719Y-5866874D01*
X-4930804Y-6000000D01*
X-8000000Y-6000000D01*
X-8000000Y-5499999D01*
X869196Y-5499999D01*
X869196Y-5500000D01*
X890281Y-5633127D01*
X890282Y-5633129D01*
X950580Y-5751470D01*
X951472Y-5753220D01*
X1046780Y-5848528D01*
X1166874Y-5909719D01*
X1300000Y-5930804D01*
X1433126Y-5909719D01*
X1553220Y-5848528D01*
X1648528Y-5753220D01*
X1709719Y-5633126D01*
X1730804Y-5500000D01*
X1730804Y-5499999D01*
X2669196Y-5499999D01*
X2669196Y-5500000D01*
X2690281Y-5633127D01*
X2690282Y-5633129D01*
X2750580Y-5751470D01*
X2751472Y-5753220D01*
X2846780Y-5848528D01*
X2966874Y-5909719D01*
X3100000Y-5930804D01*
X3233126Y-5909719D01*
X3353220Y-5848528D01*
X3448528Y-5753220D01*
X3509719Y-5633126D01*
X3530804Y-5500000D01*
X3509719Y-5366874D01*
X3448528Y-5246780D01*
X3353220Y-5151472D01*
X3353217Y-5151470D01*
X3233129Y-5090282D01*
X3233127Y-5090281D01*
X3100000Y-5069196D01*
X2966872Y-5090281D01*
X2966870Y-5090282D01*
X2846782Y-5151470D01*
X2751470Y-5246782D01*
X2690282Y-5366870D01*
X2690281Y-5366872D01*
X2669196Y-5499999D01*
X1730804Y-5499999D01*
X1709719Y-5366874D01*
X1648528Y-5246780D01*
X1553220Y-5151472D01*
X1553217Y-5151470D01*
X1433129Y-5090282D01*
X1433127Y-5090281D01*
X1300000Y-5069196D01*
X1166872Y-5090281D01*
X1166870Y-5090282D01*
X1046782Y-5151470D01*
X951470Y-5246782D01*
X890282Y-5366870D01*
X890281Y-5366872D01*
X869196Y-5499999D01*
X-8000000Y-5499999D01*
X-8000000Y-2600000D01*
X-4230804Y-2600000D01*
X-4209719Y-2733126D01*
X-4148528Y-2853220D01*
X-4053220Y-2948528D01*
X-3933126Y-3009719D01*
X-3800000Y-3030804D01*
X-3666874Y-3009719D01*
X-3617402Y-2984512D01*
X-3546782Y-2948529D01*
X-3546780Y-2948528D01*
X-3451472Y-2853220D01*
X-3450580Y-2851470D01*
X-3390282Y-2733129D01*
X-3390281Y-2733127D01*
X-3369196Y-2600000D01*
X-3369196Y-2599999D01*
X-3390281Y-2466872D01*
X-3390282Y-2466870D01*
X-3451470Y-2346782D01*
X-3546782Y-2251470D01*
X-3666870Y-2190282D01*
X-3666872Y-2190281D01*
X-3800000Y-2169196D01*
X-3933127Y-2190281D01*
X-3933129Y-2190282D01*
X-4053217Y-2251470D01*
X-4053220Y-2251472D01*
X-4148528Y-2346780D01*
X-4209719Y-2466874D01*
X-4230804Y-2600000D01*
X-8000000Y-2600000D01*
X-8000000Y-749999D01*
X1694199Y-749999D01*
X1694199Y-750000D01*
X1715284Y-883127D01*
X1715285Y-883129D01*
X1747718Y-946782D01*
X1776475Y-1003220D01*
X1871783Y-1098528D01*
X1991877Y-1159719D01*
X2125003Y-1180804D01*
X2258129Y-1159719D01*
X2378223Y-1098528D01*
X2473531Y-1003220D01*
X2534722Y-883126D01*
X2555807Y-750000D01*
X2534722Y-616874D01*
X2473531Y-496780D01*
X2378223Y-401472D01*
X2378220Y-401470D01*
X2258132Y-340282D01*
X2258130Y-340281D01*
X2125003Y-319196D01*
X1991875Y-340281D01*
X1991873Y-340282D01*
X1871785Y-401470D01*
X1776473Y-496782D01*
X1715285Y-616870D01*
X1715284Y-616872D01*
X1694199Y-749999D01*
X-8000000Y-749999D01*
X-8000000Y200000D01*
X-3030804Y200000D01*
X-3009719Y66874D01*
X-2948528Y-53220D01*
X-2853220Y-148528D01*
X-2733126Y-209719D01*
X-2600000Y-230804D01*
X-2466874Y-209719D01*
X-2346780Y-148528D01*
X-2251472Y-53220D01*
X-2238208Y-27188D01*
X-2194945Y16075D01*
X-2134513Y25646D01*
X-2079997Y-2131D01*
X-2061793Y-27185D01*
X-2048528Y-53220D01*
X-1953220Y-148528D01*
X-1833126Y-209719D01*
X-1700000Y-230804D01*
X-1566874Y-209719D01*
X-1446780Y-148528D01*
X-1351472Y-53220D01*
X-1340050Y-30804D01*
X-1290282Y66870D01*
X-1290281Y66871D01*
X-1287232Y86122D01*
X-1259452Y140638D01*
X-1204939Y168413D01*
X-1066871Y190281D01*
X-1066870Y190282D01*
X-946782Y251470D01*
X-851470Y346782D01*
X-824354Y400000D01*
X-130804Y400000D01*
X-109719Y266874D01*
X-48528Y146780D01*
X-59Y98311D01*
X46782Y51470D01*
X166870Y-9717D01*
X166874Y-9719D01*
X300000Y-30804D01*
X433126Y-9719D01*
X502534Y25646D01*
X553217Y51470D01*
X553220Y51472D01*
X648528Y146780D01*
X675645Y200000D01*
X2869196Y200000D01*
X2869196Y199999D01*
X2890281Y66872D01*
X2890282Y66870D01*
X2940050Y-30804D01*
X2951472Y-53220D01*
X3046780Y-148528D01*
X3166874Y-209719D01*
X3300000Y-230804D01*
X3433126Y-209719D01*
X3553220Y-148528D01*
X3648528Y-53220D01*
X3709719Y66874D01*
X3714698Y98311D01*
X3742475Y152827D01*
X3796992Y180605D01*
X3827966Y180605D01*
X3900000Y169196D01*
X4033127Y190281D01*
X4033129Y190282D01*
X4153217Y251470D01*
X4153220Y251472D01*
X4248528Y346780D01*
X4309719Y466874D01*
X4330804Y600000D01*
X4309719Y733126D01*
X4248528Y853220D01*
X4153220Y948528D01*
X4033126Y1009719D01*
X3900000Y1030804D01*
X3766874Y1009719D01*
X3646780Y948528D01*
X3551472Y853220D01*
X3551470Y853217D01*
X3490282Y733129D01*
X3490281Y733128D01*
X3485301Y701687D01*
X3457522Y647171D01*
X3403005Y619394D01*
X3372033Y619394D01*
X3300000Y630804D01*
X3166874Y609719D01*
X3046780Y548528D01*
X2951472Y453220D01*
X2951470Y453217D01*
X2890282Y333129D01*
X2890281Y333127D01*
X2869196Y200000D01*
X675645Y200000D01*
X709719Y266874D01*
X730804Y400000D01*
X709719Y533126D01*
X648528Y653220D01*
X553220Y748528D01*
X433126Y809719D01*
X300000Y830804D01*
X166874Y809719D01*
X46780Y748528D01*
X-48528Y653220D01*
X-109719Y533126D01*
X-130804Y400000D01*
X-824354Y400000D01*
X-790282Y466870D01*
X-790281Y466872D01*
X-769196Y599999D01*
X-769196Y600000D01*
X-790281Y733127D01*
X-790282Y733129D01*
X-851470Y853217D01*
X-851472Y853220D01*
X-946780Y948528D01*
X-1066874Y1009719D01*
X-1200000Y1030804D01*
X-1333126Y1009719D01*
X-1453220Y948528D01*
X-1548528Y853220D01*
X-1597055Y757979D01*
X-1640319Y714716D01*
X-1700751Y705145D01*
X-1755268Y732923D01*
X-1783045Y787439D01*
X-1790281Y833127D01*
X-1790282Y833129D01*
X-1851470Y953217D01*
X-1851472Y953220D01*
X-1946780Y1048528D01*
X-2066874Y1109719D01*
X-2200000Y1130804D01*
X-2333126Y1109719D01*
X-2453220Y1048528D01*
X-2548528Y953220D01*
X-2609719Y833126D01*
X-2630804Y700000D01*
X-2631586Y695060D01*
X-2659363Y640544D01*
X-2713876Y612767D01*
X-2733126Y609719D01*
X-2853220Y548528D01*
X-2948528Y453220D01*
X-3009719Y333126D01*
X-3030804Y200000D01*
X-8000000Y200000D01*
X-8000000Y2300000D01*
X-6130804Y2300000D01*
X-6109719Y2166874D01*
X-6048528Y2046780D01*
X-5953220Y1951472D01*
X-5953217Y1951470D01*
X-5833129Y1890282D01*
X-5833127Y1890281D01*
X-5700000Y1869196D01*
X-5566872Y1890281D01*
X-5566870Y1890282D01*
X-5547797Y1900000D01*
X3869196Y1900000D01*
X3869196Y1899999D01*
X3890281Y1766872D01*
X3890282Y1766870D01*
X3951470Y1646782D01*
X4046782Y1551470D01*
X4166870Y1490282D01*
X4166872Y1490281D01*
X4300000Y1469196D01*
X4433127Y1490281D01*
X4433129Y1490282D01*
X4553217Y1551470D01*
X4553220Y1551472D01*
X4648528Y1646780D01*
X4675645Y1700000D01*
X6769196Y1700000D01*
X6769196Y1699999D01*
X6790281Y1566872D01*
X6790282Y1566870D01*
X6851470Y1446782D01*
X6946782Y1351470D01*
X7066870Y1290282D01*
X7066872Y1290281D01*
X7200000Y1269196D01*
X7333127Y1290281D01*
X7333129Y1290282D01*
X7453217Y1351470D01*
X7453220Y1351472D01*
X7548528Y1446780D01*
X7609719Y1566874D01*
X7630804Y1700000D01*
X7609719Y1833126D01*
X7548528Y1953220D01*
X7453220Y2048528D01*
X7333126Y2109719D01*
X7200000Y2130804D01*
X7066874Y2109719D01*
X6946780Y2048528D01*
X6851472Y1953220D01*
X6851470Y1953217D01*
X6790282Y1833129D01*
X6790281Y1833127D01*
X6769196Y1700000D01*
X4675645Y1700000D01*
X4709719Y1766874D01*
X4730804Y1900000D01*
X4714342Y2003935D01*
X4723913Y2064366D01*
X4767177Y2107630D01*
X4844015Y2146782D01*
X4853220Y2151472D01*
X4853222Y2151473D01*
X4879998Y2178249D01*
X4934515Y2206025D01*
X4994946Y2196453D01*
X5020002Y2178249D01*
X5046777Y2151473D01*
X5046782Y2151470D01*
X5166870Y2090282D01*
X5166872Y2090281D01*
X5300000Y2069196D01*
X5433127Y2090281D01*
X5433129Y2090282D01*
X5553217Y2151470D01*
X5553222Y2151473D01*
X5579998Y2178249D01*
X5634515Y2206025D01*
X5694946Y2196453D01*
X5720002Y2178249D01*
X5746777Y2151473D01*
X5746782Y2151470D01*
X5866870Y2090282D01*
X5866872Y2090281D01*
X6000000Y2069196D01*
X6133127Y2090281D01*
X6133129Y2090282D01*
X6253217Y2151470D01*
X6253220Y2151472D01*
X6348528Y2246780D01*
X6409719Y2366874D01*
X6430804Y2500000D01*
X6409719Y2633126D01*
X6348528Y2753220D01*
X6253220Y2848528D01*
X6133126Y2909719D01*
X6000000Y2930804D01*
X5866874Y2909719D01*
X5746780Y2848528D01*
X5720001Y2821749D01*
X5665487Y2793974D01*
X5605055Y2803545D01*
X5579999Y2821748D01*
X5553220Y2848528D01*
X5433126Y2909719D01*
X5300000Y2930804D01*
X5166874Y2909719D01*
X5046780Y2848528D01*
X5020001Y2821749D01*
X4965487Y2793974D01*
X4905055Y2803545D01*
X4879999Y2821748D01*
X4853220Y2848528D01*
X4733126Y2909719D01*
X4600000Y2930804D01*
X4466874Y2909719D01*
X4346780Y2848528D01*
X4251472Y2753220D01*
X4251470Y2753217D01*
X4190282Y2633129D01*
X4190281Y2633127D01*
X4169196Y2500000D01*
X4169196Y2499998D01*
X4185657Y2396064D01*
X4176085Y2335632D01*
X4132822Y2292369D01*
X4096345Y2273783D01*
X4046780Y2248528D01*
X3951472Y2153220D01*
X3951470Y2153217D01*
X3890282Y2033129D01*
X3890281Y2033127D01*
X3869196Y1900000D01*
X-5547797Y1900000D01*
X-5446782Y1951470D01*
X-5351470Y2046782D01*
X-5290282Y2166870D01*
X-5290281Y2166872D01*
X-5269196Y2299999D01*
X-5269196Y2300000D01*
X-5290281Y2433127D01*
X-5290282Y2433129D01*
X-5351470Y2553217D01*
X-5351472Y2553220D01*
X-5446780Y2648528D01*
X-5486811Y2668925D01*
X-5566870Y2709717D01*
X-5566872Y2709718D01*
X-5566874Y2709719D01*
X-5700000Y2730804D01*
X-5833126Y2709719D01*
X-5953220Y2648528D01*
X-6048528Y2553220D01*
X-6109719Y2433126D01*
X-6130804Y2300000D01*
X-8000000Y2300000D01*
X-8000000Y6600000D01*
X-6430804Y6600000D01*
X-6409719Y6466874D01*
X-6348528Y6346780D01*
X-6253220Y6251472D01*
X-6253217Y6251470D01*
X-6133129Y6190282D01*
X-6133127Y6190281D01*
X-6000000Y6169196D01*
X-5866872Y6190281D01*
X-5866870Y6190282D01*
X-5746782Y6251470D01*
X-5651470Y6346782D01*
X-5590282Y6466870D01*
X-5590281Y6466872D01*
X-5569196Y6599999D01*
X-5569196Y6600000D01*
X-5590281Y6733127D01*
X-5590282Y6733129D01*
X-5651470Y6853217D01*
X-5651472Y6853220D01*
X-5746780Y6948528D01*
X-5866874Y7009719D01*
X-6000000Y7030804D01*
X-6133126Y7009719D01*
X-6253220Y6948528D01*
X-6348528Y6853220D01*
X-6409719Y6733126D01*
X-6430804Y6600000D01*
X-8000000Y6600000D01*
X-8000000Y7500000D01*
X-2930804Y7500000D01*
X-2909719Y7366874D01*
X-2848528Y7246780D01*
X-2753220Y7151472D01*
X-2753217Y7151470D01*
X-2633129Y7090282D01*
X-2633127Y7090281D01*
X-2500000Y7069196D01*
X-2427966Y7080605D01*
X-2367534Y7071034D01*
X-2324269Y7027769D01*
X-2314698Y6998311D01*
X-2309719Y6966874D01*
X-2309718Y6966873D01*
X-2309718Y6966872D01*
X-2295918Y6939788D01*
X-2286346Y6879356D01*
X-2314123Y6824839D01*
X-2339175Y6806636D01*
X-2453220Y6748528D01*
X-2548528Y6653220D01*
X-2609719Y6533126D01*
X-2630804Y6400000D01*
X-2609719Y6266874D01*
X-2548528Y6146780D01*
X-2548526Y6146778D01*
X-2547593Y6144946D01*
X-2538021Y6084514D01*
X-2547593Y6055054D01*
X-2548526Y6053221D01*
X-2548528Y6053220D01*
X-2609719Y5933126D01*
X-2630804Y5800000D01*
X-2609719Y5666874D01*
X-2548528Y5546780D01*
X-2548526Y5546778D01*
X-2547593Y5544946D01*
X-2538021Y5484514D01*
X-2547593Y5455054D01*
X-2548526Y5453221D01*
X-2548528Y5453220D01*
X-2609719Y5333126D01*
X-2630804Y5200000D01*
X-2609719Y5066874D01*
X-2548528Y4946780D01*
X-2548526Y4946778D01*
X-2547593Y4944946D01*
X-2538021Y4884514D01*
X-2547593Y4855054D01*
X-2548526Y4853221D01*
X-2548528Y4853220D01*
X-2609719Y4733126D01*
X-2630804Y4600000D01*
X-2609719Y4466874D01*
X-2548528Y4346780D01*
X-2471749Y4270001D01*
X-2443974Y4215487D01*
X-2453545Y4155055D01*
X-2471748Y4129999D01*
X-2548528Y4053220D01*
X-2609719Y3933126D01*
X-2630804Y3800000D01*
X-2609719Y3666874D01*
X-2548528Y3546780D01*
X-2453220Y3451472D01*
X-2453217Y3451470D01*
X-2333129Y3390282D01*
X-2333127Y3390281D01*
X-2200000Y3369196D01*
X-2066872Y3390281D01*
X-2066870Y3390282D01*
X-1946782Y3451470D01*
X-1851470Y3546782D01*
X-1790282Y3666870D01*
X-1790281Y3666872D01*
X-1769196Y3799999D01*
X-1769196Y3800000D01*
X-1790281Y3933127D01*
X-1790282Y3933129D01*
X-1824355Y4000000D01*
X1969196Y4000000D01*
X1969196Y3999999D01*
X1990281Y3866872D01*
X1990282Y3866870D01*
X2051470Y3746782D01*
X2146782Y3651470D01*
X2266870Y3590282D01*
X2266872Y3590281D01*
X2400000Y3569196D01*
X2533127Y3590281D01*
X2533129Y3590282D01*
X2653217Y3651470D01*
X2653220Y3651472D01*
X2748528Y3746780D01*
X2809719Y3866874D01*
X2830804Y4000000D01*
X2809719Y4133126D01*
X2748528Y4253220D01*
X2653220Y4348528D01*
X2533126Y4409719D01*
X2400000Y4430804D01*
X2266874Y4409719D01*
X2146780Y4348528D01*
X2051472Y4253220D01*
X2051470Y4253217D01*
X1990282Y4133129D01*
X1990281Y4133127D01*
X1969196Y4000000D01*
X-1824355Y4000000D01*
X-1851470Y4053217D01*
X-1851472Y4053220D01*
X-1928250Y4129998D01*
X-1956026Y4184513D01*
X-1946455Y4244945D01*
X-1928251Y4270000D01*
X-1851472Y4346780D01*
X-1851471Y4346780D01*
X-1851470Y4346782D01*
X-1790282Y4466870D01*
X-1790281Y4466872D01*
X-1769196Y4599999D01*
X-1769196Y4600000D01*
X-1769715Y4603279D01*
X-1790281Y4733126D01*
X-1851472Y4853220D01*
X-1852407Y4855055D01*
X-1861978Y4915487D01*
X-1852407Y4944945D01*
X-1790281Y5066874D01*
X-1769196Y5199999D01*
X-1769196Y5200000D01*
X-1790281Y5333125D01*
X-1790281Y5333126D01*
X-1851472Y5453220D01*
X-1852407Y5455055D01*
X-1859525Y5500000D01*
X2069196Y5500000D01*
X2069196Y5499999D01*
X2090281Y5366872D01*
X2090282Y5366870D01*
X2151470Y5246782D01*
X2246782Y5151470D01*
X2366870Y5090282D01*
X2366872Y5090281D01*
X2500000Y5069196D01*
X2633127Y5090281D01*
X2633129Y5090282D01*
X2753217Y5151470D01*
X2753220Y5151472D01*
X2848528Y5246780D01*
X2909719Y5366874D01*
X2930804Y5500000D01*
X2909719Y5633126D01*
X2848528Y5753220D01*
X2753220Y5848528D01*
X2633126Y5909719D01*
X2500000Y5930804D01*
X2366874Y5909719D01*
X2246780Y5848528D01*
X2151472Y5753220D01*
X2151470Y5753217D01*
X2090282Y5633129D01*
X2090281Y5633127D01*
X2069196Y5500000D01*
X-1859525Y5500000D01*
X-1861978Y5515487D01*
X-1852407Y5544945D01*
X-1790281Y5666874D01*
X-1769196Y5799999D01*
X-1769196Y5800000D01*
X-1783495Y5890281D01*
X-1790281Y5933126D01*
X-1851472Y6053220D01*
X-1852407Y6055055D01*
X-1861978Y6115487D01*
X-1852407Y6144945D01*
X-1790281Y6266874D01*
X-1769196Y6399999D01*
X-1769196Y6400000D01*
X-1779787Y6466870D01*
X-1790281Y6533126D01*
X-1804082Y6560212D01*
X-1813653Y6620644D01*
X-1785875Y6675161D01*
X-1760818Y6693366D01*
X-1646781Y6751471D01*
X-1551470Y6846782D01*
X-1490282Y6966870D01*
X-1490281Y6966872D01*
X-1469196Y7099999D01*
X-1469196Y7100000D01*
X-1490281Y7233127D01*
X-1490282Y7233129D01*
X-1551470Y7353217D01*
X-1551472Y7353220D01*
X-1598252Y7400000D01*
X1769196Y7400000D01*
X1769196Y7399999D01*
X1790281Y7266872D01*
X1790282Y7266870D01*
X1851470Y7146782D01*
X1946782Y7051470D01*
X2066870Y6990282D01*
X2066872Y6990281D01*
X2200000Y6969196D01*
X2333127Y6990281D01*
X2333129Y6990282D01*
X2453217Y7051470D01*
X2453220Y7051472D01*
X2548528Y7146780D01*
X2609719Y7266874D01*
X2630804Y7400000D01*
X2609719Y7533126D01*
X2548528Y7653220D01*
X2453220Y7748528D01*
X2333126Y7809719D01*
X2200000Y7830804D01*
X2066874Y7809719D01*
X1946780Y7748528D01*
X1851472Y7653220D01*
X1851470Y7653217D01*
X1790282Y7533129D01*
X1790281Y7533127D01*
X1769196Y7400000D01*
X-1598252Y7400000D01*
X-1646780Y7448528D01*
X-1766874Y7509719D01*
X-1900000Y7530804D01*
X-1972033Y7519395D01*
X-2032465Y7528966D01*
X-2075730Y7572231D01*
X-2085301Y7601687D01*
X-2090281Y7633128D01*
X-2090282Y7633129D01*
X-2151470Y7753217D01*
X-2151472Y7753220D01*
X-2246780Y7848528D01*
X-2366874Y7909719D01*
X-2500000Y7930804D01*
X-2633126Y7909719D01*
X-2753220Y7848528D01*
X-2848528Y7753220D01*
X-2909719Y7633126D01*
X-2930804Y7500000D01*
X-8000000Y7500000D01*
X-8000000Y8300000D01*
X-3830804Y8300000D01*
X-3809719Y8166874D01*
X-3748528Y8046780D01*
X-3653220Y7951472D01*
X-3653217Y7951470D01*
X-3533129Y7890282D01*
X-3533127Y7890281D01*
X-3400000Y7869196D01*
X-3266872Y7890281D01*
X-3266870Y7890282D01*
X-3146782Y7951470D01*
X-3051470Y8046782D01*
X-2990282Y8166870D01*
X-2990281Y8166872D01*
X-2969196Y8299999D01*
X-2969196Y8300000D01*
X-2990281Y8433127D01*
X-2990282Y8433129D01*
X-3051470Y8553217D01*
X-3051472Y8553220D01*
X-3146780Y8648528D01*
X-3266874Y8709719D01*
X-3400000Y8730804D01*
X-3533126Y8709719D01*
X-3653220Y8648528D01*
X-3748528Y8553220D01*
X-3809719Y8433126D01*
X-3830804Y8300000D01*
X-8000000Y8300000D01*
X-8000000Y10600000D01*
X-7530804Y10600000D01*
X-7509719Y10466874D01*
X-7448528Y10346780D01*
X-7353220Y10251472D01*
X-7353217Y10251470D01*
X-7233129Y10190282D01*
X-7233127Y10190281D01*
X-7100000Y10169196D01*
X-6966872Y10190281D01*
X-6966870Y10190282D01*
X-6849667Y10250000D01*
X-6430804Y10250000D01*
X-6409719Y10116874D01*
X-6348528Y9996780D01*
X-6282263Y9930515D01*
X-6254488Y9876001D01*
X-6264058Y9815571D01*
X-6287146Y9770260D01*
X-6308231Y9637134D01*
X-6287146Y9504008D01*
X-6225955Y9383914D01*
X-6130647Y9288606D01*
X-6130644Y9288604D01*
X-6010556Y9227416D01*
X-6010554Y9227415D01*
X-5877427Y9206330D01*
X-5744299Y9227415D01*
X-5744297Y9227416D01*
X-5624209Y9288604D01*
X-5528897Y9383916D01*
X-5467709Y9504004D01*
X-5467708Y9504006D01*
X-5446623Y9637133D01*
X-5446623Y9637134D01*
X-5467708Y9770261D01*
X-5467709Y9770263D01*
X-5528897Y9890351D01*
X-5528899Y9890354D01*
X-5538545Y9900000D01*
X-530804Y9900000D01*
X-509719Y9766874D01*
X-448528Y9646780D01*
X-353220Y9551472D01*
X-353217Y9551470D01*
X-233129Y9490282D01*
X-233127Y9490281D01*
X-111306Y9470986D01*
X-56790Y9443208D01*
X-29013Y9388692D01*
X-9719Y9266874D01*
X-9718Y9266872D01*
X-9717Y9266870D01*
X51470Y9146782D01*
X146782Y9051470D01*
X266870Y8990282D01*
X266872Y8990281D01*
X400000Y8969196D01*
X533127Y8990281D01*
X533129Y8990282D01*
X653217Y9051470D01*
X653220Y9051472D01*
X748528Y9146780D01*
X809719Y9266874D01*
X830804Y9400000D01*
X809719Y9533126D01*
X748528Y9653220D01*
X653220Y9748528D01*
X533126Y9809719D01*
X411306Y9829013D01*
X356791Y9856790D01*
X329013Y9911307D01*
X321837Y9956615D01*
X309719Y10033126D01*
X248528Y10153220D01*
X153220Y10248528D01*
X33126Y10309719D01*
X-100000Y10330804D01*
X-233126Y10309719D01*
X-353220Y10248528D01*
X-448528Y10153220D01*
X-509719Y10033126D01*
X-530804Y9900000D01*
X-5538545Y9900000D01*
X-5595162Y9956617D01*
X-5622938Y10011132D01*
X-5613367Y10071562D01*
X-5590282Y10116870D01*
X-5590281Y10116873D01*
X-5569196Y10249999D01*
X-5569196Y10250000D01*
X-5590281Y10383127D01*
X-5590282Y10383129D01*
X-5651470Y10503217D01*
X-5651472Y10503220D01*
X-5746780Y10598528D01*
X-5866874Y10659719D01*
X-6000000Y10680804D01*
X-6133126Y10659719D01*
X-6253220Y10598528D01*
X-6348528Y10503220D01*
X-6409719Y10383126D01*
X-6430804Y10250000D01*
X-6849667Y10250000D01*
X-6846782Y10251470D01*
X-6751470Y10346782D01*
X-6690282Y10466870D01*
X-6690281Y10466872D01*
X-6669196Y10599999D01*
X-6669196Y10600000D01*
X-6690281Y10733127D01*
X-6690282Y10733129D01*
X-6751470Y10853217D01*
X-6751472Y10853220D01*
X-6846780Y10948528D01*
X-6966874Y11009719D01*
X-7100000Y11030804D01*
X-7233126Y11009719D01*
X-7353220Y10948528D01*
X-7448528Y10853220D01*
X-7509719Y10733126D01*
X-7530804Y10600000D01*
X-8000000Y10600000D01*
X-8000000Y13100000D01*
X1769196Y13100000D01*
X1769196Y13099999D01*
X1790281Y12966872D01*
X1790282Y12966870D01*
X1851470Y12846782D01*
X1946782Y12751470D01*
X2066870Y12690282D01*
X2066872Y12690281D01*
X2200000Y12669196D01*
X2333127Y12690281D01*
X2333129Y12690282D01*
X2453217Y12751470D01*
X2453220Y12751472D01*
X2501748Y12800000D01*
X4269196Y12800000D01*
X4269196Y12799999D01*
X4290281Y12666872D01*
X4290282Y12666870D01*
X4351470Y12546782D01*
X4446782Y12451470D01*
X4566870Y12390282D01*
X4566872Y12390281D01*
X4700000Y12369196D01*
X4833127Y12390281D01*
X4833129Y12390282D01*
X4953217Y12451470D01*
X4953220Y12451472D01*
X5048528Y12546780D01*
X5109719Y12666874D01*
X5130804Y12800000D01*
X5109719Y12933126D01*
X5048528Y13053220D01*
X4953220Y13148528D01*
X4833126Y13209719D01*
X4700000Y13230804D01*
X4566874Y13209719D01*
X4446780Y13148528D01*
X4351472Y13053220D01*
X4351470Y13053217D01*
X4290282Y12933129D01*
X4290281Y12933127D01*
X4269196Y12800000D01*
X2501748Y12800000D01*
X2548528Y12846780D01*
X2609719Y12966874D01*
X2630804Y13100000D01*
X2609719Y13233126D01*
X2548528Y13353220D01*
X2453220Y13448528D01*
X2333126Y13509719D01*
X2200000Y13530804D01*
X2066874Y13509719D01*
X2066872Y13509718D01*
X2066870Y13509717D01*
X2037557Y13494781D01*
X1946780Y13448528D01*
X1851472Y13353220D01*
X1851470Y13353217D01*
X1790282Y13233129D01*
X1790281Y13233127D01*
X1769196Y13100000D01*
X-8000000Y13100000D01*
X-8000000Y14000000D01*
X-5030804Y14000000D01*
X-5009719Y13866874D01*
X-4948528Y13746780D01*
X-4853220Y13651472D01*
X-4853217Y13651470D01*
X-4733129Y13590282D01*
X-4733127Y13590281D01*
X-4600000Y13569196D01*
X-4466872Y13590281D01*
X-4466870Y13590282D01*
X-4346782Y13651470D01*
X-4251470Y13746782D01*
X-4224354Y13800000D01*
X-1030804Y13800000D01*
X-1009719Y13666874D01*
X-948528Y13546780D01*
X-853220Y13451472D01*
X-853217Y13451470D01*
X-733129Y13390282D01*
X-733127Y13390281D01*
X-600000Y13369196D01*
X-466872Y13390281D01*
X-466870Y13390282D01*
X-346782Y13451470D01*
X-251470Y13546782D01*
X-190282Y13666870D01*
X-190281Y13666872D01*
X-169196Y13799999D01*
X-169196Y13800000D01*
X-190281Y13933127D01*
X-190282Y13933129D01*
X-251470Y14053217D01*
X-251472Y14053220D01*
X-346780Y14148528D01*
X-466874Y14209719D01*
X-600000Y14230804D01*
X-733126Y14209719D01*
X-853220Y14148528D01*
X-948528Y14053220D01*
X-1009719Y13933126D01*
X-1030804Y13800000D01*
X-4224354Y13800000D01*
X-4190282Y13866870D01*
X-4190281Y13866872D01*
X-4169196Y13999999D01*
X-4169196Y14000000D01*
X-4190281Y14133127D01*
X-4190282Y14133129D01*
X-4251470Y14253217D01*
X-4251472Y14253220D01*
X-4346780Y14348528D01*
X-4466874Y14409719D01*
X-4600000Y14430804D01*
X-4733126Y14409719D01*
X-4853220Y14348528D01*
X-4948528Y14253220D01*
X-5009719Y14133126D01*
X-5030804Y14000000D01*
X-8000000Y14000000D01*
X-8000000Y14600000D01*
X-6130804Y14600000D01*
X-6109719Y14466874D01*
X-6048528Y14346780D01*
X-5953220Y14251472D01*
X-5953217Y14251470D01*
X-5833129Y14190282D01*
X-5833127Y14190281D01*
X-5700000Y14169196D01*
X-5566872Y14190281D01*
X-5566870Y14190282D01*
X-5446782Y14251470D01*
X-5351470Y14346782D01*
X-5290282Y14466870D01*
X-5290281Y14466872D01*
X-5269196Y14599999D01*
X-5269196Y14600000D01*
X-5290281Y14733127D01*
X-5290282Y14733129D01*
X-5351470Y14853217D01*
X-5351472Y14853220D01*
X-5446780Y14948528D01*
X-5566874Y15009719D01*
X-5700000Y15030804D01*
X-5833126Y15009719D01*
X-5953220Y14948528D01*
X-6048528Y14853220D01*
X-6109719Y14733126D01*
X-6130804Y14600000D01*
X-8000000Y14600000D01*
X-8000000Y15800000D01*
X-3330804Y15800000D01*
X-3309719Y15666874D01*
X-3248528Y15546780D01*
X-3153220Y15451472D01*
X-3153217Y15451470D01*
X-3033129Y15390282D01*
X-3033127Y15390281D01*
X-2900000Y15369196D01*
X-2766872Y15390281D01*
X-2766870Y15390282D01*
X-2747797Y15400000D01*
X5269196Y15400000D01*
X5269196Y15399999D01*
X5290281Y15266872D01*
X5290282Y15266870D01*
X5351470Y15146782D01*
X5446782Y15051470D01*
X5566870Y14990282D01*
X5566872Y14990281D01*
X5700000Y14969196D01*
X5833127Y14990281D01*
X5833129Y14990282D01*
X5953217Y15051470D01*
X5953220Y15051472D01*
X6048528Y15146780D01*
X6109719Y15266874D01*
X6130804Y15400000D01*
X6109719Y15533126D01*
X6048528Y15653220D01*
X5953220Y15748528D01*
X5833126Y15809719D01*
X5700000Y15830804D01*
X5566874Y15809719D01*
X5446780Y15748528D01*
X5351472Y15653220D01*
X5351470Y15653217D01*
X5290282Y15533129D01*
X5290281Y15533127D01*
X5269196Y15400000D01*
X-2747797Y15400000D01*
X-2646782Y15451470D01*
X-2551470Y15546782D01*
X-2490282Y15666870D01*
X-2490281Y15666872D01*
X-2469850Y15795864D01*
X-2442072Y15850380D01*
X-2387555Y15878157D01*
X-2356583Y15878157D01*
X-2300002Y15869196D01*
X-2300000Y15869196D01*
X-2166872Y15890281D01*
X-2166870Y15890282D01*
X-2046782Y15951470D01*
X-1951470Y16046782D01*
X-1890282Y16166870D01*
X-1890281Y16166872D01*
X-1869196Y16299999D01*
X-1869196Y16300000D01*
X-1890281Y16433127D01*
X-1890282Y16433129D01*
X-1951470Y16553217D01*
X-1951472Y16553220D01*
X-2046780Y16648528D01*
X-2166874Y16709719D01*
X-2300000Y16730804D01*
X-2433126Y16709719D01*
X-2553220Y16648528D01*
X-2648528Y16553220D01*
X-2709719Y16433126D01*
X-2730149Y16304134D01*
X-2757925Y16249620D01*
X-2812441Y16221842D01*
X-2843416Y16221842D01*
X-2900000Y16230804D01*
X-3033126Y16209719D01*
X-3153220Y16148528D01*
X-3248528Y16053220D01*
X-3309719Y15933126D01*
X-3330804Y15800000D01*
X-8000000Y15800000D01*
X-8000000Y18350000D01*
X-6280804Y18350000D01*
X-6259719Y18216874D01*
X-6198528Y18096780D01*
X-6103220Y18001472D01*
X-6103217Y18001470D01*
X-5983129Y17940282D01*
X-5983127Y17940281D01*
X-5850000Y17919196D01*
X-5840565Y17920690D01*
X-5780134Y17911116D01*
X-5736871Y17867850D01*
X-5727301Y17807417D01*
X-5736870Y17777968D01*
X-5759719Y17733126D01*
X-5780804Y17600000D01*
X-5759719Y17466874D01*
X-5698528Y17346780D01*
X-5603220Y17251472D01*
X-5603217Y17251470D01*
X-5483129Y17190282D01*
X-5483127Y17190281D01*
X-5350000Y17169196D01*
X-5216872Y17190281D01*
X-5185441Y17206296D01*
X-5125009Y17215867D01*
X-5070493Y17188089D01*
X-5043399Y17137400D01*
X-5041178Y17126235D01*
X-5041176Y17126229D01*
X-4984642Y16989745D01*
X-4960631Y16953811D01*
X-4944022Y16894923D01*
X-4965199Y16837519D01*
X-4972935Y16828812D01*
X-5048528Y16753220D01*
X-5109719Y16633126D01*
X-5130804Y16500000D01*
X-5109719Y16366874D01*
X-5048528Y16246780D01*
X-4953220Y16151472D01*
X-4953217Y16151470D01*
X-4833129Y16090282D01*
X-4833127Y16090281D01*
X-4700000Y16069196D01*
X-4566872Y16090281D01*
X-4566870Y16090282D01*
X-4446782Y16151470D01*
X-4351471Y16246781D01*
X-4338209Y16272810D01*
X-4294944Y16316074D01*
X-4234512Y16325645D01*
X-4179996Y16297867D01*
X-4161791Y16272810D01*
X-4148528Y16246780D01*
X-4053220Y16151472D01*
X-4053217Y16151470D01*
X-3933129Y16090282D01*
X-3933127Y16090281D01*
X-3800000Y16069196D01*
X-3666872Y16090281D01*
X-3666870Y16090282D01*
X-3546782Y16151470D01*
X-3451470Y16246782D01*
X-3390282Y16366870D01*
X-3390281Y16366872D01*
X-3369196Y16499999D01*
X-3369196Y16500000D01*
X-3390281Y16633127D01*
X-3390282Y16633129D01*
X-3451470Y16753217D01*
X-3451472Y16753220D01*
X-3546780Y16848528D01*
X-3603196Y16877273D01*
X-3646460Y16920537D01*
X-3656031Y16980969D01*
X-3649714Y17003367D01*
X-3598824Y17126225D01*
X-3598821Y17126235D01*
X-3570000Y17271128D01*
X-3570000Y17769999D01*
X-3570001Y17770000D01*
X-4020000Y17770000D01*
X-4020000Y18020000D01*
X-3570001Y18020000D01*
X-3570000Y18020001D01*
X-3570000Y18153911D01*
X-3551093Y18212102D01*
X-3501593Y18248066D01*
X-3440407Y18248066D01*
X-3390907Y18212102D01*
X-3381474Y18195258D01*
X-3379688Y18192165D01*
X-3379688Y18192164D01*
X-3310505Y18072335D01*
X-3212665Y17974495D01*
X-3092836Y17905312D01*
X-2959183Y17869500D01*
X-2959181Y17869500D01*
X-2820819Y17869500D01*
X-2820817Y17869500D01*
X-2687164Y17905312D01*
X-2567335Y17974495D01*
X-2469495Y18072335D01*
X-2400312Y18192164D01*
X-2364500Y18325817D01*
X-2364500Y18464183D01*
X2364500Y18464183D01*
X2364500Y18325817D01*
X2400312Y18192164D01*
X2469495Y18072335D01*
X2567335Y17974495D01*
X2687164Y17905312D01*
X2820817Y17869500D01*
X2820819Y17869500D01*
X2959181Y17869500D01*
X2959183Y17869500D01*
X3092836Y17905312D01*
X3212665Y17974495D01*
X3310505Y18072335D01*
X3379688Y18192164D01*
X3379688Y18192166D01*
X3382932Y18197784D01*
X3384081Y18197120D01*
X3419275Y18238324D01*
X3478771Y18252606D01*
X3535298Y18229189D01*
X3567265Y18177019D01*
X3570000Y18153911D01*
X3570000Y18020001D01*
X3570001Y18020000D01*
X4020000Y18020000D01*
X4020000Y17770000D01*
X3570001Y17770000D01*
X3570000Y17769999D01*
X3570000Y17271128D01*
X3598821Y17126235D01*
X3598823Y17126229D01*
X3655358Y16989742D01*
X3737434Y16866906D01*
X3841906Y16762434D01*
X3964742Y16680358D01*
X4101232Y16623822D01*
X4195000Y16605170D01*
X4195000Y17070757D01*
X4204204Y17065444D01*
X4280504Y17045000D01*
X4359496Y17045000D01*
X4435796Y17065444D01*
X4445000Y17070757D01*
X4445000Y16605170D01*
X4538767Y16623822D01*
X4675257Y16680358D01*
X4798093Y16762434D01*
X4902565Y16866906D01*
X4984641Y16989742D01*
X5041176Y17126229D01*
X5041178Y17126235D01*
X5069999Y17271128D01*
X5070000Y17271132D01*
X5070000Y17769999D01*
X5069999Y17770000D01*
X4620000Y17770000D01*
X4620000Y18020000D01*
X5069999Y18020000D01*
X5070000Y18020001D01*
X5070000Y18518867D01*
X5069999Y18518871D01*
X5041178Y18663764D01*
X5041176Y18663770D01*
X4984641Y18800257D01*
X4902565Y18923093D01*
X4798093Y19027565D01*
X4675257Y19109641D01*
X4538764Y19166178D01*
X4452777Y19183281D01*
X4447033Y19186497D01*
X4445000Y19184828D01*
X4445000Y18719242D01*
X4435796Y18724556D01*
X4359496Y18745000D01*
X4280504Y18745000D01*
X4204204Y18724556D01*
X4195000Y18719242D01*
X4195000Y19184828D01*
X4194999Y19184828D01*
X4101235Y19166178D01*
X3964742Y19109641D01*
X3841906Y19027565D01*
X3737434Y18923093D01*
X3655358Y18800257D01*
X3598823Y18663770D01*
X3598821Y18663764D01*
X3580763Y18572979D01*
X3550866Y18519595D01*
X3495301Y18493979D01*
X3435291Y18505916D01*
X3393759Y18550846D01*
X3388040Y18566664D01*
X3379688Y18597836D01*
X3310505Y18717665D01*
X3212665Y18815505D01*
X3092836Y18884688D01*
X2959183Y18920500D01*
X2820817Y18920500D01*
X2687164Y18884688D01*
X2567335Y18815505D01*
X2469495Y18717665D01*
X2400312Y18597836D01*
X2364500Y18464183D01*
X-2364500Y18464183D01*
X-2400312Y18597836D01*
X-2469495Y18717665D01*
X-2567335Y18815505D01*
X-2687164Y18884688D01*
X-2820817Y18920500D01*
X-2959183Y18920500D01*
X-3092836Y18884688D01*
X-3212665Y18815505D01*
X-3310505Y18717665D01*
X-3379688Y18597836D01*
X-3388038Y18566669D01*
X-3421361Y18515356D01*
X-3478483Y18493429D01*
X-3537583Y18509264D01*
X-3576089Y18556814D01*
X-3580763Y18572979D01*
X-3598821Y18663764D01*
X-3598823Y18663770D01*
X-3655358Y18800257D01*
X-3737434Y18923093D01*
X-3841906Y19027565D01*
X-3950313Y19100000D01*
X-1130804Y19100000D01*
X-1109719Y18966874D01*
X-1048528Y18846780D01*
X-953220Y18751472D01*
X-953217Y18751470D01*
X-833129Y18690282D01*
X-833127Y18690281D01*
X-700000Y18669196D01*
X-566872Y18690281D01*
X-566870Y18690282D01*
X-446782Y18751470D01*
X-351470Y18846782D01*
X-290282Y18966870D01*
X-290281Y18966872D01*
X-269196Y19099999D01*
X-269196Y19100000D01*
X-290281Y19233127D01*
X-290282Y19233129D01*
X-351470Y19353217D01*
X-351472Y19353220D01*
X-446780Y19448528D01*
X-566874Y19509719D01*
X-700000Y19530804D01*
X-833126Y19509719D01*
X-953220Y19448528D01*
X-1048528Y19353220D01*
X-1109719Y19233126D01*
X-1130804Y19100000D01*
X-3950313Y19100000D01*
X-3964742Y19109641D01*
X-4101235Y19166178D01*
X-4101234Y19166178D01*
X-4194999Y19184828D01*
X-4195000Y19184828D01*
X-4195000Y18719242D01*
X-4204204Y18724556D01*
X-4280504Y18745000D01*
X-4359496Y18745000D01*
X-4435796Y18724556D01*
X-4445000Y18719242D01*
X-4445000Y19184828D01*
X-4538764Y19166178D01*
X-4675257Y19109641D01*
X-4798093Y19027565D01*
X-4902565Y18923093D01*
X-4984641Y18800257D01*
X-5041176Y18663770D01*
X-5041178Y18663764D01*
X-5069999Y18518871D01*
X-5070000Y18518867D01*
X-5070000Y18096436D01*
X-5088907Y18038245D01*
X-5138407Y18002281D01*
X-5199593Y18002281D01*
X-5213948Y18008228D01*
X-5216874Y18009719D01*
X-5350000Y18030804D01*
X-5359429Y18029310D01*
X-5419860Y18038880D01*
X-5463125Y18082143D01*
X-5472699Y18142575D01*
X-5463127Y18172036D01*
X-5440281Y18216874D01*
X-5419196Y18349999D01*
X-5419196Y18350000D01*
X-5440281Y18483127D01*
X-5440282Y18483129D01*
X-5501470Y18603217D01*
X-5501472Y18603220D01*
X-5596780Y18698528D01*
X-5716874Y18759719D01*
X-5850000Y18780804D01*
X-5983126Y18759719D01*
X-6103220Y18698528D01*
X-6198528Y18603220D01*
X-6259719Y18483126D01*
X-6280804Y18350000D01*
X-8000000Y18350000D01*
X-8000000Y19800000D01*
X3969196Y19800000D01*
X3969196Y19799999D01*
X3990281Y19666872D01*
X3990282Y19666870D01*
X4051470Y19546782D01*
X4146782Y19451470D01*
X4266870Y19390282D01*
X4266872Y19390281D01*
X4407696Y19367977D01*
X4407158Y19364584D01*
X4419971Y19360421D01*
X4430640Y19370284D01*
X4456601Y19378160D01*
X4533127Y19390281D01*
X4533129Y19390282D01*
X4653217Y19451470D01*
X4653220Y19451472D01*
X4748528Y19546780D01*
X4809719Y19666874D01*
X4827406Y19778545D01*
X4830804Y19799999D01*
X4830804Y19800000D01*
X6069196Y19800000D01*
X6069196Y19799999D01*
X6090281Y19666872D01*
X6090282Y19666870D01*
X6151470Y19546782D01*
X6246782Y19451470D01*
X6366870Y19390282D01*
X6366872Y19390281D01*
X6500000Y19369196D01*
X6633127Y19390281D01*
X6633129Y19390282D01*
X6753217Y19451470D01*
X6753220Y19451472D01*
X6848528Y19546780D01*
X6909719Y19666874D01*
X6927406Y19778545D01*
X6930804Y19799999D01*
X6930804Y19800000D01*
X6927431Y19821298D01*
X6909719Y19933126D01*
X6848528Y20053220D01*
X6753220Y20148528D01*
X6633126Y20209719D01*
X6500000Y20230804D01*
X6366874Y20209719D01*
X6246780Y20148528D01*
X6151472Y20053220D01*
X6151470Y20053217D01*
X6090282Y19933129D01*
X6090281Y19933127D01*
X6069196Y19800000D01*
X4830804Y19800000D01*
X4827431Y19821298D01*
X4809719Y19933126D01*
X4748528Y20053220D01*
X4653220Y20148528D01*
X4533126Y20209719D01*
X4400000Y20230804D01*
X4266874Y20209719D01*
X4146780Y20148528D01*
X4051472Y20053220D01*
X4051470Y20053217D01*
X3990282Y19933129D01*
X3990281Y19933127D01*
X3969196Y19800000D01*
X-8000000Y19800000D01*
X-8000000Y22448867D01*
X-5070000Y22448867D01*
X-5070000Y22200001D01*
X-5069999Y22200000D01*
X-4620000Y22200000D01*
X-4620000Y21950000D01*
X-5069999Y21950000D01*
X-5070000Y21949999D01*
X-5070000Y21701132D01*
X-5069999Y21701128D01*
X-5041178Y21556235D01*
X-5041176Y21556229D01*
X-4984641Y21419742D01*
X-4902565Y21296906D01*
X-4798093Y21192434D01*
X-4675257Y21110358D01*
X-4538767Y21053822D01*
X-4445000Y21035170D01*
X-4445000Y21500757D01*
X-4435796Y21495444D01*
X-4359496Y21475000D01*
X-4280504Y21475000D01*
X-4204204Y21495444D01*
X-4195000Y21500757D01*
X-4195000Y21035170D01*
X-4101232Y21053822D01*
X-3964742Y21110358D01*
X-3841906Y21192434D01*
X-3737434Y21296906D01*
X-3655358Y21419742D01*
X-3598823Y21556229D01*
X-3598821Y21556235D01*
X-3570000Y21701128D01*
X-3570000Y21949999D01*
X-3570001Y21950000D01*
X-4020000Y21950000D01*
X-4020000Y22200000D01*
X-3570001Y22200000D01*
X-3570000Y22200001D01*
X-3570000Y22448871D01*
X3570000Y22448871D01*
X3570000Y22200001D01*
X3570001Y22200000D01*
X4020000Y22200000D01*
X4020000Y21950000D01*
X3570001Y21950000D01*
X3570000Y21949999D01*
X3570000Y21701128D01*
X3598821Y21556235D01*
X3598823Y21556229D01*
X3655358Y21419742D01*
X3737434Y21296906D01*
X3841906Y21192434D01*
X3964742Y21110358D01*
X4101232Y21053822D01*
X4195000Y21035170D01*
X4195000Y21500757D01*
X4204204Y21495444D01*
X4280504Y21475000D01*
X4359496Y21475000D01*
X4435796Y21495444D01*
X4445000Y21500757D01*
X4445000Y21035170D01*
X4538767Y21053822D01*
X4675257Y21110358D01*
X4798093Y21192434D01*
X4902565Y21296906D01*
X4984641Y21419742D01*
X5041176Y21556229D01*
X5041178Y21556235D01*
X5069999Y21701128D01*
X5070000Y21701132D01*
X5070000Y21949999D01*
X5069999Y21950000D01*
X4620000Y21950000D01*
X4620000Y22200000D01*
X5069999Y22200000D01*
X5070000Y22200001D01*
X5070000Y22448867D01*
X5069999Y22448871D01*
X5041178Y22593764D01*
X5041176Y22593770D01*
X4984641Y22730257D01*
X4902565Y22853093D01*
X4798093Y22957565D01*
X4675257Y23039641D01*
X4538764Y23096178D01*
X4538765Y23096178D01*
X4445000Y23114828D01*
X4445000Y22649242D01*
X4435796Y22654556D01*
X4359496Y22675000D01*
X4280504Y22675000D01*
X4204204Y22654556D01*
X4195000Y22649242D01*
X4195000Y23114828D01*
X4194999Y23114828D01*
X4101235Y23096178D01*
X3964742Y23039641D01*
X3841906Y22957565D01*
X3737434Y22853093D01*
X3655358Y22730257D01*
X3598823Y22593770D01*
X3598821Y22593764D01*
X3570000Y22448871D01*
X-3570000Y22448871D01*
X-3598821Y22593764D01*
X-3598823Y22593770D01*
X-3655358Y22730257D01*
X-3737434Y22853093D01*
X-3841906Y22957565D01*
X-3964742Y23039641D01*
X-4101235Y23096178D01*
X-4101234Y23096178D01*
X-4194999Y23114828D01*
X-4195000Y23114828D01*
X-4195000Y22649242D01*
X-4204204Y22654556D01*
X-4280504Y22675000D01*
X-4359496Y22675000D01*
X-4435796Y22654556D01*
X-4445000Y22649242D01*
X-4445000Y23114828D01*
X-4538764Y23096178D01*
X-4675257Y23039641D01*
X-4798093Y22957565D01*
X-4902565Y22853093D01*
X-4984641Y22730257D01*
X-5041176Y22593770D01*
X-5041178Y22593764D01*
X-5069999Y22448871D01*
X-5070000Y22448867D01*
X-8000000Y22448867D01*
X-8000000Y23800000D01*
X4369196Y23800000D01*
X4369196Y23799999D01*
X4390281Y23666872D01*
X4390282Y23666870D01*
X4451470Y23546782D01*
X4546782Y23451470D01*
X4666870Y23390282D01*
X4666872Y23390281D01*
X4800000Y23369196D01*
X4933127Y23390281D01*
X4933129Y23390282D01*
X5053217Y23451470D01*
X5053220Y23451472D01*
X5148528Y23546780D01*
X5209719Y23666874D01*
X5230804Y23800000D01*
X5969196Y23800000D01*
X5969196Y23799999D01*
X5990281Y23666872D01*
X5990282Y23666870D01*
X6051470Y23546782D01*
X6146782Y23451470D01*
X6266870Y23390282D01*
X6266872Y23390281D01*
X6400000Y23369196D01*
X6533127Y23390281D01*
X6533129Y23390282D01*
X6653217Y23451470D01*
X6653220Y23451472D01*
X6748528Y23546780D01*
X6809719Y23666874D01*
X6830804Y23800000D01*
X6809719Y23933126D01*
X6748528Y24053220D01*
X6653220Y24148528D01*
X6533126Y24209719D01*
X6400000Y24230804D01*
X6266874Y24209719D01*
X6146780Y24148528D01*
X6051472Y24053220D01*
X6051470Y24053217D01*
X5990282Y23933129D01*
X5990281Y23933127D01*
X5969196Y23800000D01*
X5230804Y23800000D01*
X5209719Y23933126D01*
X5148528Y24053220D01*
X5053220Y24148528D01*
X4933126Y24209719D01*
X4800000Y24230804D01*
X4666874Y24209719D01*
X4546780Y24148528D01*
X4451472Y24053220D01*
X4451470Y24053217D01*
X4390282Y23933129D01*
X4390281Y23933127D01*
X4369196Y23800000D01*
X-8000000Y23800000D01*
X-8000000Y24600500D01*
X-7981093Y24658691D01*
X-7931593Y24694655D01*
X-7901000Y24699500D01*
X7901000Y24699500D01*
X7959191Y24680593D01*
X7995155Y24631093D01*
X8000000Y24600500D01*
X8000000Y15836312D01*
X7981093Y15778121D01*
X7952594Y15753781D01*
X7953084Y15753108D01*
X7946783Y15748530D01*
X7946782Y15748529D01*
X7946780Y15748528D01*
X7851472Y15653220D01*
X7851470Y15653217D01*
X7790282Y15533129D01*
X7790281Y15533127D01*
X7769196Y15400000D01*
X7769196Y15399999D01*
X7790281Y15266872D01*
X7790282Y15266870D01*
X7851470Y15146782D01*
X7946782Y15051470D01*
X7953082Y15046894D01*
X7952185Y15045659D01*
X7989212Y15008629D01*
X8000000Y14963688D01*
X8000000Y14356833D01*
X7981093Y14298642D01*
X7931593Y14262678D01*
X7885513Y14259052D01*
X7790416Y14274114D01*
X7657290Y14253029D01*
X7537196Y14191838D01*
X7441888Y14096530D01*
X7441886Y14096527D01*
X7380698Y13976439D01*
X7380697Y13976437D01*
X7359612Y13843310D01*
X7359612Y13843309D01*
X7380697Y13710182D01*
X7380698Y13710180D01*
X7441886Y13590092D01*
X7537197Y13494781D01*
X7635567Y13444659D01*
X7678831Y13401394D01*
X7688402Y13340963D01*
X7669196Y13219700D01*
X7669196Y13219699D01*
X7690281Y13086572D01*
X7690282Y13086570D01*
X7751470Y12966482D01*
X7846780Y12871172D01*
X7892143Y12848058D01*
X7935407Y12804792D01*
X7944977Y12744360D01*
X7917198Y12689844D01*
X7892145Y12671642D01*
X7846780Y12648528D01*
X7751472Y12553220D01*
X7751470Y12553217D01*
X7690282Y12433129D01*
X7690281Y12433127D01*
X7669196Y12300000D01*
X7669196Y12299999D01*
X7690281Y12166872D01*
X7690282Y12166870D01*
X7751470Y12046782D01*
X7846781Y11951471D01*
X7945946Y11900944D01*
X7989210Y11857680D01*
X8000000Y11812735D01*
X8000000Y7587264D01*
X7981093Y7529073D01*
X7945948Y7499056D01*
X7846780Y7448528D01*
X7751472Y7353220D01*
X7751470Y7353217D01*
X7690282Y7233129D01*
X7690281Y7233127D01*
X7669196Y7100000D01*
X7669196Y7099999D01*
X7690281Y6966872D01*
X7690282Y6966870D01*
X7751470Y6846782D01*
X7751471Y6846780D01*
X7751472Y6846780D01*
X7828250Y6770001D01*
X7856026Y6715487D01*
X7846455Y6655055D01*
X7828251Y6629999D01*
X7751472Y6553220D01*
X7751470Y6553217D01*
X7690282Y6433129D01*
X7690281Y6433127D01*
X7669196Y6300000D01*
X7669196Y6299996D01*
X7675078Y6262854D01*
X7665506Y6202422D01*
X7622240Y6159158D01*
X7561808Y6149588D01*
X7532357Y6159158D01*
X7433126Y6209719D01*
X7300000Y6230804D01*
X7166874Y6209719D01*
X7046780Y6148528D01*
X6951472Y6053220D01*
X6951470Y6053217D01*
X6890282Y5933129D01*
X6890281Y5933127D01*
X6869196Y5800000D01*
X6869196Y5799999D01*
X6890281Y5666872D01*
X6890282Y5666870D01*
X6951470Y5546782D01*
X7046781Y5451471D01*
X7170939Y5388209D01*
X7214203Y5344944D01*
X7223774Y5284512D01*
X7195996Y5229996D01*
X7170939Y5211791D01*
X7095940Y5173576D01*
X7046780Y5148528D01*
X6951472Y5053220D01*
X6951470Y5053217D01*
X6890282Y4933129D01*
X6890281Y4933127D01*
X6869196Y4800000D01*
X6869196Y4799999D01*
X6890281Y4666872D01*
X6890282Y4666870D01*
X6951470Y4546782D01*
X7046782Y4451470D01*
X7166870Y4390282D01*
X7166872Y4390281D01*
X7300000Y4369196D01*
X7433127Y4390281D01*
X7433129Y4390282D01*
X7553217Y4451470D01*
X7553220Y4451472D01*
X7648528Y4546780D01*
X7709719Y4666874D01*
X7730804Y4800000D01*
X7709719Y4933126D01*
X7709718Y4933126D01*
X7708500Y4940822D01*
X7710302Y4941107D01*
X7710297Y4992511D01*
X7746257Y5042014D01*
X7804445Y5060927D01*
X7849400Y5050137D01*
X7945945Y5000945D01*
X7989210Y4957680D01*
X8000000Y4912735D01*
X8000000Y4215041D01*
X7981093Y4156850D01*
X7931593Y4120886D01*
X7885513Y4117260D01*
X7800000Y4130804D01*
X7666874Y4109719D01*
X7546780Y4048528D01*
X7451472Y3953220D01*
X7451470Y3953217D01*
X7390282Y3833129D01*
X7390281Y3833127D01*
X7369196Y3700000D01*
X7369196Y3699999D01*
X7390281Y3566872D01*
X7390282Y3566870D01*
X7451470Y3446782D01*
X7546782Y3351470D01*
X7666870Y3290282D01*
X7666872Y3290281D01*
X7800000Y3269196D01*
X7800002Y3269196D01*
X7885514Y3282739D01*
X7945946Y3273167D01*
X7989210Y3229902D01*
X8000000Y3184958D01*
X8000000Y-11000000D01*
X8000001Y-11000000D01*
X8499999Y-11000000D01*
X8500000Y-11000000D01*
X8500000Y-9499999D01*
X11069196Y-9499999D01*
X11069196Y-9500000D01*
X11090281Y-9633127D01*
X11090282Y-9633129D01*
X11107474Y-9666870D01*
X11151472Y-9753220D01*
X11246780Y-9848528D01*
X11295940Y-9873576D01*
X11370939Y-9911791D01*
X11414203Y-9955056D01*
X11423774Y-10015488D01*
X11395996Y-10070004D01*
X11370939Y-10088209D01*
X11246781Y-10151471D01*
X11151470Y-10246782D01*
X11090282Y-10366870D01*
X11090281Y-10366872D01*
X11069196Y-10499999D01*
X11069196Y-10500000D01*
X11090281Y-10633127D01*
X11090282Y-10633129D01*
X11124355Y-10700000D01*
X11151472Y-10753220D01*
X11246780Y-10848528D01*
X11287343Y-10869196D01*
X11370939Y-10911791D01*
X11414203Y-10955056D01*
X11423774Y-11015488D01*
X11395996Y-11070004D01*
X11370939Y-11088209D01*
X11246781Y-11151471D01*
X11151470Y-11246782D01*
X11090282Y-11366870D01*
X11090281Y-11366872D01*
X11069196Y-11499999D01*
X11069196Y-11500000D01*
X11090281Y-11633127D01*
X11090282Y-11633129D01*
X11140050Y-11730804D01*
X11151472Y-11753220D01*
X11246780Y-11848528D01*
X11366874Y-11909719D01*
X11500000Y-11930804D01*
X11633126Y-11909719D01*
X11753220Y-11848528D01*
X11848528Y-11753220D01*
X11874134Y-11702963D01*
X11911791Y-11629061D01*
X11955055Y-11585796D01*
X12015487Y-11576225D01*
X12070004Y-11604003D01*
X12088209Y-11629061D01*
X12140050Y-11730804D01*
X12151472Y-11753220D01*
X12246780Y-11848528D01*
X12366874Y-11909719D01*
X12500000Y-11930804D01*
X12633126Y-11909719D01*
X12753220Y-11848528D01*
X12848528Y-11753220D01*
X12909719Y-11633126D01*
X12930804Y-11500000D01*
X12909719Y-11366874D01*
X12848528Y-11246780D01*
X12753220Y-11151472D01*
X12753217Y-11151470D01*
X12629061Y-11088209D01*
X12585796Y-11044945D01*
X12576225Y-10984513D01*
X12604003Y-10929996D01*
X12629061Y-10911791D01*
X12712657Y-10869196D01*
X12753220Y-10848528D01*
X12755593Y-10846155D01*
X21599500Y-10846155D01*
X21599500Y-11553844D01*
X21630263Y-11708496D01*
X21630263Y-11708498D01*
X21690603Y-11854174D01*
X21690609Y-11854185D01*
X21741805Y-11930804D01*
X21778211Y-11985289D01*
X21889711Y-12096789D01*
X21967876Y-12149017D01*
X22020814Y-12184390D01*
X22020825Y-12184396D01*
X22074638Y-12206685D01*
X22166503Y-12244737D01*
X22321158Y-12275500D01*
X22321159Y-12275500D01*
X22478841Y-12275500D01*
X22478842Y-12275500D01*
X22633497Y-12244737D01*
X22779179Y-12184394D01*
X22910289Y-12096789D01*
X23021789Y-11985289D01*
X23109394Y-11854179D01*
X23169737Y-11708497D01*
X23200500Y-11553842D01*
X23200500Y-10846158D01*
X23200499Y-10846155D01*
X23599500Y-10846155D01*
X23599500Y-11553844D01*
X23630263Y-11708496D01*
X23630263Y-11708498D01*
X23690603Y-11854174D01*
X23690609Y-11854185D01*
X23741805Y-11930804D01*
X23778211Y-11985289D01*
X23889711Y-12096789D01*
X23967876Y-12149017D01*
X24020814Y-12184390D01*
X24020825Y-12184396D01*
X24074638Y-12206685D01*
X24166503Y-12244737D01*
X24321158Y-12275500D01*
X24321159Y-12275500D01*
X24478841Y-12275500D01*
X24478842Y-12275500D01*
X24633497Y-12244737D01*
X24779179Y-12184394D01*
X24910289Y-12096789D01*
X25021789Y-11985289D01*
X25109394Y-11854179D01*
X25169737Y-11708497D01*
X25200500Y-11553842D01*
X25200500Y-10846158D01*
X25200499Y-10846155D01*
X25599500Y-10846155D01*
X25599500Y-11553844D01*
X25630263Y-11708496D01*
X25630263Y-11708498D01*
X25690603Y-11854174D01*
X25690609Y-11854185D01*
X25741805Y-11930804D01*
X25778211Y-11985289D01*
X25889711Y-12096789D01*
X25967876Y-12149017D01*
X26020814Y-12184390D01*
X26020825Y-12184396D01*
X26074638Y-12206685D01*
X26166503Y-12244737D01*
X26321158Y-12275500D01*
X26321159Y-12275500D01*
X26478841Y-12275500D01*
X26478842Y-12275500D01*
X26633497Y-12244737D01*
X26779179Y-12184394D01*
X26910289Y-12096789D01*
X27021789Y-11985289D01*
X27109394Y-11854179D01*
X27169737Y-11708497D01*
X27200500Y-11553842D01*
X27200500Y-10846158D01*
X27200499Y-10846155D01*
X27599500Y-10846155D01*
X27599500Y-11553844D01*
X27630263Y-11708496D01*
X27630263Y-11708498D01*
X27690603Y-11854174D01*
X27690609Y-11854185D01*
X27741805Y-11930804D01*
X27778211Y-11985289D01*
X27889711Y-12096789D01*
X27967876Y-12149017D01*
X28020814Y-12184390D01*
X28020825Y-12184396D01*
X28074638Y-12206685D01*
X28166503Y-12244737D01*
X28321158Y-12275500D01*
X28321159Y-12275500D01*
X28478841Y-12275500D01*
X28478842Y-12275500D01*
X28633497Y-12244737D01*
X28779179Y-12184394D01*
X28910289Y-12096789D01*
X29021789Y-11985289D01*
X29109394Y-11854179D01*
X29169737Y-11708497D01*
X29200500Y-11553842D01*
X29200500Y-10846158D01*
X29199530Y-10841279D01*
X29550000Y-10841279D01*
X29550000Y-11074999D01*
X29550001Y-11075000D01*
X30045265Y-11075000D01*
X30025000Y-11150630D01*
X30025000Y-11249370D01*
X30045265Y-11325000D01*
X29550001Y-11325000D01*
X29550000Y-11325001D01*
X29550000Y-11558720D01*
X29582664Y-11722934D01*
X29646739Y-11877625D01*
X29739759Y-12016840D01*
X29858159Y-12135240D01*
X29997374Y-12228260D01*
X30152066Y-12292335D01*
X30152065Y-12292335D01*
X30274999Y-12316787D01*
X30275000Y-12316787D01*
X30275000Y-11554734D01*
X30350630Y-11575000D01*
X30449370Y-11575000D01*
X30525000Y-11554734D01*
X30525000Y-12316787D01*
X30647933Y-12292335D01*
X30802625Y-12228260D01*
X30941840Y-12135240D01*
X31060240Y-12016840D01*
X31153260Y-11877625D01*
X31217335Y-11722934D01*
X31249999Y-11558720D01*
X31250000Y-11558716D01*
X31250000Y-11325001D01*
X31249999Y-11325000D01*
X30754735Y-11325000D01*
X30775000Y-11249370D01*
X30775000Y-11150630D01*
X30754735Y-11075000D01*
X31249999Y-11075000D01*
X31250000Y-11074999D01*
X31250000Y-10841283D01*
X31249999Y-10841279D01*
X31217335Y-10677065D01*
X31153260Y-10522374D01*
X31152158Y-10520725D01*
X31599500Y-10520725D01*
X31599500Y-11879274D01*
X31602353Y-11909694D01*
X31602355Y-11909703D01*
X31647207Y-12037883D01*
X31727845Y-12147144D01*
X31727847Y-12147146D01*
X31727850Y-12147150D01*
X31727853Y-12147152D01*
X31727855Y-12147154D01*
X31837116Y-12227792D01*
X31837117Y-12227792D01*
X31837118Y-12227793D01*
X31965301Y-12272646D01*
X31995725Y-12275499D01*
X31995727Y-12275500D01*
X31995734Y-12275500D01*
X32804273Y-12275500D01*
X32804273Y-12275499D01*
X32834699Y-12272646D01*
X32962882Y-12227793D01*
X33072150Y-12147150D01*
X33152793Y-12037882D01*
X33197646Y-11909699D01*
X33200499Y-11879273D01*
X33200500Y-11879273D01*
X33200500Y-10520727D01*
X33200499Y-10520725D01*
X33197646Y-10490301D01*
X33152793Y-10362118D01*
X33144934Y-10351470D01*
X33072154Y-10252855D01*
X33072152Y-10252853D01*
X33072150Y-10252850D01*
X33072146Y-10252847D01*
X33072144Y-10252845D01*
X32962883Y-10172207D01*
X32834703Y-10127355D01*
X32834694Y-10127353D01*
X32804274Y-10124500D01*
X32804266Y-10124500D01*
X31995734Y-10124500D01*
X31995725Y-10124500D01*
X31965305Y-10127353D01*
X31965296Y-10127355D01*
X31837116Y-10172207D01*
X31727855Y-10252845D01*
X31727845Y-10252855D01*
X31647207Y-10362116D01*
X31602355Y-10490296D01*
X31602353Y-10490305D01*
X31599500Y-10520725D01*
X31152158Y-10520725D01*
X31060240Y-10383159D01*
X30941840Y-10264759D01*
X30802625Y-10171739D01*
X30647939Y-10107666D01*
X30647933Y-10107664D01*
X30525000Y-10083211D01*
X30525000Y-10845265D01*
X30449370Y-10825000D01*
X30350630Y-10825000D01*
X30275000Y-10845265D01*
X30275000Y-10083211D01*
X30152066Y-10107664D01*
X30152060Y-10107666D01*
X29997374Y-10171739D01*
X29858159Y-10264759D01*
X29739759Y-10383159D01*
X29646739Y-10522374D01*
X29582664Y-10677065D01*
X29550000Y-10841279D01*
X29199530Y-10841279D01*
X29169737Y-10691503D01*
X29121988Y-10576225D01*
X29109396Y-10545825D01*
X29109390Y-10545814D01*
X29043218Y-10446782D01*
X29021789Y-10414711D01*
X28910289Y-10303211D01*
X28834911Y-10252845D01*
X28779185Y-10215609D01*
X28779174Y-10215603D01*
X28633497Y-10155263D01*
X28478844Y-10124500D01*
X28478842Y-10124500D01*
X28321158Y-10124500D01*
X28321155Y-10124500D01*
X28166503Y-10155263D01*
X28166501Y-10155263D01*
X28020825Y-10215603D01*
X28020814Y-10215609D01*
X27889711Y-10303211D01*
X27889707Y-10303214D01*
X27778214Y-10414707D01*
X27778211Y-10414711D01*
X27690609Y-10545814D01*
X27690603Y-10545825D01*
X27630263Y-10691501D01*
X27630263Y-10691503D01*
X27599500Y-10846155D01*
X27200499Y-10846155D01*
X27169737Y-10691503D01*
X27121988Y-10576225D01*
X27109396Y-10545825D01*
X27109390Y-10545814D01*
X27043218Y-10446782D01*
X27021789Y-10414711D01*
X26910289Y-10303211D01*
X26834911Y-10252845D01*
X26779185Y-10215609D01*
X26779174Y-10215603D01*
X26633497Y-10155263D01*
X26478844Y-10124500D01*
X26478842Y-10124500D01*
X26321158Y-10124500D01*
X26321155Y-10124500D01*
X26166503Y-10155263D01*
X26166501Y-10155263D01*
X26020825Y-10215603D01*
X26020814Y-10215609D01*
X25889711Y-10303211D01*
X25889707Y-10303214D01*
X25778214Y-10414707D01*
X25778211Y-10414711D01*
X25690609Y-10545814D01*
X25690603Y-10545825D01*
X25630263Y-10691501D01*
X25630263Y-10691503D01*
X25599500Y-10846155D01*
X25200499Y-10846155D01*
X25169737Y-10691503D01*
X25121988Y-10576225D01*
X25109396Y-10545825D01*
X25109390Y-10545814D01*
X25043218Y-10446782D01*
X25021789Y-10414711D01*
X24910289Y-10303211D01*
X24834911Y-10252845D01*
X24779185Y-10215609D01*
X24779174Y-10215603D01*
X24633497Y-10155263D01*
X24478844Y-10124500D01*
X24478842Y-10124500D01*
X24321158Y-10124500D01*
X24321155Y-10124500D01*
X24166503Y-10155263D01*
X24166501Y-10155263D01*
X24020825Y-10215603D01*
X24020814Y-10215609D01*
X23889711Y-10303211D01*
X23889707Y-10303214D01*
X23778214Y-10414707D01*
X23778211Y-10414711D01*
X23690609Y-10545814D01*
X23690603Y-10545825D01*
X23630263Y-10691501D01*
X23630263Y-10691503D01*
X23599500Y-10846155D01*
X23200499Y-10846155D01*
X23169737Y-10691503D01*
X23121988Y-10576225D01*
X23109396Y-10545825D01*
X23109390Y-10545814D01*
X23043218Y-10446782D01*
X23021789Y-10414711D01*
X22910289Y-10303211D01*
X22834911Y-10252845D01*
X22779185Y-10215609D01*
X22779174Y-10215603D01*
X22633497Y-10155263D01*
X22478844Y-10124500D01*
X22478842Y-10124500D01*
X22321158Y-10124500D01*
X22321155Y-10124500D01*
X22166503Y-10155263D01*
X22166501Y-10155263D01*
X22020825Y-10215603D01*
X22020814Y-10215609D01*
X21889711Y-10303211D01*
X21889707Y-10303214D01*
X21778214Y-10414707D01*
X21778211Y-10414711D01*
X21690609Y-10545814D01*
X21690603Y-10545825D01*
X21630263Y-10691501D01*
X21630263Y-10691503D01*
X21599500Y-10846155D01*
X12755593Y-10846155D01*
X12848528Y-10753220D01*
X12909719Y-10633126D01*
X12930804Y-10500000D01*
X12929268Y-10490305D01*
X12918731Y-10423774D01*
X12909719Y-10366874D01*
X12848528Y-10246780D01*
X12753220Y-10151472D01*
X12753217Y-10151470D01*
X12629061Y-10088209D01*
X12585796Y-10044945D01*
X12576225Y-9984513D01*
X12604003Y-9929996D01*
X12629061Y-9911791D01*
X12702963Y-9874134D01*
X12753220Y-9848528D01*
X12848528Y-9753220D01*
X12909719Y-9633126D01*
X12930804Y-9500000D01*
X12909719Y-9366874D01*
X12848528Y-9246780D01*
X12753220Y-9151472D01*
X12753217Y-9151470D01*
X12633129Y-9090282D01*
X12633127Y-9090281D01*
X12500000Y-9069196D01*
X12366872Y-9090281D01*
X12366870Y-9090282D01*
X12246782Y-9151470D01*
X12151471Y-9246781D01*
X12088209Y-9370939D01*
X12044944Y-9414203D01*
X11984512Y-9423774D01*
X11929996Y-9395996D01*
X11911791Y-9370939D01*
X11849419Y-9248529D01*
X11848528Y-9246780D01*
X11753220Y-9151472D01*
X11753217Y-9151470D01*
X11633129Y-9090282D01*
X11633127Y-9090281D01*
X11500000Y-9069196D01*
X11366872Y-9090281D01*
X11366870Y-9090282D01*
X11246782Y-9151470D01*
X11151470Y-9246782D01*
X11090282Y-9366870D01*
X11090281Y-9366872D01*
X11069196Y-9499999D01*
X8500000Y-9499999D01*
X8500000Y-8899999D01*
X25969196Y-8899999D01*
X25969196Y-8900000D01*
X25990281Y-9033127D01*
X25990282Y-9033129D01*
X26019403Y-9090282D01*
X26051472Y-9153220D01*
X26146780Y-9248528D01*
X26266874Y-9309719D01*
X26400000Y-9330804D01*
X26533126Y-9309719D01*
X26653220Y-9248528D01*
X26748528Y-9153220D01*
X26809719Y-9033126D01*
X26830804Y-8900000D01*
X26809719Y-8766874D01*
X26748528Y-8646780D01*
X26653220Y-8551472D01*
X26653217Y-8551470D01*
X26533129Y-8490282D01*
X26533127Y-8490281D01*
X26400000Y-8469196D01*
X26266872Y-8490281D01*
X26266870Y-8490282D01*
X26146782Y-8551470D01*
X26051470Y-8646782D01*
X25990282Y-8766870D01*
X25990281Y-8766872D01*
X25969196Y-8899999D01*
X8500000Y-8899999D01*
X8500000Y-6099999D01*
X9669196Y-6099999D01*
X9669196Y-6100000D01*
X9690281Y-6233127D01*
X9690282Y-6233129D01*
X9751470Y-6353217D01*
X9751472Y-6353220D01*
X9846780Y-6448528D01*
X9966874Y-6509719D01*
X10100000Y-6530804D01*
X10233126Y-6509719D01*
X10353220Y-6448528D01*
X10448528Y-6353220D01*
X10475645Y-6300000D01*
X10511791Y-6229061D01*
X10555055Y-6185796D01*
X10615487Y-6176225D01*
X10670004Y-6204003D01*
X10688209Y-6229061D01*
X10751470Y-6353217D01*
X10751472Y-6353220D01*
X10846780Y-6448528D01*
X10966874Y-6509719D01*
X11100000Y-6530804D01*
X11233126Y-6509719D01*
X11353220Y-6448528D01*
X11448528Y-6353220D01*
X11475645Y-6300000D01*
X11511791Y-6229061D01*
X11555055Y-6185796D01*
X11615487Y-6176225D01*
X11670004Y-6204003D01*
X11688209Y-6229061D01*
X11751470Y-6353217D01*
X11751472Y-6353220D01*
X11846780Y-6448528D01*
X11966874Y-6509719D01*
X12100000Y-6530804D01*
X12233126Y-6509719D01*
X12353220Y-6448528D01*
X12448528Y-6353220D01*
X12509719Y-6233126D01*
X12530804Y-6100000D01*
X12509719Y-5966874D01*
X12488383Y-5924999D01*
X14464196Y-5924999D01*
X14464196Y-5925000D01*
X14485281Y-6058127D01*
X14485282Y-6058129D01*
X14545455Y-6176225D01*
X14546472Y-6178220D01*
X14641780Y-6273528D01*
X14761874Y-6334719D01*
X14895000Y-6355804D01*
X15028126Y-6334719D01*
X15148220Y-6273528D01*
X15243528Y-6178220D01*
X15304719Y-6058126D01*
X15325804Y-5925000D01*
X15304719Y-5791874D01*
X15243528Y-5671780D01*
X15148220Y-5576472D01*
X15148217Y-5576470D01*
X15028129Y-5515282D01*
X15028127Y-5515281D01*
X14895000Y-5494196D01*
X14761872Y-5515281D01*
X14761870Y-5515282D01*
X14641782Y-5576470D01*
X14546470Y-5671782D01*
X14485282Y-5791870D01*
X14485281Y-5791872D01*
X14464196Y-5924999D01*
X12488383Y-5924999D01*
X12448528Y-5846780D01*
X12353220Y-5751472D01*
X12353217Y-5751470D01*
X12233129Y-5690282D01*
X12233127Y-5690281D01*
X12100000Y-5669196D01*
X11966872Y-5690281D01*
X11966870Y-5690282D01*
X11846782Y-5751470D01*
X11751471Y-5846781D01*
X11688209Y-5970939D01*
X11644944Y-6014203D01*
X11584512Y-6023774D01*
X11529996Y-5995996D01*
X11511791Y-5970939D01*
X11470693Y-5890281D01*
X11448528Y-5846780D01*
X11353220Y-5751472D01*
X11353217Y-5751470D01*
X11233129Y-5690282D01*
X11233127Y-5690281D01*
X11100000Y-5669196D01*
X10966872Y-5690281D01*
X10966870Y-5690282D01*
X10846782Y-5751470D01*
X10751471Y-5846781D01*
X10688209Y-5970939D01*
X10644944Y-6014203D01*
X10584512Y-6023774D01*
X10529996Y-5995996D01*
X10511791Y-5970939D01*
X10470693Y-5890281D01*
X10448528Y-5846780D01*
X10353220Y-5751472D01*
X10353217Y-5751470D01*
X10233129Y-5690282D01*
X10233127Y-5690281D01*
X10100000Y-5669196D01*
X9966872Y-5690281D01*
X9966870Y-5690282D01*
X9846782Y-5751470D01*
X9751470Y-5846782D01*
X9690282Y-5966870D01*
X9690281Y-5966872D01*
X9669196Y-6099999D01*
X8500000Y-6099999D01*
X8500000Y-4999999D01*
X9669196Y-4999999D01*
X9669196Y-5000000D01*
X9690281Y-5133127D01*
X9690282Y-5133129D01*
X9751470Y-5253217D01*
X9751472Y-5253220D01*
X9846780Y-5348528D01*
X9966874Y-5409719D01*
X10100000Y-5430804D01*
X10233126Y-5409719D01*
X10353220Y-5348528D01*
X10448528Y-5253220D01*
X10499481Y-5153220D01*
X10511791Y-5129061D01*
X10555055Y-5085796D01*
X10615487Y-5076225D01*
X10670004Y-5104003D01*
X10688209Y-5129061D01*
X10751470Y-5253217D01*
X10751472Y-5253220D01*
X10846780Y-5348528D01*
X10966874Y-5409719D01*
X11100000Y-5430804D01*
X11233126Y-5409719D01*
X11353220Y-5348528D01*
X11448528Y-5253220D01*
X11499481Y-5153220D01*
X11511791Y-5129061D01*
X11555055Y-5085796D01*
X11615487Y-5076225D01*
X11670004Y-5104003D01*
X11688209Y-5129061D01*
X11751470Y-5253217D01*
X11751472Y-5253220D01*
X11846780Y-5348528D01*
X11966874Y-5409719D01*
X12100000Y-5430804D01*
X12233126Y-5409719D01*
X12353220Y-5348528D01*
X12448528Y-5253220D01*
X12509719Y-5133126D01*
X12530804Y-5000000D01*
X12514965Y-4899999D01*
X23969196Y-4899999D01*
X23969196Y-4900000D01*
X23990281Y-5033127D01*
X23990282Y-5033129D01*
X24050581Y-5151472D01*
X24051472Y-5153220D01*
X24146780Y-5248528D01*
X24266874Y-5309719D01*
X24400000Y-5330804D01*
X24533126Y-5309719D01*
X24653220Y-5248528D01*
X24748528Y-5153220D01*
X24809719Y-5033126D01*
X24830804Y-4900000D01*
X24809719Y-4766874D01*
X24748528Y-4646780D01*
X24653220Y-4551472D01*
X24653217Y-4551470D01*
X24533129Y-4490282D01*
X24533127Y-4490281D01*
X24400000Y-4469196D01*
X24266872Y-4490281D01*
X24266870Y-4490282D01*
X24146782Y-4551470D01*
X24051470Y-4646782D01*
X23990282Y-4766870D01*
X23990281Y-4766872D01*
X23969196Y-4899999D01*
X12514965Y-4899999D01*
X12509719Y-4866874D01*
X12448528Y-4746780D01*
X12353220Y-4651472D01*
X12353217Y-4651470D01*
X12233129Y-4590282D01*
X12233127Y-4590281D01*
X12100000Y-4569196D01*
X11966872Y-4590281D01*
X11966870Y-4590282D01*
X11846782Y-4651470D01*
X11751471Y-4746781D01*
X11688209Y-4870939D01*
X11644944Y-4914203D01*
X11584512Y-4923774D01*
X11529996Y-4895996D01*
X11511791Y-4870939D01*
X11451809Y-4753220D01*
X11448528Y-4746780D01*
X11353220Y-4651472D01*
X11353217Y-4651470D01*
X11233129Y-4590282D01*
X11233127Y-4590281D01*
X11100000Y-4569196D01*
X10966872Y-4590281D01*
X10966870Y-4590282D01*
X10846782Y-4651470D01*
X10751471Y-4746781D01*
X10688209Y-4870939D01*
X10644944Y-4914203D01*
X10584512Y-4923774D01*
X10529996Y-4895996D01*
X10511791Y-4870939D01*
X10451809Y-4753220D01*
X10448528Y-4746780D01*
X10353220Y-4651472D01*
X10353217Y-4651470D01*
X10233129Y-4590282D01*
X10233127Y-4590281D01*
X10100000Y-4569196D01*
X9966872Y-4590281D01*
X9966870Y-4590282D01*
X9846782Y-4651470D01*
X9751470Y-4746782D01*
X9690282Y-4866870D01*
X9690281Y-4866872D01*
X9669196Y-4999999D01*
X8500000Y-4999999D01*
X8500000Y-3199999D01*
X16369196Y-3199999D01*
X16369196Y-3200000D01*
X16390281Y-3333127D01*
X16390282Y-3333129D01*
X16424355Y-3400000D01*
X16451472Y-3453220D01*
X16546780Y-3548528D01*
X16666874Y-3609719D01*
X16800000Y-3630804D01*
X16933126Y-3609719D01*
X17053220Y-3548528D01*
X17148528Y-3453220D01*
X17209719Y-3333126D01*
X17230804Y-3200000D01*
X17209719Y-3066874D01*
X17148528Y-2946780D01*
X17053220Y-2851472D01*
X17053217Y-2851470D01*
X16933129Y-2790282D01*
X16933127Y-2790281D01*
X16800000Y-2769196D01*
X16666872Y-2790281D01*
X16666870Y-2790282D01*
X16546782Y-2851470D01*
X16451470Y-2946782D01*
X16390282Y-3066870D01*
X16390281Y-3066872D01*
X16369196Y-3199999D01*
X8500000Y-3199999D01*
X8500000Y-2499999D01*
X29069196Y-2499999D01*
X29069196Y-2500000D01*
X29090281Y-2633127D01*
X29090282Y-2633129D01*
X29141234Y-2733127D01*
X29151472Y-2753220D01*
X29246780Y-2848528D01*
X29255983Y-2853217D01*
X29370939Y-2911791D01*
X29414203Y-2955056D01*
X29423774Y-3015488D01*
X29395996Y-3070004D01*
X29370939Y-3088209D01*
X29246781Y-3151471D01*
X29151470Y-3246782D01*
X29090282Y-3366870D01*
X29090281Y-3366872D01*
X29069196Y-3499999D01*
X29069196Y-3500000D01*
X29090281Y-3633127D01*
X29090282Y-3633129D01*
X29151470Y-3753217D01*
X29151472Y-3753220D01*
X29246780Y-3848528D01*
X29282778Y-3866870D01*
X29370939Y-3911791D01*
X29414203Y-3955056D01*
X29423774Y-4015488D01*
X29395996Y-4070004D01*
X29370939Y-4088209D01*
X29246781Y-4151471D01*
X29151470Y-4246782D01*
X29090282Y-4366870D01*
X29090281Y-4366872D01*
X29069196Y-4499999D01*
X29069196Y-4500000D01*
X29090281Y-4633127D01*
X29090282Y-4633129D01*
X29151470Y-4753217D01*
X29151472Y-4753220D01*
X29246780Y-4848528D01*
X29282778Y-4866870D01*
X29370939Y-4911791D01*
X29414203Y-4955056D01*
X29423774Y-5015488D01*
X29395996Y-5070004D01*
X29370939Y-5088209D01*
X29246781Y-5151471D01*
X29151470Y-5246782D01*
X29090282Y-5366870D01*
X29090281Y-5366872D01*
X29069196Y-5499999D01*
X29069196Y-5500000D01*
X29090281Y-5633127D01*
X29090282Y-5633129D01*
X29150580Y-5751470D01*
X29151472Y-5753220D01*
X29246780Y-5848528D01*
X29366874Y-5909719D01*
X29500000Y-5930804D01*
X29633126Y-5909719D01*
X29753220Y-5848528D01*
X29848528Y-5753220D01*
X29909719Y-5633126D01*
X29930804Y-5500000D01*
X29909719Y-5366874D01*
X29848528Y-5246780D01*
X29753220Y-5151472D01*
X29753217Y-5151470D01*
X29629061Y-5088209D01*
X29585796Y-5044945D01*
X29576225Y-4984513D01*
X29604003Y-4929996D01*
X29629061Y-4911791D01*
X29717222Y-4866870D01*
X29753220Y-4848528D01*
X29848528Y-4753220D01*
X29909719Y-4633126D01*
X29930804Y-4500000D01*
X29909719Y-4366874D01*
X29848528Y-4246780D01*
X29753220Y-4151472D01*
X29753217Y-4151470D01*
X29629061Y-4088209D01*
X29585796Y-4044945D01*
X29576225Y-3984513D01*
X29604003Y-3929996D01*
X29629061Y-3911791D01*
X29717222Y-3866870D01*
X29753220Y-3848528D01*
X29848528Y-3753220D01*
X29909719Y-3633126D01*
X29930804Y-3500000D01*
X29909719Y-3366874D01*
X29848528Y-3246780D01*
X29753220Y-3151472D01*
X29753217Y-3151470D01*
X29629061Y-3088209D01*
X29585796Y-3044945D01*
X29576225Y-2984513D01*
X29604003Y-2929996D01*
X29629061Y-2911791D01*
X29744011Y-2853220D01*
X29753220Y-2848528D01*
X29848528Y-2753220D01*
X29909719Y-2633126D01*
X29930804Y-2500000D01*
X29909719Y-2366874D01*
X29848528Y-2246780D01*
X29753220Y-2151472D01*
X29753217Y-2151470D01*
X29633129Y-2090282D01*
X29633127Y-2090281D01*
X29500000Y-2069196D01*
X29366872Y-2090281D01*
X29366870Y-2090282D01*
X29246782Y-2151470D01*
X29151470Y-2246782D01*
X29090282Y-2366870D01*
X29090281Y-2366872D01*
X29069196Y-2499999D01*
X8500000Y-2499999D01*
X8500000Y-274999D01*
X12374196Y-274999D01*
X12374196Y-275000D01*
X12395281Y-408127D01*
X12395282Y-408129D01*
X12456470Y-528217D01*
X12456472Y-528220D01*
X12551780Y-623528D01*
X12671874Y-684719D01*
X12805000Y-705804D01*
X12938126Y-684719D01*
X13058220Y-623528D01*
X13153528Y-528220D01*
X13214719Y-408126D01*
X13235804Y-275000D01*
X13214719Y-141874D01*
X13153528Y-21780D01*
X13058220Y73528D01*
X12938126Y134719D01*
X12805000Y155804D01*
X12671874Y134719D01*
X12551780Y73528D01*
X12503898Y25646D01*
X12456470Y-21782D01*
X12395282Y-141870D01*
X12395281Y-141872D01*
X12374196Y-274999D01*
X8500000Y-274999D01*
X8500000Y2400000D01*
X9369196Y2400000D01*
X9369196Y2399999D01*
X9390281Y2266872D01*
X9390282Y2266870D01*
X9451470Y2146782D01*
X9546782Y2051470D01*
X9666870Y1990282D01*
X9666872Y1990281D01*
X9800000Y1969196D01*
X9933127Y1990281D01*
X9933129Y1990282D01*
X10053217Y2051470D01*
X10053220Y2051472D01*
X10148528Y2146780D01*
X10209719Y2266874D01*
X10230804Y2400000D01*
X10469196Y2400000D01*
X10469196Y2399999D01*
X10490281Y2266872D01*
X10490282Y2266870D01*
X10551470Y2146782D01*
X10646782Y2051470D01*
X10766870Y1990282D01*
X10766872Y1990281D01*
X10900000Y1969196D01*
X11033127Y1990281D01*
X11033129Y1990282D01*
X11153217Y2051470D01*
X11153220Y2051472D01*
X11248528Y2146780D01*
X11309719Y2266874D01*
X11330804Y2400000D01*
X11569196Y2400000D01*
X11569196Y2399999D01*
X11590281Y2266872D01*
X11590282Y2266870D01*
X11651470Y2146782D01*
X11746782Y2051470D01*
X11866870Y1990282D01*
X11866872Y1990281D01*
X12000000Y1969196D01*
X12133127Y1990281D01*
X12133129Y1990282D01*
X12253217Y2051470D01*
X12253220Y2051472D01*
X12348528Y2146780D01*
X12409719Y2266874D01*
X12430804Y2400000D01*
X12409719Y2533126D01*
X12388383Y2575000D01*
X14464196Y2575000D01*
X14464196Y2574999D01*
X14485281Y2441872D01*
X14485282Y2441870D01*
X14546470Y2321782D01*
X14641782Y2226470D01*
X14761870Y2165282D01*
X14761872Y2165281D01*
X14895000Y2144196D01*
X15028127Y2165281D01*
X15028129Y2165282D01*
X15148217Y2226470D01*
X15148220Y2226472D01*
X15243528Y2321780D01*
X15304719Y2441874D01*
X15325804Y2575000D01*
X15304719Y2708126D01*
X15243528Y2828220D01*
X15148220Y2923528D01*
X15028126Y2984719D01*
X14895000Y3005804D01*
X14761874Y2984719D01*
X14641780Y2923528D01*
X14546472Y2828220D01*
X14546470Y2828217D01*
X14485282Y2708129D01*
X14485281Y2708127D01*
X14464196Y2575000D01*
X12388383Y2575000D01*
X12348528Y2653220D01*
X12253220Y2748528D01*
X12133126Y2809719D01*
X12000000Y2830804D01*
X11866874Y2809719D01*
X11746780Y2748528D01*
X11651472Y2653220D01*
X11651470Y2653217D01*
X11590282Y2533129D01*
X11590281Y2533127D01*
X11569196Y2400000D01*
X11330804Y2400000D01*
X11309719Y2533126D01*
X11248528Y2653220D01*
X11153220Y2748528D01*
X11033126Y2809719D01*
X10900000Y2830804D01*
X10766874Y2809719D01*
X10646780Y2748528D01*
X10551472Y2653220D01*
X10551470Y2653217D01*
X10490282Y2533129D01*
X10490281Y2533127D01*
X10469196Y2400000D01*
X10230804Y2400000D01*
X10209719Y2533126D01*
X10148528Y2653220D01*
X10053220Y2748528D01*
X9933126Y2809719D01*
X9800000Y2830804D01*
X9666874Y2809719D01*
X9546780Y2748528D01*
X9451472Y2653220D01*
X9451470Y2653217D01*
X9390282Y2533129D01*
X9390281Y2533127D01*
X9369196Y2400000D01*
X8500000Y2400000D01*
X8500000Y3500000D01*
X9369196Y3500000D01*
X9369196Y3499999D01*
X9390281Y3366872D01*
X9390282Y3366870D01*
X9451470Y3246782D01*
X9546782Y3151470D01*
X9666870Y3090282D01*
X9666872Y3090281D01*
X9800000Y3069196D01*
X9933127Y3090281D01*
X9933129Y3090282D01*
X10053217Y3151470D01*
X10053220Y3151472D01*
X10148528Y3246780D01*
X10209719Y3366874D01*
X10230804Y3500000D01*
X10469196Y3500000D01*
X10469196Y3499999D01*
X10490281Y3366872D01*
X10490282Y3366870D01*
X10551470Y3246782D01*
X10646782Y3151470D01*
X10766870Y3090282D01*
X10766872Y3090281D01*
X10900000Y3069196D01*
X11033127Y3090281D01*
X11033129Y3090282D01*
X11153217Y3151470D01*
X11153220Y3151472D01*
X11248528Y3246780D01*
X11309719Y3366874D01*
X11330804Y3500000D01*
X11569196Y3500000D01*
X11569196Y3499999D01*
X11590281Y3366872D01*
X11590282Y3366870D01*
X11651470Y3246782D01*
X11746782Y3151470D01*
X11866870Y3090282D01*
X11866872Y3090281D01*
X12000000Y3069196D01*
X12133127Y3090281D01*
X12133129Y3090282D01*
X12253217Y3151470D01*
X12253220Y3151472D01*
X12348528Y3246780D01*
X12409719Y3366874D01*
X12430804Y3500000D01*
X12415964Y3593697D01*
X26319500Y3593697D01*
X26319500Y3406302D01*
X26348813Y3221222D01*
X26348814Y3221218D01*
X26406717Y3043013D01*
X26406719Y3043010D01*
X26491791Y2876044D01*
X26601937Y2724442D01*
X26734442Y2591937D01*
X26886044Y2481791D01*
X27053010Y2396719D01*
X27053013Y2396717D01*
X27231218Y2338814D01*
X27231222Y2338813D01*
X27416303Y2309500D01*
X27416306Y2309500D01*
X29583697Y2309500D01*
X29768777Y2338813D01*
X29768781Y2338814D01*
X29946986Y2396717D01*
X29946989Y2396719D01*
X29953427Y2399999D01*
X29959467Y2403077D01*
X30113955Y2481791D01*
X30113958Y2481793D01*
X30265559Y2591938D01*
X30398062Y2724441D01*
X30508207Y2876042D01*
X30593279Y3043007D01*
X30593280Y3043010D01*
X30593282Y3043013D01*
X30651185Y3221218D01*
X30651186Y3221222D01*
X30680500Y3406302D01*
X30680500Y3593697D01*
X30651186Y3778777D01*
X30651185Y3778781D01*
X30593282Y3956986D01*
X30593280Y3956989D01*
X30593279Y3956993D01*
X30508207Y4123958D01*
X30398062Y4275559D01*
X30265559Y4408062D01*
X30113958Y4518207D01*
X29946993Y4603279D01*
X29946988Y4603280D01*
X29946986Y4603282D01*
X29768781Y4661185D01*
X29768777Y4661186D01*
X29583697Y4690500D01*
X29583694Y4690500D01*
X27416306Y4690500D01*
X27416303Y4690500D01*
X27231222Y4661186D01*
X27231218Y4661185D01*
X27053013Y4603282D01*
X27053010Y4603280D01*
X27053007Y4603279D01*
X26886042Y4518207D01*
X26734441Y4408062D01*
X26601938Y4275559D01*
X26511783Y4151472D01*
X26491791Y4123955D01*
X26406719Y3956989D01*
X26406717Y3956986D01*
X26348814Y3778781D01*
X26348813Y3778777D01*
X26319500Y3593697D01*
X12415964Y3593697D01*
X12409719Y3633126D01*
X12348528Y3753220D01*
X12253220Y3848528D01*
X12133126Y3909719D01*
X12000000Y3930804D01*
X11866874Y3909719D01*
X11746780Y3848528D01*
X11651472Y3753220D01*
X11651470Y3753217D01*
X11590282Y3633129D01*
X11590281Y3633127D01*
X11569196Y3500000D01*
X11330804Y3500000D01*
X11309719Y3633126D01*
X11248528Y3753220D01*
X11153220Y3848528D01*
X11033126Y3909719D01*
X10900000Y3930804D01*
X10766874Y3909719D01*
X10646780Y3848528D01*
X10551472Y3753220D01*
X10551470Y3753217D01*
X10490282Y3633129D01*
X10490281Y3633127D01*
X10469196Y3500000D01*
X10230804Y3500000D01*
X10209719Y3633126D01*
X10148528Y3753220D01*
X10053220Y3848528D01*
X9933126Y3909719D01*
X9800000Y3930804D01*
X9666874Y3909719D01*
X9546780Y3848528D01*
X9451472Y3753220D01*
X9451470Y3753217D01*
X9390282Y3633129D01*
X9390281Y3633127D01*
X9369196Y3500000D01*
X8500000Y3500000D01*
X8500000Y5224032D01*
X8508419Y5259102D01*
X8507311Y5259463D01*
X8509718Y5266873D01*
X8509719Y5266874D01*
X8514966Y5300000D01*
X16369196Y5300000D01*
X16369196Y5299999D01*
X16390281Y5166872D01*
X16390282Y5166870D01*
X16451470Y5046782D01*
X16546782Y4951470D01*
X16666870Y4890282D01*
X16666872Y4890281D01*
X16800000Y4869196D01*
X16933127Y4890281D01*
X16933129Y4890282D01*
X17053217Y4951470D01*
X17053220Y4951472D01*
X17148528Y5046780D01*
X17209719Y5166874D01*
X17230804Y5300000D01*
X17209719Y5433126D01*
X17148528Y5553220D01*
X17053220Y5648528D01*
X16933126Y5709719D01*
X16800000Y5730804D01*
X16666874Y5709719D01*
X16546780Y5648528D01*
X16451472Y5553220D01*
X16451470Y5553217D01*
X16390282Y5433129D01*
X16390281Y5433127D01*
X16369196Y5300000D01*
X8514966Y5300000D01*
X8527464Y5378914D01*
X8530804Y5399999D01*
X8530804Y5400000D01*
X8525557Y5433129D01*
X8509719Y5533126D01*
X8509716Y5533131D01*
X8507310Y5540541D01*
X8508419Y5540901D01*
X8500000Y5575969D01*
X8500000Y6124032D01*
X8508419Y6159102D01*
X8507311Y6159463D01*
X8509718Y6166873D01*
X8509719Y6166874D01*
X8527464Y6278914D01*
X8530804Y6299999D01*
X8530804Y6300000D01*
X8509719Y6433126D01*
X8509716Y6433131D01*
X8507310Y6440541D01*
X8508419Y6440901D01*
X8500000Y6475969D01*
X8500000Y6924032D01*
X8508419Y6959102D01*
X8507311Y6959463D01*
X8509718Y6966873D01*
X8509719Y6966874D01*
X8530804Y7100000D01*
X8509719Y7233126D01*
X8509716Y7233131D01*
X8507310Y7240541D01*
X8508419Y7240901D01*
X8500000Y7275969D01*
X8500000Y8225000D01*
X12374196Y8225000D01*
X12374196Y8224999D01*
X12395281Y8091872D01*
X12395282Y8091870D01*
X12456470Y7971782D01*
X12551782Y7876470D01*
X12671870Y7815282D01*
X12671872Y7815281D01*
X12805000Y7794196D01*
X12938127Y7815281D01*
X12938129Y7815282D01*
X13058217Y7876470D01*
X13058220Y7876472D01*
X13153528Y7971780D01*
X13214719Y8091874D01*
X13235804Y8225000D01*
X13214719Y8358126D01*
X13153528Y8478220D01*
X13058220Y8573528D01*
X13018636Y8593697D01*
X26319500Y8593697D01*
X26319500Y8406302D01*
X26348813Y8221222D01*
X26348814Y8221218D01*
X26406717Y8043013D01*
X26406719Y8043010D01*
X26491791Y7876044D01*
X26601937Y7724442D01*
X26734442Y7591937D01*
X26886044Y7481791D01*
X27053010Y7396719D01*
X27053013Y7396717D01*
X27231218Y7338814D01*
X27231222Y7338813D01*
X27416303Y7309500D01*
X27416306Y7309500D01*
X29583697Y7309500D01*
X29768777Y7338813D01*
X29768781Y7338814D01*
X29946986Y7396717D01*
X29946989Y7396719D01*
X29953427Y7399999D01*
X29959467Y7403077D01*
X30113955Y7481791D01*
X30113958Y7481793D01*
X30265559Y7591938D01*
X30398062Y7724441D01*
X30508207Y7876042D01*
X30593279Y8043007D01*
X30593280Y8043010D01*
X30593282Y8043013D01*
X30651185Y8221218D01*
X30651186Y8221222D01*
X30680500Y8406302D01*
X30680500Y8593697D01*
X30651186Y8778777D01*
X30651185Y8778781D01*
X30593282Y8956986D01*
X30593280Y8956989D01*
X30593279Y8956993D01*
X30508207Y9123958D01*
X30398062Y9275559D01*
X30265559Y9408062D01*
X30113958Y9518207D01*
X29946993Y9603279D01*
X29946988Y9603280D01*
X29946986Y9603282D01*
X29768781Y9661185D01*
X29768777Y9661186D01*
X29583697Y9690500D01*
X29583694Y9690500D01*
X27416306Y9690500D01*
X27416303Y9690500D01*
X27231222Y9661186D01*
X27231218Y9661185D01*
X27053013Y9603282D01*
X27053010Y9603280D01*
X27053007Y9603279D01*
X26886042Y9518207D01*
X26734441Y9408062D01*
X26601938Y9275559D01*
X26551640Y9206330D01*
X26491791Y9123955D01*
X26406719Y8956989D01*
X26406717Y8956986D01*
X26348814Y8778781D01*
X26348813Y8778777D01*
X26319500Y8593697D01*
X13018636Y8593697D01*
X12938126Y8634719D01*
X12805000Y8655804D01*
X12671874Y8634719D01*
X12551780Y8573528D01*
X12456472Y8478220D01*
X12456470Y8478217D01*
X12395282Y8358129D01*
X12395281Y8358127D01*
X12374196Y8225000D01*
X8500000Y8225000D01*
X8500000Y11075000D01*
X14464196Y11075000D01*
X14464196Y11074999D01*
X14485281Y10941872D01*
X14485282Y10941870D01*
X14546470Y10821782D01*
X14641782Y10726470D01*
X14761870Y10665282D01*
X14761872Y10665281D01*
X14895000Y10644196D01*
X15028127Y10665281D01*
X15028129Y10665282D01*
X15148217Y10726470D01*
X15148220Y10726472D01*
X15243528Y10821780D01*
X15304719Y10941874D01*
X15325804Y11075000D01*
X15304719Y11208126D01*
X15243528Y11328220D01*
X15148220Y11423528D01*
X15028126Y11484719D01*
X14895000Y11505804D01*
X14761874Y11484719D01*
X14641780Y11423528D01*
X14546472Y11328220D01*
X14546470Y11328217D01*
X14485282Y11208129D01*
X14485281Y11208127D01*
X14464196Y11075000D01*
X8500000Y11075000D01*
X8500000Y12124032D01*
X8508419Y12159102D01*
X8507311Y12159463D01*
X8509718Y12166873D01*
X8509719Y12166874D01*
X8530804Y12300000D01*
X8509719Y12433126D01*
X8509716Y12433131D01*
X8507310Y12440541D01*
X8508419Y12440901D01*
X8500000Y12475969D01*
X8500000Y13043732D01*
X8508419Y13078802D01*
X8507311Y13079163D01*
X8509718Y13086573D01*
X8509719Y13086574D01*
X8530804Y13219700D01*
X8509719Y13352826D01*
X8509716Y13352831D01*
X8507310Y13360241D01*
X8508419Y13360601D01*
X8500000Y13395669D01*
X8500000Y13600000D01*
X8769196Y13600000D01*
X8769196Y13599999D01*
X8790281Y13466872D01*
X8790282Y13466870D01*
X8851470Y13346782D01*
X8946782Y13251470D01*
X9066870Y13190282D01*
X9066872Y13190281D01*
X9200000Y13169196D01*
X9333127Y13190281D01*
X9333129Y13190282D01*
X9453217Y13251470D01*
X9453220Y13251472D01*
X9548528Y13346780D01*
X9609719Y13466874D01*
X9626835Y13574945D01*
X9630804Y13599999D01*
X9630804Y13600000D01*
X9869196Y13600000D01*
X9869196Y13599999D01*
X9890281Y13466872D01*
X9890282Y13466870D01*
X9951470Y13346782D01*
X10046782Y13251470D01*
X10166870Y13190282D01*
X10166872Y13190281D01*
X10300000Y13169196D01*
X10433127Y13190281D01*
X10433129Y13190282D01*
X10553217Y13251470D01*
X10553220Y13251472D01*
X10648528Y13346780D01*
X10709719Y13466874D01*
X10726835Y13574945D01*
X10730804Y13599999D01*
X10730804Y13600000D01*
X10969196Y13600000D01*
X10969196Y13599999D01*
X10990281Y13466872D01*
X10990282Y13466870D01*
X11051470Y13346782D01*
X11146782Y13251470D01*
X11266870Y13190282D01*
X11266872Y13190281D01*
X11400000Y13169196D01*
X11533127Y13190281D01*
X11533129Y13190282D01*
X11653217Y13251470D01*
X11653220Y13251472D01*
X11748528Y13346780D01*
X11809719Y13466874D01*
X11826835Y13574945D01*
X11830804Y13599999D01*
X11830804Y13600000D01*
X11822652Y13651470D01*
X11809719Y13733126D01*
X11775645Y13800000D01*
X16369196Y13800000D01*
X16369196Y13799999D01*
X16390281Y13666872D01*
X16390282Y13666870D01*
X16451470Y13546782D01*
X16546782Y13451470D01*
X16666870Y13390282D01*
X16666872Y13390281D01*
X16800000Y13369196D01*
X16933127Y13390281D01*
X16933129Y13390282D01*
X17053217Y13451470D01*
X17053220Y13451472D01*
X17148528Y13546780D01*
X17209719Y13666874D01*
X17230804Y13800000D01*
X17209719Y13933126D01*
X17148528Y14053220D01*
X17053220Y14148528D01*
X16933126Y14209719D01*
X16800000Y14230804D01*
X16666874Y14209719D01*
X16546780Y14148528D01*
X16451472Y14053220D01*
X16451470Y14053217D01*
X16390282Y13933129D01*
X16390281Y13933127D01*
X16369196Y13800000D01*
X11775645Y13800000D01*
X11748528Y13853220D01*
X11653220Y13948528D01*
X11533126Y14009719D01*
X11400000Y14030804D01*
X11266874Y14009719D01*
X11146780Y13948528D01*
X11051472Y13853220D01*
X11051470Y13853217D01*
X10990282Y13733129D01*
X10990281Y13733127D01*
X10969196Y13600000D01*
X10730804Y13600000D01*
X10722652Y13651470D01*
X10709719Y13733126D01*
X10648528Y13853220D01*
X10553220Y13948528D01*
X10433126Y14009719D01*
X10300000Y14030804D01*
X10166874Y14009719D01*
X10046780Y13948528D01*
X9951472Y13853220D01*
X9951470Y13853217D01*
X9890282Y13733129D01*
X9890281Y13733127D01*
X9869196Y13600000D01*
X9630804Y13600000D01*
X9622652Y13651470D01*
X9609719Y13733126D01*
X9548528Y13853220D01*
X9453220Y13948528D01*
X9333126Y14009719D01*
X9200000Y14030804D01*
X9066874Y14009719D01*
X8946780Y13948528D01*
X8851472Y13853220D01*
X8851470Y13853217D01*
X8790282Y13733129D01*
X8790281Y13733127D01*
X8769196Y13600000D01*
X8500000Y13600000D01*
X8500000Y14700000D01*
X8769196Y14700000D01*
X8769196Y14699999D01*
X8790281Y14566872D01*
X8790282Y14566870D01*
X8851470Y14446782D01*
X8946782Y14351470D01*
X9066870Y14290282D01*
X9066872Y14290281D01*
X9200000Y14269196D01*
X9333127Y14290281D01*
X9333129Y14290282D01*
X9453217Y14351470D01*
X9453220Y14351472D01*
X9548528Y14446780D01*
X9609719Y14566874D01*
X9630804Y14700000D01*
X9869196Y14700000D01*
X9869196Y14699999D01*
X9890281Y14566872D01*
X9890282Y14566870D01*
X9951470Y14446782D01*
X10046782Y14351470D01*
X10166870Y14290282D01*
X10166872Y14290281D01*
X10300000Y14269196D01*
X10433127Y14290281D01*
X10433129Y14290282D01*
X10553217Y14351470D01*
X10553220Y14351472D01*
X10648528Y14446780D01*
X10709719Y14566874D01*
X10730804Y14700000D01*
X10969196Y14700000D01*
X10969196Y14699999D01*
X10990281Y14566872D01*
X10990282Y14566870D01*
X11051470Y14446782D01*
X11146782Y14351470D01*
X11266870Y14290282D01*
X11266872Y14290281D01*
X11400000Y14269196D01*
X11533127Y14290281D01*
X11533129Y14290282D01*
X11653217Y14351470D01*
X11653220Y14351472D01*
X11748528Y14446780D01*
X11780611Y14509746D01*
X26319500Y14509746D01*
X26319500Y12490253D01*
X26319501Y12490241D01*
X26331132Y12431772D01*
X26331134Y12431766D01*
X26375445Y12365451D01*
X26375451Y12365445D01*
X26441766Y12321134D01*
X26441772Y12321132D01*
X26500241Y12309501D01*
X26500251Y12309500D01*
X26500252Y12309500D01*
X26500253Y12309500D01*
X30499747Y12309500D01*
X30499748Y12309500D01*
X30499758Y12309501D01*
X30558227Y12321132D01*
X30558228Y12321132D01*
X30558231Y12321133D01*
X30558233Y12321134D01*
X30624548Y12365445D01*
X30624552Y12365448D01*
X30668867Y12431769D01*
X30680500Y12490252D01*
X30680500Y14509748D01*
X30668867Y14568231D01*
X30624552Y14634552D01*
X30558231Y14678867D01*
X30499748Y14690500D01*
X26500252Y14690500D01*
X26500246Y14690498D01*
X26500241Y14690498D01*
X26486231Y14687711D01*
X26441769Y14678867D01*
X26375448Y14634552D01*
X26375445Y14634548D01*
X26331134Y14568233D01*
X26331132Y14568227D01*
X26319501Y14509758D01*
X26319500Y14509746D01*
X11780611Y14509746D01*
X11809719Y14566874D01*
X11830804Y14700000D01*
X11809719Y14833126D01*
X11748528Y14953220D01*
X11653220Y15048528D01*
X11533126Y15109719D01*
X11400000Y15130804D01*
X11266874Y15109719D01*
X11146780Y15048528D01*
X11051472Y14953220D01*
X11051470Y14953217D01*
X10990282Y14833129D01*
X10990281Y14833127D01*
X10969196Y14700000D01*
X10730804Y14700000D01*
X10709719Y14833126D01*
X10648528Y14953220D01*
X10553220Y15048528D01*
X10433126Y15109719D01*
X10300000Y15130804D01*
X10166874Y15109719D01*
X10046780Y15048528D01*
X9951472Y14953220D01*
X9951470Y14953217D01*
X9890282Y14833129D01*
X9890281Y14833127D01*
X9869196Y14700000D01*
X9630804Y14700000D01*
X9609719Y14833126D01*
X9548528Y14953220D01*
X9453220Y15048528D01*
X9333126Y15109719D01*
X9200000Y15130804D01*
X9066874Y15109719D01*
X8946780Y15048528D01*
X8851472Y14953220D01*
X8851470Y14953217D01*
X8790282Y14833129D01*
X8790281Y14833127D01*
X8769196Y14700000D01*
X8500000Y14700000D01*
X8500000Y15057244D01*
X8518907Y15115435D01*
X8528995Y15127246D01*
X8548525Y15146777D01*
X8548528Y15146780D01*
X8609719Y15266874D01*
X8630804Y15400000D01*
X8609719Y15533126D01*
X8548528Y15653220D01*
X8528994Y15672753D01*
X8501219Y15727268D01*
X8500000Y15742755D01*
X8500000Y16725000D01*
X12374196Y16725000D01*
X12374196Y16724999D01*
X12395281Y16591872D01*
X12395282Y16591870D01*
X12456470Y16471782D01*
X12551782Y16376470D01*
X12671870Y16315282D01*
X12671872Y16315281D01*
X12805000Y16294196D01*
X12938127Y16315281D01*
X12938129Y16315282D01*
X13058217Y16376470D01*
X13058220Y16376472D01*
X13153528Y16471780D01*
X13214719Y16591874D01*
X13235804Y16725000D01*
X13214719Y16858126D01*
X13153528Y16978220D01*
X13058220Y17073528D01*
X12938126Y17134719D01*
X12805000Y17155804D01*
X12671874Y17134719D01*
X12551780Y17073528D01*
X12456472Y16978220D01*
X12456470Y16978217D01*
X12395282Y16858129D01*
X12395281Y16858127D01*
X12374196Y16725000D01*
X8500000Y16725000D01*
X8500000Y19500000D01*
X16319196Y19500000D01*
X16319196Y19499999D01*
X16340281Y19366872D01*
X16340282Y19366870D01*
X16401470Y19246782D01*
X16401471Y19246780D01*
X16401472Y19246780D01*
X16453250Y19195001D01*
X16481026Y19140487D01*
X16471455Y19080055D01*
X16453251Y19054999D01*
X16401472Y19003220D01*
X16401470Y19003217D01*
X16340282Y18883129D01*
X16340281Y18883127D01*
X16319196Y18750000D01*
X16319196Y18749999D01*
X16340281Y18616872D01*
X16340282Y18616870D01*
X16401470Y18496782D01*
X16496782Y18401470D01*
X16616870Y18340282D01*
X16616872Y18340281D01*
X16750000Y18319196D01*
X16883127Y18340281D01*
X16883129Y18340282D01*
X17003217Y18401470D01*
X17003220Y18401472D01*
X17054998Y18453250D01*
X17109513Y18481026D01*
X17169945Y18471455D01*
X17195000Y18453251D01*
X17246780Y18401472D01*
X17246782Y18401470D01*
X17366870Y18340282D01*
X17366872Y18340281D01*
X17500000Y18319196D01*
X17633127Y18340281D01*
X17633129Y18340282D01*
X17753217Y18401470D01*
X17753220Y18401472D01*
X17804998Y18453250D01*
X17859513Y18481026D01*
X17919945Y18471455D01*
X17945000Y18453251D01*
X17996780Y18401472D01*
X17996782Y18401470D01*
X18116870Y18340282D01*
X18116872Y18340281D01*
X18250000Y18319196D01*
X18383127Y18340281D01*
X18383129Y18340282D01*
X18503217Y18401470D01*
X18503220Y18401472D01*
X18554998Y18453250D01*
X18609513Y18481026D01*
X18669945Y18471455D01*
X18695000Y18453251D01*
X18746780Y18401472D01*
X18746782Y18401470D01*
X18866870Y18340282D01*
X18866872Y18340281D01*
X19000000Y18319196D01*
X19133127Y18340281D01*
X19133129Y18340282D01*
X19253217Y18401470D01*
X19253220Y18401472D01*
X19348528Y18496780D01*
X19409719Y18616874D01*
X19430804Y18750000D01*
X19409719Y18883126D01*
X19348528Y19003220D01*
X19296749Y19054998D01*
X19268974Y19109513D01*
X19278545Y19169945D01*
X19296748Y19195000D01*
X19348528Y19246780D01*
X19409719Y19366874D01*
X19430804Y19500000D01*
X19409719Y19633126D01*
X19348528Y19753220D01*
X19253220Y19848528D01*
X19133126Y19909719D01*
X19000000Y19930804D01*
X18866874Y19909719D01*
X18746780Y19848528D01*
X18695001Y19796749D01*
X18640487Y19768974D01*
X18580055Y19778545D01*
X18554999Y19796748D01*
X18503220Y19848528D01*
X18383126Y19909719D01*
X18250000Y19930804D01*
X18116874Y19909719D01*
X17996780Y19848528D01*
X17945001Y19796749D01*
X17890487Y19768974D01*
X17830055Y19778545D01*
X17804999Y19796748D01*
X17753220Y19848528D01*
X17633126Y19909719D01*
X17500000Y19930804D01*
X17366874Y19909719D01*
X17246780Y19848528D01*
X17195001Y19796749D01*
X17140487Y19768974D01*
X17080055Y19778545D01*
X17054999Y19796748D01*
X17003220Y19848528D01*
X16883126Y19909719D01*
X16750000Y19930804D01*
X16616874Y19909719D01*
X16496780Y19848528D01*
X16401472Y19753220D01*
X16401470Y19753217D01*
X16340282Y19633129D01*
X16340281Y19633127D01*
X16319196Y19500000D01*
X8500000Y19500000D01*
X8500000Y21500003D01*
X29445210Y21500003D01*
X29445210Y21499996D01*
X29464347Y21220209D01*
X29464349Y21220200D01*
X29521405Y20945628D01*
X29615321Y20681373D01*
X29744348Y20432363D01*
X29906075Y20203247D01*
X29906082Y20203238D01*
X29964215Y20140993D01*
X30280240Y20457018D01*
X30457018Y20280240D01*
X30140267Y19963489D01*
X30315043Y19821298D01*
X30315049Y19821294D01*
X30554656Y19675585D01*
X30554667Y19675579D01*
X30811888Y19563854D01*
X31081937Y19488189D01*
X31081944Y19488188D01*
X31359778Y19450000D01*
X31640221Y19450000D01*
X31918055Y19488188D01*
X31918062Y19488189D01*
X32188111Y19563854D01*
X32445332Y19675579D01*
X32445343Y19675585D01*
X32684950Y19821294D01*
X32684966Y19821305D01*
X32859732Y19963488D01*
X32542981Y20280239D01*
X32719759Y20457017D01*
X33035783Y20140993D01*
X33093924Y20203248D01*
X33093929Y20203254D01*
X33255651Y20432363D01*
X33384678Y20681373D01*
X33478594Y20945628D01*
X33535650Y21220200D01*
X33535652Y21220209D01*
X33554790Y21499996D01*
X33554790Y21500003D01*
X33535652Y21779790D01*
X33535650Y21779799D01*
X33478594Y22054371D01*
X33384678Y22318626D01*
X33255651Y22567636D01*
X33093929Y22796745D01*
X33093917Y22796759D01*
X33035783Y22859005D01*
X32719759Y22542982D01*
X32542982Y22719760D01*
X32859732Y23036510D01*
X32859733Y23036510D01*
X32684970Y23178691D01*
X32684953Y23178703D01*
X32445343Y23324414D01*
X32445332Y23324420D01*
X32188111Y23436145D01*
X31918062Y23511810D01*
X31918055Y23511811D01*
X31640221Y23549999D01*
X31640218Y23550000D01*
X31359782Y23550000D01*
X31359778Y23549999D01*
X31081944Y23511811D01*
X31081937Y23511810D01*
X30811888Y23436145D01*
X30554667Y23324420D01*
X30554656Y23324414D01*
X30315049Y23178705D01*
X30315033Y23178694D01*
X30140266Y23036510D01*
X30457017Y22719759D01*
X30280239Y22542981D01*
X29964215Y22859005D01*
X29906075Y22796751D01*
X29906070Y22796745D01*
X29744348Y22567636D01*
X29615321Y22318626D01*
X29521405Y22054371D01*
X29464349Y21779799D01*
X29464347Y21779790D01*
X29445210Y21500003D01*
X8500000Y21500003D01*
X8500000Y23800000D01*
X24569196Y23800000D01*
X24569196Y23799999D01*
X24590281Y23666872D01*
X24590282Y23666870D01*
X24651470Y23546782D01*
X24746782Y23451470D01*
X24866870Y23390282D01*
X24866872Y23390281D01*
X25000000Y23369196D01*
X25133127Y23390281D01*
X25133129Y23390282D01*
X25253217Y23451470D01*
X25253220Y23451472D01*
X25348528Y23546780D01*
X25409719Y23666874D01*
X25430804Y23800000D01*
X25409719Y23933126D01*
X25348528Y24053220D01*
X25253220Y24148528D01*
X25133126Y24209719D01*
X25000000Y24230804D01*
X24866874Y24209719D01*
X24746780Y24148528D01*
X24651472Y24053220D01*
X24651470Y24053217D01*
X24590282Y23933129D01*
X24590281Y23933127D01*
X24569196Y23800000D01*
X8500000Y23800000D01*
X8500000Y24600500D01*
X8518907Y24658691D01*
X8568407Y24694655D01*
X8599000Y24699500D01*
X27858745Y24699500D01*
X27916936Y24680593D01*
X27952900Y24631093D01*
X27952900Y24569907D01*
X27928750Y24530498D01*
X27851472Y24453220D01*
X27851470Y24453217D01*
X27790282Y24333129D01*
X27790281Y24333127D01*
X27769196Y24200000D01*
X27769196Y24199999D01*
X27790281Y24066872D01*
X27790282Y24066870D01*
X27851470Y23946782D01*
X27946782Y23851470D01*
X28066870Y23790282D01*
X28066872Y23790281D01*
X28200000Y23769196D01*
X28333127Y23790281D01*
X28333129Y23790282D01*
X28453217Y23851470D01*
X28453220Y23851472D01*
X28548528Y23946780D01*
X28609719Y24066874D01*
X28630804Y24200000D01*
X28609719Y24333126D01*
X28548528Y24453220D01*
X28471249Y24530498D01*
X28443474Y24585013D01*
X28453045Y24645445D01*
X28496310Y24688710D01*
X28541255Y24699500D01*
X31452405Y24699500D01*
X31497414Y24699500D01*
X31502595Y24699364D01*
X31829255Y24682244D01*
X31839561Y24681161D01*
X32160084Y24630395D01*
X32170220Y24628241D01*
X32483687Y24544247D01*
X32493542Y24541045D01*
X32796510Y24424748D01*
X32805977Y24420533D01*
X33095133Y24273200D01*
X33104107Y24268018D01*
X33376265Y24091277D01*
X33384649Y24085186D01*
X33636845Y23880961D01*
X33644546Y23874028D01*
X33874028Y23644546D01*
X33880961Y23636845D01*
X34085186Y23384649D01*
X34091277Y23376265D01*
X34268018Y23104107D01*
X34273200Y23095133D01*
X34420533Y22805977D01*
X34424748Y22796510D01*
X34541045Y22493542D01*
X34544247Y22483687D01*
X34628241Y22170220D01*
X34630395Y22160084D01*
X34681161Y21839561D01*
X34682244Y21829255D01*
X34699364Y21502595D01*
X34699500Y21497414D01*
X34699500Y-16497413D01*
X34699364Y-16502595D01*
X34682381Y-16826631D01*
X34681298Y-16836936D01*
X34630944Y-17154863D01*
X34628790Y-17164999D01*
X34545477Y-17475927D01*
X34542275Y-17485782D01*
X34426920Y-17786295D01*
X34422705Y-17795762D01*
X34276570Y-18082569D01*
X34271389Y-18091543D01*
X34096076Y-18361504D01*
X34089985Y-18369888D01*
X33887406Y-18620053D01*
X33880472Y-18627753D01*
X33652866Y-18855361D01*
X33645165Y-18862295D01*
X33395010Y-19064868D01*
X33386627Y-19070959D01*
X33116663Y-19246278D01*
X33107689Y-19251459D01*
X32820883Y-19397596D01*
X32811416Y-19401811D01*
X32510913Y-19517165D01*
X32501058Y-19520368D01*
X32190121Y-19603685D01*
X32179985Y-19605839D01*
X31862059Y-19656196D01*
X31851753Y-19657279D01*
X31528205Y-19674238D01*
X31523023Y-19674374D01*
X31470246Y-19674374D01*
X31469967Y-19674394D01*
X-31497391Y-19699499D01*
X-31502611Y-19699363D01*
X-31829255Y-19682244D01*
X-31839561Y-19681161D01*
X-32160085Y-19630395D01*
X-32170221Y-19628241D01*
X-32483693Y-19544247D01*
X-32493549Y-19541044D01*
X-32796506Y-19424749D01*
X-32805972Y-19420535D01*
X-33095133Y-19273201D01*
X-33104107Y-19268019D01*
X-33376259Y-19091281D01*
X-33384643Y-19085190D01*
X-33636851Y-18880956D01*
X-33644552Y-18874023D01*
X-33874023Y-18644552D01*
X-33880956Y-18636851D01*
X-34085190Y-18384643D01*
X-34091281Y-18376259D01*
X-34268019Y-18104107D01*
X-34273201Y-18095133D01*
X-34420535Y-17805972D01*
X-34424749Y-17796506D01*
X-34541044Y-17493549D01*
X-34544247Y-17483693D01*
X-34628241Y-17170221D01*
X-34630395Y-17160085D01*
X-34681161Y-16839561D01*
X-34682244Y-16829255D01*
X-34699364Y-16502595D01*
X-34699432Y-16499996D01*
X-33554790Y-16499996D01*
X-33554790Y-16500003D01*
X-33535652Y-16779790D01*
X-33535650Y-16779799D01*
X-33478594Y-17054371D01*
X-33384678Y-17318626D01*
X-33255651Y-17567636D01*
X-33093929Y-17796745D01*
X-33093917Y-17796759D01*
X-33035783Y-17859005D01*
X-32719759Y-17542982D01*
X-32542982Y-17719760D01*
X-32859732Y-18036510D01*
X-32859733Y-18036510D01*
X-32684970Y-18178691D01*
X-32684953Y-18178703D01*
X-32445343Y-18324414D01*
X-32445332Y-18324420D01*
X-32188111Y-18436145D01*
X-31918062Y-18511810D01*
X-31918055Y-18511811D01*
X-31640221Y-18549999D01*
X-31640218Y-18550000D01*
X-31359782Y-18550000D01*
X-31359778Y-18549999D01*
X-31081944Y-18511811D01*
X-31081937Y-18511810D01*
X-30811888Y-18436145D01*
X-30554667Y-18324420D01*
X-30554656Y-18324414D01*
X-30315049Y-18178705D01*
X-30315033Y-18178694D01*
X-30140266Y-18036510D01*
X-30457017Y-17719759D01*
X-30280239Y-17542981D01*
X-29964215Y-17859005D01*
X-29906075Y-17796751D01*
X-29906070Y-17796745D01*
X-29744348Y-17567636D01*
X-29615321Y-17318626D01*
X-29521405Y-17054371D01*
X-29464349Y-16779799D01*
X-29464347Y-16779790D01*
X-29445210Y-16500003D01*
X-29445210Y-16499996D01*
X-29452312Y-16396158D01*
X-26300500Y-16396158D01*
X-26300500Y-17103842D01*
X-26269737Y-17258497D01*
X-26209394Y-17404179D01*
X-26121789Y-17535289D01*
X-26010289Y-17646789D01*
X-25879179Y-17734394D01*
X-25733497Y-17794737D01*
X-25578842Y-17825500D01*
X-25578841Y-17825500D01*
X-25421159Y-17825500D01*
X-25421158Y-17825500D01*
X-25266503Y-17794737D01*
X-25266501Y-17794736D01*
X-25120825Y-17734396D01*
X-25120814Y-17734390D01*
X-25067876Y-17699017D01*
X-24989711Y-17646789D01*
X-24878211Y-17535289D01*
X-24839133Y-17476805D01*
X-24790609Y-17404185D01*
X-24790603Y-17404174D01*
X-24730263Y-17258498D01*
X-24730263Y-17258496D01*
X-24699500Y-17103844D01*
X-24699500Y-16396158D01*
X-24300500Y-16396158D01*
X-24300500Y-17103842D01*
X-24269737Y-17258497D01*
X-24209394Y-17404179D01*
X-24121789Y-17535289D01*
X-24010289Y-17646789D01*
X-23879179Y-17734394D01*
X-23733497Y-17794737D01*
X-23578842Y-17825500D01*
X-23578841Y-17825500D01*
X-23421159Y-17825500D01*
X-23421158Y-17825500D01*
X-23266503Y-17794737D01*
X-23266501Y-17794736D01*
X-23120825Y-17734396D01*
X-23120814Y-17734390D01*
X-23067876Y-17699017D01*
X-22989711Y-17646789D01*
X-22878211Y-17535289D01*
X-22839133Y-17476805D01*
X-22790609Y-17404185D01*
X-22790603Y-17404174D01*
X-22730263Y-17258498D01*
X-22730263Y-17258496D01*
X-22699500Y-17103844D01*
X-22699500Y-16396158D01*
X-22300500Y-16396158D01*
X-22300500Y-17103842D01*
X-22269737Y-17258497D01*
X-22209394Y-17404179D01*
X-22121789Y-17535289D01*
X-22010289Y-17646789D01*
X-21879179Y-17734394D01*
X-21733497Y-17794737D01*
X-21578842Y-17825500D01*
X-21578841Y-17825500D01*
X-21421159Y-17825500D01*
X-21421158Y-17825500D01*
X-21266503Y-17794737D01*
X-21266501Y-17794736D01*
X-21120825Y-17734396D01*
X-21120814Y-17734390D01*
X-21067876Y-17699017D01*
X-20989711Y-17646789D01*
X-20878211Y-17535289D01*
X-20839133Y-17476805D01*
X-20790609Y-17404185D01*
X-20790603Y-17404174D01*
X-20730263Y-17258498D01*
X-20730263Y-17258496D01*
X-20699500Y-17103844D01*
X-20699500Y-16396158D01*
X-20300500Y-16396158D01*
X-20300500Y-17103842D01*
X-20269737Y-17258497D01*
X-20209394Y-17404179D01*
X-20121789Y-17535289D01*
X-20010289Y-17646789D01*
X-19879179Y-17734394D01*
X-19733497Y-17794737D01*
X-19578842Y-17825500D01*
X-19578841Y-17825500D01*
X-19421159Y-17825500D01*
X-19421158Y-17825500D01*
X-19266503Y-17794737D01*
X-19266501Y-17794736D01*
X-19120825Y-17734396D01*
X-19120814Y-17734390D01*
X-19067876Y-17699017D01*
X-18989711Y-17646789D01*
X-18878211Y-17535289D01*
X-18839133Y-17476805D01*
X-18790609Y-17404185D01*
X-18790603Y-17404174D01*
X-18730263Y-17258498D01*
X-18730263Y-17258496D01*
X-18699500Y-17103844D01*
X-18699500Y-16396155D01*
X-18700469Y-16391283D01*
X-18350000Y-16391283D01*
X-18350000Y-16624999D01*
X-18349999Y-16625000D01*
X-17854735Y-16625000D01*
X-17875000Y-16700630D01*
X-17875000Y-16799370D01*
X-17854735Y-16875000D01*
X-18349999Y-16875000D01*
X-18350000Y-16875001D01*
X-18350000Y-17108716D01*
X-18349999Y-17108720D01*
X-18317335Y-17272934D01*
X-18253260Y-17427625D01*
X-18160240Y-17566840D01*
X-18041840Y-17685240D01*
X-17902625Y-17778260D01*
X-17747933Y-17842335D01*
X-17747934Y-17842335D01*
X-17625000Y-17866787D01*
X-17625000Y-17104734D01*
X-17549370Y-17125000D01*
X-17450630Y-17125000D01*
X-17375000Y-17104734D01*
X-17375000Y-17866787D01*
X-17374999Y-17866787D01*
X-17252066Y-17842335D01*
X-17097374Y-17778260D01*
X-16958159Y-17685240D01*
X-16839759Y-17566840D01*
X-16746739Y-17427625D01*
X-16682664Y-17272934D01*
X-16650000Y-17108720D01*
X-16650000Y-16875001D01*
X-16650001Y-16875000D01*
X-17145265Y-16875000D01*
X-17125000Y-16799370D01*
X-17125000Y-16700630D01*
X-17145265Y-16625000D01*
X-16650001Y-16625000D01*
X-16650000Y-16624999D01*
X-16650000Y-16391279D01*
X-16682664Y-16227065D01*
X-16746739Y-16072374D01*
X-16747839Y-16070727D01*
X-16300500Y-16070727D01*
X-16300500Y-17429273D01*
X-16300499Y-17429273D01*
X-16297646Y-17459699D01*
X-16252793Y-17587882D01*
X-16172150Y-17697150D01*
X-16062882Y-17777793D01*
X-15934699Y-17822646D01*
X-15904273Y-17825499D01*
X-15904273Y-17825500D01*
X-15904266Y-17825500D01*
X-15095727Y-17825500D01*
X-15095725Y-17825499D01*
X-15065301Y-17822646D01*
X-14937118Y-17777793D01*
X-14937117Y-17777792D01*
X-14937116Y-17777792D01*
X-14827855Y-17697154D01*
X-14827853Y-17697152D01*
X-14827850Y-17697150D01*
X-14827847Y-17697146D01*
X-14827845Y-17697144D01*
X-14747207Y-17587883D01*
X-14702355Y-17459703D01*
X-14702353Y-17459694D01*
X-14699500Y-17429274D01*
X-14699500Y-16070725D01*
X-14702353Y-16040305D01*
X-14702355Y-16040296D01*
X-14716456Y-15999997D01*
X870732Y-15999997D01*
X870732Y-16000002D01*
X889777Y-16254152D01*
X889779Y-16254161D01*
X946492Y-16502639D01*
X1024199Y-16700630D01*
X1039607Y-16739888D01*
X1167041Y-16960612D01*
X1167045Y-16960618D01*
X1167047Y-16960620D01*
X1325940Y-17159866D01*
X1325951Y-17159878D01*
X1512776Y-17333226D01*
X1512778Y-17333227D01*
X1512783Y-17333232D01*
X1723366Y-17476805D01*
X1952996Y-17587389D01*
X2196542Y-17662513D01*
X2448565Y-17700500D01*
X2448570Y-17700500D01*
X2703430Y-17700500D01*
X2703435Y-17700500D01*
X2955458Y-17662513D01*
X3199004Y-17587389D01*
X3428634Y-17476805D01*
X3639217Y-17333232D01*
X3826050Y-17159877D01*
X3984959Y-16960612D01*
X4112393Y-16739888D01*
X4205508Y-16502637D01*
X4229812Y-16396155D01*
X14699500Y-16396155D01*
X14699500Y-17103844D01*
X14730263Y-17258496D01*
X14730263Y-17258498D01*
X14790603Y-17404174D01*
X14790609Y-17404185D01*
X14839133Y-17476805D01*
X14878211Y-17535289D01*
X14989711Y-17646789D01*
X15067876Y-17699017D01*
X15120814Y-17734390D01*
X15120825Y-17734396D01*
X15174638Y-17756685D01*
X15266503Y-17794737D01*
X15421158Y-17825500D01*
X15421159Y-17825500D01*
X15578841Y-17825500D01*
X15578842Y-17825500D01*
X15733497Y-17794737D01*
X15879179Y-17734394D01*
X16010289Y-17646789D01*
X16121789Y-17535289D01*
X16209394Y-17404179D01*
X16269737Y-17258497D01*
X16300500Y-17103842D01*
X16300500Y-16396158D01*
X16300499Y-16396155D01*
X16699500Y-16396155D01*
X16699500Y-17103844D01*
X16730263Y-17258496D01*
X16730263Y-17258498D01*
X16790603Y-17404174D01*
X16790609Y-17404185D01*
X16839133Y-17476805D01*
X16878211Y-17535289D01*
X16989711Y-17646789D01*
X17067876Y-17699017D01*
X17120814Y-17734390D01*
X17120825Y-17734396D01*
X17174638Y-17756685D01*
X17266503Y-17794737D01*
X17421158Y-17825500D01*
X17421159Y-17825500D01*
X17578841Y-17825500D01*
X17578842Y-17825500D01*
X17733497Y-17794737D01*
X17879179Y-17734394D01*
X18010289Y-17646789D01*
X18121789Y-17535289D01*
X18209394Y-17404179D01*
X18269737Y-17258497D01*
X18300500Y-17103842D01*
X18300500Y-16396158D01*
X18300499Y-16396155D01*
X18699500Y-16396155D01*
X18699500Y-17103844D01*
X18730263Y-17258496D01*
X18730263Y-17258498D01*
X18790603Y-17404174D01*
X18790609Y-17404185D01*
X18839133Y-17476805D01*
X18878211Y-17535289D01*
X18989711Y-17646789D01*
X19067876Y-17699017D01*
X19120814Y-17734390D01*
X19120825Y-17734396D01*
X19174638Y-17756685D01*
X19266503Y-17794737D01*
X19421158Y-17825500D01*
X19421159Y-17825500D01*
X19578841Y-17825500D01*
X19578842Y-17825500D01*
X19733497Y-17794737D01*
X19879179Y-17734394D01*
X20010289Y-17646789D01*
X20121789Y-17535289D01*
X20209394Y-17404179D01*
X20269737Y-17258497D01*
X20300500Y-17103842D01*
X20300500Y-16396158D01*
X20300499Y-16396155D01*
X20699500Y-16396155D01*
X20699500Y-17103844D01*
X20730263Y-17258496D01*
X20730263Y-17258498D01*
X20790603Y-17404174D01*
X20790609Y-17404185D01*
X20839133Y-17476805D01*
X20878211Y-17535289D01*
X20989711Y-17646789D01*
X21067876Y-17699017D01*
X21120814Y-17734390D01*
X21120825Y-17734396D01*
X21174638Y-17756685D01*
X21266503Y-17794737D01*
X21421158Y-17825500D01*
X21421159Y-17825500D01*
X21578841Y-17825500D01*
X21578842Y-17825500D01*
X21733497Y-17794737D01*
X21879179Y-17734394D01*
X22010289Y-17646789D01*
X22121789Y-17535289D01*
X22209394Y-17404179D01*
X22269737Y-17258497D01*
X22300500Y-17103842D01*
X22300500Y-16396158D01*
X22299530Y-16391279D01*
X22650000Y-16391279D01*
X22650000Y-16624999D01*
X22650001Y-16625000D01*
X23145265Y-16625000D01*
X23125000Y-16700630D01*
X23125000Y-16799370D01*
X23145265Y-16875000D01*
X22650001Y-16875000D01*
X22650000Y-16875001D01*
X22650000Y-17108720D01*
X22682664Y-17272934D01*
X22746739Y-17427625D01*
X22839759Y-17566840D01*
X22958159Y-17685240D01*
X23097374Y-17778260D01*
X23252066Y-17842335D01*
X23252065Y-17842335D01*
X23374999Y-17866787D01*
X23375000Y-17866787D01*
X23375000Y-17104734D01*
X23450630Y-17125000D01*
X23549370Y-17125000D01*
X23625000Y-17104734D01*
X23625000Y-17866787D01*
X23747933Y-17842335D01*
X23902625Y-17778260D01*
X24041840Y-17685240D01*
X24160240Y-17566840D01*
X24253260Y-17427625D01*
X24317335Y-17272934D01*
X24349999Y-17108720D01*
X24350000Y-17108716D01*
X24350000Y-16875001D01*
X24349999Y-16875000D01*
X23854735Y-16875000D01*
X23875000Y-16799370D01*
X23875000Y-16700630D01*
X23854735Y-16625000D01*
X24349999Y-16625000D01*
X24350000Y-16624999D01*
X24350000Y-16391283D01*
X24349999Y-16391279D01*
X24317335Y-16227065D01*
X24253260Y-16072374D01*
X24252158Y-16070725D01*
X24699500Y-16070725D01*
X24699500Y-17429274D01*
X24702353Y-17459694D01*
X24702355Y-17459703D01*
X24747207Y-17587883D01*
X24827845Y-17697144D01*
X24827847Y-17697146D01*
X24827850Y-17697150D01*
X24827853Y-17697152D01*
X24827855Y-17697154D01*
X24937116Y-17777792D01*
X24937117Y-17777792D01*
X24937118Y-17777793D01*
X25065301Y-17822646D01*
X25095725Y-17825499D01*
X25095727Y-17825500D01*
X25095734Y-17825500D01*
X25904273Y-17825500D01*
X25904273Y-17825499D01*
X25934699Y-17822646D01*
X26062882Y-17777793D01*
X26172150Y-17697150D01*
X26252793Y-17587882D01*
X26297646Y-17459699D01*
X26300499Y-17429273D01*
X26300500Y-17429273D01*
X26300500Y-16499996D01*
X29445210Y-16499996D01*
X29445210Y-16500003D01*
X29464347Y-16779790D01*
X29464349Y-16779799D01*
X29521405Y-17054371D01*
X29615321Y-17318626D01*
X29744348Y-17567636D01*
X29906070Y-17796745D01*
X29906075Y-17796751D01*
X29964215Y-17859004D01*
X30280238Y-17542980D01*
X30457017Y-17719759D01*
X30140266Y-18036510D01*
X30140265Y-18036510D01*
X30315033Y-18178694D01*
X30315049Y-18178705D01*
X30554656Y-18324414D01*
X30554667Y-18324420D01*
X30811888Y-18436145D01*
X31081937Y-18511810D01*
X31081944Y-18511811D01*
X31359778Y-18549999D01*
X31359782Y-18550000D01*
X31640218Y-18550000D01*
X31640221Y-18549999D01*
X31918055Y-18511811D01*
X31918062Y-18511810D01*
X32188111Y-18436145D01*
X32445332Y-18324420D01*
X32445343Y-18324414D01*
X32684953Y-18178703D01*
X32684970Y-18178691D01*
X32859732Y-18036510D01*
X32542982Y-17719760D01*
X32719759Y-17542982D01*
X33035783Y-17859005D01*
X33093917Y-17796759D01*
X33093929Y-17796745D01*
X33255651Y-17567636D01*
X33384678Y-17318626D01*
X33478594Y-17054371D01*
X33535650Y-16779799D01*
X33535652Y-16779790D01*
X33554790Y-16500003D01*
X33554790Y-16499996D01*
X33535652Y-16220209D01*
X33535650Y-16220200D01*
X33478594Y-15945628D01*
X33384678Y-15681373D01*
X33255651Y-15432363D01*
X33093929Y-15203254D01*
X33093924Y-15203248D01*
X33035782Y-15140993D01*
X32719758Y-15457016D01*
X32542981Y-15280239D01*
X32859732Y-14963488D01*
X32859733Y-14963488D01*
X32684966Y-14821305D01*
X32684950Y-14821294D01*
X32445343Y-14675585D01*
X32445332Y-14675579D01*
X32188111Y-14563854D01*
X31918062Y-14488189D01*
X31918055Y-14488188D01*
X31640221Y-14450000D01*
X31359778Y-14450000D01*
X31081944Y-14488188D01*
X31081937Y-14488189D01*
X30811888Y-14563854D01*
X30554667Y-14675579D01*
X30554656Y-14675585D01*
X30315049Y-14821294D01*
X30315043Y-14821298D01*
X30140267Y-14963489D01*
X30457018Y-15280240D01*
X30280240Y-15457018D01*
X29964215Y-15140993D01*
X29964214Y-15140993D01*
X29906082Y-15203238D01*
X29906075Y-15203247D01*
X29744348Y-15432363D01*
X29615321Y-15681373D01*
X29521405Y-15945628D01*
X29464349Y-16220200D01*
X29464347Y-16220209D01*
X29445210Y-16499996D01*
X26300500Y-16499996D01*
X26300500Y-16070727D01*
X26300499Y-16070725D01*
X26297646Y-16040305D01*
X26297646Y-16040301D01*
X26252793Y-15912118D01*
X26233379Y-15885813D01*
X26172154Y-15802855D01*
X26172152Y-15802853D01*
X26172150Y-15802850D01*
X26172146Y-15802847D01*
X26172144Y-15802845D01*
X26062883Y-15722207D01*
X25934703Y-15677355D01*
X25934694Y-15677353D01*
X25904274Y-15674500D01*
X25904266Y-15674500D01*
X25095734Y-15674500D01*
X25095725Y-15674500D01*
X25065305Y-15677353D01*
X25065296Y-15677355D01*
X24937116Y-15722207D01*
X24827855Y-15802845D01*
X24827845Y-15802855D01*
X24747207Y-15912116D01*
X24702355Y-16040296D01*
X24702353Y-16040305D01*
X24699500Y-16070725D01*
X24252158Y-16070725D01*
X24160240Y-15933159D01*
X24041840Y-15814759D01*
X23902625Y-15721739D01*
X23747939Y-15657666D01*
X23747933Y-15657664D01*
X23625000Y-15633211D01*
X23625000Y-16395265D01*
X23549370Y-16375000D01*
X23450630Y-16375000D01*
X23375000Y-16395265D01*
X23375000Y-15633211D01*
X23252066Y-15657664D01*
X23252060Y-15657666D01*
X23097374Y-15721739D01*
X22958159Y-15814759D01*
X22839759Y-15933159D01*
X22746739Y-16072374D01*
X22682664Y-16227065D01*
X22650000Y-16391279D01*
X22299530Y-16391279D01*
X22269737Y-16241503D01*
X22209394Y-16095821D01*
X22209393Y-16095819D01*
X22209390Y-16095814D01*
X22172293Y-16040296D01*
X22121789Y-15964711D01*
X22010289Y-15853211D01*
X21934911Y-15802845D01*
X21879185Y-15765609D01*
X21879174Y-15765603D01*
X21733497Y-15705263D01*
X21578844Y-15674500D01*
X21578842Y-15674500D01*
X21421158Y-15674500D01*
X21421155Y-15674500D01*
X21266503Y-15705263D01*
X21266501Y-15705263D01*
X21120825Y-15765603D01*
X21120814Y-15765609D01*
X20989711Y-15853211D01*
X20989707Y-15853214D01*
X20878214Y-15964707D01*
X20878211Y-15964711D01*
X20790609Y-16095814D01*
X20790603Y-16095825D01*
X20730263Y-16241501D01*
X20730263Y-16241503D01*
X20699500Y-16396155D01*
X20300499Y-16396155D01*
X20269737Y-16241503D01*
X20209394Y-16095821D01*
X20209393Y-16095819D01*
X20209390Y-16095814D01*
X20172293Y-16040296D01*
X20121789Y-15964711D01*
X20010289Y-15853211D01*
X19934911Y-15802845D01*
X19879185Y-15765609D01*
X19879174Y-15765603D01*
X19733497Y-15705263D01*
X19578844Y-15674500D01*
X19578842Y-15674500D01*
X19421158Y-15674500D01*
X19421155Y-15674500D01*
X19266503Y-15705263D01*
X19266501Y-15705263D01*
X19120825Y-15765603D01*
X19120814Y-15765609D01*
X18989711Y-15853211D01*
X18989707Y-15853214D01*
X18878214Y-15964707D01*
X18878211Y-15964711D01*
X18790609Y-16095814D01*
X18790603Y-16095825D01*
X18730263Y-16241501D01*
X18730263Y-16241503D01*
X18699500Y-16396155D01*
X18300499Y-16396155D01*
X18269737Y-16241503D01*
X18209394Y-16095821D01*
X18209393Y-16095819D01*
X18209390Y-16095814D01*
X18172293Y-16040296D01*
X18121789Y-15964711D01*
X18010289Y-15853211D01*
X17934911Y-15802845D01*
X17879185Y-15765609D01*
X17879174Y-15765603D01*
X17733497Y-15705263D01*
X17578844Y-15674500D01*
X17578842Y-15674500D01*
X17421158Y-15674500D01*
X17421155Y-15674500D01*
X17266503Y-15705263D01*
X17266501Y-15705263D01*
X17120825Y-15765603D01*
X17120814Y-15765609D01*
X16989711Y-15853211D01*
X16989707Y-15853214D01*
X16878214Y-15964707D01*
X16878211Y-15964711D01*
X16790609Y-16095814D01*
X16790603Y-16095825D01*
X16730263Y-16241501D01*
X16730263Y-16241503D01*
X16699500Y-16396155D01*
X16300499Y-16396155D01*
X16269737Y-16241503D01*
X16209394Y-16095821D01*
X16209393Y-16095819D01*
X16209390Y-16095814D01*
X16172293Y-16040296D01*
X16121789Y-15964711D01*
X16010289Y-15853211D01*
X15934911Y-15802845D01*
X15879185Y-15765609D01*
X15879174Y-15765603D01*
X15733497Y-15705263D01*
X15578844Y-15674500D01*
X15578842Y-15674500D01*
X15421158Y-15674500D01*
X15421155Y-15674500D01*
X15266503Y-15705263D01*
X15266501Y-15705263D01*
X15120825Y-15765603D01*
X15120814Y-15765609D01*
X14989711Y-15853211D01*
X14989707Y-15853214D01*
X14878214Y-15964707D01*
X14878211Y-15964711D01*
X14790609Y-16095814D01*
X14790603Y-16095825D01*
X14730263Y-16241501D01*
X14730263Y-16241503D01*
X14699500Y-16396155D01*
X4229812Y-16396155D01*
X4262222Y-16254157D01*
X4281268Y-16000000D01*
X4277193Y-15945628D01*
X4266494Y-15802850D01*
X4262222Y-15745843D01*
X4205508Y-15497363D01*
X4112393Y-15260112D01*
X3984959Y-15039388D01*
X3984952Y-15039379D01*
X3826059Y-14840133D01*
X3826048Y-14840121D01*
X3639223Y-14666773D01*
X3639220Y-14666771D01*
X3639217Y-14666768D01*
X3428634Y-14523195D01*
X3355943Y-14488189D01*
X3199004Y-14412611D01*
X2955462Y-14337488D01*
X2955459Y-14337487D01*
X2955458Y-14337487D01*
X2955453Y-14337486D01*
X2955452Y-14337486D01*
X2703438Y-14299500D01*
X2703435Y-14299500D01*
X2448565Y-14299500D01*
X2448561Y-14299500D01*
X2196547Y-14337486D01*
X2196537Y-14337488D01*
X1952995Y-14412611D01*
X1723373Y-14523191D01*
X1723369Y-14523193D01*
X1723366Y-14523195D01*
X1512783Y-14666768D01*
X1512776Y-14666773D01*
X1325951Y-14840121D01*
X1325940Y-14840133D01*
X1167047Y-15039379D01*
X1167043Y-15039384D01*
X1167041Y-15039388D01*
X1113828Y-15131557D01*
X1039608Y-15260109D01*
X1039604Y-15260118D01*
X946492Y-15497360D01*
X889779Y-15745838D01*
X889777Y-15745847D01*
X870732Y-15999997D01*
X-14716456Y-15999997D01*
X-14747207Y-15912116D01*
X-14827845Y-15802855D01*
X-14827855Y-15802845D01*
X-14937116Y-15722207D01*
X-15065296Y-15677355D01*
X-15065305Y-15677353D01*
X-15095725Y-15674500D01*
X-15095734Y-15674500D01*
X-15904266Y-15674500D01*
X-15904274Y-15674500D01*
X-15934694Y-15677353D01*
X-15934703Y-15677355D01*
X-16062883Y-15722207D01*
X-16172144Y-15802845D01*
X-16172146Y-15802847D01*
X-16172150Y-15802850D01*
X-16172152Y-15802853D01*
X-16172154Y-15802855D01*
X-16233379Y-15885813D01*
X-16252793Y-15912118D01*
X-16297646Y-16040301D01*
X-16297646Y-16040305D01*
X-16300499Y-16070725D01*
X-16300500Y-16070727D01*
X-16747839Y-16070727D01*
X-16839759Y-15933159D01*
X-16958159Y-15814759D01*
X-17097374Y-15721739D01*
X-17252060Y-15657666D01*
X-17252066Y-15657664D01*
X-17375000Y-15633211D01*
X-17375000Y-16395265D01*
X-17450630Y-16375000D01*
X-17549370Y-16375000D01*
X-17625000Y-16395265D01*
X-17625000Y-15633211D01*
X-17747933Y-15657664D01*
X-17747939Y-15657666D01*
X-17902625Y-15721739D01*
X-18041840Y-15814759D01*
X-18160240Y-15933159D01*
X-18253260Y-16072374D01*
X-18317335Y-16227065D01*
X-18349999Y-16391279D01*
X-18350000Y-16391283D01*
X-18700469Y-16391283D01*
X-18730263Y-16241503D01*
X-18730263Y-16241501D01*
X-18790603Y-16095825D01*
X-18790609Y-16095814D01*
X-18878211Y-15964711D01*
X-18878214Y-15964707D01*
X-18989707Y-15853214D01*
X-18989711Y-15853211D01*
X-19120814Y-15765609D01*
X-19120825Y-15765603D01*
X-19266502Y-15705263D01*
X-19421155Y-15674500D01*
X-19421158Y-15674500D01*
X-19578842Y-15674500D01*
X-19578844Y-15674500D01*
X-19681945Y-15695008D01*
X-19733497Y-15705263D01*
X-19733498Y-15705263D01*
X-19879174Y-15765603D01*
X-19879185Y-15765609D01*
X-19934911Y-15802845D01*
X-20010289Y-15853211D01*
X-20121789Y-15964711D01*
X-20172293Y-16040296D01*
X-20209390Y-16095814D01*
X-20209393Y-16095819D01*
X-20209394Y-16095821D01*
X-20269737Y-16241503D01*
X-20300500Y-16396158D01*
X-20699500Y-16396158D01*
X-20699500Y-16396155D01*
X-20730263Y-16241503D01*
X-20730263Y-16241501D01*
X-20790603Y-16095825D01*
X-20790609Y-16095814D01*
X-20878211Y-15964711D01*
X-20878214Y-15964707D01*
X-20989707Y-15853214D01*
X-20989711Y-15853211D01*
X-21120814Y-15765609D01*
X-21120825Y-15765603D01*
X-21266502Y-15705263D01*
X-21421155Y-15674500D01*
X-21421158Y-15674500D01*
X-21578842Y-15674500D01*
X-21578844Y-15674500D01*
X-21681945Y-15695008D01*
X-21733497Y-15705263D01*
X-21733498Y-15705263D01*
X-21879174Y-15765603D01*
X-21879185Y-15765609D01*
X-21934911Y-15802845D01*
X-22010289Y-15853211D01*
X-22121789Y-15964711D01*
X-22172293Y-16040296D01*
X-22209390Y-16095814D01*
X-22209393Y-16095819D01*
X-22209394Y-16095821D01*
X-22269737Y-16241503D01*
X-22300500Y-16396158D01*
X-22699500Y-16396158D01*
X-22699500Y-16396155D01*
X-22730263Y-16241503D01*
X-22730263Y-16241501D01*
X-22790603Y-16095825D01*
X-22790609Y-16095814D01*
X-22878211Y-15964711D01*
X-22878214Y-15964707D01*
X-22989707Y-15853214D01*
X-22989711Y-15853211D01*
X-23120814Y-15765609D01*
X-23120825Y-15765603D01*
X-23266502Y-15705263D01*
X-23421155Y-15674500D01*
X-23421158Y-15674500D01*
X-23578842Y-15674500D01*
X-23578844Y-15674500D01*
X-23681945Y-15695008D01*
X-23733497Y-15705263D01*
X-23733498Y-15705263D01*
X-23879174Y-15765603D01*
X-23879185Y-15765609D01*
X-23934911Y-15802845D01*
X-24010289Y-15853211D01*
X-24121789Y-15964711D01*
X-24172293Y-16040296D01*
X-24209390Y-16095814D01*
X-24209393Y-16095819D01*
X-24209394Y-16095821D01*
X-24269737Y-16241503D01*
X-24300500Y-16396158D01*
X-24699500Y-16396158D01*
X-24699500Y-16396155D01*
X-24730263Y-16241503D01*
X-24730263Y-16241501D01*
X-24790603Y-16095825D01*
X-24790609Y-16095814D01*
X-24878211Y-15964711D01*
X-24878214Y-15964707D01*
X-24989707Y-15853214D01*
X-24989711Y-15853211D01*
X-25120814Y-15765609D01*
X-25120825Y-15765603D01*
X-25266502Y-15705263D01*
X-25421155Y-15674500D01*
X-25421158Y-15674500D01*
X-25578842Y-15674500D01*
X-25578844Y-15674500D01*
X-25681945Y-15695008D01*
X-25733497Y-15705263D01*
X-25733498Y-15705263D01*
X-25879174Y-15765603D01*
X-25879185Y-15765609D01*
X-25934911Y-15802845D01*
X-26010289Y-15853211D01*
X-26121789Y-15964711D01*
X-26172293Y-16040296D01*
X-26209390Y-16095814D01*
X-26209393Y-16095819D01*
X-26209394Y-16095821D01*
X-26269737Y-16241503D01*
X-26300500Y-16396158D01*
X-29452312Y-16396158D01*
X-29464347Y-16220209D01*
X-29464349Y-16220200D01*
X-29521405Y-15945628D01*
X-29615321Y-15681373D01*
X-29744348Y-15432363D01*
X-29906075Y-15203247D01*
X-29906082Y-15203238D01*
X-29964215Y-15140993D01*
X-30280240Y-15457018D01*
X-30457018Y-15280240D01*
X-30140267Y-14963489D01*
X-30315043Y-14821298D01*
X-30315049Y-14821294D01*
X-30554656Y-14675585D01*
X-30554667Y-14675579D01*
X-30811888Y-14563854D01*
X-31081937Y-14488189D01*
X-31081944Y-14488188D01*
X-31359778Y-14450000D01*
X-31640221Y-14450000D01*
X-31918055Y-14488188D01*
X-31918062Y-14488189D01*
X-32188111Y-14563854D01*
X-32445332Y-14675579D01*
X-32445343Y-14675585D01*
X-32684950Y-14821294D01*
X-32684966Y-14821305D01*
X-32859732Y-14963488D01*
X-32542981Y-15280239D01*
X-32719759Y-15457017D01*
X-33035783Y-15140993D01*
X-33093924Y-15203248D01*
X-33093929Y-15203254D01*
X-33255651Y-15432363D01*
X-33384678Y-15681373D01*
X-33478594Y-15945628D01*
X-33535650Y-16220200D01*
X-33535652Y-16220209D01*
X-33554790Y-16499996D01*
X-34699432Y-16499996D01*
X-34699500Y-16497414D01*
X-34699500Y-14000000D01*
X-18130804Y-14000000D01*
X-18109719Y-14133126D01*
X-18048528Y-14253220D01*
X-17953220Y-14348528D01*
X-17833126Y-14409719D01*
X-17700000Y-14430804D01*
X-17566874Y-14409719D01*
X-17446780Y-14348528D01*
X-17351472Y-14253220D01*
X-17351470Y-14253217D01*
X-17290282Y-14133129D01*
X-17290281Y-14133127D01*
X-17269196Y-14000000D01*
X-17269196Y-13999999D01*
X-17290281Y-13866872D01*
X-17290282Y-13866870D01*
X-17351470Y-13746782D01*
X-17446782Y-13651470D01*
X-17566870Y-13590282D01*
X-17566872Y-13590281D01*
X-17700000Y-13569196D01*
X-17833127Y-13590281D01*
X-17833129Y-13590282D01*
X-17953217Y-13651470D01*
X-17953220Y-13651472D01*
X-18048528Y-13746780D01*
X-18109719Y-13866874D01*
X-18130804Y-14000000D01*
X-34699500Y-14000000D01*
X-34699500Y-12500000D01*
X-16730804Y-12500000D01*
X-16709719Y-12633126D01*
X-16648528Y-12753220D01*
X-16553220Y-12848528D01*
X-16433126Y-12909719D01*
X-16300000Y-12930804D01*
X-16166874Y-12909719D01*
X-16046780Y-12848528D01*
X-15951472Y-12753220D01*
X-15951470Y-12753217D01*
X-15890282Y-12633129D01*
X-15890281Y-12633127D01*
X-15869196Y-12500000D01*
X-15869196Y-12499999D01*
X-15890281Y-12366872D01*
X-15890282Y-12366870D01*
X-15951470Y-12246782D01*
X-16046782Y-12151470D01*
X-16166870Y-12090282D01*
X-16166872Y-12090281D01*
X-16300000Y-12069196D01*
X-16433127Y-12090281D01*
X-16433129Y-12090282D01*
X-16553217Y-12151470D01*
X-16553220Y-12151472D01*
X-16648528Y-12246780D01*
X-16709719Y-12366874D01*
X-16730804Y-12500000D01*
X-34699500Y-12500000D01*
X-34699500Y-10846158D01*
X-33200500Y-10846158D01*
X-33200500Y-11553842D01*
X-33169737Y-11708497D01*
X-33109394Y-11854179D01*
X-33021789Y-11985289D01*
X-32910289Y-12096789D01*
X-32779179Y-12184394D01*
X-32633497Y-12244737D01*
X-32478842Y-12275500D01*
X-32478841Y-12275500D01*
X-32321159Y-12275500D01*
X-32321158Y-12275500D01*
X-32166503Y-12244737D01*
X-32166501Y-12244736D01*
X-32020825Y-12184396D01*
X-32020814Y-12184390D01*
X-31967876Y-12149017D01*
X-31889711Y-12096789D01*
X-31778211Y-11985289D01*
X-31741805Y-11930804D01*
X-31690609Y-11854185D01*
X-31690603Y-11854174D01*
X-31630263Y-11708498D01*
X-31630263Y-11708496D01*
X-31599500Y-11553844D01*
X-31599500Y-10846158D01*
X-31200500Y-10846158D01*
X-31200500Y-11553842D01*
X-31169737Y-11708497D01*
X-31109394Y-11854179D01*
X-31021789Y-11985289D01*
X-30910289Y-12096789D01*
X-30779179Y-12184394D01*
X-30633497Y-12244737D01*
X-30478842Y-12275500D01*
X-30478841Y-12275500D01*
X-30321159Y-12275500D01*
X-30321158Y-12275500D01*
X-30166503Y-12244737D01*
X-30166501Y-12244736D01*
X-30020825Y-12184396D01*
X-30020814Y-12184390D01*
X-29967876Y-12149017D01*
X-29889711Y-12096789D01*
X-29778211Y-11985289D01*
X-29741805Y-11930804D01*
X-29690609Y-11854185D01*
X-29690603Y-11854174D01*
X-29630263Y-11708498D01*
X-29630263Y-11708496D01*
X-29599500Y-11553844D01*
X-29599500Y-10846158D01*
X-29200500Y-10846158D01*
X-29200500Y-11553842D01*
X-29169737Y-11708497D01*
X-29109394Y-11854179D01*
X-29021789Y-11985289D01*
X-28910289Y-12096789D01*
X-28779179Y-12184394D01*
X-28633497Y-12244737D01*
X-28478842Y-12275500D01*
X-28478841Y-12275500D01*
X-28321159Y-12275500D01*
X-28321158Y-12275500D01*
X-28166503Y-12244737D01*
X-28166501Y-12244736D01*
X-28020825Y-12184396D01*
X-28020814Y-12184390D01*
X-27967876Y-12149017D01*
X-27889711Y-12096789D01*
X-27778211Y-11985289D01*
X-27741805Y-11930804D01*
X-27690609Y-11854185D01*
X-27690603Y-11854174D01*
X-27630263Y-11708498D01*
X-27630263Y-11708496D01*
X-27599500Y-11553844D01*
X-27599500Y-10846158D01*
X-27200500Y-10846158D01*
X-27200500Y-11553842D01*
X-27169737Y-11708497D01*
X-27109394Y-11854179D01*
X-27021789Y-11985289D01*
X-26910289Y-12096789D01*
X-26779179Y-12184394D01*
X-26633497Y-12244737D01*
X-26478842Y-12275500D01*
X-26478841Y-12275500D01*
X-26321159Y-12275500D01*
X-26321158Y-12275500D01*
X-26166503Y-12244737D01*
X-26166501Y-12244736D01*
X-26020825Y-12184396D01*
X-26020814Y-12184390D01*
X-25967876Y-12149017D01*
X-25889711Y-12096789D01*
X-25778211Y-11985289D01*
X-25741805Y-11930804D01*
X-25690609Y-11854185D01*
X-25690603Y-11854174D01*
X-25630263Y-11708498D01*
X-25630263Y-11708496D01*
X-25599500Y-11553844D01*
X-25599500Y-10846155D01*
X-25600469Y-10841283D01*
X-25250000Y-10841283D01*
X-25250000Y-11074999D01*
X-25249999Y-11075000D01*
X-24754735Y-11075000D01*
X-24775000Y-11150630D01*
X-24775000Y-11249370D01*
X-24754735Y-11325000D01*
X-25249999Y-11325000D01*
X-25250000Y-11325001D01*
X-25250000Y-11558716D01*
X-25249999Y-11558720D01*
X-25217335Y-11722934D01*
X-25153260Y-11877625D01*
X-25060240Y-12016840D01*
X-24941840Y-12135240D01*
X-24802625Y-12228260D01*
X-24647933Y-12292335D01*
X-24647934Y-12292335D01*
X-24525000Y-12316787D01*
X-24525000Y-11554734D01*
X-24449370Y-11575000D01*
X-24350630Y-11575000D01*
X-24275000Y-11554734D01*
X-24275000Y-12316787D01*
X-24274999Y-12316787D01*
X-24152066Y-12292335D01*
X-23997374Y-12228260D01*
X-23858159Y-12135240D01*
X-23739759Y-12016840D01*
X-23646739Y-11877625D01*
X-23582664Y-11722934D01*
X-23550000Y-11558720D01*
X-23550000Y-11325001D01*
X-23550001Y-11325000D01*
X-24045265Y-11325000D01*
X-24025000Y-11249370D01*
X-24025000Y-11150630D01*
X-24045265Y-11075000D01*
X-23550001Y-11075000D01*
X-23550000Y-11074999D01*
X-23550000Y-10841279D01*
X-23582664Y-10677065D01*
X-23646739Y-10522374D01*
X-23647839Y-10520727D01*
X-23200500Y-10520727D01*
X-23200500Y-11879273D01*
X-23200499Y-11879273D01*
X-23197646Y-11909699D01*
X-23152793Y-12037882D01*
X-23072150Y-12147150D01*
X-22962882Y-12227793D01*
X-22834699Y-12272646D01*
X-22804273Y-12275499D01*
X-22804273Y-12275500D01*
X-22804266Y-12275500D01*
X-21995727Y-12275500D01*
X-21995725Y-12275499D01*
X-21965301Y-12272646D01*
X-21837118Y-12227793D01*
X-21837117Y-12227792D01*
X-21837116Y-12227792D01*
X-21727855Y-12147154D01*
X-21727853Y-12147152D01*
X-21727850Y-12147150D01*
X-21727847Y-12147146D01*
X-21727845Y-12147144D01*
X-21647207Y-12037883D01*
X-21602355Y-11909703D01*
X-21602353Y-11909694D01*
X-21599500Y-11879274D01*
X-21599500Y-10700000D01*
X-11630804Y-10700000D01*
X-11609719Y-10833126D01*
X-11548528Y-10953220D01*
X-11548526Y-10953221D01*
X-11547593Y-10955054D01*
X-11538021Y-11015486D01*
X-11547593Y-11044946D01*
X-11548526Y-11046778D01*
X-11548528Y-11046780D01*
X-11609719Y-11166874D01*
X-11630804Y-11300000D01*
X-11609719Y-11433126D01*
X-11548528Y-11553220D01*
X-11548526Y-11553221D01*
X-11547593Y-11555054D01*
X-11538021Y-11615486D01*
X-11547593Y-11644946D01*
X-11548526Y-11646778D01*
X-11548528Y-11646780D01*
X-11609719Y-11766874D01*
X-11630804Y-11900000D01*
X-11609719Y-12033126D01*
X-11548528Y-12153220D01*
X-11453220Y-12248528D01*
X-11333126Y-12309719D01*
X-11200000Y-12330804D01*
X-11066874Y-12309719D01*
X-10946780Y-12248528D01*
X-10851472Y-12153220D01*
X-10848376Y-12147144D01*
X-10790282Y-12033129D01*
X-10790281Y-12033127D01*
X-10769196Y-11900000D01*
X-10769196Y-11899999D01*
X-10779721Y-11833546D01*
X-10770150Y-11773114D01*
X-10726885Y-11729849D01*
X-10666455Y-11720278D01*
X-10600000Y-11730804D01*
X-10466874Y-11709719D01*
X-10346780Y-11648528D01*
X-10251472Y-11553220D01*
X-10224355Y-11500000D01*
X-10190282Y-11433129D01*
X-10190281Y-11433127D01*
X-10169196Y-11300000D01*
X-10169196Y-11299999D01*
X-10190281Y-11166872D01*
X-10190282Y-11166870D01*
X-10251470Y-11046782D01*
X-10346782Y-10951470D01*
X-10466870Y-10890282D01*
X-10466872Y-10890281D01*
X-10600000Y-10869196D01*
X-10666453Y-10879721D01*
X-10726885Y-10870150D01*
X-10770150Y-10826885D01*
X-10779721Y-10766453D01*
X-10769196Y-10700000D01*
X-10769196Y-10699999D01*
X-10790281Y-10566872D01*
X-10790282Y-10566870D01*
X-10851470Y-10446782D01*
X-10946782Y-10351470D01*
X-11066870Y-10290282D01*
X-11066872Y-10290281D01*
X-11200000Y-10269196D01*
X-11333127Y-10290281D01*
X-11333129Y-10290282D01*
X-11453217Y-10351470D01*
X-11453220Y-10351472D01*
X-11548528Y-10446780D01*
X-11609719Y-10566874D01*
X-11630804Y-10700000D01*
X-21599500Y-10700000D01*
X-21599500Y-10520725D01*
X-21602353Y-10490305D01*
X-21602355Y-10490296D01*
X-21647207Y-10362116D01*
X-21727845Y-10252855D01*
X-21727855Y-10252845D01*
X-21837116Y-10172207D01*
X-21965296Y-10127355D01*
X-21965305Y-10127353D01*
X-21995725Y-10124500D01*
X-21995734Y-10124500D01*
X-22804266Y-10124500D01*
X-22804274Y-10124500D01*
X-22834694Y-10127353D01*
X-22834703Y-10127355D01*
X-22962883Y-10172207D01*
X-23072144Y-10252845D01*
X-23072146Y-10252847D01*
X-23072150Y-10252850D01*
X-23072152Y-10252853D01*
X-23072154Y-10252855D01*
X-23144934Y-10351470D01*
X-23152793Y-10362118D01*
X-23197646Y-10490301D01*
X-23200499Y-10520725D01*
X-23200500Y-10520727D01*
X-23647839Y-10520727D01*
X-23739759Y-10383159D01*
X-23858159Y-10264759D01*
X-23997374Y-10171739D01*
X-24152060Y-10107666D01*
X-24152066Y-10107664D01*
X-24275000Y-10083211D01*
X-24275000Y-10845265D01*
X-24350630Y-10825000D01*
X-24449370Y-10825000D01*
X-24525000Y-10845265D01*
X-24525000Y-10083211D01*
X-24647933Y-10107664D01*
X-24647939Y-10107666D01*
X-24802625Y-10171739D01*
X-24941840Y-10264759D01*
X-25060240Y-10383159D01*
X-25153260Y-10522374D01*
X-25217335Y-10677065D01*
X-25249999Y-10841279D01*
X-25250000Y-10841283D01*
X-25600469Y-10841283D01*
X-25630263Y-10691503D01*
X-25630263Y-10691501D01*
X-25690603Y-10545825D01*
X-25690609Y-10545814D01*
X-25778211Y-10414711D01*
X-25778214Y-10414707D01*
X-25889707Y-10303214D01*
X-25889711Y-10303211D01*
X-26020814Y-10215609D01*
X-26020825Y-10215603D01*
X-26166502Y-10155263D01*
X-26321155Y-10124500D01*
X-26321158Y-10124500D01*
X-26478842Y-10124500D01*
X-26478844Y-10124500D01*
X-26581945Y-10145008D01*
X-26633497Y-10155263D01*
X-26633498Y-10155263D01*
X-26779174Y-10215603D01*
X-26779185Y-10215609D01*
X-26834911Y-10252845D01*
X-26910289Y-10303211D01*
X-27021789Y-10414711D01*
X-27043218Y-10446782D01*
X-27109390Y-10545814D01*
X-27109396Y-10545825D01*
X-27121988Y-10576225D01*
X-27169737Y-10691503D01*
X-27200500Y-10846158D01*
X-27599500Y-10846158D01*
X-27599500Y-10846155D01*
X-27630263Y-10691503D01*
X-27630263Y-10691501D01*
X-27690603Y-10545825D01*
X-27690609Y-10545814D01*
X-27778211Y-10414711D01*
X-27778214Y-10414707D01*
X-27889707Y-10303214D01*
X-27889711Y-10303211D01*
X-28020814Y-10215609D01*
X-28020825Y-10215603D01*
X-28166502Y-10155263D01*
X-28321155Y-10124500D01*
X-28321158Y-10124500D01*
X-28478842Y-10124500D01*
X-28478844Y-10124500D01*
X-28581945Y-10145008D01*
X-28633497Y-10155263D01*
X-28633498Y-10155263D01*
X-28779174Y-10215603D01*
X-28779185Y-10215609D01*
X-28834911Y-10252845D01*
X-28910289Y-10303211D01*
X-29021789Y-10414711D01*
X-29043218Y-10446782D01*
X-29109390Y-10545814D01*
X-29109396Y-10545825D01*
X-29121988Y-10576225D01*
X-29169737Y-10691503D01*
X-29200500Y-10846158D01*
X-29599500Y-10846158D01*
X-29599500Y-10846155D01*
X-29630263Y-10691503D01*
X-29630263Y-10691501D01*
X-29690603Y-10545825D01*
X-29690609Y-10545814D01*
X-29778211Y-10414711D01*
X-29778214Y-10414707D01*
X-29889707Y-10303214D01*
X-29889711Y-10303211D01*
X-30020814Y-10215609D01*
X-30020825Y-10215603D01*
X-30166502Y-10155263D01*
X-30321155Y-10124500D01*
X-30321158Y-10124500D01*
X-30478842Y-10124500D01*
X-30478844Y-10124500D01*
X-30581945Y-10145008D01*
X-30633497Y-10155263D01*
X-30633498Y-10155263D01*
X-30779174Y-10215603D01*
X-30779185Y-10215609D01*
X-30834911Y-10252845D01*
X-30910289Y-10303211D01*
X-31021789Y-10414711D01*
X-31043218Y-10446782D01*
X-31109390Y-10545814D01*
X-31109396Y-10545825D01*
X-31121988Y-10576225D01*
X-31169737Y-10691503D01*
X-31200500Y-10846158D01*
X-31599500Y-10846158D01*
X-31599500Y-10846155D01*
X-31630263Y-10691503D01*
X-31630263Y-10691501D01*
X-31690603Y-10545825D01*
X-31690609Y-10545814D01*
X-31778211Y-10414711D01*
X-31778214Y-10414707D01*
X-31889707Y-10303214D01*
X-31889711Y-10303211D01*
X-32020814Y-10215609D01*
X-32020825Y-10215603D01*
X-32166502Y-10155263D01*
X-32321155Y-10124500D01*
X-32321158Y-10124500D01*
X-32478842Y-10124500D01*
X-32478844Y-10124500D01*
X-32581945Y-10145008D01*
X-32633497Y-10155263D01*
X-32633498Y-10155263D01*
X-32779174Y-10215603D01*
X-32779185Y-10215609D01*
X-32834911Y-10252845D01*
X-32910289Y-10303211D01*
X-33021789Y-10414711D01*
X-33043218Y-10446782D01*
X-33109390Y-10545814D01*
X-33109396Y-10545825D01*
X-33121988Y-10576225D01*
X-33169737Y-10691503D01*
X-33200500Y-10846158D01*
X-34699500Y-10846158D01*
X-34699500Y-6925000D01*
X-13235804Y-6925000D01*
X-13214719Y-7058126D01*
X-13153528Y-7178220D01*
X-13058220Y-7273528D01*
X-12938126Y-7334719D01*
X-12805000Y-7355804D01*
X-12671874Y-7334719D01*
X-12668749Y-7333127D01*
X-12551782Y-7273529D01*
X-12551780Y-7273528D01*
X-12456472Y-7178220D01*
X-12456470Y-7178217D01*
X-12395282Y-7058129D01*
X-12395281Y-7058127D01*
X-12374196Y-6925000D01*
X-12374196Y-6924999D01*
X-12395281Y-6791872D01*
X-12395282Y-6791870D01*
X-12456470Y-6671782D01*
X-12551782Y-6576470D01*
X-12671870Y-6515282D01*
X-12671872Y-6515281D01*
X-12805000Y-6494196D01*
X-12938127Y-6515281D01*
X-12938129Y-6515282D01*
X-13058217Y-6576470D01*
X-13058220Y-6576472D01*
X-13153528Y-6671780D01*
X-13214719Y-6791874D01*
X-13235804Y-6925000D01*
X-34699500Y-6925000D01*
X-34699500Y-6300000D01*
X-25230804Y-6300000D01*
X-25209719Y-6433126D01*
X-25148528Y-6553220D01*
X-25053220Y-6648528D01*
X-24933126Y-6709719D01*
X-24800000Y-6730804D01*
X-24666874Y-6709719D01*
X-24546780Y-6648528D01*
X-24451472Y-6553220D01*
X-24440050Y-6530804D01*
X-24390282Y-6433129D01*
X-24390281Y-6433127D01*
X-24369196Y-6300000D01*
X-24369196Y-6299999D01*
X-24390281Y-6166872D01*
X-24390282Y-6166870D01*
X-24451470Y-6046782D01*
X-24546782Y-5951470D01*
X-24666870Y-5890282D01*
X-24666872Y-5890281D01*
X-24800000Y-5869196D01*
X-24933127Y-5890281D01*
X-24933129Y-5890282D01*
X-25053217Y-5951470D01*
X-25053220Y-5951472D01*
X-25148528Y-6046780D01*
X-25209719Y-6166874D01*
X-25230804Y-6300000D01*
X-34699500Y-6300000D01*
X-34699500Y-2500000D01*
X-30430804Y-2500000D01*
X-30409719Y-2633126D01*
X-30348528Y-2753220D01*
X-30253220Y-2848528D01*
X-30244011Y-2853220D01*
X-30129061Y-2911791D01*
X-30085796Y-2955055D01*
X-30076225Y-3015487D01*
X-30104003Y-3070004D01*
X-30129061Y-3088209D01*
X-30253217Y-3151470D01*
X-30253220Y-3151472D01*
X-30348528Y-3246780D01*
X-30409719Y-3366874D01*
X-30430804Y-3500000D01*
X-30409719Y-3633126D01*
X-30348528Y-3753220D01*
X-30253220Y-3848528D01*
X-30217222Y-3866870D01*
X-30129061Y-3911791D01*
X-30085796Y-3955055D01*
X-30076225Y-4015487D01*
X-30104003Y-4070004D01*
X-30129061Y-4088209D01*
X-30253217Y-4151470D01*
X-30253220Y-4151472D01*
X-30348528Y-4246780D01*
X-30409719Y-4366874D01*
X-30430804Y-4500000D01*
X-30409719Y-4633126D01*
X-30348528Y-4753220D01*
X-30253220Y-4848528D01*
X-30217222Y-4866870D01*
X-30129061Y-4911791D01*
X-30085796Y-4955055D01*
X-30076225Y-5015487D01*
X-30104003Y-5070004D01*
X-30129061Y-5088209D01*
X-30253217Y-5151470D01*
X-30253220Y-5151472D01*
X-30348528Y-5246780D01*
X-30409719Y-5366874D01*
X-30430804Y-5500000D01*
X-30409719Y-5633126D01*
X-30348528Y-5753220D01*
X-30253220Y-5848528D01*
X-30133126Y-5909719D01*
X-30000000Y-5930804D01*
X-29866874Y-5909719D01*
X-29746780Y-5848528D01*
X-29651472Y-5753220D01*
X-29650580Y-5751470D01*
X-29590282Y-5633129D01*
X-29590281Y-5633127D01*
X-29569196Y-5500000D01*
X-29569196Y-5499999D01*
X-29590281Y-5366872D01*
X-29590282Y-5366870D01*
X-29651470Y-5246782D01*
X-29746781Y-5151471D01*
X-29870939Y-5088209D01*
X-29914203Y-5044944D01*
X-29923774Y-4984512D01*
X-29895996Y-4929996D01*
X-29870939Y-4911791D01*
X-29782778Y-4866870D01*
X-29746780Y-4848528D01*
X-29651472Y-4753220D01*
X-29651470Y-4753217D01*
X-29590282Y-4633129D01*
X-29590281Y-4633127D01*
X-29569196Y-4500000D01*
X-29569196Y-4499999D01*
X-29590281Y-4366872D01*
X-29590282Y-4366870D01*
X-29651470Y-4246782D01*
X-29746781Y-4151471D01*
X-29870939Y-4088209D01*
X-29914203Y-4044944D01*
X-29921321Y-4000000D01*
X-17230804Y-4000000D01*
X-17209719Y-4133126D01*
X-17148528Y-4253220D01*
X-17053220Y-4348528D01*
X-16933126Y-4409719D01*
X-16800000Y-4430804D01*
X-16666874Y-4409719D01*
X-16546780Y-4348528D01*
X-16451472Y-4253220D01*
X-16451470Y-4253217D01*
X-16390282Y-4133129D01*
X-16390281Y-4133127D01*
X-16369196Y-4000000D01*
X-16369196Y-3999999D01*
X-16390281Y-3866872D01*
X-16390282Y-3866870D01*
X-16451470Y-3746782D01*
X-16546782Y-3651470D01*
X-16666870Y-3590282D01*
X-16666872Y-3590281D01*
X-16800000Y-3569196D01*
X-16933127Y-3590281D01*
X-16933129Y-3590282D01*
X-17053217Y-3651470D01*
X-17053220Y-3651472D01*
X-17148528Y-3746780D01*
X-17209719Y-3866874D01*
X-17225925Y-3969196D01*
X-17228936Y-3988209D01*
X-17230804Y-4000000D01*
X-29921321Y-4000000D01*
X-29923774Y-3984512D01*
X-29895996Y-3929996D01*
X-29870939Y-3911791D01*
X-29782778Y-3866870D01*
X-29746780Y-3848528D01*
X-29651472Y-3753220D01*
X-29651470Y-3753217D01*
X-29590282Y-3633129D01*
X-29590281Y-3633127D01*
X-29569196Y-3500000D01*
X-29569196Y-3499999D01*
X-29585034Y-3400000D01*
X-12530804Y-3400000D01*
X-12509719Y-3533126D01*
X-12448528Y-3653220D01*
X-12353220Y-3748528D01*
X-12344011Y-3753220D01*
X-12229061Y-3811791D01*
X-12185796Y-3855055D01*
X-12176225Y-3915487D01*
X-12204003Y-3970004D01*
X-12229061Y-3988209D01*
X-12353217Y-4051470D01*
X-12353220Y-4051472D01*
X-12448528Y-4146780D01*
X-12509719Y-4266874D01*
X-12530804Y-4400000D01*
X-12509719Y-4533126D01*
X-12448528Y-4653220D01*
X-12353220Y-4748528D01*
X-12233126Y-4809719D01*
X-12100000Y-4830804D01*
X-11966874Y-4809719D01*
X-11846780Y-4748528D01*
X-11751472Y-4653220D01*
X-11750580Y-4651470D01*
X-11688209Y-4529061D01*
X-11644945Y-4485796D01*
X-11584513Y-4476225D01*
X-11529996Y-4504003D01*
X-11511791Y-4529061D01*
X-11480597Y-4590281D01*
X-11448528Y-4653220D01*
X-11353220Y-4748528D01*
X-11233126Y-4809719D01*
X-11100000Y-4830804D01*
X-10966874Y-4809719D01*
X-10846780Y-4748528D01*
X-10751472Y-4653220D01*
X-10750580Y-4651470D01*
X-10690282Y-4533129D01*
X-10690281Y-4533127D01*
X-10669196Y-4400000D01*
X-10669196Y-4399999D01*
X-10690281Y-4266872D01*
X-10690282Y-4266870D01*
X-10751470Y-4146782D01*
X-10846781Y-4051471D01*
X-10970939Y-3988209D01*
X-11014203Y-3944944D01*
X-11023774Y-3884512D01*
X-10995996Y-3829996D01*
X-10970939Y-3811791D01*
X-10855983Y-3753217D01*
X-10846780Y-3748528D01*
X-10751472Y-3653220D01*
X-10741234Y-3633127D01*
X-10690282Y-3533129D01*
X-10690281Y-3533127D01*
X-10669196Y-3400000D01*
X-10669196Y-3399999D01*
X-10690281Y-3266872D01*
X-10690282Y-3266870D01*
X-10751470Y-3146782D01*
X-10846782Y-3051470D01*
X-10966870Y-2990282D01*
X-10966872Y-2990281D01*
X-11100000Y-2969196D01*
X-11233127Y-2990281D01*
X-11233129Y-2990282D01*
X-11353217Y-3051470D01*
X-11353220Y-3051472D01*
X-11448528Y-3146780D01*
X-11473576Y-3195940D01*
X-11511791Y-3270939D01*
X-11555056Y-3314203D01*
X-11615488Y-3323774D01*
X-11670004Y-3295996D01*
X-11688209Y-3270939D01*
X-11751471Y-3146781D01*
X-11846782Y-3051470D01*
X-11966870Y-2990282D01*
X-11966872Y-2990281D01*
X-12100000Y-2969196D01*
X-12233127Y-2990281D01*
X-12233129Y-2990282D01*
X-12353217Y-3051470D01*
X-12353220Y-3051472D01*
X-12448528Y-3146780D01*
X-12509719Y-3266874D01*
X-12530804Y-3400000D01*
X-29585034Y-3400000D01*
X-29590281Y-3366872D01*
X-29590282Y-3366870D01*
X-29651470Y-3246782D01*
X-29746781Y-3151471D01*
X-29870939Y-3088209D01*
X-29914203Y-3044944D01*
X-29923774Y-2984512D01*
X-29895996Y-2929996D01*
X-29870939Y-2911791D01*
X-29755983Y-2853217D01*
X-29746780Y-2848528D01*
X-29651472Y-2753220D01*
X-29641234Y-2733127D01*
X-29590282Y-2633129D01*
X-29590281Y-2633127D01*
X-29569196Y-2500000D01*
X-29569196Y-2499999D01*
X-29590281Y-2366872D01*
X-29590282Y-2366870D01*
X-29651470Y-2246782D01*
X-29746782Y-2151470D01*
X-29866870Y-2090282D01*
X-29866872Y-2090281D01*
X-30000000Y-2069196D01*
X-30133127Y-2090281D01*
X-30133129Y-2090282D01*
X-30253217Y-2151470D01*
X-30253220Y-2151472D01*
X-30348528Y-2246780D01*
X-30409719Y-2366874D01*
X-30430804Y-2500000D01*
X-34699500Y-2500000D01*
X-34699500Y-1275000D01*
X-15325804Y-1275000D01*
X-15304719Y-1408126D01*
X-15243528Y-1528220D01*
X-15148220Y-1623528D01*
X-15028126Y-1684719D01*
X-14895000Y-1705804D01*
X-14761874Y-1684719D01*
X-14641780Y-1623528D01*
X-14546472Y-1528220D01*
X-14546470Y-1528217D01*
X-14485282Y-1408129D01*
X-14485281Y-1408127D01*
X-14464196Y-1275000D01*
X-14464196Y-1274999D01*
X-14476075Y-1200000D01*
X-12430804Y-1200000D01*
X-12409719Y-1333126D01*
X-12348528Y-1453220D01*
X-12253220Y-1548528D01*
X-12133126Y-1609719D01*
X-12000000Y-1630804D01*
X-11866874Y-1609719D01*
X-11746780Y-1548528D01*
X-11651472Y-1453220D01*
X-11651470Y-1453217D01*
X-11588209Y-1329061D01*
X-11544945Y-1285796D01*
X-11484513Y-1276225D01*
X-11429996Y-1304003D01*
X-11411791Y-1329061D01*
X-11374134Y-1402963D01*
X-11348528Y-1453220D01*
X-11253220Y-1548528D01*
X-11133126Y-1609719D01*
X-11000000Y-1630804D01*
X-10866874Y-1609719D01*
X-10746780Y-1548528D01*
X-10651472Y-1453220D01*
X-10651470Y-1453217D01*
X-10590282Y-1333129D01*
X-10590281Y-1333127D01*
X-10569196Y-1200000D01*
X-10569196Y-1199999D01*
X-10590281Y-1066872D01*
X-10590282Y-1066870D01*
X-10651470Y-946782D01*
X-10746782Y-851470D01*
X-10866870Y-790282D01*
X-10866872Y-790281D01*
X-11000000Y-769196D01*
X-11133127Y-790281D01*
X-11133129Y-790282D01*
X-11253217Y-851470D01*
X-11253220Y-851472D01*
X-11348528Y-946780D01*
X-11348529Y-946782D01*
X-11411791Y-1070939D01*
X-11455056Y-1114203D01*
X-11515488Y-1123774D01*
X-11570004Y-1095996D01*
X-11588209Y-1070939D01*
X-11651471Y-946781D01*
X-11746782Y-851470D01*
X-11866870Y-790282D01*
X-11866872Y-790281D01*
X-12000000Y-769196D01*
X-12133127Y-790281D01*
X-12133129Y-790282D01*
X-12253217Y-851470D01*
X-12253220Y-851472D01*
X-12348528Y-946780D01*
X-12409719Y-1066874D01*
X-12430804Y-1200000D01*
X-14476075Y-1200000D01*
X-14485281Y-1141872D01*
X-14485282Y-1141870D01*
X-14546470Y-1021782D01*
X-14641782Y-926470D01*
X-14761870Y-865282D01*
X-14761872Y-865281D01*
X-14895000Y-844196D01*
X-15028127Y-865281D01*
X-15028129Y-865282D01*
X-15148217Y-926470D01*
X-15148220Y-926472D01*
X-15243528Y-1021780D01*
X-15304719Y-1141874D01*
X-15325804Y-1275000D01*
X-34699500Y-1275000D01*
X-34699500Y1575000D01*
X-13235804Y1575000D01*
X-13214719Y1441874D01*
X-13153528Y1321780D01*
X-13058220Y1226472D01*
X-13058217Y1226470D01*
X-12938129Y1165282D01*
X-12938127Y1165281D01*
X-12805000Y1144196D01*
X-12671872Y1165281D01*
X-12671870Y1165282D01*
X-12551782Y1226470D01*
X-12456470Y1321782D01*
X-12395282Y1441870D01*
X-12395281Y1441872D01*
X-12374196Y1574999D01*
X-12374196Y1575000D01*
X-12395281Y1708127D01*
X-12395282Y1708129D01*
X-12456470Y1828217D01*
X-12456472Y1828220D01*
X-12551780Y1923528D01*
X-12671874Y1984719D01*
X-12805000Y2005804D01*
X-12938126Y1984719D01*
X-13058220Y1923528D01*
X-13153528Y1828220D01*
X-13214719Y1708126D01*
X-13235804Y1575000D01*
X-34699500Y1575000D01*
X-34699500Y4509748D01*
X-30680500Y4509748D01*
X-30680500Y2490252D01*
X-30668867Y2431769D01*
X-30624552Y2365448D01*
X-30624548Y2365445D01*
X-30558233Y2321134D01*
X-30558231Y2321133D01*
X-30558228Y2321132D01*
X-30558227Y2321132D01*
X-30499758Y2309501D01*
X-30499748Y2309500D01*
X-30499747Y2309500D01*
X-26500253Y2309500D01*
X-26500252Y2309500D01*
X-26500251Y2309500D01*
X-26500241Y2309501D01*
X-26441772Y2321132D01*
X-26441766Y2321134D01*
X-26375451Y2365445D01*
X-26375445Y2365451D01*
X-26331134Y2431766D01*
X-26331132Y2431772D01*
X-26319501Y2490241D01*
X-26319500Y2490253D01*
X-26319500Y3600000D01*
X-10130804Y3600000D01*
X-10109719Y3466874D01*
X-10048528Y3346780D01*
X-9953220Y3251472D01*
X-9953217Y3251470D01*
X-9833129Y3190282D01*
X-9833127Y3190281D01*
X-9700000Y3169196D01*
X-9566872Y3190281D01*
X-9566870Y3190282D01*
X-9446782Y3251470D01*
X-9351470Y3346782D01*
X-9290282Y3466870D01*
X-9290281Y3466872D01*
X-9269196Y3599999D01*
X-9269196Y3600000D01*
X-9290281Y3733127D01*
X-9290282Y3733129D01*
X-9351470Y3853217D01*
X-9351472Y3853220D01*
X-9446780Y3948528D01*
X-9566874Y4009719D01*
X-9700000Y4030804D01*
X-9833126Y4009719D01*
X-9953220Y3948528D01*
X-10048528Y3853220D01*
X-10109719Y3733126D01*
X-10130804Y3600000D01*
X-26319500Y3600000D01*
X-26319500Y4500000D01*
X-17230804Y4500000D01*
X-17209719Y4366874D01*
X-17148528Y4246780D01*
X-17053220Y4151472D01*
X-17053217Y4151470D01*
X-16933129Y4090282D01*
X-16933127Y4090281D01*
X-16800000Y4069196D01*
X-16666872Y4090281D01*
X-16666870Y4090282D01*
X-16546782Y4151470D01*
X-16498252Y4200000D01*
X-12230804Y4200000D01*
X-12209719Y4066874D01*
X-12148528Y3946780D01*
X-12053220Y3851472D01*
X-12053217Y3851470D01*
X-11933129Y3790282D01*
X-11933127Y3790281D01*
X-11800000Y3769196D01*
X-11666872Y3790281D01*
X-11666870Y3790282D01*
X-11546782Y3851470D01*
X-11451470Y3946782D01*
X-11390282Y4066870D01*
X-11390281Y4066872D01*
X-11369196Y4199999D01*
X-11369196Y4200000D01*
X-11390281Y4333127D01*
X-11390282Y4333129D01*
X-11451470Y4453217D01*
X-11451472Y4453220D01*
X-11546780Y4548528D01*
X-11666874Y4609719D01*
X-11800000Y4630804D01*
X-11933126Y4609719D01*
X-12053220Y4548528D01*
X-12148528Y4453220D01*
X-12209719Y4333126D01*
X-12230804Y4200000D01*
X-16498252Y4200000D01*
X-16451470Y4246782D01*
X-16390282Y4366870D01*
X-16390281Y4366872D01*
X-16369196Y4499999D01*
X-16369196Y4500000D01*
X-16390281Y4633127D01*
X-16390282Y4633129D01*
X-16451470Y4753217D01*
X-16451472Y4753220D01*
X-16546780Y4848528D01*
X-16666874Y4909719D01*
X-16800000Y4930804D01*
X-16933126Y4909719D01*
X-17053220Y4848528D01*
X-17148528Y4753220D01*
X-17209719Y4633126D01*
X-17230804Y4500000D01*
X-26319500Y4500000D01*
X-26319500Y4509746D01*
X-26319501Y4509758D01*
X-26331132Y4568227D01*
X-26331134Y4568233D01*
X-26375445Y4634548D01*
X-26375448Y4634552D01*
X-26423818Y4666872D01*
X-26441766Y4678865D01*
X-26441769Y4678867D01*
X-26486231Y4687711D01*
X-26500241Y4690498D01*
X-26500246Y4690498D01*
X-26500252Y4690500D01*
X-30499748Y4690500D01*
X-30558231Y4678867D01*
X-30624552Y4634552D01*
X-30668867Y4568231D01*
X-30680500Y4509748D01*
X-34699500Y4509748D01*
X-34699500Y7225000D01*
X-15325804Y7225000D01*
X-15304719Y7091874D01*
X-15304718Y7091872D01*
X-15304717Y7091870D01*
X-15293164Y7069196D01*
X-15243528Y6971780D01*
X-15148220Y6876472D01*
X-15148217Y6876470D01*
X-15028129Y6815282D01*
X-15028127Y6815281D01*
X-14895000Y6794196D01*
X-14761872Y6815281D01*
X-14761870Y6815282D01*
X-14641782Y6876470D01*
X-14546470Y6971782D01*
X-14485282Y7091870D01*
X-14485281Y7091872D01*
X-14464196Y7224999D01*
X-14464196Y7225000D01*
X-14483994Y7350000D01*
X-11430804Y7350000D01*
X-11409719Y7216874D01*
X-11348528Y7096780D01*
X-11253220Y7001472D01*
X-11253218Y7001471D01*
X-11253217Y7001470D01*
X-11129061Y6938209D01*
X-11085796Y6894945D01*
X-11076225Y6834513D01*
X-11104003Y6779996D01*
X-11129061Y6761791D01*
X-11185312Y6733129D01*
X-11253220Y6698528D01*
X-11348528Y6603220D01*
X-11409719Y6483126D01*
X-11430804Y6350000D01*
X-11409719Y6216874D01*
X-11348528Y6096780D01*
X-11253220Y6001472D01*
X-11253217Y6001470D01*
X-11133129Y5940282D01*
X-11133127Y5940281D01*
X-11000000Y5919196D01*
X-10866872Y5940281D01*
X-10866870Y5940282D01*
X-10746782Y6001470D01*
X-10651471Y6096781D01*
X-10588209Y6220939D01*
X-10544944Y6264203D01*
X-10484512Y6273774D01*
X-10429996Y6245996D01*
X-10411791Y6220939D01*
X-10385426Y6169196D01*
X-10348528Y6096780D01*
X-10253220Y6001472D01*
X-10253217Y6001470D01*
X-10133129Y5940282D01*
X-10133127Y5940281D01*
X-10000000Y5919196D01*
X-9866872Y5940281D01*
X-9866870Y5940282D01*
X-9746782Y6001470D01*
X-9651470Y6096782D01*
X-9590282Y6216870D01*
X-9590281Y6216872D01*
X-9569196Y6349999D01*
X-9569196Y6350000D01*
X-9590281Y6483127D01*
X-9590282Y6483129D01*
X-9651470Y6603217D01*
X-9651472Y6603220D01*
X-9746780Y6698528D01*
X-9866874Y6759719D01*
X-10000000Y6780804D01*
X-10133126Y6759719D01*
X-10253220Y6698528D01*
X-10348528Y6603220D01*
X-10350169Y6599999D01*
X-10411791Y6479061D01*
X-10455055Y6435796D01*
X-10515487Y6426225D01*
X-10570004Y6454003D01*
X-10588209Y6479061D01*
X-10651470Y6603217D01*
X-10651472Y6603220D01*
X-10746780Y6698528D01*
X-10814688Y6733129D01*
X-10870939Y6761791D01*
X-10914203Y6805056D01*
X-10923774Y6865488D01*
X-10895996Y6920004D01*
X-10870939Y6938209D01*
X-10746781Y7001471D01*
X-10651470Y7096782D01*
X-10590282Y7216870D01*
X-10590281Y7216872D01*
X-10569196Y7349999D01*
X-10569196Y7350000D01*
X-10590281Y7483127D01*
X-10590282Y7483129D01*
X-10651470Y7603217D01*
X-10651472Y7603220D01*
X-10746780Y7698528D01*
X-10866874Y7759719D01*
X-11000000Y7780804D01*
X-11133126Y7759719D01*
X-11253220Y7698528D01*
X-11348528Y7603220D01*
X-11409719Y7483126D01*
X-11430804Y7350000D01*
X-14483994Y7350000D01*
X-14485281Y7358127D01*
X-14485282Y7358129D01*
X-14546470Y7478217D01*
X-14546472Y7478220D01*
X-14641780Y7573528D01*
X-14700054Y7603220D01*
X-14761870Y7634717D01*
X-14761872Y7634718D01*
X-14761874Y7634719D01*
X-14895000Y7655804D01*
X-15028126Y7634719D01*
X-15148220Y7573528D01*
X-15243528Y7478220D01*
X-15304719Y7358126D01*
X-15325804Y7225000D01*
X-34699500Y7225000D01*
X-34699500Y8593697D01*
X-30680500Y8593697D01*
X-30680500Y8406302D01*
X-30651186Y8221222D01*
X-30651185Y8221218D01*
X-30593282Y8043013D01*
X-30593280Y8043010D01*
X-30593279Y8043007D01*
X-30508207Y7876042D01*
X-30398062Y7724441D01*
X-30265559Y7591938D01*
X-30113958Y7481793D01*
X-30113955Y7481791D01*
X-29959467Y7403077D01*
X-29953427Y7399999D01*
X-29946989Y7396719D01*
X-29946986Y7396717D01*
X-29768781Y7338814D01*
X-29768777Y7338813D01*
X-29583697Y7309500D01*
X-29583694Y7309500D01*
X-27416303Y7309500D01*
X-27231222Y7338813D01*
X-27231218Y7338814D01*
X-27053013Y7396717D01*
X-27053010Y7396719D01*
X-26886044Y7481791D01*
X-26734442Y7591937D01*
X-26601937Y7724442D01*
X-26491791Y7876044D01*
X-26406719Y8043010D01*
X-26406717Y8043013D01*
X-26348814Y8221218D01*
X-26348813Y8221222D01*
X-26319500Y8406302D01*
X-26319500Y8593697D01*
X-26348813Y8778777D01*
X-26348814Y8778781D01*
X-26406717Y8956986D01*
X-26406719Y8956989D01*
X-26491791Y9123955D01*
X-26551640Y9206330D01*
X-26601938Y9275559D01*
X-26734441Y9408062D01*
X-26886042Y9518207D01*
X-27053007Y9603279D01*
X-27053010Y9603280D01*
X-27053013Y9603282D01*
X-27231218Y9661185D01*
X-27231222Y9661186D01*
X-27416303Y9690500D01*
X-27416306Y9690500D01*
X-29583694Y9690500D01*
X-29583697Y9690500D01*
X-29768777Y9661186D01*
X-29768781Y9661185D01*
X-29946986Y9603282D01*
X-29946988Y9603280D01*
X-29946993Y9603279D01*
X-30113958Y9518207D01*
X-30265559Y9408062D01*
X-30398062Y9275559D01*
X-30508207Y9123958D01*
X-30593279Y8956993D01*
X-30593280Y8956989D01*
X-30593282Y8956986D01*
X-30651185Y8778781D01*
X-30651186Y8778777D01*
X-30680500Y8593697D01*
X-34699500Y8593697D01*
X-34699500Y10075000D01*
X-13235804Y10075000D01*
X-13235804Y10074999D01*
X-13231835Y10049945D01*
X-13214719Y9941874D01*
X-13153528Y9821780D01*
X-13058220Y9726472D01*
X-13058217Y9726470D01*
X-12938129Y9665282D01*
X-12938127Y9665281D01*
X-12805000Y9644196D01*
X-12671872Y9665281D01*
X-12671870Y9665282D01*
X-12551782Y9726470D01*
X-12456470Y9821782D01*
X-12395282Y9941870D01*
X-12395281Y9941872D01*
X-12374196Y10074999D01*
X-12374196Y10075000D01*
X-12395281Y10208127D01*
X-12395282Y10208129D01*
X-12456470Y10328217D01*
X-12456472Y10328220D01*
X-12551780Y10423528D01*
X-12671874Y10484719D01*
X-12805000Y10505804D01*
X-12938126Y10484719D01*
X-13058220Y10423528D01*
X-13153528Y10328220D01*
X-13214719Y10208126D01*
X-13229172Y10116874D01*
X-13235804Y10075000D01*
X-34699500Y10075000D01*
X-34699500Y13593697D01*
X-30680500Y13593697D01*
X-30680500Y13406302D01*
X-30651186Y13221222D01*
X-30651185Y13221218D01*
X-30593282Y13043013D01*
X-30593280Y13043010D01*
X-30593279Y13043007D01*
X-30508207Y12876042D01*
X-30398062Y12724441D01*
X-30265559Y12591938D01*
X-30113958Y12481793D01*
X-30113955Y12481791D01*
X-29946989Y12396719D01*
X-29946986Y12396717D01*
X-29768781Y12338814D01*
X-29768777Y12338813D01*
X-29583697Y12309500D01*
X-29583694Y12309500D01*
X-27416303Y12309500D01*
X-27231222Y12338813D01*
X-27231218Y12338814D01*
X-27053013Y12396717D01*
X-27053010Y12396719D01*
X-26886044Y12481791D01*
X-26734442Y12591937D01*
X-26601937Y12724442D01*
X-26491791Y12876044D01*
X-26428633Y13000000D01*
X-17230804Y13000000D01*
X-17209719Y12866874D01*
X-17148528Y12746780D01*
X-17053220Y12651472D01*
X-17053217Y12651470D01*
X-16933129Y12590282D01*
X-16933127Y12590281D01*
X-16800000Y12569196D01*
X-16666872Y12590281D01*
X-16666870Y12590282D01*
X-16546782Y12651470D01*
X-16451470Y12746782D01*
X-16390282Y12866870D01*
X-16390281Y12866872D01*
X-16369196Y12999999D01*
X-16369196Y13000000D01*
X-16390281Y13133127D01*
X-16390282Y13133129D01*
X-16451470Y13253217D01*
X-16451472Y13253220D01*
X-16546780Y13348528D01*
X-16666874Y13409719D01*
X-16800000Y13430804D01*
X-16933126Y13409719D01*
X-17053220Y13348528D01*
X-17148528Y13253220D01*
X-17209719Y13133126D01*
X-17230804Y13000000D01*
X-26428633Y13000000D01*
X-26406719Y13043010D01*
X-26406717Y13043013D01*
X-26348814Y13221218D01*
X-26348813Y13221222D01*
X-26319500Y13406302D01*
X-26319500Y13593697D01*
X-26348813Y13778777D01*
X-26348814Y13778781D01*
X-26406717Y13956986D01*
X-26406719Y13956989D01*
X-26491791Y14123955D01*
X-26509645Y14148529D01*
X-26601938Y14275559D01*
X-26734441Y14408062D01*
X-26886042Y14518207D01*
X-27053007Y14603279D01*
X-27053010Y14603280D01*
X-27053013Y14603282D01*
X-27231218Y14661185D01*
X-27231222Y14661186D01*
X-27416303Y14690500D01*
X-27416306Y14690500D01*
X-29583694Y14690500D01*
X-29583697Y14690500D01*
X-29768777Y14661186D01*
X-29768781Y14661185D01*
X-29946986Y14603282D01*
X-29946988Y14603280D01*
X-29946993Y14603279D01*
X-30113958Y14518207D01*
X-30265559Y14408062D01*
X-30398062Y14275559D01*
X-30508207Y14123958D01*
X-30593279Y13956993D01*
X-30593280Y13956989D01*
X-30593282Y13956986D01*
X-30651185Y13778781D01*
X-30651186Y13778777D01*
X-30680500Y13593697D01*
X-34699500Y13593697D01*
X-34699500Y15725000D01*
X-15325804Y15725000D01*
X-15304719Y15591874D01*
X-15243528Y15471780D01*
X-15148220Y15376472D01*
X-15148217Y15376470D01*
X-15028129Y15315282D01*
X-15028127Y15315281D01*
X-14895000Y15294196D01*
X-14761872Y15315281D01*
X-14761870Y15315282D01*
X-14641782Y15376470D01*
X-14546470Y15471782D01*
X-14485282Y15591870D01*
X-14485281Y15591872D01*
X-14464196Y15724999D01*
X-14464196Y15725000D01*
X-14483994Y15850000D01*
X-11730804Y15850000D01*
X-11709719Y15716874D01*
X-11648528Y15596780D01*
X-11553220Y15501472D01*
X-11553218Y15501471D01*
X-11553217Y15501470D01*
X-11429061Y15438209D01*
X-11385796Y15394945D01*
X-11376225Y15334513D01*
X-11404003Y15279996D01*
X-11429061Y15261791D01*
X-11502963Y15224134D01*
X-11553220Y15198528D01*
X-11648528Y15103220D01*
X-11709719Y14983126D01*
X-11730804Y14850000D01*
X-11709719Y14716874D01*
X-11648528Y14596780D01*
X-11553220Y14501472D01*
X-11553218Y14501471D01*
X-11553217Y14501470D01*
X-11429061Y14438209D01*
X-11385796Y14394945D01*
X-11376225Y14334513D01*
X-11404003Y14279996D01*
X-11429061Y14261791D01*
X-11489875Y14230804D01*
X-11553220Y14198528D01*
X-11648528Y14103220D01*
X-11709719Y13983126D01*
X-11717638Y13933127D01*
X-11730804Y13850000D01*
X-11730804Y13849999D01*
X-11729744Y13843309D01*
X-11709719Y13716874D01*
X-11648528Y13596780D01*
X-11553220Y13501472D01*
X-11553217Y13501470D01*
X-11433129Y13440282D01*
X-11433127Y13440281D01*
X-11300000Y13419196D01*
X-11166872Y13440281D01*
X-11166870Y13440282D01*
X-11046782Y13501470D01*
X-10951471Y13596781D01*
X-10888209Y13720939D01*
X-10844944Y13764203D01*
X-10784512Y13773774D01*
X-10729996Y13745996D01*
X-10711791Y13720939D01*
X-10684243Y13666874D01*
X-10648528Y13596780D01*
X-10553220Y13501472D01*
X-10553217Y13501470D01*
X-10433129Y13440282D01*
X-10433127Y13440281D01*
X-10300000Y13419196D01*
X-10166872Y13440281D01*
X-10166870Y13440282D01*
X-10046782Y13501470D01*
X-9951470Y13596782D01*
X-9890282Y13716870D01*
X-9890281Y13716872D01*
X-9869196Y13849999D01*
X-9869196Y13850000D01*
X-9890281Y13983127D01*
X-9890282Y13983129D01*
X-9951470Y14103217D01*
X-9951472Y14103220D01*
X-10046780Y14198528D01*
X-10110125Y14230804D01*
X-10170939Y14261791D01*
X-10214203Y14305056D01*
X-10223774Y14365488D01*
X-10195996Y14420004D01*
X-10170939Y14438209D01*
X-10046781Y14501471D01*
X-9951470Y14596782D01*
X-9890282Y14716870D01*
X-9890281Y14716872D01*
X-9869196Y14849999D01*
X-9869196Y14850000D01*
X-9890281Y14983127D01*
X-9890282Y14983129D01*
X-9951470Y15103217D01*
X-9951472Y15103220D01*
X-10046780Y15198528D01*
X-10095940Y15223576D01*
X-10170939Y15261791D01*
X-10214203Y15305056D01*
X-10223774Y15365488D01*
X-10195996Y15420004D01*
X-10170939Y15438209D01*
X-10046781Y15501471D01*
X-9951470Y15596782D01*
X-9890282Y15716870D01*
X-9890281Y15716872D01*
X-9869196Y15849999D01*
X-9869196Y15850000D01*
X-9890281Y15983127D01*
X-9890282Y15983129D01*
X-9951470Y16103217D01*
X-9951472Y16103220D01*
X-10046780Y16198528D01*
X-10166874Y16259719D01*
X-10300000Y16280804D01*
X-10433126Y16259719D01*
X-10553220Y16198528D01*
X-10648528Y16103220D01*
X-10663656Y16073529D01*
X-10711791Y15979061D01*
X-10755055Y15935796D01*
X-10815487Y15926225D01*
X-10870004Y15954003D01*
X-10888209Y15979061D01*
X-10951470Y16103217D01*
X-10951472Y16103220D01*
X-11046780Y16198528D01*
X-11166874Y16259719D01*
X-11300000Y16280804D01*
X-11433126Y16259719D01*
X-11553220Y16198528D01*
X-11648528Y16103220D01*
X-11709719Y15983126D01*
X-11730804Y15850000D01*
X-14483994Y15850000D01*
X-14485281Y15858127D01*
X-14485282Y15858129D01*
X-14546470Y15978217D01*
X-14546472Y15978220D01*
X-14641780Y16073528D01*
X-14761874Y16134719D01*
X-14895000Y16155804D01*
X-15028126Y16134719D01*
X-15148220Y16073528D01*
X-15243528Y15978220D01*
X-15304719Y15858126D01*
X-15325804Y15725000D01*
X-34699500Y15725000D01*
X-34699500Y21497414D01*
X-34699432Y21500003D01*
X-33554790Y21500003D01*
X-33554790Y21499996D01*
X-33535652Y21220209D01*
X-33535650Y21220200D01*
X-33478594Y20945628D01*
X-33384678Y20681373D01*
X-33255651Y20432363D01*
X-33093929Y20203254D01*
X-33093924Y20203248D01*
X-33035782Y20140993D01*
X-32719758Y20457016D01*
X-32542981Y20280239D01*
X-32859732Y19963488D01*
X-32859733Y19963488D01*
X-32684966Y19821305D01*
X-32684950Y19821294D01*
X-32445343Y19675585D01*
X-32445332Y19675579D01*
X-32188111Y19563854D01*
X-31918062Y19488189D01*
X-31918055Y19488188D01*
X-31640221Y19450000D01*
X-31359778Y19450000D01*
X-31081944Y19488188D01*
X-31081937Y19488189D01*
X-31039783Y19500000D01*
X-19930804Y19500000D01*
X-19909719Y19366874D01*
X-19848528Y19246780D01*
X-19796749Y19195001D01*
X-19768974Y19140487D01*
X-19778545Y19080055D01*
X-19796748Y19054999D01*
X-19848528Y19003220D01*
X-19909719Y18883126D01*
X-19930804Y18750000D01*
X-19909719Y18616874D01*
X-19848528Y18496780D01*
X-19753220Y18401472D01*
X-19753217Y18401470D01*
X-19633129Y18340282D01*
X-19633127Y18340281D01*
X-19500000Y18319196D01*
X-19366872Y18340281D01*
X-19366870Y18340282D01*
X-19246782Y18401470D01*
X-19246780Y18401472D01*
X-19195001Y18453250D01*
X-19140487Y18481026D01*
X-19080055Y18471455D01*
X-19054999Y18453251D01*
X-19003220Y18401472D01*
X-19003217Y18401470D01*
X-18883129Y18340282D01*
X-18883127Y18340281D01*
X-18750000Y18319196D01*
X-18616872Y18340281D01*
X-18616870Y18340282D01*
X-18496782Y18401470D01*
X-18496780Y18401472D01*
X-18445001Y18453250D01*
X-18390487Y18481026D01*
X-18330055Y18471455D01*
X-18304999Y18453251D01*
X-18253220Y18401472D01*
X-18253217Y18401470D01*
X-18133129Y18340282D01*
X-18133127Y18340281D01*
X-18000000Y18319196D01*
X-17866872Y18340281D01*
X-17866870Y18340282D01*
X-17746782Y18401470D01*
X-17746780Y18401472D01*
X-17695001Y18453250D01*
X-17640487Y18481026D01*
X-17580055Y18471455D01*
X-17554999Y18453251D01*
X-17503220Y18401472D01*
X-17503217Y18401470D01*
X-17383129Y18340282D01*
X-17383127Y18340281D01*
X-17250000Y18319196D01*
X-17116872Y18340281D01*
X-17116870Y18340282D01*
X-16996782Y18401470D01*
X-16901470Y18496782D01*
X-16840282Y18616870D01*
X-16840281Y18616872D01*
X-16819196Y18749999D01*
X-16819196Y18750000D01*
X-16840281Y18883127D01*
X-16840282Y18883129D01*
X-16901470Y19003217D01*
X-16901472Y19003220D01*
X-16953250Y19054998D01*
X-16981026Y19109513D01*
X-16971455Y19169945D01*
X-16953251Y19195000D01*
X-16901472Y19246780D01*
X-16901471Y19246780D01*
X-16901470Y19246782D01*
X-16840282Y19366870D01*
X-16840281Y19366872D01*
X-16819196Y19499999D01*
X-16819196Y19500000D01*
X-16840281Y19633127D01*
X-16840282Y19633129D01*
X-16901470Y19753217D01*
X-16901472Y19753220D01*
X-16996780Y19848528D01*
X-17116874Y19909719D01*
X-17250000Y19930804D01*
X-17383126Y19909719D01*
X-17503220Y19848528D01*
X-17554998Y19796749D01*
X-17609513Y19768974D01*
X-17669945Y19778545D01*
X-17695000Y19796748D01*
X-17746780Y19848528D01*
X-17866874Y19909719D01*
X-18000000Y19930804D01*
X-18133126Y19909719D01*
X-18253220Y19848528D01*
X-18304998Y19796749D01*
X-18359513Y19768974D01*
X-18419945Y19778545D01*
X-18445000Y19796748D01*
X-18496780Y19848528D01*
X-18616874Y19909719D01*
X-18750000Y19930804D01*
X-18883126Y19909719D01*
X-19003220Y19848528D01*
X-19054998Y19796749D01*
X-19109513Y19768974D01*
X-19169945Y19778545D01*
X-19195000Y19796748D01*
X-19246780Y19848528D01*
X-19366874Y19909719D01*
X-19500000Y19930804D01*
X-19633126Y19909719D01*
X-19753220Y19848528D01*
X-19848528Y19753220D01*
X-19909719Y19633126D01*
X-19930804Y19500000D01*
X-31039783Y19500000D01*
X-30811888Y19563854D01*
X-30554667Y19675579D01*
X-30554656Y19675585D01*
X-30315049Y19821294D01*
X-30315043Y19821298D01*
X-30140267Y19963489D01*
X-30457018Y20280240D01*
X-30280240Y20457018D01*
X-29964215Y20140993D01*
X-29964214Y20140993D01*
X-29906082Y20203238D01*
X-29906075Y20203247D01*
X-29744348Y20432363D01*
X-29615321Y20681373D01*
X-29521405Y20945628D01*
X-29464349Y21220200D01*
X-29464347Y21220209D01*
X-29445210Y21499996D01*
X-29445210Y21500003D01*
X-29464347Y21779790D01*
X-29464349Y21779799D01*
X-29521405Y22054371D01*
X-29615321Y22318626D01*
X-29744348Y22567636D01*
X-29906070Y22796745D01*
X-29906075Y22796751D01*
X-29964215Y22859004D01*
X-30280238Y22542980D01*
X-30457017Y22719759D01*
X-30140266Y23036510D01*
X-30140265Y23036510D01*
X-30315033Y23178694D01*
X-30315049Y23178705D01*
X-30554656Y23324414D01*
X-30554667Y23324420D01*
X-30811888Y23436145D01*
X-31081937Y23511810D01*
X-31081944Y23511811D01*
X-31359778Y23549999D01*
X-31359782Y23550000D01*
X-31640218Y23550000D01*
X-31640221Y23549999D01*
X-31918055Y23511811D01*
X-31918062Y23511810D01*
X-32188111Y23436145D01*
X-32445332Y23324420D01*
X-32445343Y23324414D01*
X-32684953Y23178703D01*
X-32684970Y23178691D01*
X-32859732Y23036510D01*
X-32542982Y22719760D01*
X-32719759Y22542982D01*
X-33035783Y22859005D01*
X-33093917Y22796759D01*
X-33093929Y22796745D01*
X-33255651Y22567636D01*
X-33384678Y22318626D01*
X-33478594Y22054371D01*
X-33535650Y21779799D01*
X-33535652Y21779790D01*
X-33554790Y21500003D01*
X-34699432Y21500003D01*
X-34699364Y21502595D01*
X-34682244Y21829255D01*
X-34681161Y21839561D01*
X-34630395Y22160085D01*
X-34628241Y22170221D01*
X-34544247Y22483693D01*
X-34541044Y22493549D01*
X-34424749Y22796506D01*
X-34420535Y22805972D01*
X-34273201Y23095133D01*
X-34268019Y23104107D01*
X-34091281Y23376259D01*
X-34085190Y23384643D01*
X-33880956Y23636851D01*
X-33874023Y23644552D01*
X-33818575Y23700000D01*
X-23530804Y23700000D01*
X-23509719Y23566874D01*
X-23448528Y23446780D01*
X-23353220Y23351472D01*
X-23353217Y23351470D01*
X-23233129Y23290282D01*
X-23233127Y23290281D01*
X-23100000Y23269196D01*
X-22966872Y23290281D01*
X-22966870Y23290282D01*
X-22846782Y23351470D01*
X-22751470Y23446782D01*
X-22690282Y23566870D01*
X-22690281Y23566872D01*
X-22669196Y23699999D01*
X-22669196Y23700000D01*
X-22690281Y23833127D01*
X-22690282Y23833129D01*
X-22751470Y23953217D01*
X-22751472Y23953220D01*
X-22798252Y24000000D01*
X-20230804Y24000000D01*
X-20209719Y23866874D01*
X-20148528Y23746780D01*
X-20053220Y23651472D01*
X-20053217Y23651470D01*
X-19933129Y23590282D01*
X-19933127Y23590281D01*
X-19800000Y23569196D01*
X-19666872Y23590281D01*
X-19666870Y23590282D01*
X-19546782Y23651470D01*
X-19451470Y23746782D01*
X-19390282Y23866870D01*
X-19390281Y23866872D01*
X-19369196Y23999999D01*
X-19369196Y24000000D01*
X-19390281Y24133127D01*
X-19390282Y24133129D01*
X-19451470Y24253217D01*
X-19451472Y24253220D01*
X-19546780Y24348528D01*
X-19666874Y24409719D01*
X-19800000Y24430804D01*
X-19933126Y24409719D01*
X-20053220Y24348528D01*
X-20148528Y24253220D01*
X-20209719Y24133126D01*
X-20230804Y24000000D01*
X-22798252Y24000000D01*
X-22846780Y24048528D01*
X-22966874Y24109719D01*
X-23100000Y24130804D01*
X-23233126Y24109719D01*
X-23353220Y24048528D01*
X-23448528Y23953220D01*
X-23509719Y23833126D01*
X-23530804Y23700000D01*
X-33818575Y23700000D01*
X-33644552Y23874023D01*
X-33636851Y23880956D01*
X-33384643Y24085190D01*
X-33376259Y24091281D01*
X-33104107Y24268019D01*
X-33095133Y24273201D01*
X-32805972Y24420535D01*
X-32796506Y24424749D01*
X-32493549Y24541044D01*
X-32483693Y24544247D01*
X-32170221Y24628241D01*
X-32160085Y24630395D01*
X-31839561Y24681161D01*
X-31829255Y24682244D01*
X-31502595Y24699364D01*
X-31497414Y24699500D01*
X-31452406Y24699500D01*
X-8599000Y24699500D01*
X-8540809Y24680593D01*
G37*
%TD.AperFunction*%
%TD*%
M02*
