%TF.GenerationSoftware,KiCad,Pcbnew,8.0.2*%
%TF.CreationDate,2024-05-05T14:41:11+02:00*%
%TF.ProjectId,motor_unicorn,6d6f746f-725f-4756-9e69-636f726e2e6b,rev?*%
%TF.SameCoordinates,Original*%
%TF.FileFunction,Paste,Bot*%
%TF.FilePolarity,Positive*%
%FSLAX46Y46*%
G04 Gerber Fmt 4.6, Leading zero omitted, Abs format (unit mm)*
G04 Created by KiCad (PCBNEW 8.0.2) date 2024-05-05 14:41:11*
%MOMM*%
%LPD*%
G01*
G04 APERTURE LIST*
G04 Aperture macros list*
%AMRoundRect*
0 Rectangle with rounded corners*
0 $1 Rounding radius*
0 $2 $3 $4 $5 $6 $7 $8 $9 X,Y pos of 4 corners*
0 Add a 4 corners polygon primitive as box body*
4,1,4,$2,$3,$4,$5,$6,$7,$8,$9,$2,$3,0*
0 Add four circle primitives for the rounded corners*
1,1,$1+$1,$2,$3*
1,1,$1+$1,$4,$5*
1,1,$1+$1,$6,$7*
1,1,$1+$1,$8,$9*
0 Add four rect primitives between the rounded corners*
20,1,$1+$1,$2,$3,$4,$5,0*
20,1,$1+$1,$4,$5,$6,$7,0*
20,1,$1+$1,$6,$7,$8,$9,0*
20,1,$1+$1,$8,$9,$2,$3,0*%
G04 Aperture macros list end*
%ADD10R,0.900000X0.600000*%
%ADD11R,0.600000X0.900000*%
%ADD12RoundRect,0.150000X0.150000X0.375000X-0.150000X0.375000X-0.150000X-0.375000X0.150000X-0.375000X0*%
%ADD13RoundRect,0.250000X0.362500X1.425000X-0.362500X1.425000X-0.362500X-1.425000X0.362500X-1.425000X0*%
%ADD14RoundRect,0.150000X-0.825000X-0.150000X0.825000X-0.150000X0.825000X0.150000X-0.825000X0.150000X0*%
%ADD15RoundRect,0.150000X-0.150000X-0.375000X0.150000X-0.375000X0.150000X0.375000X-0.150000X0.375000X0*%
%ADD16RoundRect,0.250000X-0.362500X-1.425000X0.362500X-1.425000X0.362500X1.425000X-0.362500X1.425000X0*%
%ADD17R,0.350000X1.000000*%
%ADD18RoundRect,0.150000X0.825000X0.150000X-0.825000X0.150000X-0.825000X-0.150000X0.825000X-0.150000X0*%
%ADD19RoundRect,0.250000X-0.350000X0.850000X-0.350000X-0.850000X0.350000X-0.850000X0.350000X0.850000X0*%
%ADD20RoundRect,0.250000X-1.125000X1.275000X-1.125000X-1.275000X1.125000X-1.275000X1.125000X1.275000X0*%
G04 APERTURE END LIST*
D10*
%TO.C,Q4*%
X-15650000Y5050001D03*
X-16800000Y5050001D03*
X-17950000Y5050001D03*
X-15650000Y4200001D03*
X-16800000Y4200001D03*
X-17950000Y4200001D03*
X-15650000Y3350001D03*
X-16800000Y3350001D03*
X-17950000Y3350001D03*
X-15650000Y2500001D03*
X-16800000Y2500001D03*
X-17950000Y2500001D03*
D11*
X-14895000Y1500001D03*
X-16165000Y1500001D03*
X-17435000Y1500001D03*
X-18705000Y1500001D03*
D12*
X-16165000Y7225001D03*
X-17435000Y7225001D03*
X-18705000Y7225001D03*
X-14895000Y7225001D03*
%TD*%
D13*
%TO.C,R24*%
X26962500Y16500000D03*
X21037500Y16500000D03*
%TD*%
%TO.C,R15*%
X-21037500Y16500000D03*
X-26962500Y16500000D03*
%TD*%
D14*
%TO.C,U8*%
X-26475000Y19845000D03*
X-26475000Y21115000D03*
X-26475000Y22385000D03*
X-26475000Y23655000D03*
X-21525000Y23655000D03*
X-21525000Y22385000D03*
X-21525000Y21115000D03*
X-21525000Y19845000D03*
%TD*%
D10*
%TO.C,Q8*%
X-12050000Y-4750000D03*
X-10900000Y-4750000D03*
X-9750000Y-4750000D03*
X-12050000Y-3900000D03*
X-10900000Y-3900000D03*
X-9750000Y-3900000D03*
X-12050000Y-3050000D03*
X-10900000Y-3050000D03*
X-9750000Y-3050000D03*
X-12050000Y-2200000D03*
X-10900000Y-2200000D03*
X-9750000Y-2200000D03*
D11*
X-12805000Y-1200000D03*
X-11535000Y-1200000D03*
X-10265000Y-1200000D03*
X-8995000Y-1200000D03*
D15*
X-11535000Y-6925000D03*
X-10265000Y-6925000D03*
X-8995000Y-6925000D03*
X-12805000Y-6925000D03*
%TD*%
D16*
%TO.C,R25*%
X21037500Y500000D03*
X26962500Y500000D03*
%TD*%
D10*
%TO.C,Q11*%
X12050000Y14550000D03*
X10900000Y14550000D03*
X9750000Y14550000D03*
X12050000Y13700000D03*
X10900000Y13700000D03*
X9750000Y13700000D03*
X12050000Y12850000D03*
X10900000Y12850000D03*
X9750000Y12850000D03*
X12050000Y12000000D03*
X10900000Y12000000D03*
X9750000Y12000000D03*
D11*
X12805000Y11000000D03*
X11535000Y11000000D03*
X10265000Y11000000D03*
X8995000Y11000000D03*
D12*
X11535000Y16725000D03*
X10265000Y16725000D03*
X8995000Y16725000D03*
X12805000Y16725000D03*
%TD*%
D14*
%TO.C,U14*%
X21525000Y19845000D03*
X21525000Y21115000D03*
X21525000Y22385000D03*
X21525000Y23655000D03*
X26475000Y23655000D03*
X26475000Y22385000D03*
X26475000Y21115000D03*
X26475000Y19845000D03*
%TD*%
D10*
%TO.C,Q10*%
X-12050000Y3750000D03*
X-10900000Y3750000D03*
X-9750000Y3750000D03*
X-12050000Y4600000D03*
X-10900000Y4600000D03*
X-9750000Y4600000D03*
X-12050000Y5450000D03*
X-10900000Y5450000D03*
X-9750000Y5450000D03*
X-12050000Y6300000D03*
X-10900000Y6300000D03*
X-9750000Y6300000D03*
D11*
X-12805000Y7300000D03*
X-11535000Y7300000D03*
X-10265000Y7300000D03*
X-8995000Y7300000D03*
D15*
X-11535000Y1575000D03*
X-10265000Y1575000D03*
X-8995000Y1575000D03*
X-12805000Y1575000D03*
%TD*%
D10*
%TO.C,Q6*%
X15650000Y-3750000D03*
X16800000Y-3750000D03*
X17950000Y-3750000D03*
X15650000Y-2900000D03*
X16800000Y-2900000D03*
X17950000Y-2900000D03*
X15650000Y-2050000D03*
X16800000Y-2050000D03*
X17950000Y-2050000D03*
X15650000Y-1200000D03*
X16800000Y-1200000D03*
X17950000Y-1200000D03*
D11*
X14895000Y-200000D03*
X16165000Y-200000D03*
X17435000Y-200000D03*
X18705000Y-200000D03*
D15*
X16165000Y-5925000D03*
X17435000Y-5925000D03*
X18705000Y-5925000D03*
X14895000Y-5925000D03*
%TD*%
D10*
%TO.C,Q13*%
X12050000Y6050000D03*
X10900000Y6050000D03*
X9750000Y6050000D03*
X12050000Y5200000D03*
X10900000Y5200000D03*
X9750000Y5200000D03*
X12050000Y4350000D03*
X10900000Y4350000D03*
X9750000Y4350000D03*
X12050000Y3500000D03*
X10900000Y3500000D03*
X9750000Y3500000D03*
D11*
X12805000Y2500000D03*
X11535000Y2500000D03*
X10265000Y2500000D03*
X8995000Y2500000D03*
D12*
X11535000Y8225000D03*
X10265000Y8225000D03*
X8995000Y8225000D03*
X12805000Y8225000D03*
%TD*%
D17*
%TO.C,U16*%
X-4875000Y15000000D03*
X-4225000Y15000000D03*
X-3575000Y15000000D03*
X-2925000Y15000000D03*
X-2275000Y15000000D03*
X-1625000Y15000000D03*
X-975000Y15000000D03*
X-325000Y15000000D03*
X325000Y15000000D03*
X975000Y15000000D03*
X1625000Y15000000D03*
X2275000Y15000000D03*
X2925000Y15000000D03*
X3575000Y15000000D03*
X4225000Y15000000D03*
X4875000Y15000000D03*
%TD*%
D18*
%TO.C,U7*%
X-23025000Y-2295000D03*
X-23025000Y-3565000D03*
X-23025000Y-4835000D03*
X-23025000Y-6105000D03*
X-27975000Y-6105000D03*
X-27975000Y-4835000D03*
X-27975000Y-3565000D03*
X-27975000Y-2295000D03*
%TD*%
%TO.C,U15*%
X27875000Y-2395000D03*
X27875000Y-3665000D03*
X27875000Y-4935000D03*
X27875000Y-6205000D03*
X22925000Y-6205000D03*
X22925000Y-4935000D03*
X22925000Y-3665000D03*
X22925000Y-2395000D03*
%TD*%
D10*
%TO.C,Q9*%
X-12050000Y12250000D03*
X-10900000Y12250000D03*
X-9750000Y12250000D03*
X-12050000Y13100000D03*
X-10900000Y13100000D03*
X-9750000Y13100000D03*
X-12050000Y13950000D03*
X-10900000Y13950000D03*
X-9750000Y13950000D03*
X-12050000Y14800000D03*
X-10900000Y14800000D03*
X-9750000Y14800000D03*
D11*
X-12805000Y15800000D03*
X-11535000Y15800000D03*
X-10265000Y15800000D03*
X-8995000Y15800000D03*
D15*
X-11535000Y10075000D03*
X-10265000Y10075000D03*
X-8995000Y10075000D03*
X-12805000Y10075000D03*
%TD*%
D19*
%TO.C,Q1*%
X5722500Y-9800000D03*
D20*
X9527500Y-14425000D03*
X6477500Y-14425000D03*
X9527500Y-17775000D03*
X6477500Y-17775000D03*
D19*
X10282500Y-9800000D03*
%TD*%
D10*
%TO.C,Q2*%
X-15650000Y-3449999D03*
X-16800000Y-3449999D03*
X-17950000Y-3449999D03*
X-15650000Y-4299999D03*
X-16800000Y-4299999D03*
X-17950000Y-4299999D03*
X-15650000Y-5149999D03*
X-16800000Y-5149999D03*
X-17950000Y-5149999D03*
X-15650000Y-5999999D03*
X-16800000Y-5999999D03*
X-17950000Y-5999999D03*
D11*
X-14895000Y-6999999D03*
X-16165000Y-6999999D03*
X-17435000Y-6999999D03*
X-18705000Y-6999999D03*
D12*
X-16165000Y-1274999D03*
X-17435000Y-1274999D03*
X-18705000Y-1274999D03*
X-14895000Y-1274999D03*
%TD*%
D10*
%TO.C,Q5*%
X15650000Y13250000D03*
X16800000Y13250000D03*
X17950000Y13250000D03*
X15650000Y14100000D03*
X16800000Y14100000D03*
X17950000Y14100000D03*
X15650000Y14950000D03*
X16800000Y14950000D03*
X17950000Y14950000D03*
X15650000Y15800000D03*
X16800000Y15800000D03*
X17950000Y15800000D03*
D11*
X14895000Y16800000D03*
X16165000Y16800000D03*
X17435000Y16800000D03*
X18705000Y16800000D03*
D15*
X16165000Y11075000D03*
X17435000Y11075000D03*
X18705000Y11075000D03*
X14895000Y11075000D03*
%TD*%
D10*
%TO.C,Q12*%
X12050000Y-2450000D03*
X10900000Y-2450000D03*
X9750000Y-2450000D03*
X12050000Y-3300000D03*
X10900000Y-3300000D03*
X9750000Y-3300000D03*
X12050000Y-4150000D03*
X10900000Y-4150000D03*
X9750000Y-4150000D03*
X12050000Y-5000000D03*
X10900000Y-5000000D03*
X9750000Y-5000000D03*
D11*
X12805000Y-6000000D03*
X11535000Y-6000000D03*
X10265000Y-6000000D03*
X8995000Y-6000000D03*
D12*
X11535000Y-275000D03*
X10265000Y-275000D03*
X8995000Y-275000D03*
X12805000Y-275000D03*
%TD*%
D16*
%TO.C,R14*%
X-26962500Y500000D03*
X-21037500Y500000D03*
%TD*%
D10*
%TO.C,Q3*%
X-15650000Y13550001D03*
X-16800000Y13550001D03*
X-17950000Y13550001D03*
X-15650000Y12700001D03*
X-16800000Y12700001D03*
X-17950000Y12700001D03*
X-15650000Y11850001D03*
X-16800000Y11850001D03*
X-17950000Y11850001D03*
X-15650000Y11000001D03*
X-16800000Y11000001D03*
X-17950000Y11000001D03*
D11*
X-14895000Y10000001D03*
X-16165000Y10000001D03*
X-17435000Y10000001D03*
X-18705000Y10000001D03*
D12*
X-16165000Y15725001D03*
X-17435000Y15725001D03*
X-18705000Y15725001D03*
X-14895000Y15725001D03*
%TD*%
D10*
%TO.C,Q7*%
X15650000Y4750000D03*
X16800000Y4750000D03*
X17950000Y4750000D03*
X15650000Y5600000D03*
X16800000Y5600000D03*
X17950000Y5600000D03*
X15650000Y6450000D03*
X16800000Y6450000D03*
X17950000Y6450000D03*
X15650000Y7300000D03*
X16800000Y7300000D03*
X17950000Y7300000D03*
D11*
X14895000Y8300000D03*
X16165000Y8300000D03*
X17435000Y8300000D03*
X18705000Y8300000D03*
D15*
X16165000Y2575000D03*
X17435000Y2575000D03*
X18705000Y2575000D03*
X14895000Y2575000D03*
%TD*%
M02*
