%TF.GenerationSoftware,KiCad,Pcbnew,8.0.2*%
%TF.CreationDate,2024-05-05T15:17:45+02:00*%
%TF.ProjectId,motor_unicorn,6d6f746f-725f-4756-9e69-636f726e2e6b,rev?*%
%TF.SameCoordinates,Original*%
%TF.FileFunction,Legend,Bot*%
%TF.FilePolarity,Positive*%
%FSLAX46Y46*%
G04 Gerber Fmt 4.6, Leading zero omitted, Abs format (unit mm)*
G04 Created by KiCad (PCBNEW 8.0.2) date 2024-05-05 15:17:45*
%MOMM*%
%LPD*%
G01*
G04 APERTURE LIST*
G04 Aperture macros list*
%AMRoundRect*
0 Rectangle with rounded corners*
0 $1 Rounding radius*
0 $2 $3 $4 $5 $6 $7 $8 $9 X,Y pos of 4 corners*
0 Add a 4 corners polygon primitive as box body*
4,1,4,$2,$3,$4,$5,$6,$7,$8,$9,$2,$3,0*
0 Add four circle primitives for the rounded corners*
1,1,$1+$1,$2,$3*
1,1,$1+$1,$4,$5*
1,1,$1+$1,$6,$7*
1,1,$1+$1,$8,$9*
0 Add four rect primitives between the rounded corners*
20,1,$1+$1,$2,$3,$4,$5,0*
20,1,$1+$1,$4,$5,$6,$7,0*
20,1,$1+$1,$6,$7,$8,$9,0*
20,1,$1+$1,$8,$9,$2,$3,0*%
%AMFreePoly0*
4,1,9,2.350000,2.000000,2.100000,2.000000,2.100000,-1.100000,-2.100000,-1.100000,-2.100000,2.000000,-2.350000,2.000000,-2.350000,3.500000,2.350000,3.500000,2.350000,2.000000,2.350000,2.000000,$1*%
G04 Aperture macros list end*
%ADD10C,0.152400*%
%ADD11C,0.120000*%
%ADD12C,3.600000*%
%ADD13C,5.600000*%
%ADD14C,0.650000*%
%ADD15O,1.000000X2.100000*%
%ADD16O,1.000000X1.600000*%
%ADD17RoundRect,0.250000X0.350000X0.625000X-0.350000X0.625000X-0.350000X-0.625000X0.350000X-0.625000X0*%
%ADD18O,1.200000X1.750000*%
%ADD19R,3.960000X1.980000*%
%ADD20O,3.960000X1.980000*%
%ADD21R,3.000000X3.000000*%
%ADD22C,3.000000*%
%ADD23RoundRect,0.175000X0.175000X0.400000X-0.175000X0.400000X-0.175000X-0.400000X0.175000X-0.400000X0*%
%ADD24FreePoly0,180.000000*%
%ADD25RoundRect,0.250000X0.362500X1.425000X-0.362500X1.425000X-0.362500X-1.425000X0.362500X-1.425000X0*%
%ADD26RoundRect,0.150000X-0.825000X-0.150000X0.825000X-0.150000X0.825000X0.150000X-0.825000X0.150000X0*%
%ADD27RoundRect,0.175000X-0.175000X-0.400000X0.175000X-0.400000X0.175000X0.400000X-0.175000X0.400000X0*%
%ADD28FreePoly0,0.000000*%
%ADD29RoundRect,0.250000X-0.362500X-1.425000X0.362500X-1.425000X0.362500X1.425000X-0.362500X1.425000X0*%
%ADD30R,0.350000X1.000000*%
%ADD31RoundRect,0.150000X0.825000X0.150000X-0.825000X0.150000X-0.825000X-0.150000X0.825000X-0.150000X0*%
%ADD32RoundRect,0.250000X-0.350000X0.850000X-0.350000X-0.850000X0.350000X-0.850000X0.350000X0.850000X0*%
%ADD33RoundRect,0.249997X-2.650003X2.950003X-2.650003X-2.950003X2.650003X-2.950003X2.650003X2.950003X0*%
G04 APERTURE END LIST*
D10*
G36*
X-2133636Y-19236001D02*
G01*
X-2133636Y-18898946D01*
X-2867342Y-18898946D01*
X-2867342Y-19236001D01*
X-2133636Y-19236001D01*
G37*
G36*
X33126092Y12679344D02*
G01*
X33227361Y12685022D01*
X33323562Y12702058D01*
X33425730Y12734799D01*
X33500760Y12770202D01*
X33589168Y12828651D01*
X33666448Y12901784D01*
X33732600Y12989600D01*
X33764542Y13044731D01*
X33806857Y13142397D01*
X33833966Y13237823D01*
X33851817Y13342553D01*
X33860413Y13456585D01*
X33861263Y13508304D01*
X33856301Y13627782D01*
X33841418Y13738007D01*
X33816612Y13838976D01*
X33781884Y13930691D01*
X33727112Y14028533D01*
X33658053Y14113049D01*
X33577080Y14183437D01*
X33486938Y14239262D01*
X33387624Y14280523D01*
X33279140Y14307222D01*
X33181732Y14318347D01*
X33120230Y14320167D01*
X31829162Y14320167D01*
X31829162Y13897138D01*
X33069916Y13897138D01*
X33172254Y13892323D01*
X33271867Y13875028D01*
X33370365Y13835720D01*
X33422114Y13796510D01*
X33480239Y13715727D01*
X33512144Y13622151D01*
X33523809Y13521537D01*
X33524207Y13497069D01*
X33515475Y13389293D01*
X33485288Y13290661D01*
X33427178Y13207841D01*
X33413810Y13195673D01*
X33322799Y13142275D01*
X33226353Y13115073D01*
X33124016Y13103349D01*
X33066985Y13101884D01*
X31829162Y13101884D01*
X31829162Y12679344D01*
X33126092Y12679344D01*
G37*
G36*
X-31829162Y14854571D02*
G01*
X-33830000Y14345080D01*
X-33830000Y13863433D01*
X-32792456Y13591835D01*
X-32701109Y13570830D01*
X-32603473Y13550131D01*
X-32568241Y13542498D01*
X-32468551Y13522749D01*
X-32431465Y13516120D01*
X-32334979Y13500206D01*
X-32330348Y13499511D01*
X-32427433Y13484664D01*
X-32431465Y13483880D01*
X-32527886Y13464866D01*
X-32567264Y13457013D01*
X-32664343Y13437099D01*
X-32700132Y13429169D01*
X-32795387Y13406699D01*
X-33830000Y13138032D01*
X-33830000Y12656385D01*
X-31829162Y12146895D01*
X-31829162Y12564061D01*
X-32925324Y12819051D01*
X-33024680Y12842112D01*
X-33088478Y12855199D01*
X-33186786Y12874005D01*
X-33285338Y12891347D01*
X-33386060Y12907799D01*
X-33450935Y12916748D01*
X-33352703Y12930372D01*
X-33283872Y12941661D01*
X-33182243Y12960102D01*
X-33095317Y12976832D01*
X-32997162Y12998127D01*
X-32953656Y13009072D01*
X-31829162Y13300698D01*
X-31829162Y13700767D01*
X-32953656Y13991905D01*
X-33050285Y14015352D01*
X-33093852Y14024145D01*
X-33194119Y14043316D01*
X-33285338Y14059316D01*
X-33386060Y14075528D01*
X-33450935Y14084717D01*
X-33352703Y14098341D01*
X-33283872Y14109630D01*
X-33186420Y14127704D01*
X-33088478Y14147732D01*
X-32988289Y14169044D01*
X-32925324Y14182414D01*
X-31829162Y14437404D01*
X-31829162Y14854571D01*
G37*
G36*
X-31829162Y9410537D02*
G01*
X-33830000Y8730077D01*
X-33830000Y8267969D01*
X-31829162Y7590440D01*
X-31829162Y8018841D01*
X-33023510Y8393998D01*
X-33117383Y8421140D01*
X-33137327Y8426239D01*
X-33233377Y8450333D01*
X-33311716Y8469714D01*
X-33409450Y8491403D01*
X-33464612Y8500488D01*
X-33365688Y8517910D01*
X-33311716Y8529797D01*
X-33211579Y8553892D01*
X-33137327Y8573273D01*
X-33042164Y8599010D01*
X-33023510Y8604047D01*
X-31829162Y8982135D01*
X-31829162Y9410537D01*
G37*
G36*
X31829162Y7589462D02*
G01*
X33830000Y8269922D01*
X33830000Y8732030D01*
X31829162Y9409560D01*
X31829162Y8981158D01*
X33023510Y8606001D01*
X33117383Y8578859D01*
X33137327Y8573760D01*
X33233377Y8549666D01*
X33311716Y8530285D01*
X33409450Y8508596D01*
X33464612Y8499511D01*
X33365688Y8482089D01*
X33311716Y8470202D01*
X33211579Y8446107D01*
X33137327Y8426726D01*
X33042164Y8400989D01*
X33023510Y8395952D01*
X31829162Y8017864D01*
X31829162Y7589462D01*
G37*
G36*
X2351011Y-18673265D02*
G01*
X1821981Y-18673265D01*
X1821981Y-18985896D01*
X2351011Y-18985896D01*
X2351011Y-19517369D01*
X2650453Y-19517369D01*
X2650453Y-18985896D01*
X3179971Y-18985896D01*
X3179971Y-18673265D01*
X2650453Y-18673265D01*
X2650453Y-18141793D01*
X2351011Y-18141793D01*
X2351011Y-18673265D01*
G37*
G36*
X31829162Y2145428D02*
G01*
X33830000Y2654919D01*
X33830000Y3136566D01*
X32792456Y3408164D01*
X32701109Y3429169D01*
X32603473Y3449868D01*
X32568241Y3457501D01*
X32468551Y3477250D01*
X32431465Y3483879D01*
X32334979Y3499793D01*
X32330348Y3500488D01*
X32427433Y3515335D01*
X32431465Y3516119D01*
X32527886Y3535133D01*
X32567264Y3542986D01*
X32664343Y3562900D01*
X32700132Y3570830D01*
X32795387Y3593300D01*
X33830000Y3861967D01*
X33830000Y4343614D01*
X31829162Y4853105D01*
X31829162Y4435938D01*
X32925324Y4180948D01*
X33024680Y4157887D01*
X33088478Y4144800D01*
X33186786Y4125994D01*
X33285338Y4108652D01*
X33386060Y4092200D01*
X33450935Y4083251D01*
X33352703Y4069627D01*
X33283872Y4058338D01*
X33182243Y4039897D01*
X33095317Y4023167D01*
X32997162Y4001872D01*
X32953656Y3990927D01*
X31829162Y3699301D01*
X31829162Y3299232D01*
X32953656Y3008094D01*
X33050285Y2984647D01*
X33093852Y2975854D01*
X33194119Y2956683D01*
X33285338Y2940683D01*
X33386060Y2924471D01*
X33450935Y2915282D01*
X33352703Y2901658D01*
X33283872Y2890369D01*
X33186420Y2872295D01*
X33088478Y2852267D01*
X32988289Y2830955D01*
X32925324Y2817585D01*
X31829162Y2562595D01*
X31829162Y2145428D01*
G37*
G36*
X-33126092Y4320655D02*
G01*
X-33227361Y4314977D01*
X-33323562Y4297941D01*
X-33425730Y4265200D01*
X-33500760Y4229797D01*
X-33589168Y4171348D01*
X-33666448Y4098215D01*
X-33732600Y4010399D01*
X-33764542Y3955268D01*
X-33806857Y3857602D01*
X-33833966Y3762176D01*
X-33851817Y3657446D01*
X-33860413Y3543414D01*
X-33861263Y3491695D01*
X-33856301Y3372217D01*
X-33841418Y3261992D01*
X-33816612Y3161023D01*
X-33781884Y3069308D01*
X-33727112Y2971466D01*
X-33658053Y2886950D01*
X-33577080Y2816562D01*
X-33486938Y2760737D01*
X-33387624Y2719476D01*
X-33279140Y2692777D01*
X-33181732Y2681652D01*
X-33120230Y2679832D01*
X-31829162Y2679832D01*
X-31829162Y3102861D01*
X-33069916Y3102861D01*
X-33172254Y3107676D01*
X-33271867Y3124971D01*
X-33370365Y3164279D01*
X-33422114Y3203489D01*
X-33480239Y3284272D01*
X-33512144Y3377848D01*
X-33523809Y3478462D01*
X-33524207Y3502930D01*
X-33515475Y3610706D01*
X-33485288Y3709338D01*
X-33427178Y3792158D01*
X-33413810Y3804326D01*
X-33322799Y3857724D01*
X-33226353Y3884926D01*
X-33124016Y3896650D01*
X-33066985Y3898115D01*
X-31829162Y3898115D01*
X-31829162Y4320655D01*
X-33126092Y4320655D01*
G37*
G36*
X-3795000Y6170306D02*
G01*
X-6147058Y6892777D01*
X-6147058Y6909630D01*
X-6000488Y6902282D01*
X-5895000Y6897173D01*
X-5743691Y6889620D01*
X-5595153Y6882857D01*
X-5535963Y6880320D01*
X-5386504Y6874627D01*
X-5238802Y6871742D01*
X-5189382Y6871528D01*
X-3795000Y6871528D01*
X-3795000Y7438660D01*
X-6796256Y7438660D01*
X-6796256Y6573307D01*
X-4491824Y5864026D01*
X-4491824Y5850837D01*
X-6796256Y5099057D01*
X-6796256Y4234438D01*
X-3795000Y4234438D01*
X-3795000Y4826482D01*
X-5198175Y4826482D01*
X-5349849Y4825017D01*
X-5499395Y4821330D01*
X-5522041Y4820620D01*
X-5678178Y4814850D01*
X-5827302Y4809080D01*
X-5868621Y4807431D01*
X-6020056Y4801252D01*
X-6115551Y4797173D01*
X-6115551Y4814026D01*
X-3795000Y5586322D01*
X-3795000Y6170306D01*
G37*
G36*
X-5273120Y3613667D02*
G01*
X-5103344Y3606489D01*
X-4941863Y3588542D01*
X-4788677Y3559829D01*
X-4643786Y3520347D01*
X-4485230Y3460676D01*
X-4400279Y3419666D01*
X-4263296Y3335667D01*
X-4141179Y3236101D01*
X-4033929Y3120966D01*
X-3941545Y2990265D01*
X-3918121Y2949942D01*
X-3848036Y2798353D01*
X-3802699Y2655471D01*
X-3770963Y2500636D01*
X-3752828Y2333849D01*
X-3748105Y2185729D01*
X-3748294Y2155172D01*
X-3757361Y1979077D01*
X-3780030Y1815398D01*
X-3816300Y1664135D01*
X-3866171Y1525289D01*
X-3941545Y1378995D01*
X-3992481Y1302756D01*
X-4093135Y1181516D01*
X-4208444Y1075774D01*
X-4338410Y985529D01*
X-4483032Y910781D01*
X-4504856Y901359D01*
X-4664199Y843782D01*
X-4809932Y806095D01*
X-4964114Y779176D01*
X-5126745Y763025D01*
X-5297826Y757641D01*
X-5326926Y757790D01*
X-5496598Y764969D01*
X-5657822Y782915D01*
X-5810595Y811629D01*
X-5954920Y851110D01*
X-6112620Y910781D01*
X-6197010Y951596D01*
X-6332956Y1035200D01*
X-6453965Y1134300D01*
X-6560039Y1248899D01*
X-6651175Y1378995D01*
X-6674422Y1419051D01*
X-6743976Y1569844D01*
X-6788970Y1712211D01*
X-6820466Y1866685D01*
X-6838463Y2033266D01*
X-6843150Y2181332D01*
X-6337568Y2181332D01*
X-6337297Y2156366D01*
X-6320257Y1993983D01*
X-6268325Y1834935D01*
X-6181771Y1704189D01*
X-6060596Y1601744D01*
X-6043124Y1590880D01*
X-5909196Y1524487D01*
X-5754932Y1474994D01*
X-5606521Y1446023D01*
X-5443168Y1429468D01*
X-5295628Y1425156D01*
X-5121215Y1431365D01*
X-4961229Y1449989D01*
X-4815667Y1481030D01*
X-4664079Y1532937D01*
X-4532124Y1601744D01*
X-4498407Y1624719D01*
X-4385292Y1734651D01*
X-4306982Y1873435D01*
X-4267011Y2018537D01*
X-4253688Y2185729D01*
X-4253959Y2210429D01*
X-4271090Y2371430D01*
X-4323297Y2529928D01*
X-4410308Y2661224D01*
X-4532124Y2765317D01*
X-4664079Y2835552D01*
X-4815667Y2888536D01*
X-4961229Y2920220D01*
X-5121215Y2939231D01*
X-5295628Y2945568D01*
X-5471431Y2939231D01*
X-5632293Y2920220D01*
X-5778215Y2888536D01*
X-5929574Y2835552D01*
X-6060596Y2765317D01*
X-6094136Y2741827D01*
X-6206655Y2630521D01*
X-6284553Y2491463D01*
X-6324314Y2347021D01*
X-6337568Y2181332D01*
X-6843150Y2181332D01*
X-6842963Y2211891D01*
X-6833964Y2388089D01*
X-6811467Y2552026D01*
X-6775472Y2703700D01*
X-6725978Y2843114D01*
X-6651175Y2990265D01*
X-6600961Y3066858D01*
X-6501514Y3188664D01*
X-6387342Y3294902D01*
X-6258443Y3385573D01*
X-6114818Y3460676D01*
X-6093129Y3470098D01*
X-5934613Y3527675D01*
X-5789421Y3565362D01*
X-5635625Y3592281D01*
X-5473225Y3608433D01*
X-5302222Y3613817D01*
X-5273120Y3613667D01*
G37*
G36*
X-7322386Y2055206D02*
G01*
X-7193394Y1979832D01*
X-7154181Y1917485D01*
X-7124518Y1773935D01*
X-7131244Y1703353D01*
X-7193394Y1570237D01*
X-7255253Y1517549D01*
X-7403688Y1483775D01*
X-7489411Y1492218D01*
X-7620575Y1570237D01*
X-7655738Y1626966D01*
X-7687254Y1773935D01*
X-7681979Y1839398D01*
X-7620575Y1979832D01*
X-7552613Y2033915D01*
X-7403688Y2063363D01*
X-7322386Y2055206D01*
G37*
G36*
X-7322386Y2882456D02*
G01*
X-7193394Y2807082D01*
X-7157073Y2751198D01*
X-7124518Y2605582D01*
X-7131244Y2535000D01*
X-7193394Y2401884D01*
X-7255253Y2349196D01*
X-7403688Y2315422D01*
X-7489411Y2323865D01*
X-7620575Y2401884D01*
X-7655738Y2458613D01*
X-7687254Y2605582D01*
X-7681979Y2668919D01*
X-7620575Y2807082D01*
X-7552613Y2861166D01*
X-7403688Y2890614D01*
X-7322386Y2882456D01*
G37*
G36*
X-3795000Y-890997D02*
G01*
X-3795000Y-257187D01*
X-6290673Y-257187D01*
X-6290673Y557606D01*
X-6796256Y557606D01*
X-6796256Y-1705792D01*
X-6290673Y-1705792D01*
X-6290673Y-890997D01*
X-3795000Y-890997D01*
G37*
G36*
X-5273120Y-1949207D02*
G01*
X-5103344Y-1956386D01*
X-4941863Y-1974332D01*
X-4788677Y-2003045D01*
X-4643786Y-2042527D01*
X-4485230Y-2102198D01*
X-4400279Y-2143208D01*
X-4263296Y-2227207D01*
X-4141179Y-2326773D01*
X-4033929Y-2441908D01*
X-3941545Y-2572609D01*
X-3918121Y-2612932D01*
X-3848036Y-2764521D01*
X-3802699Y-2907403D01*
X-3770963Y-3062238D01*
X-3752828Y-3229025D01*
X-3748105Y-3377145D01*
X-3748294Y-3407702D01*
X-3757361Y-3583797D01*
X-3780030Y-3747476D01*
X-3816300Y-3898739D01*
X-3866171Y-4037585D01*
X-3941545Y-4183880D01*
X-3992481Y-4260118D01*
X-4093135Y-4381358D01*
X-4208444Y-4487100D01*
X-4338410Y-4577345D01*
X-4483032Y-4652093D01*
X-4504856Y-4661515D01*
X-4664199Y-4719092D01*
X-4809932Y-4756779D01*
X-4964114Y-4783698D01*
X-5126745Y-4799850D01*
X-5297826Y-4805233D01*
X-5326926Y-4805084D01*
X-5496598Y-4797905D01*
X-5657822Y-4779959D01*
X-5810595Y-4751245D01*
X-5954920Y-4711764D01*
X-6112620Y-4652093D01*
X-6197010Y-4611278D01*
X-6332956Y-4527674D01*
X-6453965Y-4428574D01*
X-6560039Y-4313975D01*
X-6651175Y-4183880D01*
X-6674422Y-4143823D01*
X-6743976Y-3993030D01*
X-6788970Y-3850663D01*
X-6820466Y-3696189D01*
X-6838463Y-3529608D01*
X-6843150Y-3381542D01*
X-6337568Y-3381542D01*
X-6337297Y-3406508D01*
X-6320257Y-3568891D01*
X-6268325Y-3727939D01*
X-6181771Y-3858685D01*
X-6060596Y-3961130D01*
X-6043124Y-3971994D01*
X-5909196Y-4038387D01*
X-5754932Y-4087880D01*
X-5606521Y-4116851D01*
X-5443168Y-4133406D01*
X-5295628Y-4137718D01*
X-5121215Y-4131509D01*
X-4961229Y-4112885D01*
X-4815667Y-4081844D01*
X-4664079Y-4029937D01*
X-4532124Y-3961130D01*
X-4498407Y-3938155D01*
X-4385292Y-3828223D01*
X-4306982Y-3689439D01*
X-4267011Y-3544337D01*
X-4253688Y-3377145D01*
X-4253959Y-3352445D01*
X-4271090Y-3191445D01*
X-4323297Y-3032946D01*
X-4410308Y-2901650D01*
X-4532124Y-2797557D01*
X-4664079Y-2727323D01*
X-4815667Y-2674339D01*
X-4961229Y-2642654D01*
X-5121215Y-2623643D01*
X-5295628Y-2617306D01*
X-5471431Y-2623643D01*
X-5632293Y-2642654D01*
X-5778215Y-2674339D01*
X-5929574Y-2727323D01*
X-6060596Y-2797557D01*
X-6094136Y-2821047D01*
X-6206655Y-2932353D01*
X-6284553Y-3071412D01*
X-6324314Y-3215853D01*
X-6337568Y-3381542D01*
X-6843150Y-3381542D01*
X-6842963Y-3350983D01*
X-6833964Y-3174785D01*
X-6811467Y-3010848D01*
X-6775472Y-2859174D01*
X-6725978Y-2719761D01*
X-6651175Y-2572609D01*
X-6600961Y-2496016D01*
X-6501514Y-2374210D01*
X-6387342Y-2267972D01*
X-6258443Y-2177301D01*
X-6114818Y-2102198D01*
X-6093129Y-2092776D01*
X-5934613Y-2035199D01*
X-5789421Y-1997512D01*
X-5635625Y-1970593D01*
X-5473225Y-1954441D01*
X-5302222Y-1949058D01*
X-5273120Y-1949207D01*
G37*
G36*
X-7322386Y-3507668D02*
G01*
X-7193394Y-3583042D01*
X-7154181Y-3645389D01*
X-7124518Y-3788939D01*
X-7131244Y-3859521D01*
X-7193394Y-3992637D01*
X-7255253Y-4045325D01*
X-7403688Y-4079099D01*
X-7489411Y-4070656D01*
X-7620575Y-3992637D01*
X-7655738Y-3935908D01*
X-7687254Y-3788939D01*
X-7681979Y-3723476D01*
X-7620575Y-3583042D01*
X-7552613Y-3528959D01*
X-7403688Y-3499511D01*
X-7322386Y-3507668D01*
G37*
G36*
X-7322386Y-2680418D02*
G01*
X-7193394Y-2755792D01*
X-7157073Y-2811676D01*
X-7124518Y-2957292D01*
X-7131244Y-3027874D01*
X-7193394Y-3160991D01*
X-7255253Y-3213678D01*
X-7403688Y-3247452D01*
X-7489411Y-3239009D01*
X-7620575Y-3160991D01*
X-7655738Y-3104261D01*
X-7687254Y-2957292D01*
X-7681979Y-2893955D01*
X-7620575Y-2755792D01*
X-7552613Y-2701709D01*
X-7403688Y-2672261D01*
X-7322386Y-2680418D01*
G37*
G36*
X-3795000Y-6058932D02*
G01*
X-4967365Y-6058932D01*
X-4967365Y-6399651D01*
X-3795000Y-7113328D01*
X-3795000Y-7818946D01*
X-5118307Y-6936741D01*
X-5126797Y-6955076D01*
X-5200320Y-7087847D01*
X-5291231Y-7212247D01*
X-5304689Y-7228078D01*
X-5416938Y-7334219D01*
X-5549152Y-7418143D01*
X-5598031Y-7440519D01*
X-5748218Y-7482994D01*
X-5905258Y-7495813D01*
X-6040251Y-7488675D01*
X-6187461Y-7461266D01*
X-6338824Y-7403308D01*
X-6468239Y-7317371D01*
X-6575704Y-7203454D01*
X-6650657Y-7082786D01*
X-6710103Y-6939500D01*
X-6754041Y-6773597D01*
X-6778810Y-6618067D01*
X-6792809Y-6446832D01*
X-6796256Y-6298534D01*
X-6796256Y-6252372D01*
X-6290673Y-6252372D01*
X-6283428Y-6414029D01*
X-6258383Y-6562922D01*
X-6199082Y-6708129D01*
X-6174410Y-6742133D01*
X-6047016Y-6829266D01*
X-5892069Y-6853210D01*
X-5854077Y-6852005D01*
X-5700284Y-6814539D01*
X-5578461Y-6716189D01*
X-5510145Y-6575949D01*
X-5481294Y-6427915D01*
X-5472948Y-6264829D01*
X-5472948Y-6058932D01*
X-6290673Y-6058932D01*
X-6290673Y-6252372D01*
X-6796256Y-6252372D01*
X-6796256Y-5425122D01*
X-3795000Y-5425122D01*
X-3795000Y-6058932D01*
G37*
G36*
X189138Y7350732D02*
G01*
X341041Y7359249D01*
X485343Y7384803D01*
X638596Y7433915D01*
X751140Y7487019D01*
X883753Y7574693D01*
X999673Y7684392D01*
X1098900Y7816116D01*
X1146814Y7898812D01*
X1210286Y8045312D01*
X1250949Y8188451D01*
X1277726Y8345545D01*
X1290619Y8516594D01*
X1291894Y8594172D01*
X1284452Y8773390D01*
X1262127Y8938726D01*
X1224918Y9090180D01*
X1172826Y9227753D01*
X1090669Y9374516D01*
X987079Y9501290D01*
X865621Y9606871D01*
X730407Y9690609D01*
X581437Y9752501D01*
X418711Y9792549D01*
X272598Y9809236D01*
X180345Y9811967D01*
X-1756256Y9811967D01*
X-1756256Y9177424D01*
X104874Y9177424D01*
X258381Y9170201D01*
X407801Y9144258D01*
X555548Y9085296D01*
X633171Y9026482D01*
X720359Y8905306D01*
X768216Y8764943D01*
X785713Y8614021D01*
X786311Y8577319D01*
X773212Y8415656D01*
X727932Y8267708D01*
X640768Y8143478D01*
X620715Y8125226D01*
X484198Y8045129D01*
X339530Y8004325D01*
X186024Y7986740D01*
X100478Y7984542D01*
X-1756256Y7984542D01*
X-1756256Y7350732D01*
X189138Y7350732D01*
G37*
G36*
X1245000Y3958198D02*
G01*
X1245000Y4764200D01*
X-995683Y6070655D01*
X-995683Y6087508D01*
X-836864Y6080707D01*
X-678046Y6073494D01*
X-572166Y6068457D01*
X-413794Y6060969D01*
X-255215Y6053894D01*
X-149382Y6049406D01*
X1245000Y6049406D01*
X1245000Y6616538D01*
X-1756256Y6616538D01*
X-1756256Y5814200D01*
X502013Y4512141D01*
X502013Y4499685D01*
X344362Y4503600D01*
X187947Y4508752D01*
X84357Y4512874D01*
X-71060Y4518919D01*
X-226273Y4524964D01*
X-329633Y4528994D01*
X-1756256Y4528994D01*
X-1756256Y3958198D01*
X1245000Y3958198D01*
G37*
G36*
X1245000Y2080948D02*
G01*
X1245000Y3446021D01*
X888161Y3446021D01*
X722564Y3080390D01*
X-1194986Y3080390D01*
X-1362048Y3446021D01*
X-1756256Y3446021D01*
X-1756256Y2080948D01*
X-1362048Y2080948D01*
X-1194986Y2445847D01*
X722564Y2445847D01*
X888161Y2080948D01*
X1245000Y2080948D01*
G37*
G36*
X-1297568Y296754D02*
G01*
X-1284104Y448478D01*
X-1235744Y601698D01*
X-1152213Y733395D01*
X-1033510Y843568D01*
X-1016200Y855826D01*
X-883464Y930914D01*
X-730813Y987559D01*
X-584119Y1021434D01*
X-422793Y1041758D01*
X-246835Y1048533D01*
X-98382Y1044186D01*
X65450Y1027494D01*
X213673Y998282D01*
X366870Y948379D01*
X498819Y881435D01*
X515935Y870480D01*
X634224Y767578D01*
X718717Y637656D01*
X769413Y480715D01*
X786047Y321227D01*
X786311Y296754D01*
X779298Y147090D01*
X758256Y-1846D01*
X743813Y-70342D01*
X703125Y-224257D01*
X655693Y-375348D01*
X623646Y-467481D01*
X1144616Y-467481D01*
X1195655Y-319722D01*
X1235566Y-173199D01*
X1255990Y-76204D01*
X1277869Y74920D01*
X1289054Y225038D01*
X1291894Y356105D01*
X1285145Y523545D01*
X1264898Y679650D01*
X1231152Y824421D01*
X1174722Y978996D01*
X1099919Y1118143D01*
X1008497Y1242037D01*
X902208Y1350855D01*
X781054Y1444597D01*
X645032Y1523261D01*
X560631Y1561443D01*
X402821Y1617117D01*
X258737Y1653954D01*
X106513Y1680744D01*
X-53851Y1697488D01*
X-222356Y1704186D01*
X-251231Y1704325D01*
X-418405Y1698555D01*
X-578108Y1681244D01*
X-730341Y1652393D01*
X-875104Y1612002D01*
X-1012396Y1560069D01*
X-1056500Y1540194D01*
X-1202439Y1461269D01*
X-1333792Y1368109D01*
X-1450559Y1260713D01*
X-1552740Y1139083D01*
X-1604581Y1063188D01*
X-1681953Y919573D01*
X-1740322Y762494D01*
X-1775226Y617139D01*
X-1796169Y461893D01*
X-1803150Y296754D01*
X-1796570Y143771D01*
X-1776829Y-9903D01*
X-1747463Y-150210D01*
X-1705006Y-302610D01*
X-1653198Y-450508D01*
X-1597986Y-581054D01*
X-1076284Y-375157D01*
X-1145046Y-238340D01*
X-1206068Y-100556D01*
X-1231622Y-36637D01*
X-1276702Y110844D01*
X-1296988Y266059D01*
X-1297568Y296754D01*
G37*
G36*
X-233120Y-886751D02*
G01*
X-63344Y-893930D01*
X98136Y-911876D01*
X251322Y-940590D01*
X396213Y-980071D01*
X554769Y-1039742D01*
X639720Y-1080752D01*
X776703Y-1164751D01*
X898820Y-1264318D01*
X1006070Y-1379452D01*
X1098454Y-1510154D01*
X1121878Y-1550477D01*
X1191963Y-1702066D01*
X1237300Y-1844948D01*
X1269036Y-1999782D01*
X1287171Y-2166570D01*
X1291894Y-2314690D01*
X1291705Y-2345246D01*
X1282638Y-2521341D01*
X1259969Y-2685020D01*
X1223699Y-2836283D01*
X1173828Y-2975129D01*
X1098454Y-3121424D01*
X1047518Y-3197662D01*
X946864Y-3318902D01*
X831555Y-3424645D01*
X701589Y-3514890D01*
X556967Y-3589637D01*
X535143Y-3599059D01*
X375800Y-3656636D01*
X230067Y-3694323D01*
X75885Y-3721242D01*
X-86745Y-3737394D01*
X-257826Y-3742778D01*
X-286926Y-3742628D01*
X-456598Y-3735450D01*
X-617822Y-3717503D01*
X-770595Y-3688790D01*
X-914920Y-3649308D01*
X-1072620Y-3589637D01*
X-1157010Y-3548822D01*
X-1292956Y-3465219D01*
X-1413965Y-3366118D01*
X-1520039Y-3251520D01*
X-1611175Y-3121424D01*
X-1634422Y-3081367D01*
X-1703976Y-2930574D01*
X-1748970Y-2788208D01*
X-1780466Y-2633734D01*
X-1798463Y-2467152D01*
X-1803150Y-2319086D01*
X-1297568Y-2319086D01*
X-1297297Y-2344052D01*
X-1280257Y-2506436D01*
X-1228325Y-2665483D01*
X-1141771Y-2796230D01*
X-1020596Y-2898674D01*
X-1003124Y-2909539D01*
X-869196Y-2975931D01*
X-714932Y-3025424D01*
X-566521Y-3054396D01*
X-403168Y-3070951D01*
X-255628Y-3075262D01*
X-81215Y-3069054D01*
X78770Y-3050429D01*
X224332Y-3019388D01*
X375920Y-2967481D01*
X507875Y-2898674D01*
X541592Y-2875699D01*
X654707Y-2765767D01*
X733017Y-2626984D01*
X772988Y-2481881D01*
X786311Y-2314690D01*
X786040Y-2289989D01*
X768909Y-2128989D01*
X716702Y-1970490D01*
X629691Y-1839195D01*
X507875Y-1735101D01*
X375920Y-1664867D01*
X224332Y-1611883D01*
X78770Y-1580198D01*
X-81215Y-1561187D01*
X-255628Y-1554850D01*
X-431431Y-1561187D01*
X-592293Y-1580198D01*
X-738215Y-1611883D01*
X-889574Y-1664867D01*
X-1020596Y-1735101D01*
X-1054136Y-1758592D01*
X-1166655Y-1869898D01*
X-1244553Y-2008956D01*
X-1284314Y-2153397D01*
X-1297568Y-2319086D01*
X-1803150Y-2319086D01*
X-1802963Y-2288528D01*
X-1793964Y-2112329D01*
X-1771467Y-1948393D01*
X-1735472Y-1796718D01*
X-1685978Y-1657305D01*
X-1611175Y-1510154D01*
X-1560961Y-1433561D01*
X-1461514Y-1311755D01*
X-1347342Y-1205516D01*
X-1218443Y-1114845D01*
X-1074818Y-1039742D01*
X-1053129Y-1030320D01*
X-894613Y-972743D01*
X-749421Y-935056D01*
X-595625Y-908137D01*
X-433225Y-891986D01*
X-262222Y-886602D01*
X-233120Y-886751D01*
G37*
G36*
X1245000Y-4996476D02*
G01*
X72634Y-4996476D01*
X72634Y-5337195D01*
X1245000Y-6050872D01*
X1245000Y-6756490D01*
X-78307Y-5874285D01*
X-86797Y-5892620D01*
X-160320Y-6025392D01*
X-251231Y-6149791D01*
X-264689Y-6165622D01*
X-376938Y-6271764D01*
X-509152Y-6355688D01*
X-558031Y-6378063D01*
X-708218Y-6420538D01*
X-865258Y-6433357D01*
X-1000251Y-6426219D01*
X-1147461Y-6398811D01*
X-1298824Y-6340853D01*
X-1428239Y-6254915D01*
X-1535704Y-6140998D01*
X-1610657Y-6020330D01*
X-1670103Y-5877044D01*
X-1714041Y-5711141D01*
X-1738810Y-5555612D01*
X-1752809Y-5384376D01*
X-1756256Y-5236078D01*
X-1756256Y-5189916D01*
X-1250673Y-5189916D01*
X-1243428Y-5351573D01*
X-1218383Y-5500466D01*
X-1159082Y-5645674D01*
X-1134410Y-5679677D01*
X-1007016Y-5766810D01*
X-852069Y-5790754D01*
X-814077Y-5789550D01*
X-660284Y-5752083D01*
X-538461Y-5653734D01*
X-470145Y-5513493D01*
X-441294Y-5365459D01*
X-432948Y-5202373D01*
X-432948Y-4996476D01*
X-1250673Y-4996476D01*
X-1250673Y-5189916D01*
X-1756256Y-5189916D01*
X-1756256Y-4362666D01*
X1245000Y-4362666D01*
X1245000Y-4996476D01*
G37*
G36*
X1245000Y-9790719D02*
G01*
X1245000Y-8984718D01*
X-995683Y-7678263D01*
X-995683Y-7661410D01*
X-836864Y-7668210D01*
X-678046Y-7675423D01*
X-572166Y-7680461D01*
X-413794Y-7687948D01*
X-255215Y-7695024D01*
X-149382Y-7699512D01*
X1245000Y-7699512D01*
X1245000Y-7132380D01*
X-1756256Y-7132380D01*
X-1756256Y-7934718D01*
X502013Y-9236776D01*
X502013Y-9249233D01*
X344362Y-9245317D01*
X187947Y-9240165D01*
X84357Y-9236043D01*
X-71060Y-9229998D01*
X-226273Y-9223953D01*
X-329633Y-9219923D01*
X-1756256Y-9219923D01*
X-1756256Y-9790719D01*
X1245000Y-9790719D01*
G37*
G36*
X3960052Y2654675D02*
G01*
X4109620Y2666352D01*
X4258835Y2707407D01*
X4387879Y2778022D01*
X4462704Y2841520D01*
X4558415Y2953460D01*
X4635347Y3079079D01*
X4693500Y3218376D01*
X4717693Y3301674D01*
X4730150Y3301674D01*
X4754838Y3151978D01*
X4798768Y3001334D01*
X4868223Y2857915D01*
X4947770Y2753593D01*
X5069486Y2655061D01*
X5214815Y2593022D01*
X5365801Y2568389D01*
X5420380Y2566747D01*
X5577416Y2579269D01*
X5724290Y2616836D01*
X5861004Y2679447D01*
X5887128Y2694975D01*
X6007756Y2788254D01*
X6111354Y2908725D01*
X6190032Y3040398D01*
X6213192Y3089183D01*
X6265124Y3232110D01*
X6302219Y3394181D01*
X6322505Y3551695D01*
X6330851Y3698373D01*
X6331894Y3775749D01*
X6327923Y3925354D01*
X6312673Y4097843D01*
X6285986Y4262655D01*
X6247861Y4419791D01*
X6198299Y4569251D01*
X6169228Y4641102D01*
X5634337Y4641102D01*
X5693535Y4506364D01*
X5742171Y4367124D01*
X5777219Y4236636D01*
X5807135Y4081698D01*
X5823243Y3935621D01*
X5826311Y3843160D01*
X5819122Y3685898D01*
X5793845Y3539414D01*
X5731832Y3394231D01*
X5711273Y3366887D01*
X5592522Y3273221D01*
X5449854Y3233212D01*
X5386674Y3229867D01*
X5241832Y3257005D01*
X5179312Y3292881D01*
X5086387Y3416295D01*
X5051817Y3513432D01*
X5023827Y3661868D01*
X5011288Y3819392D01*
X5008586Y3952337D01*
X5008586Y4179483D01*
X4503004Y4179483D01*
X4503004Y3947940D01*
X4497780Y3787785D01*
X4479968Y3641532D01*
X4449515Y3526622D01*
X4376459Y3392618D01*
X4302969Y3328785D01*
X4162863Y3281180D01*
X4090478Y3276028D01*
X3944848Y3300758D01*
X3834755Y3374947D01*
X3765512Y3506838D01*
X3743243Y3662557D01*
X3742431Y3704675D01*
X3753148Y3857208D01*
X3788943Y4004546D01*
X3818635Y4076168D01*
X3888906Y4213233D01*
X3967379Y4342881D01*
X3529940Y4636705D01*
X3448734Y4508532D01*
X3377398Y4365813D01*
X3321113Y4223446D01*
X3276677Y4066268D01*
X3250756Y3909756D01*
X3238906Y3758665D01*
X3236849Y3658513D01*
X3243521Y3491880D01*
X3263536Y3338745D01*
X3303752Y3177149D01*
X3362131Y3033925D01*
X3426625Y2925784D01*
X3530856Y2807174D01*
X3654504Y2722452D01*
X3797569Y2671619D01*
X3960052Y2654675D01*
G37*
G36*
X4831510Y2249230D02*
G01*
X5005161Y2243322D01*
X5169035Y2229537D01*
X5323131Y2207876D01*
X5467450Y2178338D01*
X5634099Y2130339D01*
X5785471Y2070032D01*
X5921566Y1997417D01*
X6017737Y1929869D01*
X6137950Y1811544D01*
X6229312Y1672818D01*
X6291823Y1513690D01*
X6321876Y1365499D01*
X6331894Y1203139D01*
X6331713Y1179159D01*
X6320308Y1019911D01*
X6285549Y856376D01*
X6227618Y712532D01*
X6146514Y588380D01*
X6134772Y574170D01*
X6029602Y469401D01*
X5904466Y380478D01*
X5759363Y307399D01*
X5616018Y256454D01*
X5572335Y243943D01*
X5410879Y206512D01*
X5261883Y182298D01*
X5103098Y165347D01*
X4934525Y155662D01*
X4786570Y153139D01*
X4741091Y153390D01*
X4565517Y159400D01*
X4400086Y173425D01*
X4244799Y195464D01*
X4099656Y225518D01*
X3932492Y274354D01*
X3781177Y335713D01*
X3645711Y409594D01*
X3549884Y478093D01*
X3430100Y597284D01*
X3339064Y736208D01*
X3276777Y894864D01*
X3246831Y1042150D01*
X3236849Y1203139D01*
X3742431Y1203139D01*
X3768120Y1070089D01*
X3866763Y947265D01*
X4005481Y875610D01*
X4152943Y835218D01*
X4308118Y809342D01*
X4460548Y794195D01*
X4630908Y785540D01*
X4786570Y783286D01*
X4943198Y785540D01*
X5114244Y794195D01*
X5266846Y809342D01*
X5421571Y835218D01*
X5567658Y875610D01*
X5692691Y938844D01*
X5795748Y1058319D01*
X5826311Y1203139D01*
X5800838Y1338150D01*
X5703018Y1461249D01*
X5565460Y1531402D01*
X5418960Y1569870D01*
X5264401Y1594514D01*
X5112331Y1608939D01*
X4942178Y1617183D01*
X4786570Y1619329D01*
X4630908Y1617183D01*
X4460548Y1608939D01*
X4308118Y1594514D01*
X4152943Y1569870D01*
X4005481Y1531402D01*
X3878323Y1469591D01*
X3773514Y1350030D01*
X3742431Y1203139D01*
X3236849Y1203139D01*
X3237030Y1226897D01*
X3248435Y1384948D01*
X3283194Y1547888D01*
X3341125Y1691961D01*
X3422229Y1817166D01*
X3433971Y1831465D01*
X3539141Y1936737D01*
X3664277Y2025798D01*
X3809380Y2098647D01*
X3952725Y2149092D01*
X3996425Y2161248D01*
X4158212Y2197617D01*
X4307826Y2221145D01*
X4467538Y2237614D01*
X4637348Y2247025D01*
X4786570Y2249476D01*
X4831510Y2249230D01*
G37*
G36*
X4831510Y-151188D02*
G01*
X5005161Y-157096D01*
X5169035Y-170880D01*
X5323131Y-192542D01*
X5467450Y-222080D01*
X5634099Y-270079D01*
X5785471Y-330386D01*
X5921566Y-403001D01*
X6017737Y-470549D01*
X6137950Y-588873D01*
X6229312Y-727599D01*
X6291823Y-886727D01*
X6321876Y-1034919D01*
X6331894Y-1197278D01*
X6331713Y-1221259D01*
X6320308Y-1380506D01*
X6285549Y-1544042D01*
X6227618Y-1687886D01*
X6146514Y-1812038D01*
X6134772Y-1826248D01*
X6029602Y-1931017D01*
X5904466Y-2019940D01*
X5759363Y-2093018D01*
X5616018Y-2143964D01*
X5572335Y-2156474D01*
X5410879Y-2193906D01*
X5261883Y-2218120D01*
X5103098Y-2235070D01*
X4934525Y-2244756D01*
X4786570Y-2247278D01*
X4741091Y-2247028D01*
X4565517Y-2241017D01*
X4400086Y-2226992D01*
X4244799Y-2204953D01*
X4099656Y-2174900D01*
X3932492Y-2126063D01*
X3781177Y-2064704D01*
X3645711Y-1990823D01*
X3549884Y-1922325D01*
X3430100Y-1803133D01*
X3339064Y-1664210D01*
X3276777Y-1505554D01*
X3246831Y-1358268D01*
X3236849Y-1197278D01*
X3742431Y-1197278D01*
X3768120Y-1330329D01*
X3866763Y-1453152D01*
X4005481Y-1524808D01*
X4152943Y-1565200D01*
X4308118Y-1591076D01*
X4460548Y-1606222D01*
X4630908Y-1614878D01*
X4786570Y-1617132D01*
X4943198Y-1614878D01*
X5114244Y-1606222D01*
X5266846Y-1591076D01*
X5421571Y-1565200D01*
X5567658Y-1524808D01*
X5692691Y-1461574D01*
X5795748Y-1342099D01*
X5826311Y-1197278D01*
X5800838Y-1062267D01*
X5703018Y-939169D01*
X5565460Y-869016D01*
X5418960Y-830548D01*
X5264401Y-805904D01*
X5112331Y-791478D01*
X4942178Y-783235D01*
X4786570Y-781089D01*
X4630908Y-783235D01*
X4460548Y-791478D01*
X4308118Y-805904D01*
X4152943Y-830548D01*
X4005481Y-869016D01*
X3878323Y-930827D01*
X3773514Y-1050388D01*
X3742431Y-1197278D01*
X3236849Y-1197278D01*
X3237030Y-1173520D01*
X3248435Y-1015470D01*
X3283194Y-852530D01*
X3341125Y-708457D01*
X3422229Y-583252D01*
X3433971Y-568953D01*
X3539141Y-463680D01*
X3664277Y-374620D01*
X3809380Y-301770D01*
X3952725Y-251326D01*
X3996425Y-239170D01*
X4158212Y-202800D01*
X4307826Y-179273D01*
X4467538Y-162804D01*
X4637348Y-153393D01*
X4786570Y-150942D01*
X4831510Y-151188D01*
G37*
G36*
X4831510Y-2551607D02*
G01*
X5005161Y-2557514D01*
X5169035Y-2571299D01*
X5323131Y-2592960D01*
X5467450Y-2622498D01*
X5634099Y-2670498D01*
X5785471Y-2730805D01*
X5921566Y-2803419D01*
X6017737Y-2870968D01*
X6137950Y-2989292D01*
X6229312Y-3128018D01*
X6291823Y-3287146D01*
X6321876Y-3435338D01*
X6331894Y-3597697D01*
X6331713Y-3621677D01*
X6320308Y-3780925D01*
X6285549Y-3944461D01*
X6227618Y-4088305D01*
X6146514Y-4212456D01*
X6134772Y-4226667D01*
X6029602Y-4331435D01*
X5904466Y-4420359D01*
X5759363Y-4493437D01*
X5616018Y-4544382D01*
X5572335Y-4556893D01*
X5410879Y-4594324D01*
X5261883Y-4618539D01*
X5103098Y-4635489D01*
X4934525Y-4645175D01*
X4786570Y-4647697D01*
X4741091Y-4647447D01*
X4565517Y-4641436D01*
X4400086Y-4627411D01*
X4244799Y-4605372D01*
X4099656Y-4575319D01*
X3932492Y-4526482D01*
X3781177Y-4465123D01*
X3645711Y-4391242D01*
X3549884Y-4322743D01*
X3430100Y-4203552D01*
X3339064Y-4064628D01*
X3276777Y-3905973D01*
X3246831Y-3758686D01*
X3236849Y-3597697D01*
X3742431Y-3597697D01*
X3768120Y-3730747D01*
X3866763Y-3853571D01*
X4005481Y-3925227D01*
X4152943Y-3965618D01*
X4308118Y-3991494D01*
X4460548Y-4006641D01*
X4630908Y-4015296D01*
X4786570Y-4017550D01*
X4943198Y-4015296D01*
X5114244Y-4006641D01*
X5266846Y-3991494D01*
X5421571Y-3965618D01*
X5567658Y-3925227D01*
X5692691Y-3861992D01*
X5795748Y-3742518D01*
X5826311Y-3597697D01*
X5800838Y-3462686D01*
X5703018Y-3339588D01*
X5565460Y-3269435D01*
X5418960Y-3230966D01*
X5264401Y-3206323D01*
X5112331Y-3191897D01*
X4942178Y-3183654D01*
X4786570Y-3181507D01*
X4630908Y-3183654D01*
X4460548Y-3191897D01*
X4308118Y-3206323D01*
X4152943Y-3230966D01*
X4005481Y-3269435D01*
X3878323Y-3331246D01*
X3773514Y-3450806D01*
X3742431Y-3597697D01*
X3236849Y-3597697D01*
X3237030Y-3573939D01*
X3248435Y-3415889D01*
X3283194Y-3252948D01*
X3341125Y-3108876D01*
X3422229Y-2983671D01*
X3433971Y-2969372D01*
X3539141Y-2864099D01*
X3664277Y-2775038D01*
X3809380Y-2702189D01*
X3952725Y-2651744D01*
X3996425Y-2639589D01*
X4158212Y-2603219D01*
X4307826Y-2579692D01*
X4467538Y-2563222D01*
X4637348Y-2553811D01*
X4786570Y-2551361D01*
X4831510Y-2551607D01*
G37*
D11*
%TO.C,Q4*%
X-19550000Y6730001D02*
X-19550000Y800001D01*
X-19550000Y800001D02*
X-14050000Y800001D01*
X-14050000Y800001D02*
X-14050000Y7600001D01*
X-19320000Y7240001D02*
X-19650000Y7000001D01*
X-19650000Y7480001D01*
X-19320000Y7240001D01*
G36*
X-19320000Y7240001D02*
G01*
X-19650000Y7000001D01*
X-19650000Y7480001D01*
X-19320000Y7240001D01*
G37*
%TO.C,R24*%
X21822936Y18210000D02*
X26177064Y18210000D01*
X21822936Y14790000D02*
X26177064Y14790000D01*
%TO.C,R15*%
X-26177064Y18210000D02*
X-21822936Y18210000D01*
X-26177064Y14790000D02*
X-21822936Y14790000D01*
%TO.C,U8*%
X-25950000Y24310000D02*
X-24000000Y24310000D01*
X-25950000Y19190000D02*
X-24000000Y19190000D01*
X-22050000Y24310000D02*
X-24000000Y24310000D01*
X-22050000Y19190000D02*
X-24000000Y19190000D01*
X-26460000Y18955000D02*
X-26940000Y18955000D01*
X-26700000Y19285000D01*
X-26460000Y18955000D01*
G36*
X-26460000Y18955000D02*
G01*
X-26940000Y18955000D01*
X-26700000Y19285000D01*
X-26460000Y18955000D01*
G37*
%TO.C,Q8*%
X-13650000Y-500000D02*
X-13650000Y-7300000D01*
X-8150000Y-500000D02*
X-13650000Y-500000D01*
X-8150000Y-6430000D02*
X-8150000Y-500000D01*
X-8050000Y-7180000D02*
X-8380000Y-6940000D01*
X-8050000Y-6700000D01*
X-8050000Y-7180000D01*
G36*
X-8050000Y-7180000D02*
G01*
X-8380000Y-6940000D01*
X-8050000Y-6700000D01*
X-8050000Y-7180000D01*
G37*
%TO.C,R25*%
X26177064Y2210000D02*
X21822936Y2210000D01*
X26177064Y-1210000D02*
X21822936Y-1210000D01*
%TO.C,Q11*%
X8150000Y16230000D02*
X8150000Y10300000D01*
X8150000Y10300000D02*
X13650000Y10300000D01*
X13650000Y10300000D02*
X13650000Y17100000D01*
X8380000Y16740000D02*
X8050000Y16500000D01*
X8050000Y16980000D01*
X8380000Y16740000D01*
G36*
X8380000Y16740000D02*
G01*
X8050000Y16500000D01*
X8050000Y16980000D01*
X8380000Y16740000D01*
G37*
%TO.C,U14*%
X22050000Y24310000D02*
X24000000Y24310000D01*
X22050000Y19190000D02*
X24000000Y19190000D01*
X25950000Y24310000D02*
X24000000Y24310000D01*
X25950000Y19190000D02*
X24000000Y19190000D01*
X21540000Y18955000D02*
X21060000Y18955000D01*
X21300000Y19285000D01*
X21540000Y18955000D01*
G36*
X21540000Y18955000D02*
G01*
X21060000Y18955000D01*
X21300000Y19285000D01*
X21540000Y18955000D01*
G37*
%TO.C,Q10*%
X-13650000Y8000000D02*
X-13650000Y1200000D01*
X-8150000Y8000000D02*
X-13650000Y8000000D01*
X-8150000Y2070000D02*
X-8150000Y8000000D01*
X-8050000Y1320000D02*
X-8380000Y1560000D01*
X-8050000Y1800000D01*
X-8050000Y1320000D01*
G36*
X-8050000Y1320000D02*
G01*
X-8380000Y1560000D01*
X-8050000Y1800000D01*
X-8050000Y1320000D01*
G37*
%TO.C,Q6*%
X14050000Y500000D02*
X14050000Y-6300000D01*
X19550000Y500000D02*
X14050000Y500000D01*
X19550000Y-5430000D02*
X19550000Y500000D01*
X19650000Y-6180000D02*
X19320000Y-5940000D01*
X19650000Y-5700000D01*
X19650000Y-6180000D01*
G36*
X19650000Y-6180000D02*
G01*
X19320000Y-5940000D01*
X19650000Y-5700000D01*
X19650000Y-6180000D01*
G37*
%TO.C,Q13*%
X8150000Y7730000D02*
X8150000Y1800000D01*
X8150000Y1800000D02*
X13650000Y1800000D01*
X13650000Y1800000D02*
X13650000Y8600000D01*
X8380000Y8240000D02*
X8050000Y8000000D01*
X8050000Y8480000D01*
X8380000Y8240000D01*
G36*
X8380000Y8240000D02*
G01*
X8050000Y8000000D01*
X8050000Y8480000D01*
X8380000Y8240000D01*
G37*
%TO.C,U7*%
X-27450000Y-1640000D02*
X-25500000Y-1640000D01*
X-27450000Y-6760000D02*
X-25500000Y-6760000D01*
X-23550000Y-1640000D02*
X-25500000Y-1640000D01*
X-23550000Y-6760000D02*
X-25500000Y-6760000D01*
X-22800000Y-1735000D02*
X-23040000Y-1405000D01*
X-22560000Y-1405000D01*
X-22800000Y-1735000D01*
G36*
X-22800000Y-1735000D02*
G01*
X-23040000Y-1405000D01*
X-22560000Y-1405000D01*
X-22800000Y-1735000D01*
G37*
%TO.C,U15*%
X23450000Y-1740000D02*
X25400000Y-1740000D01*
X23450000Y-6860000D02*
X25400000Y-6860000D01*
X27350000Y-1740000D02*
X25400000Y-1740000D01*
X27350000Y-6860000D02*
X25400000Y-6860000D01*
X28100000Y-1835000D02*
X27860000Y-1505000D01*
X28340000Y-1505000D01*
X28100000Y-1835000D01*
G36*
X28100000Y-1835000D02*
G01*
X27860000Y-1505000D01*
X28340000Y-1505000D01*
X28100000Y-1835000D01*
G37*
%TO.C,Q9*%
X-13650000Y16500000D02*
X-13650000Y9700000D01*
X-8150000Y16500000D02*
X-13650000Y16500000D01*
X-8150000Y10570000D02*
X-8150000Y16500000D01*
X-8050000Y9820000D02*
X-8380000Y10060000D01*
X-8050000Y10300000D01*
X-8050000Y9820000D01*
G36*
X-8050000Y9820000D02*
G01*
X-8380000Y10060000D01*
X-8050000Y10300000D01*
X-8050000Y9820000D01*
G37*
%TO.C,Q1*%
X4552500Y-11530000D02*
X4552500Y-17950000D01*
X4822500Y-11530000D02*
X4552500Y-11530000D01*
X11182500Y-11530000D02*
X11452500Y-11530000D01*
X11452500Y-11530000D02*
X11452500Y-17950000D01*
X4862500Y-10110000D02*
X4532500Y-10350000D01*
X4532500Y-9870000D01*
X4862500Y-10110000D01*
G36*
X4862500Y-10110000D02*
G01*
X4532500Y-10350000D01*
X4532500Y-9870000D01*
X4862500Y-10110000D01*
G37*
%TO.C,Q2*%
X-19550000Y-1769999D02*
X-19550000Y-7699999D01*
X-19550000Y-7699999D02*
X-14050000Y-7699999D01*
X-14050000Y-7699999D02*
X-14050000Y-899999D01*
X-19320000Y-1259999D02*
X-19650000Y-1499999D01*
X-19650000Y-1019999D01*
X-19320000Y-1259999D01*
G36*
X-19320000Y-1259999D02*
G01*
X-19650000Y-1499999D01*
X-19650000Y-1019999D01*
X-19320000Y-1259999D01*
G37*
%TO.C,Q5*%
X14050000Y17500000D02*
X14050000Y10700000D01*
X19550000Y17500000D02*
X14050000Y17500000D01*
X19550000Y11570000D02*
X19550000Y17500000D01*
X19650000Y10820000D02*
X19320000Y11060000D01*
X19650000Y11300000D01*
X19650000Y10820000D01*
G36*
X19650000Y10820000D02*
G01*
X19320000Y11060000D01*
X19650000Y11300000D01*
X19650000Y10820000D01*
G37*
%TO.C,Q12*%
X8150000Y-770000D02*
X8150000Y-6700000D01*
X8150000Y-6700000D02*
X13650000Y-6700000D01*
X13650000Y-6700000D02*
X13650000Y100000D01*
X8380000Y-260000D02*
X8050000Y-500000D01*
X8050000Y-20000D01*
X8380000Y-260000D01*
G36*
X8380000Y-260000D02*
G01*
X8050000Y-500000D01*
X8050000Y-20000D01*
X8380000Y-260000D01*
G37*
%TO.C,R14*%
X-21822936Y2210000D02*
X-26177064Y2210000D01*
X-21822936Y-1210000D02*
X-26177064Y-1210000D01*
%TO.C,Q3*%
X-19550000Y15230001D02*
X-19550000Y9300001D01*
X-19550000Y9300001D02*
X-14050000Y9300001D01*
X-14050000Y9300001D02*
X-14050000Y16100001D01*
X-19320000Y15740001D02*
X-19650000Y15500001D01*
X-19650000Y15980001D01*
X-19320000Y15740001D01*
G36*
X-19320000Y15740001D02*
G01*
X-19650000Y15500001D01*
X-19650000Y15980001D01*
X-19320000Y15740001D01*
G37*
%TO.C,Q7*%
X14050000Y9000000D02*
X14050000Y2200000D01*
X19550000Y9000000D02*
X14050000Y9000000D01*
X19550000Y3070000D02*
X19550000Y9000000D01*
X19650000Y2320000D02*
X19320000Y2560000D01*
X19650000Y2800000D01*
X19650000Y2320000D01*
G36*
X19650000Y2320000D02*
G01*
X19320000Y2560000D01*
X19650000Y2800000D01*
X19650000Y2320000D01*
G37*
%TD*%
%LPC*%
D12*
%TO.C,H1*%
X-31500000Y-16500000D03*
D13*
X-31500000Y-16500000D03*
%TD*%
D12*
%TO.C,H4*%
X-31500000Y21500000D03*
D13*
X-31500000Y21500000D03*
%TD*%
D14*
%TO.C,J2*%
X2890000Y18395000D03*
X-2890000Y18395000D03*
D15*
X4320000Y17895000D03*
D16*
X4320000Y22075000D03*
D15*
X-4320000Y17895000D03*
D16*
X-4320000Y22075000D03*
%TD*%
D12*
%TO.C,H3*%
X31500000Y21500000D03*
D13*
X31500000Y21500000D03*
%TD*%
D17*
%TO.C,J8*%
X32400000Y-11200000D03*
D18*
X30400000Y-11200000D03*
X28400000Y-11200000D03*
X26400000Y-11200000D03*
X24400000Y-11200000D03*
X22400000Y-11200000D03*
%TD*%
D17*
%TO.C,J9*%
X-15500000Y-16750000D03*
D18*
X-17500000Y-16750000D03*
X-19500000Y-16750000D03*
X-21500000Y-16750000D03*
X-23500000Y-16750000D03*
X-25500000Y-16750000D03*
%TD*%
D19*
%TO.C,J5*%
X-28500000Y3500000D03*
D20*
X-28500000Y8500000D03*
X-28500000Y13500000D03*
%TD*%
D17*
%TO.C,J7*%
X25500000Y-16750000D03*
D18*
X23500000Y-16750000D03*
X21500000Y-16750000D03*
X19500000Y-16750000D03*
X17500000Y-16750000D03*
X15500000Y-16750000D03*
%TD*%
D19*
%TO.C,J6*%
X28500000Y13500000D03*
D20*
X28500000Y8500000D03*
X28500000Y3500000D03*
%TD*%
D12*
%TO.C,H2*%
X31500000Y-16500000D03*
D13*
X31500000Y-16500000D03*
%TD*%
D21*
%TO.C,J11*%
X-2504000Y-16000000D03*
D22*
X2576000Y-16000000D03*
%TD*%
D17*
%TO.C,J10*%
X-22400000Y-11200000D03*
D18*
X-24400000Y-11200000D03*
X-26400000Y-11200000D03*
X-28400000Y-11200000D03*
X-30400000Y-11200000D03*
X-32400000Y-11200000D03*
%TD*%
D23*
%TO.C,Q4*%
X-16165000Y7225001D03*
X-17435000Y7225001D03*
X-18705000Y7225001D03*
X-14895000Y7225001D03*
D24*
X-16800000Y4500001D03*
%TD*%
D25*
%TO.C,R24*%
X26962500Y16500000D03*
X21037500Y16500000D03*
%TD*%
%TO.C,R15*%
X-21037500Y16500000D03*
X-26962500Y16500000D03*
%TD*%
D26*
%TO.C,U8*%
X-26475000Y19845000D03*
X-26475000Y21115000D03*
X-26475000Y22385000D03*
X-26475000Y23655000D03*
X-21525000Y23655000D03*
X-21525000Y22385000D03*
X-21525000Y21115000D03*
X-21525000Y19845000D03*
%TD*%
D27*
%TO.C,Q8*%
X-11535000Y-6925000D03*
X-10265000Y-6925000D03*
X-8995000Y-6925000D03*
X-12805000Y-6925000D03*
D28*
X-10900000Y-4200000D03*
%TD*%
D29*
%TO.C,R25*%
X21037500Y500000D03*
X26962500Y500000D03*
%TD*%
D23*
%TO.C,Q11*%
X11535000Y16725000D03*
X10265000Y16725000D03*
X8995000Y16725000D03*
X12805000Y16725000D03*
D24*
X10900000Y14000000D03*
%TD*%
D26*
%TO.C,U14*%
X21525000Y19845000D03*
X21525000Y21115000D03*
X21525000Y22385000D03*
X21525000Y23655000D03*
X26475000Y23655000D03*
X26475000Y22385000D03*
X26475000Y21115000D03*
X26475000Y19845000D03*
%TD*%
D27*
%TO.C,Q10*%
X-11535000Y1575000D03*
X-10265000Y1575000D03*
X-8995000Y1575000D03*
X-12805000Y1575000D03*
D28*
X-10900000Y4300000D03*
%TD*%
D27*
%TO.C,Q6*%
X16165000Y-5925000D03*
X17435000Y-5925000D03*
X18705000Y-5925000D03*
X14895000Y-5925000D03*
D28*
X16800000Y-3200000D03*
%TD*%
D23*
%TO.C,Q13*%
X11535000Y8225000D03*
X10265000Y8225000D03*
X8995000Y8225000D03*
X12805000Y8225000D03*
D24*
X10900000Y5500000D03*
%TD*%
D30*
%TO.C,U16*%
X-4875000Y15000000D03*
X-4225000Y15000000D03*
X-3575000Y15000000D03*
X-2925000Y15000000D03*
X-2275000Y15000000D03*
X-1625000Y15000000D03*
X-975000Y15000000D03*
X-325000Y15000000D03*
X325000Y15000000D03*
X975000Y15000000D03*
X1625000Y15000000D03*
X2275000Y15000000D03*
X2925000Y15000000D03*
X3575000Y15000000D03*
X4225000Y15000000D03*
X4875000Y15000000D03*
%TD*%
D31*
%TO.C,U7*%
X-23025000Y-2295000D03*
X-23025000Y-3565000D03*
X-23025000Y-4835000D03*
X-23025000Y-6105000D03*
X-27975000Y-6105000D03*
X-27975000Y-4835000D03*
X-27975000Y-3565000D03*
X-27975000Y-2295000D03*
%TD*%
%TO.C,U15*%
X27875000Y-2395000D03*
X27875000Y-3665000D03*
X27875000Y-4935000D03*
X27875000Y-6205000D03*
X22925000Y-6205000D03*
X22925000Y-4935000D03*
X22925000Y-3665000D03*
X22925000Y-2395000D03*
%TD*%
D27*
%TO.C,Q9*%
X-11535000Y10075000D03*
X-10265000Y10075000D03*
X-8995000Y10075000D03*
X-12805000Y10075000D03*
D28*
X-10900000Y12800000D03*
%TD*%
D32*
%TO.C,Q1*%
X5722500Y-9800000D03*
D33*
X8002500Y-16100000D03*
D32*
X10282500Y-9800000D03*
%TD*%
D23*
%TO.C,Q2*%
X-16165000Y-1274999D03*
X-17435000Y-1274999D03*
X-18705000Y-1274999D03*
X-14895000Y-1274999D03*
D24*
X-16800000Y-3999999D03*
%TD*%
D27*
%TO.C,Q5*%
X16165000Y11075000D03*
X17435000Y11075000D03*
X18705000Y11075000D03*
X14895000Y11075000D03*
D28*
X16800000Y13800000D03*
%TD*%
D23*
%TO.C,Q12*%
X11535000Y-275000D03*
X10265000Y-275000D03*
X8995000Y-275000D03*
X12805000Y-275000D03*
D24*
X10900000Y-3000000D03*
%TD*%
D29*
%TO.C,R14*%
X-26962500Y500000D03*
X-21037500Y500000D03*
%TD*%
D23*
%TO.C,Q3*%
X-16165000Y15725001D03*
X-17435000Y15725001D03*
X-18705000Y15725001D03*
X-14895000Y15725001D03*
D24*
X-16800000Y13000001D03*
%TD*%
D27*
%TO.C,Q7*%
X16165000Y2575000D03*
X17435000Y2575000D03*
X18705000Y2575000D03*
X14895000Y2575000D03*
D28*
X16800000Y5300000D03*
%TD*%
%LPD*%
M02*
