M48
; DRILL file {KiCad 8.0.2} date 2024-05-05T15:17:45+0200
; FORMAT={-:-/ absolute / inch / decimal}
; #@! TF.CreationDate,2024-05-05T15:17:45+02:00
; #@! TF.GenerationSoftware,Kicad,Pcbnew,8.0.2
; #@! TF.FileFunction,Plated,1,4,PTH
FMAT,2
INCH
; #@! TA.AperFunction,Plated,PTH,ViaDrill
T1C0.0118
; #@! TA.AperFunction,Plated,PTH,ComponentDrill
T2C0.0236
; #@! TA.AperFunction,Plated,PTH,ComponentDrill
T3C0.0295
; #@! TA.AperFunction,Plated,PTH,ComponentDrill
T4C0.0520
; #@! TA.AperFunction,Plated,PTH,ComponentDrill
T5C0.0598
; #@! TA.AperFunction,Plated,PTH,ComponentDrill
T6C0.1260
%
G90
G05
T1
X-1.3386Y-0.0984
X-1.3386Y-0.1969
X-1.2992Y-0.0984
X-1.2992Y-0.1969
X-1.2598Y-0.0984
X-1.2598Y-0.1969
X-1.1811Y-0.0984
X-1.1811Y-0.1378
X-1.1811Y-0.1772
X-1.1811Y-0.2165
X-1.0472Y-0.2874
X-0.9803Y0.9331
X-0.9764Y-0.248
X-0.9252Y0.876
X-0.9252Y0.8465
X-0.9252Y0.8169
X-0.9252Y0.7874
X-0.9094Y0.9331
X-0.9055Y-0.2835
X-0.7795Y0.9449
X-0.7677Y0.7677
X-0.7677Y0.7382
X-0.7382Y0.7677
X-0.7382Y0.7382
X-0.7087Y0.7677
X-0.7087Y0.7382
X-0.6969Y-0.4094
X-0.6969Y-0.5512
X-0.6791Y0.7677
X-0.6791Y0.7382
X-0.6693Y0.6614
X-0.6693Y0.5728
X-0.6693Y0.3268
X-0.6693Y0.2382
X-0.6693Y-0.0079
X-0.6693Y-0.0965
X-0.6654Y0.9291
X-0.6614Y0.5118
X-0.6614Y0.1772
X-0.6614Y-0.1575
X-0.6417Y-0.4055
X-0.6417Y-0.4921
X-0.6398Y0.6614
X-0.6398Y0.5728
X-0.6398Y0.3268
X-0.6398Y0.2382
X-0.6398Y-0.0079
X-0.6398Y-0.0965
X-0.6102Y0.6614
X-0.6102Y0.5728
X-0.6102Y0.3268
X-0.6102Y0.2382
X-0.6102Y-0.0079
X-0.6102Y-0.0965
X-0.5864Y0.6191
X-0.5864Y0.2844
X-0.5864Y-0.0502
X-0.5846Y0.2382
X-0.5807Y0.5728
X-0.5807Y-0.0965
X-0.5276Y0.3228
X-0.5236Y-0.0079
X-0.5157Y0.6614
X-0.5041Y0.3967
X-0.5041Y0.062
X-0.5041Y-0.2726
X-0.502Y0.876
X-0.502Y0.8465
X-0.502Y0.8169
X-0.502Y0.7874
X-0.4764Y-0.1339
X-0.4764Y-0.1732
X-0.4724Y-0.0472
X-0.4646Y0.1654
X-0.4449Y0.624
X-0.4449Y0.5846
X-0.4449Y0.5453
X-0.4449Y-0.5354
X-0.4409Y-0.4213
X-0.4409Y-0.4449
X-0.4409Y-0.4685
X-0.437Y-0.1339
X-0.437Y-0.1732
X-0.4331Y0.2894
X-0.4331Y0.25
X-0.4331Y-0.0472
X-0.4291Y0.3268
X-0.4252Y0.0
X-0.4252Y-0.3189
X-0.4173Y-0.4449
X-0.4055Y0.624
X-0.4055Y0.5846
X-0.4055Y0.5453
X-0.3937Y0.25
X-0.3819Y0.1417
X-0.3307Y0.4961
X-0.3071Y0.1417
X-0.3071Y-0.0236
X-0.2874Y0.3346
X-0.2835Y0.5
X-0.2835Y-0.2165
X-0.2795Y0.622
X-0.2795Y0.4173
X-0.2756Y-0.2953
X-0.2717Y-0.3425
X-0.2638Y0.7126
X-0.2362Y0.4035
X-0.2362Y0.2598
X-0.2314Y0.3794
X-0.2303Y0.7224
X-0.2244Y0.5748
X-0.2244Y0.0906
X-0.2244Y-0.2205
X-0.2106Y0.6929
X-0.1969Y0.0709
X-0.185Y0.6496
X-0.1811Y0.5512
X-0.1772Y-0.2362
X-0.1496Y0.6496
X-0.1496Y-0.1024
X-0.1496Y-0.3071
X-0.1339Y0.3268
X-0.128Y-0.0295
X-0.1142Y0.622
X-0.1024Y0.4016
X-0.1024Y0.0079
X-0.0984Y0.2953
X-0.0945Y-0.2677
X-0.0906Y0.6417
X-0.0866Y0.252
X-0.0866Y0.2283
X-0.0866Y0.2047
X-0.0866Y0.1811
X-0.0866Y0.1496
X-0.0866Y0.0276
X-0.0748Y0.2795
X-0.0669Y0.0079
X-0.063Y0.5433
X-0.0472Y0.0236
X-0.0433Y0.4921
X-0.0394Y0.0984
X-0.0276Y0.752
X-0.0236Y0.5433
X-0.0197Y0.2165
X-0.0197Y0.1772
X-0.0039Y0.3898
X0.0Y-0.2441
X0.0118Y0.0157
X0.0157Y0.3701
X0.0197Y0.2165
X0.0197Y0.1772
X0.0512Y-0.2165
X0.0551Y0.5433
X0.0591Y-0.0295
X0.0689Y-0.1378
X0.0837Y-0.0295
X0.0866Y0.5157
X0.0866Y0.2913
X0.0945Y0.1575
X0.0984Y0.2165
X0.0984Y-0.2992
X0.1083Y-0.1378
X0.1102Y0.4902
X0.122Y-0.2165
X0.126Y-0.2835
X0.1299Y0.0079
X0.1496Y0.5
X0.1535Y0.0236
X0.1535Y-0.3268
X0.1535Y-0.3504
X0.1693Y0.0748
X0.1732Y0.7795
X0.1811Y0.0984
X0.185Y0.5039
X0.189Y0.937
X0.2087Y0.0984
X0.2244Y0.6063
X0.2253Y-0.3858
X0.2323Y0.4016
X0.2362Y0.0984
X0.2402Y0.1299
X0.2402Y0.0551
X0.252Y0.937
X0.2559Y0.7795
X0.2756Y-0.1732
X0.2835Y0.0669
X0.2874Y0.2283
X0.2874Y0.189
X0.3031Y0.7244
X0.3067Y0.545
X0.3071Y0.1457
X0.311Y0.0669
X0.315Y-0.3602
X0.3189Y0.5205
X0.3189Y0.4843
X0.3189Y0.2795
X0.3189Y0.248
X0.3189Y0.2126
X0.3228Y0.6063
X0.3622Y0.5787
X0.3622Y0.5354
X0.3858Y0.1378
X0.3858Y0.0945
X0.3976Y-0.1969
X0.3976Y-0.2402
X0.4055Y0.5787
X0.4055Y0.5354
X0.4252Y0.7244
X0.4291Y0.1378
X0.4291Y0.0945
X0.437Y-0.1969
X0.437Y-0.2402
X0.4488Y0.5787
X0.4488Y0.5354
X0.4528Y-0.374
X0.4528Y-0.4134
X0.4528Y-0.4528
X0.4685Y0.3937
X0.4685Y0.0591
X0.4724Y0.1378
X0.4724Y0.0945
X0.4764Y-0.1969
X0.4764Y-0.2402
X0.4921Y-0.374
X0.4921Y-0.4134
X0.4921Y-0.4528
X0.502Y0.876
X0.502Y0.8425
X0.502Y0.8091
X0.502Y0.7756
X0.5041Y0.6585
X0.5041Y0.3238
X0.5041Y-0.0108
X0.5236Y-0.2717
X0.5807Y-0.187
X0.5864Y0.436
X0.5864Y0.1014
X0.5864Y-0.2333
X0.5886Y0.4823
X0.5886Y0.1476
X0.6063Y0.3937
X0.6063Y0.0591
X0.6102Y-0.2756
X0.6142Y0.4646
X0.6142Y0.1339
X0.6142Y-0.1969
X0.6398Y0.4823
X0.6398Y0.3937
X0.6398Y0.1476
X0.6398Y0.0591
X0.6417Y-0.2756
X0.6457Y-0.187
X0.6594Y0.7677
X0.6594Y0.7382
X0.6614Y0.5433
X0.6614Y0.4646
X0.6614Y0.2087
X0.6614Y0.1339
X0.6614Y-0.126
X0.6732Y0.3937
X0.6732Y0.0591
X0.6772Y-0.187
X0.6772Y-0.2756
X0.689Y0.7677
X0.689Y0.7382
X0.7185Y0.7677
X0.7185Y0.7382
X0.748Y0.7677
X0.748Y0.7382
X0.9252Y0.9173
X0.9252Y0.876
X0.9252Y0.8465
X0.9252Y0.8169
X0.9252Y0.7874
X0.9606Y-0.1929
X0.9843Y0.937
X1.0394Y-0.3504
X1.0512Y-0.2953
X1.1102Y0.9528
X1.1102Y0.9173
X1.1614Y-0.0984
X1.1614Y-0.1378
X1.1614Y-0.1772
X1.1614Y-0.2165
X1.1614Y-0.248
X1.2402Y-0.0984
X1.2402Y-0.1969
X1.2795Y-0.0984
X1.2795Y-0.1969
X1.3189Y-0.0984
X1.3189Y-0.1969
T3
X-1.2756Y-0.4409
X-1.1969Y-0.4409
X-1.1181Y-0.4409
X-1.0394Y-0.4409
X-1.0039Y-0.6594
X-0.9606Y-0.4409
X-0.9252Y-0.6594
X-0.8819Y-0.4409
X-0.8465Y-0.6594
X-0.7677Y-0.6594
X-0.689Y-0.6594
X-0.6102Y-0.6594
X0.6102Y-0.6594
X0.689Y-0.6594
X0.7677Y-0.6594
X0.8465Y-0.6594
X0.8819Y-0.4409
X0.9252Y-0.6594
X0.9606Y-0.4409
X1.0039Y-0.6594
X1.0394Y-0.4409
X1.1181Y-0.4409
X1.1969Y-0.4409
X1.2756Y-0.4409
T4
X-1.122Y0.5315
X-1.122Y0.3346
X-1.122Y0.1378
X1.122Y0.5315
X1.122Y0.3346
X1.122Y0.1378
T5
X-0.0986Y-0.6299
X0.1014Y-0.6299
T6
X-1.2402Y0.8465
X-1.2402Y-0.6496
X1.2402Y0.8465
X1.2402Y-0.6496
T2
G00X-0.1701Y0.8573
M15
G01X-0.1701Y0.8809
M16
G05
G00X-0.1701Y0.6829
M15
G01X-0.1701Y0.7262
M16
G05
G00X0.1701Y0.8573
M15
G01X0.1701Y0.8809
M16
G05
G00X0.1701Y0.6829
M15
G01X0.1701Y0.7262
M16
G05
M30
